%TF.GenerationSoftware,KiCad,Pcbnew,9.0.1*%
%TF.CreationDate,2026-07-24T08:51:14-04:00*%
%TF.ProjectId,Metronome,4d657472-6f6e-46f6-9d65-2e6b69636164,rev?*%
%TF.SameCoordinates,Original*%
%TF.FileFunction,Copper,L1,Top*%
%TF.FilePolarity,Positive*%
%FSLAX46Y46*%
G04 Gerber Fmt 4.6, Leading zero omitted, Abs format (unit mm)*
G04 Created by KiCad (PCBNEW 9.0.1) date 2026-07-24 08:51:14*
%MOMM*%
%LPD*%
G01*
G04 APERTURE LIST*
G04 Aperture macros list*
%AMRoundRect*
0 Rectangle with rounded corners*
0 $1 Rounding radius*
0 $2 $3 $4 $5 $6 $7 $8 $9 X,Y pos of 4 corners*
0 Add a 4 corners polygon primitive as box body*
4,1,4,$2,$3,$4,$5,$6,$7,$8,$9,$2,$3,0*
0 Add four circle primitives for the rounded corners*
1,1,$1+$1,$2,$3*
1,1,$1+$1,$4,$5*
1,1,$1+$1,$6,$7*
1,1,$1+$1,$8,$9*
0 Add four rect primitives between the rounded corners*
20,1,$1+$1,$2,$3,$4,$5,0*
20,1,$1+$1,$4,$5,$6,$7,0*
20,1,$1+$1,$6,$7,$8,$9,0*
20,1,$1+$1,$8,$9,$2,$3,0*%
G04 Aperture macros list end*
%TA.AperFunction,ComponentPad*%
%ADD10C,1.400000*%
%TD*%
%TA.AperFunction,ComponentPad*%
%ADD11O,1.400000X1.400000*%
%TD*%
%TA.AperFunction,ComponentPad*%
%ADD12RoundRect,0.250000X0.750000X-0.600000X0.750000X0.600000X-0.750000X0.600000X-0.750000X-0.600000X0*%
%TD*%
%TA.AperFunction,ComponentPad*%
%ADD13O,2.000000X1.700000*%
%TD*%
%TA.AperFunction,ComponentPad*%
%ADD14O,1.400000X2.500000*%
%TD*%
%TA.AperFunction,ComponentPad*%
%ADD15C,2.500000*%
%TD*%
%TA.AperFunction,ComponentPad*%
%ADD16RoundRect,0.250000X-0.600000X-0.725000X0.600000X-0.725000X0.600000X0.725000X-0.600000X0.725000X0*%
%TD*%
%TA.AperFunction,ComponentPad*%
%ADD17O,1.700000X1.950000*%
%TD*%
%TA.AperFunction,ComponentPad*%
%ADD18R,1.308000X1.308000*%
%TD*%
%TA.AperFunction,ComponentPad*%
%ADD19C,1.308000*%
%TD*%
%TA.AperFunction,ComponentPad*%
%ADD20RoundRect,0.250000X-0.600000X-0.750000X0.600000X-0.750000X0.600000X0.750000X-0.600000X0.750000X0*%
%TD*%
%TA.AperFunction,ComponentPad*%
%ADD21O,1.700000X2.000000*%
%TD*%
%TA.AperFunction,ComponentPad*%
%ADD22R,1.600000X1.600000*%
%TD*%
%TA.AperFunction,ComponentPad*%
%ADD23O,1.600000X1.600000*%
%TD*%
%TA.AperFunction,ComponentPad*%
%ADD24C,1.800000*%
%TD*%
%TA.AperFunction,ViaPad*%
%ADD25C,0.600000*%
%TD*%
%TA.AperFunction,Conductor*%
%ADD26C,0.200000*%
%TD*%
G04 APERTURE END LIST*
D10*
%TO.P,R3,1*%
%TO.N,Net-(A1-A1)*%
X121960000Y-142500000D03*
D11*
%TO.P,R3,2*%
%TO.N,GND*%
X127040000Y-142500000D03*
%TD*%
D12*
%TO.P,J3,1,SPK1*%
%TO.N,Net-(J3-SPK1)*%
X163000000Y-136000000D03*
D13*
%TO.P,J3,2,SPK2*%
%TO.N,Net-(J3-SPK2)*%
X163000000Y-133500000D03*
%TD*%
D14*
%TO.P,U4,1,L*%
%TO.N,unconnected-(U4-L-Pad1)*%
X103400000Y-120000000D03*
%TO.P,U4,2,P1*%
%TO.N,GND*%
X105800000Y-120000000D03*
%TO.P,U4,3,R*%
%TO.N,Net-(U1-SPK2)*%
X108200000Y-120000000D03*
D15*
%TO.P,U4,4,GND*%
%TO.N,GND*%
X121200000Y-120000000D03*
%TO.P,U4,5,VCC*%
%TO.N,+9V*%
X128500000Y-120000000D03*
%TO.P,U4,6,L+*%
%TO.N,unconnected-(U4-L+-Pad6)*%
X101300000Y-80200000D03*
%TO.P,U4,7,L-*%
%TO.N,unconnected-(U4-L--Pad7)*%
X108600000Y-80200000D03*
%TO.P,U4,8,R+*%
%TO.N,Net-(J3-SPK2)*%
X121200000Y-80200000D03*
%TO.P,U4,9,R-*%
%TO.N,Net-(J3-SPK1)*%
X128500000Y-80200000D03*
%TD*%
D16*
%TO.P,J6,1,A*%
%TO.N,Net-(A1-D2)*%
X125000000Y-154000000D03*
D17*
%TO.P,J6,2,B*%
%TO.N,GND*%
X127500000Y-154000000D03*
%TO.P,J6,3,C*%
%TO.N,Net-(A1-D3)*%
X130000000Y-154000000D03*
%TO.P,J6,4,S1*%
%TO.N,Net-(A1-D9)*%
X132500000Y-154000000D03*
%TO.P,J6,5,S2*%
%TO.N,GND*%
X135000000Y-154000000D03*
%TD*%
D10*
%TO.P,R2,1*%
%TO.N,Net-(A1-A1)*%
X121960000Y-137000000D03*
D11*
%TO.P,R2,2*%
%TO.N,+9V*%
X127040000Y-137000000D03*
%TD*%
D18*
%TO.P,U1,1,VCC*%
%TO.N,+5V*%
X93460000Y-146517000D03*
D19*
%TO.P,U1,2,RX*%
%TO.N,Net-(U1-RX)*%
X96000000Y-146517000D03*
%TO.P,U1,3,TX*%
%TO.N,Net-(A1-D11)*%
X98540000Y-146517000D03*
%TO.P,U1,4,DAC_R*%
%TO.N,unconnected-(U1-DAC_R-Pad4)*%
X101080000Y-146517000D03*
%TO.P,U1,5,DAC_L*%
%TO.N,unconnected-(U1-DAC_L-Pad5)*%
X103620000Y-146517000D03*
%TO.P,U1,6,SPK1*%
%TO.N,unconnected-(U1-SPK1-Pad6)*%
X106160000Y-146517000D03*
%TO.P,U1,7,GND*%
%TO.N,GND*%
X108700000Y-146517000D03*
%TO.P,U1,8,SPK2*%
%TO.N,Net-(U1-SPK2)*%
X111240000Y-146517000D03*
%TO.P,U1,9,IO1*%
%TO.N,unconnected-(U1-IO1-Pad9)*%
X111240000Y-128483000D03*
%TO.P,U1,10,GND*%
%TO.N,GND*%
X108700000Y-128483000D03*
%TO.P,U1,11,IO2*%
%TO.N,unconnected-(U1-IO2-Pad11)*%
X106160000Y-128483000D03*
%TO.P,U1,12,ADKEY1*%
%TO.N,unconnected-(U1-ADKEY1-Pad12)*%
X103620000Y-128483000D03*
%TO.P,U1,13,ADKEY2*%
%TO.N,unconnected-(U1-ADKEY2-Pad13)*%
X101080000Y-128483000D03*
%TO.P,U1,14,USB+*%
%TO.N,unconnected-(U1-USB+-Pad14)*%
X98540000Y-128483000D03*
%TO.P,U1,15,USB-*%
%TO.N,unconnected-(U1-USB--Pad15)*%
X96000000Y-128483000D03*
%TO.P,U1,16,BUSY*%
%TO.N,/A0{slash}BUSY*%
X93460000Y-128483000D03*
%TD*%
D20*
%TO.P,J1,1,9V+*%
%TO.N,Net-(J1-9V+)*%
X96500000Y-154000000D03*
D21*
%TO.P,J1,2,9V-*%
%TO.N,GND*%
X99000000Y-154000000D03*
%TD*%
D22*
%TO.P,A1,1,D1/TX*%
%TO.N,unconnected-(A1-D1{slash}TX-Pad1)*%
X165240000Y-118780000D03*
D23*
%TO.P,A1,2,D0/RX*%
%TO.N,unconnected-(A1-D0{slash}RX-Pad2)*%
X165240000Y-116240000D03*
%TO.P,A1,3,~{RESET}*%
%TO.N,unconnected-(A1-~{RESET}-Pad3)*%
X165240000Y-113700000D03*
%TO.P,A1,4,GND*%
%TO.N,unconnected-(A1-GND-Pad4)*%
X165240000Y-111160000D03*
%TO.P,A1,5,D2*%
%TO.N,Net-(A1-D2)*%
X165240000Y-108620000D03*
%TO.P,A1,6,D3*%
%TO.N,Net-(A1-D3)*%
X165240000Y-106080000D03*
%TO.P,A1,7,D4*%
%TO.N,unconnected-(A1-D4-Pad7)*%
X165240000Y-103540000D03*
%TO.P,A1,8,D5*%
%TO.N,unconnected-(A1-D5-Pad8)*%
X165240000Y-101000000D03*
%TO.P,A1,9,D6*%
%TO.N,unconnected-(A1-D6-Pad9)*%
X165240000Y-98460000D03*
%TO.P,A1,10,D7*%
%TO.N,unconnected-(A1-D7-Pad10)*%
X165240000Y-95920000D03*
%TO.P,A1,11,D8*%
%TO.N,unconnected-(A1-D8-Pad11)*%
X165240000Y-93380000D03*
%TO.P,A1,12,D9*%
%TO.N,Net-(A1-D9)*%
X165240000Y-90840000D03*
%TO.P,A1,13,D10*%
%TO.N,unconnected-(A1-D10-Pad13)*%
X165240000Y-88300000D03*
%TO.P,A1,14,D11*%
%TO.N,Net-(A1-D11)*%
X165240000Y-85760000D03*
%TO.P,A1,15,D12*%
%TO.N,Net-(A1-D12)*%
X165240000Y-83220000D03*
%TO.P,A1,16,D13*%
%TO.N,unconnected-(A1-D13-Pad16)*%
X150000000Y-83220000D03*
%TO.P,A1,17,3V3*%
%TO.N,unconnected-(A1-3V3-Pad17)*%
X150000000Y-85760000D03*
%TO.P,A1,18,AREF*%
%TO.N,unconnected-(A1-AREF-Pad18)*%
X150000000Y-88300000D03*
%TO.P,A1,19,A0*%
%TO.N,/A0{slash}BUSY*%
X150000000Y-90840000D03*
%TO.P,A1,20,A1*%
%TO.N,Net-(A1-A1)*%
X150000000Y-93380000D03*
%TO.P,A1,21,A2*%
%TO.N,Net-(A1-A2)*%
X150000000Y-95920000D03*
%TO.P,A1,22,A3*%
%TO.N,unconnected-(A1-A3-Pad22)*%
X150000000Y-98460000D03*
%TO.P,A1,23,A4*%
%TO.N,Net-(A1-A4)*%
X150000000Y-101000000D03*
%TO.P,A1,24,A5*%
%TO.N,Net-(A1-A5)*%
X150000000Y-103540000D03*
%TO.P,A1,25,A6*%
%TO.N,unconnected-(A1-A6-Pad25)*%
X150000000Y-106080000D03*
%TO.P,A1,26,A7*%
%TO.N,unconnected-(A1-A7-Pad26)*%
X150000000Y-108620000D03*
%TO.P,A1,27,+5V*%
%TO.N,+5V*%
X150000000Y-111160000D03*
%TO.P,A1,28,~{RESET}*%
%TO.N,unconnected-(A1-~{RESET}-Pad28)*%
X150000000Y-113700000D03*
%TO.P,A1,29,GND*%
%TO.N,unconnected-(A1-GND-Pad29)*%
X150000000Y-116240000D03*
%TO.P,A1,30,VIN*%
%TO.N,unconnected-(A1-VIN-Pad30)*%
X150000000Y-118780000D03*
%TD*%
D10*
%TO.P,R1,1*%
%TO.N,Net-(A1-D12)*%
X121960000Y-131500000D03*
D11*
%TO.P,R1,2*%
%TO.N,Net-(U1-RX)*%
X127040000Y-131500000D03*
%TD*%
D16*
%TO.P,J5,1,Pin_1*%
%TO.N,GND*%
X160000000Y-154000000D03*
D17*
%TO.P,J5,2,Pin_2*%
%TO.N,Net-(A1-A2)*%
X162500000Y-154000000D03*
%TO.P,J5,3,Pin_3*%
%TO.N,+5V*%
X165000000Y-154000000D03*
%TD*%
D16*
%TO.P,J4,1,SDA*%
%TO.N,Net-(A1-A4)*%
X143500000Y-154000000D03*
D17*
%TO.P,J4,2,SCL*%
%TO.N,Net-(A1-A5)*%
X146000000Y-154000000D03*
%TO.P,J4,3,+5V*%
%TO.N,+5V*%
X148500000Y-154000000D03*
%TO.P,J4,4,GND*%
%TO.N,GND*%
X151000000Y-154000000D03*
%TD*%
D20*
%TO.P,J2,1,S1*%
%TO.N,+9V*%
X111500000Y-154000000D03*
D21*
%TO.P,J2,2,S2*%
%TO.N,Net-(J1-9V+)*%
X114000000Y-154000000D03*
%TD*%
D24*
%TO.P,U2,1,IN+*%
%TO.N,+9V*%
X135702200Y-138318100D03*
%TO.P,U2,2,IN-*%
%TO.N,GND*%
X135702200Y-131718100D03*
%TO.P,U2,3,OUT+*%
%TO.N,+5V*%
X148302200Y-138318100D03*
%TO.P,U2,4,OUT-*%
%TO.N,GND*%
X148302200Y-131718100D03*
%TD*%
D25*
%TO.N,Net-(A1-D2)*%
X164500000Y-126250000D03*
X157250000Y-130500000D03*
X158000000Y-124750000D03*
%TO.N,Net-(A1-A1)*%
X122000000Y-141000000D03*
X125500000Y-125000000D03*
%TO.N,Net-(A1-D9)*%
X139500000Y-150000000D03*
X165750000Y-147250000D03*
%TO.N,Net-(A1-D11)*%
X124750000Y-120250000D03*
X137250000Y-111250000D03*
X144799265Y-104450735D03*
%TO.N,Net-(A1-A5)*%
X159750000Y-140500000D03*
%TO.N,+5V*%
X120750000Y-158700000D03*
%TO.N,Net-(A1-D3)*%
X157750000Y-112500000D03*
X152000000Y-129750000D03*
%TO.N,Net-(A1-A2)*%
X162500000Y-140750000D03*
%TO.N,Net-(A1-D12)*%
X131750000Y-109000000D03*
X144000000Y-100500000D03*
%TO.N,GND*%
X131250000Y-145250000D03*
X121250000Y-126250000D03*
%TD*%
D26*
%TO.N,Net-(A1-D2)*%
X154247240Y-130500000D02*
X157250000Y-130500000D01*
X125000000Y-154000000D02*
X126276000Y-155276000D01*
X130476760Y-155276000D02*
X131151000Y-154601760D01*
X126276000Y-155276000D02*
X130476760Y-155276000D01*
X163000000Y-124750000D02*
X164500000Y-126250000D01*
X131151000Y-154601760D02*
X131151000Y-153596240D01*
X131151000Y-153596240D02*
X154247240Y-130500000D01*
X158000000Y-124750000D02*
X163000000Y-124750000D01*
%TO.N,Net-(A1-A1)*%
X121960000Y-137000000D02*
X125500000Y-133460000D01*
X121960000Y-141040000D02*
X122000000Y-141000000D01*
X121960000Y-142500000D02*
X121960000Y-141040000D01*
X125500000Y-133460000D02*
X125500000Y-125000000D01*
%TO.N,Net-(A1-D9)*%
X169302000Y-94902000D02*
X165240000Y-90840000D01*
X132500000Y-154000000D02*
X136500000Y-150000000D01*
X169302000Y-143698000D02*
X169302000Y-94902000D01*
X136500000Y-150000000D02*
X139500000Y-150000000D01*
X165750000Y-147250000D02*
X169302000Y-143698000D01*
%TO.N,Net-(A1-D11)*%
X165240000Y-85760000D02*
X151101000Y-99899000D01*
X151101000Y-99899000D02*
X149351000Y-99899000D01*
X149351000Y-99899000D02*
X144799265Y-104450735D01*
X132902000Y-111250000D02*
X124750000Y-119402000D01*
X124750000Y-119402000D02*
X124750000Y-120250000D01*
X137250000Y-111250000D02*
X132902000Y-111250000D01*
%TO.N,Net-(A1-A5)*%
X146000000Y-154000000D02*
X146250000Y-154000000D01*
X146250000Y-154000000D02*
X159750000Y-140500000D01*
%TO.N,/A0{slash}BUSY*%
X93460000Y-105746554D02*
X120557554Y-78649000D01*
X93460000Y-128483000D02*
X93460000Y-105746554D01*
X120557554Y-78649000D02*
X137809000Y-78649000D01*
X137809000Y-78649000D02*
X150000000Y-90840000D01*
%TO.N,+5V*%
X142664840Y-155276000D02*
X142349000Y-154960160D01*
X165000000Y-154000000D02*
X160500000Y-158500000D01*
X150500000Y-158500000D02*
X148500000Y-156500000D01*
X160500000Y-158500000D02*
X150500000Y-158500000D01*
X148750000Y-154000000D02*
X149000000Y-154250000D01*
X148500000Y-154000000D02*
X148750000Y-154000000D01*
X147974000Y-155276000D02*
X142664840Y-155276000D01*
X93460000Y-146517000D02*
X105643000Y-158700000D01*
X142349000Y-144271300D02*
X148302200Y-138318100D01*
X149000000Y-154250000D02*
X147974000Y-155276000D01*
X105643000Y-158700000D02*
X120750000Y-158700000D01*
X142349000Y-154960160D02*
X142349000Y-144271300D01*
X148500000Y-156500000D02*
X148500000Y-154000000D01*
%TO.N,Net-(A1-A4)*%
X165166100Y-136401000D02*
X168901000Y-132666100D01*
X160349000Y-137151000D02*
X163985160Y-137151000D01*
X164735160Y-136401000D02*
X165166100Y-136401000D01*
X168901000Y-125963950D02*
X151101000Y-108163950D01*
X163985160Y-137151000D02*
X164735160Y-136401000D01*
X151101000Y-108163950D02*
X151101000Y-102101000D01*
X168901000Y-132666100D02*
X168901000Y-125963950D01*
X151101000Y-102101000D02*
X150000000Y-101000000D01*
X143500000Y-154000000D02*
X160349000Y-137151000D01*
%TO.N,Net-(A1-D3)*%
X130000000Y-154000000D02*
X130000000Y-151750000D01*
X158820000Y-112500000D02*
X165240000Y-106080000D01*
X130000000Y-151750000D02*
X152000000Y-129750000D01*
X157750000Y-112500000D02*
X158820000Y-112500000D01*
%TO.N,Net-(A1-A2)*%
X162500000Y-154000000D02*
X162500000Y-140750000D01*
%TO.N,Net-(A1-D12)*%
X121960000Y-131500000D02*
X122751000Y-130709000D01*
X144000000Y-100362950D02*
X149862950Y-94500000D01*
X122751000Y-117999000D02*
X131750000Y-109000000D01*
X149862950Y-94500000D02*
X153960000Y-94500000D01*
X122751000Y-130709000D02*
X122751000Y-117999000D01*
X144000000Y-100500000D02*
X144000000Y-100362950D01*
X153960000Y-94500000D02*
X165240000Y-83220000D01*
%TO.N,GND*%
X108700000Y-128483000D02*
X105800000Y-125583000D01*
X105800000Y-125583000D02*
X105800000Y-120000000D01*
X148302200Y-131718100D02*
X145781900Y-131718100D01*
X121200000Y-120000000D02*
X121250000Y-120050000D01*
X121250000Y-120050000D02*
X121250000Y-126250000D01*
X131250000Y-142500000D02*
X127040000Y-142500000D01*
X131250000Y-145250000D02*
X131250000Y-142500000D01*
X135000000Y-142500000D02*
X131250000Y-142500000D01*
X108700000Y-146517000D02*
X108700000Y-128483000D01*
X145781900Y-131718100D02*
X135000000Y-142500000D01*
%TO.N,Net-(J1-9V+)*%
X112699000Y-155301000D02*
X114000000Y-154000000D01*
X94415000Y-145562000D02*
X94415000Y-146415000D01*
X103000000Y-155000000D02*
X110363840Y-155000000D01*
X92505000Y-150005000D02*
X92505000Y-145562000D01*
X92505000Y-145562000D02*
X94415000Y-145562000D01*
X96500000Y-154000000D02*
X92505000Y-150005000D01*
X94415000Y-146415000D02*
X103000000Y-155000000D01*
X110363840Y-155000000D02*
X110664840Y-155301000D01*
X110664840Y-155301000D02*
X112699000Y-155301000D01*
%TO.N,+9V*%
X128500000Y-120000000D02*
X128500000Y-135540000D01*
X112222240Y-154000000D02*
X111500000Y-154000000D01*
X128500000Y-135540000D02*
X127040000Y-137000000D01*
X128500000Y-120000000D02*
X128500000Y-137722240D01*
X128500000Y-137722240D02*
X112222240Y-154000000D01*
X128500000Y-120000000D02*
X128500000Y-131115900D01*
X128500000Y-131115900D02*
X135702200Y-138318100D01*
%TO.N,Net-(J3-SPK1)*%
X168500000Y-127500000D02*
X151000000Y-110000000D01*
X149500000Y-110000000D02*
X128500000Y-89000000D01*
X163000000Y-136000000D02*
X165000000Y-136000000D01*
X165000000Y-136000000D02*
X168500000Y-132500000D01*
X168500000Y-132500000D02*
X168500000Y-127500000D01*
X151000000Y-110000000D02*
X149500000Y-110000000D01*
X128500000Y-89000000D02*
X128500000Y-80200000D01*
%TO.N,Net-(J3-SPK2)*%
X121200000Y-91700000D02*
X163000000Y-133500000D01*
X121200000Y-80200000D02*
X121200000Y-91700000D01*
%TO.N,Net-(U1-RX)*%
X127040000Y-134027100D02*
X127040000Y-131500000D01*
X96955000Y-147472000D02*
X113595100Y-147472000D01*
X96000000Y-146517000D02*
X96955000Y-147472000D01*
X113595100Y-147472000D02*
X127040000Y-134027100D01*
%TO.N,Net-(U1-SPK2)*%
X108200000Y-120000000D02*
X114000000Y-125800000D01*
X113483000Y-146517000D02*
X111240000Y-146517000D01*
X114000000Y-125800000D02*
X114000000Y-146500000D01*
X114000000Y-146500000D02*
X113500000Y-146500000D01*
X113500000Y-146500000D02*
X113483000Y-146517000D01*
%TD*%
%TA.AperFunction,Conductor*%
%TO.N,GND*%
G36*
X169211413Y-75193761D02*
G01*
X169278408Y-75213596D01*
X169324044Y-75266502D01*
X169333833Y-75335683D01*
X169304666Y-75399173D01*
X169273139Y-75425145D01*
X169230521Y-75449751D01*
X169230518Y-75449752D01*
X169230513Y-75449756D01*
X169012073Y-75617370D01*
X169012066Y-75617376D01*
X168817376Y-75812066D01*
X168817370Y-75812073D01*
X168649754Y-76030516D01*
X168512080Y-76268971D01*
X168512075Y-76268982D01*
X168406704Y-76523369D01*
X168335441Y-76789331D01*
X168335438Y-76789344D01*
X168299501Y-77062315D01*
X168299500Y-77062332D01*
X168299500Y-77337667D01*
X168299501Y-77337684D01*
X168335438Y-77610655D01*
X168335439Y-77610660D01*
X168335440Y-77610666D01*
X168335441Y-77610668D01*
X168406704Y-77876630D01*
X168512075Y-78131017D01*
X168512080Y-78131028D01*
X168591809Y-78269121D01*
X168649751Y-78369479D01*
X168649753Y-78369482D01*
X168649754Y-78369483D01*
X168817370Y-78587926D01*
X168817376Y-78587933D01*
X169012066Y-78782623D01*
X169012072Y-78782628D01*
X169230521Y-78950249D01*
X169383778Y-79038732D01*
X169468971Y-79087919D01*
X169468976Y-79087921D01*
X169468979Y-79087923D01*
X169723368Y-79193295D01*
X169989334Y-79264560D01*
X170262326Y-79300500D01*
X170262333Y-79300500D01*
X170537667Y-79300500D01*
X170537674Y-79300500D01*
X170810666Y-79264560D01*
X171076632Y-79193295D01*
X171331021Y-79087923D01*
X171569479Y-78950249D01*
X171787928Y-78782628D01*
X171787934Y-78782621D01*
X171790981Y-78779951D01*
X171791613Y-78780671D01*
X171849120Y-78749257D01*
X171918813Y-78754228D01*
X171974754Y-78796090D01*
X171999182Y-78861550D01*
X171999500Y-78870418D01*
X171999500Y-155329581D01*
X171979815Y-155396620D01*
X171927011Y-155442375D01*
X171857853Y-155452319D01*
X171794297Y-155423294D01*
X171788077Y-155417503D01*
X171787926Y-155417370D01*
X171569483Y-155249754D01*
X171569482Y-155249753D01*
X171569479Y-155249751D01*
X171474407Y-155194861D01*
X171331028Y-155112080D01*
X171331017Y-155112075D01*
X171076630Y-155006704D01*
X170943649Y-154971072D01*
X170810666Y-154935440D01*
X170810660Y-154935439D01*
X170810655Y-154935438D01*
X170537684Y-154899501D01*
X170537679Y-154899500D01*
X170537674Y-154899500D01*
X170262326Y-154899500D01*
X170262320Y-154899500D01*
X170262315Y-154899501D01*
X169989344Y-154935438D01*
X169989337Y-154935439D01*
X169989334Y-154935440D01*
X169933125Y-154950500D01*
X169723369Y-155006704D01*
X169468982Y-155112075D01*
X169468971Y-155112080D01*
X169230516Y-155249754D01*
X169012073Y-155417370D01*
X169012066Y-155417376D01*
X168817376Y-155612066D01*
X168817370Y-155612073D01*
X168649754Y-155830516D01*
X168649751Y-155830520D01*
X168649751Y-155830521D01*
X168646832Y-155835577D01*
X168512080Y-156068971D01*
X168512075Y-156068982D01*
X168406704Y-156323369D01*
X168335441Y-156589331D01*
X168335438Y-156589344D01*
X168299501Y-156862315D01*
X168299500Y-156862332D01*
X168299500Y-157137667D01*
X168299501Y-157137684D01*
X168335438Y-157410655D01*
X168335439Y-157410660D01*
X168335440Y-157410666D01*
X168335441Y-157410668D01*
X168406704Y-157676630D01*
X168512075Y-157931017D01*
X168512080Y-157931028D01*
X168588380Y-158063181D01*
X168649751Y-158169479D01*
X168649753Y-158169482D01*
X168649754Y-158169483D01*
X168817370Y-158387926D01*
X168817376Y-158387933D01*
X169012066Y-158582623D01*
X169012073Y-158582629D01*
X169230513Y-158750243D01*
X169230521Y-158750249D01*
X169261466Y-158768115D01*
X169309679Y-158818680D01*
X169322901Y-158887288D01*
X169296933Y-158952152D01*
X169240019Y-158992680D01*
X169199463Y-158999500D01*
X161149096Y-158999500D01*
X161082057Y-158979815D01*
X161036302Y-158927011D01*
X161026358Y-158857853D01*
X161055383Y-158794297D01*
X161061415Y-158787819D01*
X162711567Y-157137667D01*
X164421133Y-155428100D01*
X164482454Y-155394617D01*
X164547126Y-155397851D01*
X164683757Y-155442246D01*
X164893713Y-155475500D01*
X164893714Y-155475500D01*
X165106286Y-155475500D01*
X165106287Y-155475500D01*
X165316243Y-155442246D01*
X165518412Y-155376557D01*
X165707816Y-155280051D01*
X165749521Y-155249751D01*
X165879786Y-155155109D01*
X165879788Y-155155106D01*
X165879792Y-155155104D01*
X166030104Y-155004792D01*
X166030106Y-155004788D01*
X166030109Y-155004786D01*
X166155048Y-154832820D01*
X166155047Y-154832820D01*
X166155051Y-154832816D01*
X166251557Y-154643412D01*
X166317246Y-154441243D01*
X166350500Y-154231287D01*
X166350500Y-153768713D01*
X166317246Y-153558757D01*
X166251557Y-153356588D01*
X166155051Y-153167184D01*
X166155049Y-153167181D01*
X166155048Y-153167179D01*
X166030109Y-152995213D01*
X165879786Y-152844890D01*
X165707820Y-152719951D01*
X165518414Y-152623444D01*
X165518413Y-152623443D01*
X165518412Y-152623443D01*
X165316243Y-152557754D01*
X165316241Y-152557753D01*
X165316240Y-152557753D01*
X165154957Y-152532208D01*
X165106287Y-152524500D01*
X164893713Y-152524500D01*
X164845042Y-152532208D01*
X164683760Y-152557753D01*
X164481585Y-152623444D01*
X164292179Y-152719951D01*
X164120213Y-152844890D01*
X163969894Y-152995209D01*
X163969890Y-152995214D01*
X163850318Y-153159793D01*
X163794989Y-153202459D01*
X163725375Y-153208438D01*
X163663580Y-153175833D01*
X163649682Y-153159793D01*
X163530109Y-152995214D01*
X163530105Y-152995209D01*
X163379786Y-152844890D01*
X163207815Y-152719948D01*
X163207814Y-152719947D01*
X163168205Y-152699765D01*
X163117409Y-152651791D01*
X163100500Y-152589281D01*
X163100500Y-141329765D01*
X163120185Y-141262726D01*
X163121398Y-141260874D01*
X163209390Y-141129185D01*
X163209390Y-141129184D01*
X163209394Y-141129179D01*
X163269737Y-140983497D01*
X163300500Y-140828842D01*
X163300500Y-140671158D01*
X163300500Y-140671155D01*
X163300499Y-140671153D01*
X163269738Y-140516510D01*
X163269737Y-140516503D01*
X163269735Y-140516498D01*
X163209397Y-140370827D01*
X163209390Y-140370814D01*
X163121789Y-140239711D01*
X163121786Y-140239707D01*
X163010292Y-140128213D01*
X163010288Y-140128210D01*
X162879185Y-140040609D01*
X162879172Y-140040602D01*
X162733501Y-139980264D01*
X162733489Y-139980261D01*
X162578845Y-139949500D01*
X162578842Y-139949500D01*
X162421158Y-139949500D01*
X162421155Y-139949500D01*
X162266510Y-139980261D01*
X162266498Y-139980264D01*
X162120827Y-140040602D01*
X162120814Y-140040609D01*
X161989711Y-140128210D01*
X161989707Y-140128213D01*
X161878213Y-140239707D01*
X161878210Y-140239711D01*
X161790609Y-140370814D01*
X161790602Y-140370827D01*
X161730264Y-140516498D01*
X161730261Y-140516510D01*
X161699500Y-140671153D01*
X161699500Y-140828846D01*
X161730261Y-140983489D01*
X161730264Y-140983501D01*
X161790602Y-141129172D01*
X161790609Y-141129185D01*
X161878602Y-141260874D01*
X161899480Y-141327551D01*
X161899500Y-141329765D01*
X161899500Y-152589281D01*
X161879815Y-152656320D01*
X161831795Y-152699765D01*
X161792185Y-152719947D01*
X161792184Y-152719948D01*
X161620215Y-152844889D01*
X161481035Y-152984069D01*
X161419712Y-153017553D01*
X161350020Y-153012569D01*
X161294087Y-152970697D01*
X161287815Y-152961484D01*
X161192315Y-152806654D01*
X161068345Y-152682684D01*
X160919124Y-152590643D01*
X160919119Y-152590641D01*
X160752697Y-152535494D01*
X160752690Y-152535493D01*
X160649986Y-152525000D01*
X160250000Y-152525000D01*
X160250000Y-153595854D01*
X160183343Y-153557370D01*
X160062535Y-153525000D01*
X159937465Y-153525000D01*
X159816657Y-153557370D01*
X159750000Y-153595854D01*
X159750000Y-152525000D01*
X159350028Y-152525000D01*
X159350012Y-152525001D01*
X159247302Y-152535494D01*
X159080880Y-152590641D01*
X159080875Y-152590643D01*
X158931654Y-152682684D01*
X158807684Y-152806654D01*
X158715643Y-152955875D01*
X158715641Y-152955880D01*
X158660494Y-153122302D01*
X158660493Y-153122309D01*
X158650000Y-153225013D01*
X158650000Y-153750000D01*
X159595854Y-153750000D01*
X159557370Y-153816657D01*
X159525000Y-153937465D01*
X159525000Y-154062535D01*
X159557370Y-154183343D01*
X159595854Y-154250000D01*
X158650001Y-154250000D01*
X158650001Y-154774986D01*
X158660494Y-154877697D01*
X158715641Y-155044119D01*
X158715643Y-155044124D01*
X158807684Y-155193345D01*
X158931654Y-155317315D01*
X159080875Y-155409356D01*
X159080880Y-155409358D01*
X159247302Y-155464505D01*
X159247309Y-155464506D01*
X159350019Y-155474999D01*
X159749999Y-155474999D01*
X159750000Y-155474998D01*
X159750000Y-154404145D01*
X159816657Y-154442630D01*
X159937465Y-154475000D01*
X160062535Y-154475000D01*
X160183343Y-154442630D01*
X160250000Y-154404145D01*
X160250000Y-155474999D01*
X160649972Y-155474999D01*
X160649986Y-155474998D01*
X160752697Y-155464505D01*
X160919119Y-155409358D01*
X160919124Y-155409356D01*
X161068345Y-155317315D01*
X161192317Y-155193343D01*
X161287815Y-155038516D01*
X161339763Y-154991791D01*
X161408725Y-154980568D01*
X161472808Y-155008412D01*
X161481035Y-155015931D01*
X161620213Y-155155109D01*
X161792179Y-155280048D01*
X161792181Y-155280049D01*
X161792184Y-155280051D01*
X161981588Y-155376557D01*
X162183757Y-155442246D01*
X162393713Y-155475500D01*
X162393718Y-155475500D01*
X162396401Y-155475925D01*
X162459535Y-155505854D01*
X162496467Y-155565165D01*
X162495469Y-155635028D01*
X162464684Y-155686079D01*
X160287584Y-157863181D01*
X160226261Y-157896666D01*
X160199903Y-157899500D01*
X150800097Y-157899500D01*
X150733058Y-157879815D01*
X150712416Y-157863181D01*
X149136819Y-156287584D01*
X149103334Y-156226261D01*
X149100500Y-156199903D01*
X149100500Y-155410718D01*
X149120185Y-155343679D01*
X149168207Y-155300233D01*
X149207815Y-155280052D01*
X149207815Y-155280051D01*
X149207816Y-155280051D01*
X149326728Y-155193657D01*
X149379786Y-155155109D01*
X149379788Y-155155106D01*
X149379792Y-155155104D01*
X149530104Y-155004792D01*
X149649991Y-154839779D01*
X149705320Y-154797115D01*
X149774933Y-154791136D01*
X149836729Y-154823741D01*
X149850627Y-154839781D01*
X149970272Y-155004459D01*
X149970276Y-155004464D01*
X150120535Y-155154723D01*
X150120540Y-155154727D01*
X150292442Y-155279620D01*
X150481782Y-155376095D01*
X150683871Y-155441757D01*
X150750000Y-155452231D01*
X150750000Y-154404145D01*
X150816657Y-154442630D01*
X150937465Y-154475000D01*
X151062535Y-154475000D01*
X151183343Y-154442630D01*
X151250000Y-154404145D01*
X151250000Y-155452230D01*
X151316126Y-155441757D01*
X151316129Y-155441757D01*
X151518217Y-155376095D01*
X151707557Y-155279620D01*
X151879459Y-155154727D01*
X151879464Y-155154723D01*
X152029723Y-155004464D01*
X152029727Y-155004459D01*
X152154620Y-154832557D01*
X152251095Y-154643217D01*
X152316757Y-154441130D01*
X152316757Y-154441127D01*
X152347030Y-154250000D01*
X151404146Y-154250000D01*
X151442630Y-154183343D01*
X151475000Y-154062535D01*
X151475000Y-153937465D01*
X151442630Y-153816657D01*
X151404146Y-153750000D01*
X152347030Y-153750000D01*
X152316757Y-153558872D01*
X152316757Y-153558869D01*
X152251094Y-153356780D01*
X152211035Y-153278160D01*
X152211034Y-153278159D01*
X152154620Y-153167442D01*
X152029727Y-152995540D01*
X152029723Y-152995535D01*
X151879464Y-152845276D01*
X151879459Y-152845272D01*
X151707557Y-152720379D01*
X151518215Y-152623903D01*
X151316124Y-152558241D01*
X151250000Y-152547768D01*
X151250000Y-153595854D01*
X151183343Y-153557370D01*
X151062535Y-153525000D01*
X150937465Y-153525000D01*
X150816657Y-153557370D01*
X150750000Y-153595854D01*
X150750000Y-152547768D01*
X150749999Y-152547768D01*
X150683875Y-152558241D01*
X150481784Y-152623903D01*
X150292442Y-152720379D01*
X150120540Y-152845272D01*
X150120535Y-152845276D01*
X149970276Y-152995535D01*
X149970272Y-152995540D01*
X149850627Y-153160218D01*
X149795297Y-153202884D01*
X149725684Y-153208863D01*
X149663889Y-153176257D01*
X149649991Y-153160218D01*
X149530109Y-152995214D01*
X149530105Y-152995209D01*
X149379786Y-152844890D01*
X149207820Y-152719951D01*
X149018414Y-152623444D01*
X149018413Y-152623443D01*
X149018412Y-152623443D01*
X148816243Y-152557754D01*
X148816241Y-152557753D01*
X148816239Y-152557753D01*
X148811503Y-152556616D01*
X148811957Y-152554724D01*
X148756267Y-152528315D01*
X148719344Y-152468998D01*
X148720352Y-152399135D01*
X148751130Y-152348104D01*
X159764662Y-141334572D01*
X159825983Y-141301089D01*
X159828150Y-141300638D01*
X159886085Y-141289113D01*
X159983497Y-141269737D01*
X160129179Y-141209394D01*
X160260289Y-141121789D01*
X160371789Y-141010289D01*
X160459394Y-140879179D01*
X160519737Y-140733497D01*
X160550500Y-140578842D01*
X160550500Y-140421158D01*
X160550500Y-140421155D01*
X160550499Y-140421153D01*
X160524531Y-140290606D01*
X160519737Y-140266503D01*
X160519735Y-140266498D01*
X160459397Y-140120827D01*
X160459390Y-140120814D01*
X160371789Y-139989711D01*
X160371786Y-139989707D01*
X160260292Y-139878213D01*
X160260288Y-139878210D01*
X160129185Y-139790609D01*
X160129172Y-139790602D01*
X159983501Y-139730264D01*
X159983489Y-139730261D01*
X159828845Y-139699500D01*
X159828842Y-139699500D01*
X159671158Y-139699500D01*
X159671155Y-139699500D01*
X159516510Y-139730261D01*
X159516498Y-139730264D01*
X159370827Y-139790602D01*
X159370814Y-139790609D01*
X159239711Y-139878210D01*
X159239707Y-139878213D01*
X159128213Y-139989707D01*
X159128210Y-139989711D01*
X159040609Y-140120814D01*
X159040602Y-140120827D01*
X158980264Y-140266498D01*
X158980261Y-140266508D01*
X158949361Y-140421850D01*
X158916976Y-140483761D01*
X158915425Y-140485339D01*
X146753633Y-152647130D01*
X146692310Y-152680615D01*
X146622618Y-152675631D01*
X146609658Y-152669934D01*
X146518417Y-152623445D01*
X146518414Y-152623444D01*
X146518412Y-152623443D01*
X146316243Y-152557754D01*
X146316241Y-152557753D01*
X146316240Y-152557753D01*
X146165504Y-152533879D01*
X146106287Y-152524500D01*
X146106286Y-152524500D01*
X146103596Y-152524074D01*
X146040461Y-152494145D01*
X146003530Y-152434833D01*
X146004528Y-152364971D01*
X146035311Y-152313922D01*
X160561416Y-137787819D01*
X160622739Y-137754334D01*
X160649097Y-137751500D01*
X163898491Y-137751500D01*
X163898507Y-137751501D01*
X163906103Y-137751501D01*
X164064214Y-137751501D01*
X164064217Y-137751501D01*
X164216945Y-137710577D01*
X164303462Y-137660626D01*
X164353876Y-137631520D01*
X164465680Y-137519716D01*
X164465680Y-137519714D01*
X164475884Y-137509511D01*
X164475887Y-137509506D01*
X164947576Y-137037819D01*
X164974503Y-137023115D01*
X165000322Y-137006523D01*
X165006522Y-137005631D01*
X165008899Y-137004334D01*
X165035257Y-137001500D01*
X165079431Y-137001500D01*
X165079447Y-137001501D01*
X165087043Y-137001501D01*
X165245154Y-137001501D01*
X165245157Y-137001501D01*
X165397885Y-136960577D01*
X165448004Y-136931639D01*
X165534816Y-136881520D01*
X165646620Y-136769716D01*
X165646620Y-136769714D01*
X165656828Y-136759507D01*
X165656829Y-136759504D01*
X168489821Y-133926513D01*
X168551142Y-133893030D01*
X168620834Y-133898014D01*
X168676767Y-133939886D01*
X168701184Y-134005350D01*
X168701500Y-134014196D01*
X168701500Y-143397902D01*
X168681815Y-143464941D01*
X168665181Y-143485583D01*
X165735339Y-146415425D01*
X165674016Y-146448910D01*
X165671850Y-146449361D01*
X165516508Y-146480261D01*
X165516498Y-146480264D01*
X165370827Y-146540602D01*
X165370814Y-146540609D01*
X165239711Y-146628210D01*
X165239707Y-146628213D01*
X165128213Y-146739707D01*
X165128210Y-146739711D01*
X165040609Y-146870814D01*
X165040602Y-146870827D01*
X164980264Y-147016498D01*
X164980261Y-147016510D01*
X164949500Y-147171153D01*
X164949500Y-147328846D01*
X164980261Y-147483489D01*
X164980264Y-147483501D01*
X165040602Y-147629172D01*
X165040609Y-147629185D01*
X165128210Y-147760288D01*
X165128213Y-147760292D01*
X165239707Y-147871786D01*
X165239711Y-147871789D01*
X165370814Y-147959390D01*
X165370827Y-147959397D01*
X165516498Y-148019735D01*
X165516503Y-148019737D01*
X165671153Y-148050499D01*
X165671156Y-148050500D01*
X165671158Y-148050500D01*
X165828844Y-148050500D01*
X165828845Y-148050499D01*
X165983497Y-148019737D01*
X166129179Y-147959394D01*
X166260289Y-147871789D01*
X166371789Y-147760289D01*
X166459394Y-147629179D01*
X166519737Y-147483497D01*
X166539113Y-147386085D01*
X166550638Y-147328150D01*
X166583023Y-147266239D01*
X166584518Y-147264716D01*
X169782520Y-144066716D01*
X169861577Y-143929784D01*
X169902501Y-143777057D01*
X169902501Y-143618942D01*
X169902501Y-143611347D01*
X169902500Y-143611329D01*
X169902500Y-94822945D01*
X169902500Y-94822943D01*
X169861577Y-94670216D01*
X169850785Y-94651523D01*
X169782524Y-94533290D01*
X169782521Y-94533286D01*
X169782520Y-94533284D01*
X169670716Y-94421480D01*
X169670715Y-94421479D01*
X169666385Y-94417149D01*
X169666374Y-94417139D01*
X166534077Y-91284842D01*
X166500592Y-91223519D01*
X166503828Y-91158841D01*
X166508477Y-91144534D01*
X166540500Y-90942352D01*
X166540500Y-90737648D01*
X166508477Y-90535466D01*
X166445220Y-90340781D01*
X166445218Y-90340778D01*
X166445218Y-90340776D01*
X166411503Y-90274607D01*
X166352287Y-90158390D01*
X166344556Y-90147749D01*
X166231971Y-89992786D01*
X166087213Y-89848028D01*
X165921614Y-89727715D01*
X165915006Y-89724348D01*
X165828917Y-89680483D01*
X165778123Y-89632511D01*
X165761328Y-89564690D01*
X165783865Y-89498555D01*
X165828917Y-89459516D01*
X165921610Y-89412287D01*
X165942770Y-89396913D01*
X166087213Y-89291971D01*
X166087215Y-89291968D01*
X166087219Y-89291966D01*
X166231966Y-89147219D01*
X166231968Y-89147215D01*
X166231971Y-89147213D01*
X166284732Y-89074590D01*
X166352287Y-88981610D01*
X166445220Y-88799219D01*
X166508477Y-88604534D01*
X166540500Y-88402352D01*
X166540500Y-88197648D01*
X166533829Y-88155531D01*
X166508477Y-87995465D01*
X166479127Y-87905137D01*
X166445220Y-87800781D01*
X166445218Y-87800778D01*
X166445218Y-87800776D01*
X166411503Y-87734607D01*
X166352287Y-87618390D01*
X166344556Y-87607749D01*
X166231971Y-87452786D01*
X166087213Y-87308028D01*
X165921614Y-87187715D01*
X165915006Y-87184348D01*
X165828917Y-87140483D01*
X165778123Y-87092511D01*
X165761328Y-87024690D01*
X165783865Y-86958555D01*
X165828917Y-86919516D01*
X165921610Y-86872287D01*
X165942770Y-86856913D01*
X166087213Y-86751971D01*
X166087215Y-86751968D01*
X166087219Y-86751966D01*
X166231966Y-86607219D01*
X166231968Y-86607215D01*
X166231971Y-86607213D01*
X166284732Y-86534590D01*
X166352287Y-86441610D01*
X166445220Y-86259219D01*
X166508477Y-86064534D01*
X166540500Y-85862352D01*
X166540500Y-85657648D01*
X166533829Y-85615531D01*
X166508477Y-85455465D01*
X166445218Y-85260776D01*
X166411503Y-85194607D01*
X166352287Y-85078390D01*
X166344556Y-85067749D01*
X166231971Y-84912786D01*
X166087213Y-84768028D01*
X165921614Y-84647715D01*
X165915006Y-84644348D01*
X165828917Y-84600483D01*
X165778123Y-84552511D01*
X165761328Y-84484690D01*
X165783865Y-84418555D01*
X165828917Y-84379516D01*
X165921610Y-84332287D01*
X165942770Y-84316913D01*
X166087213Y-84211971D01*
X166087215Y-84211968D01*
X166087219Y-84211966D01*
X166231966Y-84067219D01*
X166231968Y-84067215D01*
X166231971Y-84067213D01*
X166284732Y-83994590D01*
X166352287Y-83901610D01*
X166445220Y-83719219D01*
X166508477Y-83524534D01*
X166540500Y-83322352D01*
X166540500Y-83117648D01*
X166508477Y-82915466D01*
X166445220Y-82720781D01*
X166445218Y-82720778D01*
X166445218Y-82720776D01*
X166411503Y-82654607D01*
X166352287Y-82538390D01*
X166344556Y-82527749D01*
X166231971Y-82372786D01*
X166087213Y-82228028D01*
X165921613Y-82107715D01*
X165921612Y-82107714D01*
X165921610Y-82107713D01*
X165864653Y-82078691D01*
X165739223Y-82014781D01*
X165544534Y-81951522D01*
X165369995Y-81923878D01*
X165342352Y-81919500D01*
X165137648Y-81919500D01*
X165113329Y-81923351D01*
X164935465Y-81951522D01*
X164740776Y-82014781D01*
X164558386Y-82107715D01*
X164392786Y-82228028D01*
X164248028Y-82372786D01*
X164127715Y-82538386D01*
X164034781Y-82720776D01*
X163971522Y-82915465D01*
X163939500Y-83117648D01*
X163939500Y-83322351D01*
X163971522Y-83524534D01*
X163976173Y-83538848D01*
X163978165Y-83608690D01*
X163945921Y-83664842D01*
X153747584Y-93863181D01*
X153686261Y-93896666D01*
X153659903Y-93899500D01*
X151369302Y-93899500D01*
X151302263Y-93879815D01*
X151256508Y-93827011D01*
X151246564Y-93757853D01*
X151251371Y-93737181D01*
X151268477Y-93684534D01*
X151300500Y-93482351D01*
X151300500Y-93277648D01*
X151268477Y-93075465D01*
X151205218Y-92880776D01*
X151171503Y-92814607D01*
X151112287Y-92698390D01*
X151104556Y-92687749D01*
X150991971Y-92532786D01*
X150847213Y-92388028D01*
X150681614Y-92267715D01*
X150675006Y-92264348D01*
X150588917Y-92220483D01*
X150538123Y-92172511D01*
X150521328Y-92104690D01*
X150543865Y-92038555D01*
X150588917Y-91999516D01*
X150681610Y-91952287D01*
X150709829Y-91931785D01*
X150847213Y-91831971D01*
X150847215Y-91831968D01*
X150847219Y-91831966D01*
X150991966Y-91687219D01*
X150991968Y-91687215D01*
X150991971Y-91687213D01*
X151045649Y-91613330D01*
X151112287Y-91521610D01*
X151205220Y-91339219D01*
X151268477Y-91144534D01*
X151300500Y-90942352D01*
X151300500Y-90737648D01*
X151268477Y-90535466D01*
X151205220Y-90340781D01*
X151205218Y-90340778D01*
X151205218Y-90340776D01*
X151171503Y-90274607D01*
X151112287Y-90158390D01*
X151104556Y-90147749D01*
X150991971Y-89992786D01*
X150847213Y-89848028D01*
X150681614Y-89727715D01*
X150675006Y-89724348D01*
X150588917Y-89680483D01*
X150538123Y-89632511D01*
X150521328Y-89564690D01*
X150543865Y-89498555D01*
X150588917Y-89459516D01*
X150681610Y-89412287D01*
X150702770Y-89396913D01*
X150847213Y-89291971D01*
X150847215Y-89291968D01*
X150847219Y-89291966D01*
X150991966Y-89147219D01*
X150991968Y-89147215D01*
X150991971Y-89147213D01*
X151044732Y-89074590D01*
X151112287Y-88981610D01*
X151205220Y-88799219D01*
X151268477Y-88604534D01*
X151300500Y-88402352D01*
X151300500Y-88197648D01*
X151293829Y-88155531D01*
X151268477Y-87995465D01*
X151239127Y-87905137D01*
X151205220Y-87800781D01*
X151205218Y-87800778D01*
X151205218Y-87800776D01*
X151171503Y-87734607D01*
X151112287Y-87618390D01*
X151104556Y-87607749D01*
X150991971Y-87452786D01*
X150847213Y-87308028D01*
X150681614Y-87187715D01*
X150675006Y-87184348D01*
X150588917Y-87140483D01*
X150538123Y-87092511D01*
X150521328Y-87024690D01*
X150543865Y-86958555D01*
X150588917Y-86919516D01*
X150681610Y-86872287D01*
X150702770Y-86856913D01*
X150847213Y-86751971D01*
X150847215Y-86751968D01*
X150847219Y-86751966D01*
X150991966Y-86607219D01*
X150991968Y-86607215D01*
X150991971Y-86607213D01*
X151044732Y-86534590D01*
X151112287Y-86441610D01*
X151205220Y-86259219D01*
X151268477Y-86064534D01*
X151300500Y-85862352D01*
X151300500Y-85657648D01*
X151293829Y-85615531D01*
X151268477Y-85455465D01*
X151205218Y-85260776D01*
X151171503Y-85194607D01*
X151112287Y-85078390D01*
X151104556Y-85067749D01*
X150991971Y-84912786D01*
X150847213Y-84768028D01*
X150681614Y-84647715D01*
X150675006Y-84644348D01*
X150588917Y-84600483D01*
X150538123Y-84552511D01*
X150521328Y-84484690D01*
X150543865Y-84418555D01*
X150588917Y-84379516D01*
X150681610Y-84332287D01*
X150702770Y-84316913D01*
X150847213Y-84211971D01*
X150847215Y-84211968D01*
X150847219Y-84211966D01*
X150991966Y-84067219D01*
X150991968Y-84067215D01*
X150991971Y-84067213D01*
X151044732Y-83994590D01*
X151112287Y-83901610D01*
X151205220Y-83719219D01*
X151268477Y-83524534D01*
X151300500Y-83322352D01*
X151300500Y-83117648D01*
X151268477Y-82915466D01*
X151205220Y-82720781D01*
X151205218Y-82720778D01*
X151205218Y-82720776D01*
X151171503Y-82654607D01*
X151112287Y-82538390D01*
X151104556Y-82527749D01*
X150991971Y-82372786D01*
X150847213Y-82228028D01*
X150681613Y-82107715D01*
X150681612Y-82107714D01*
X150681610Y-82107713D01*
X150624653Y-82078691D01*
X150499223Y-82014781D01*
X150304534Y-81951522D01*
X150129995Y-81923878D01*
X150102352Y-81919500D01*
X149897648Y-81919500D01*
X149873329Y-81923351D01*
X149695465Y-81951522D01*
X149500776Y-82014781D01*
X149318386Y-82107715D01*
X149152786Y-82228028D01*
X149008028Y-82372786D01*
X148887715Y-82538386D01*
X148794781Y-82720776D01*
X148731522Y-82915465D01*
X148699500Y-83117648D01*
X148699500Y-83322351D01*
X148731522Y-83524534D01*
X148794781Y-83719223D01*
X148887715Y-83901613D01*
X149008028Y-84067213D01*
X149152786Y-84211971D01*
X149307749Y-84324556D01*
X149318390Y-84332287D01*
X149409840Y-84378883D01*
X149411080Y-84379515D01*
X149461876Y-84427490D01*
X149478671Y-84495311D01*
X149456134Y-84561446D01*
X149411080Y-84600485D01*
X149318386Y-84647715D01*
X149152786Y-84768028D01*
X149008028Y-84912786D01*
X148887715Y-85078386D01*
X148794781Y-85260776D01*
X148731522Y-85455465D01*
X148699500Y-85657648D01*
X148699500Y-85862351D01*
X148731522Y-86064534D01*
X148794781Y-86259223D01*
X148887715Y-86441613D01*
X149008028Y-86607213D01*
X149152786Y-86751971D01*
X149307749Y-86864556D01*
X149318390Y-86872287D01*
X149409840Y-86918883D01*
X149411080Y-86919515D01*
X149461876Y-86967490D01*
X149478671Y-87035311D01*
X149456134Y-87101446D01*
X149411080Y-87140485D01*
X149318386Y-87187715D01*
X149152786Y-87308028D01*
X149008028Y-87452786D01*
X148887715Y-87618386D01*
X148794781Y-87800776D01*
X148731522Y-87995465D01*
X148699500Y-88197648D01*
X148699500Y-88390902D01*
X148679815Y-88457941D01*
X148627011Y-88503696D01*
X148557853Y-88513640D01*
X148494297Y-88484615D01*
X148487819Y-88478583D01*
X138296590Y-78287355D01*
X138296588Y-78287352D01*
X138177717Y-78168481D01*
X138177716Y-78168480D01*
X138090904Y-78118360D01*
X138090904Y-78118359D01*
X138090900Y-78118358D01*
X138040785Y-78089423D01*
X137888057Y-78048499D01*
X137729943Y-78048499D01*
X137722347Y-78048499D01*
X137722331Y-78048500D01*
X120478494Y-78048500D01*
X120437573Y-78059464D01*
X120437573Y-78059465D01*
X120400305Y-78069451D01*
X120325768Y-78089423D01*
X120325763Y-78089426D01*
X120188844Y-78168475D01*
X120188836Y-78168481D01*
X92979481Y-105377836D01*
X92979479Y-105377839D01*
X92942312Y-105442216D01*
X92942311Y-105442218D01*
X92900423Y-105514768D01*
X92900423Y-105514769D01*
X92859499Y-105667497D01*
X92859499Y-105667499D01*
X92859499Y-105835600D01*
X92859500Y-105835613D01*
X92859500Y-127429067D01*
X92839815Y-127496106D01*
X92808386Y-127529385D01*
X92707892Y-127602398D01*
X92579399Y-127730891D01*
X92579399Y-127730892D01*
X92579397Y-127730894D01*
X92579162Y-127731218D01*
X92472583Y-127877909D01*
X92390083Y-128039825D01*
X92390081Y-128039828D01*
X92333928Y-128212649D01*
X92333928Y-128212652D01*
X92305500Y-128392139D01*
X92305500Y-128573860D01*
X92333928Y-128753347D01*
X92333928Y-128753350D01*
X92390081Y-128926171D01*
X92390083Y-128926174D01*
X92472583Y-129088090D01*
X92579397Y-129235106D01*
X92707894Y-129363603D01*
X92854910Y-129470417D01*
X93016826Y-129552917D01*
X93016828Y-129552918D01*
X93178029Y-129605294D01*
X93189654Y-129609072D01*
X93369139Y-129637500D01*
X93369140Y-129637500D01*
X93550860Y-129637500D01*
X93550861Y-129637500D01*
X93730346Y-129609072D01*
X93730349Y-129609071D01*
X93730350Y-129609071D01*
X93903171Y-129552918D01*
X93903171Y-129552917D01*
X93903174Y-129552917D01*
X94065090Y-129470417D01*
X94212106Y-129363603D01*
X94340603Y-129235106D01*
X94447417Y-129088090D01*
X94529917Y-128926174D01*
X94586072Y-128753346D01*
X94607527Y-128617884D01*
X94637456Y-128554750D01*
X94696768Y-128517819D01*
X94766630Y-128518817D01*
X94824863Y-128557427D01*
X94852473Y-128617885D01*
X94873928Y-128753347D01*
X94873928Y-128753350D01*
X94930081Y-128926171D01*
X94930083Y-128926174D01*
X95012583Y-129088090D01*
X95119397Y-129235106D01*
X95247894Y-129363603D01*
X95394910Y-129470417D01*
X95556826Y-129552917D01*
X95556828Y-129552918D01*
X95718029Y-129605294D01*
X95729654Y-129609072D01*
X95909139Y-129637500D01*
X95909140Y-129637500D01*
X96090860Y-129637500D01*
X96090861Y-129637500D01*
X96270346Y-129609072D01*
X96270349Y-129609071D01*
X96270350Y-129609071D01*
X96443171Y-129552918D01*
X96443171Y-129552917D01*
X96443174Y-129552917D01*
X96605090Y-129470417D01*
X96752106Y-129363603D01*
X96880603Y-129235106D01*
X96987417Y-129088090D01*
X97069917Y-128926174D01*
X97126072Y-128753346D01*
X97147527Y-128617884D01*
X97177456Y-128554750D01*
X97236768Y-128517819D01*
X97306630Y-128518817D01*
X97364863Y-128557427D01*
X97392473Y-128617885D01*
X97413928Y-128753347D01*
X97413928Y-128753350D01*
X97470081Y-128926171D01*
X97470083Y-128926174D01*
X97552583Y-129088090D01*
X97659397Y-129235106D01*
X97787894Y-129363603D01*
X97934910Y-129470417D01*
X98096826Y-129552917D01*
X98096828Y-129552918D01*
X98258029Y-129605294D01*
X98269654Y-129609072D01*
X98449139Y-129637500D01*
X98449140Y-129637500D01*
X98630860Y-129637500D01*
X98630861Y-129637500D01*
X98810346Y-129609072D01*
X98810349Y-129609071D01*
X98810350Y-129609071D01*
X98983171Y-129552918D01*
X98983171Y-129552917D01*
X98983174Y-129552917D01*
X99145090Y-129470417D01*
X99292106Y-129363603D01*
X99420603Y-129235106D01*
X99527417Y-129088090D01*
X99609917Y-128926174D01*
X99666072Y-128753346D01*
X99687527Y-128617884D01*
X99717456Y-128554750D01*
X99776768Y-128517819D01*
X99846630Y-128518817D01*
X99904863Y-128557427D01*
X99932473Y-128617885D01*
X99953928Y-128753347D01*
X99953928Y-128753350D01*
X100010081Y-128926171D01*
X100010083Y-128926174D01*
X100092583Y-129088090D01*
X100199397Y-129235106D01*
X100327894Y-129363603D01*
X100474910Y-129470417D01*
X100636826Y-129552917D01*
X100636828Y-129552918D01*
X100798029Y-129605294D01*
X100809654Y-129609072D01*
X100989139Y-129637500D01*
X100989140Y-129637500D01*
X101170860Y-129637500D01*
X101170861Y-129637500D01*
X101350346Y-129609072D01*
X101350349Y-129609071D01*
X101350350Y-129609071D01*
X101523171Y-129552918D01*
X101523171Y-129552917D01*
X101523174Y-129552917D01*
X101685090Y-129470417D01*
X101832106Y-129363603D01*
X101960603Y-129235106D01*
X102067417Y-129088090D01*
X102149917Y-128926174D01*
X102206072Y-128753346D01*
X102227527Y-128617884D01*
X102257456Y-128554750D01*
X102316768Y-128517819D01*
X102386630Y-128518817D01*
X102444863Y-128557427D01*
X102472473Y-128617885D01*
X102493928Y-128753347D01*
X102493928Y-128753350D01*
X102550081Y-128926171D01*
X102550083Y-128926174D01*
X102632583Y-129088090D01*
X102739397Y-129235106D01*
X102867894Y-129363603D01*
X103014910Y-129470417D01*
X103176826Y-129552917D01*
X103176828Y-129552918D01*
X103338029Y-129605294D01*
X103349654Y-129609072D01*
X103529139Y-129637500D01*
X103529140Y-129637500D01*
X103710860Y-129637500D01*
X103710861Y-129637500D01*
X103890346Y-129609072D01*
X103890349Y-129609071D01*
X103890350Y-129609071D01*
X104063171Y-129552918D01*
X104063171Y-129552917D01*
X104063174Y-129552917D01*
X104225090Y-129470417D01*
X104372106Y-129363603D01*
X104500603Y-129235106D01*
X104607417Y-129088090D01*
X104689917Y-128926174D01*
X104746072Y-128753346D01*
X104767527Y-128617884D01*
X104797456Y-128554750D01*
X104856768Y-128517819D01*
X104926630Y-128518817D01*
X104984863Y-128557427D01*
X105012473Y-128617885D01*
X105033928Y-128753347D01*
X105033928Y-128753350D01*
X105090081Y-128926171D01*
X105090083Y-128926174D01*
X105172583Y-129088090D01*
X105279397Y-129235106D01*
X105407894Y-129363603D01*
X105554910Y-129470417D01*
X105716826Y-129552917D01*
X105716828Y-129552918D01*
X105878029Y-129605294D01*
X105889654Y-129609072D01*
X106069139Y-129637500D01*
X106069140Y-129637500D01*
X106250860Y-129637500D01*
X106250861Y-129637500D01*
X106430346Y-129609072D01*
X106430349Y-129609071D01*
X106430350Y-129609071D01*
X106603171Y-129552918D01*
X106603171Y-129552917D01*
X106603174Y-129552917D01*
X106765090Y-129470417D01*
X106912106Y-129363603D01*
X107040603Y-129235106D01*
X107147417Y-129088090D01*
X107229917Y-128926174D01*
X107286072Y-128753346D01*
X107307780Y-128616286D01*
X107337709Y-128553152D01*
X107397021Y-128516221D01*
X107466883Y-128517219D01*
X107525116Y-128555829D01*
X107552726Y-128616287D01*
X107574415Y-128753225D01*
X107630548Y-128925984D01*
X107713011Y-129087828D01*
X107819780Y-129234781D01*
X107819780Y-129234782D01*
X107948217Y-129363219D01*
X108095171Y-129469988D01*
X108257015Y-129552451D01*
X108429774Y-129608584D01*
X108450000Y-129611788D01*
X108450000Y-128798686D01*
X108454394Y-128803080D01*
X108545606Y-128855741D01*
X108647339Y-128883000D01*
X108752661Y-128883000D01*
X108854394Y-128855741D01*
X108945606Y-128803080D01*
X108950000Y-128798686D01*
X108950000Y-129611787D01*
X108970225Y-129608584D01*
X109142984Y-129552451D01*
X109304828Y-129469988D01*
X109451781Y-129363219D01*
X109451782Y-129363219D01*
X109580219Y-129234782D01*
X109580219Y-129234781D01*
X109686988Y-129087828D01*
X109769451Y-128925984D01*
X109825584Y-128753225D01*
X109825585Y-128753224D01*
X109847273Y-128616288D01*
X109877202Y-128553153D01*
X109936513Y-128516221D01*
X110006376Y-128517219D01*
X110064609Y-128555828D01*
X110092219Y-128616286D01*
X110113928Y-128753349D01*
X110113928Y-128753350D01*
X110170081Y-128926171D01*
X110170083Y-128926174D01*
X110252583Y-129088090D01*
X110359397Y-129235106D01*
X110487894Y-129363603D01*
X110634910Y-129470417D01*
X110796826Y-129552917D01*
X110796828Y-129552918D01*
X110958029Y-129605294D01*
X110969654Y-129609072D01*
X111149139Y-129637500D01*
X111149140Y-129637500D01*
X111330860Y-129637500D01*
X111330861Y-129637500D01*
X111510346Y-129609072D01*
X111510349Y-129609071D01*
X111510350Y-129609071D01*
X111683171Y-129552918D01*
X111683171Y-129552917D01*
X111683174Y-129552917D01*
X111845090Y-129470417D01*
X111992106Y-129363603D01*
X112120603Y-129235106D01*
X112227417Y-129088090D01*
X112309917Y-128926174D01*
X112366072Y-128753346D01*
X112394500Y-128573861D01*
X112394500Y-128392139D01*
X112366072Y-128212654D01*
X112366071Y-128212650D01*
X112366071Y-128212649D01*
X112309918Y-128039828D01*
X112309916Y-128039825D01*
X112227550Y-127878171D01*
X112227417Y-127877910D01*
X112120603Y-127730894D01*
X111992106Y-127602397D01*
X111845090Y-127495583D01*
X111683174Y-127413083D01*
X111683171Y-127413081D01*
X111510348Y-127356928D01*
X111390689Y-127337976D01*
X111330861Y-127328500D01*
X111149139Y-127328500D01*
X111089310Y-127337976D01*
X110969652Y-127356928D01*
X110969649Y-127356928D01*
X110796828Y-127413081D01*
X110796825Y-127413083D01*
X110634909Y-127495583D01*
X110551030Y-127556525D01*
X110487894Y-127602397D01*
X110487892Y-127602399D01*
X110487891Y-127602399D01*
X110359399Y-127730891D01*
X110359399Y-127730892D01*
X110359397Y-127730894D01*
X110359162Y-127731218D01*
X110252583Y-127877909D01*
X110170083Y-128039825D01*
X110170081Y-128039828D01*
X110113928Y-128212649D01*
X110113928Y-128212650D01*
X110092219Y-128349713D01*
X110062289Y-128412847D01*
X110002978Y-128449778D01*
X109933115Y-128448780D01*
X109874883Y-128410170D01*
X109847273Y-128349711D01*
X109825585Y-128212775D01*
X109825584Y-128212774D01*
X109769451Y-128040015D01*
X109686988Y-127878171D01*
X109580219Y-127731218D01*
X109580219Y-127731217D01*
X109451782Y-127602780D01*
X109304828Y-127496011D01*
X109142984Y-127413548D01*
X108970231Y-127357416D01*
X108970224Y-127357415D01*
X108950000Y-127354210D01*
X108950000Y-128167314D01*
X108945606Y-128162920D01*
X108854394Y-128110259D01*
X108752661Y-128083000D01*
X108647339Y-128083000D01*
X108545606Y-128110259D01*
X108454394Y-128162920D01*
X108450000Y-128167314D01*
X108450000Y-127354211D01*
X108449999Y-127354210D01*
X108429775Y-127357415D01*
X108429768Y-127357416D01*
X108257015Y-127413548D01*
X108095171Y-127496011D01*
X107948218Y-127602780D01*
X107948217Y-127602780D01*
X107819780Y-127731217D01*
X107819780Y-127731218D01*
X107713011Y-127878171D01*
X107630548Y-128040015D01*
X107574415Y-128212774D01*
X107552726Y-128349712D01*
X107522797Y-128412847D01*
X107463485Y-128449778D01*
X107393622Y-128448780D01*
X107335390Y-128410170D01*
X107307780Y-128349712D01*
X107289990Y-128237394D01*
X107286072Y-128212654D01*
X107286071Y-128212650D01*
X107286071Y-128212649D01*
X107229918Y-128039828D01*
X107229916Y-128039825D01*
X107147550Y-127878171D01*
X107147417Y-127877910D01*
X107040603Y-127730894D01*
X106912106Y-127602397D01*
X106765090Y-127495583D01*
X106603174Y-127413083D01*
X106603171Y-127413081D01*
X106430348Y-127356928D01*
X106310689Y-127337976D01*
X106250861Y-127328500D01*
X106069139Y-127328500D01*
X106009310Y-127337976D01*
X105889652Y-127356928D01*
X105889649Y-127356928D01*
X105716828Y-127413081D01*
X105716825Y-127413083D01*
X105554909Y-127495583D01*
X105471030Y-127556525D01*
X105407894Y-127602397D01*
X105407892Y-127602399D01*
X105407891Y-127602399D01*
X105279399Y-127730891D01*
X105279399Y-127730892D01*
X105279397Y-127730894D01*
X105279162Y-127731218D01*
X105172583Y-127877909D01*
X105090083Y-128039825D01*
X105090081Y-128039828D01*
X105033928Y-128212649D01*
X105033928Y-128212652D01*
X105012473Y-128348114D01*
X104982544Y-128411249D01*
X104923232Y-128448180D01*
X104853370Y-128447182D01*
X104795137Y-128408572D01*
X104767527Y-128348114D01*
X104749990Y-128237394D01*
X104746072Y-128212654D01*
X104746071Y-128212650D01*
X104746071Y-128212649D01*
X104689918Y-128039828D01*
X104689916Y-128039825D01*
X104607550Y-127878171D01*
X104607417Y-127877910D01*
X104500603Y-127730894D01*
X104372106Y-127602397D01*
X104225090Y-127495583D01*
X104063174Y-127413083D01*
X104063171Y-127413081D01*
X103890348Y-127356928D01*
X103770689Y-127337976D01*
X103710861Y-127328500D01*
X103529139Y-127328500D01*
X103469310Y-127337976D01*
X103349652Y-127356928D01*
X103349649Y-127356928D01*
X103176828Y-127413081D01*
X103176825Y-127413083D01*
X103014909Y-127495583D01*
X102931030Y-127556525D01*
X102867894Y-127602397D01*
X102867892Y-127602399D01*
X102867891Y-127602399D01*
X102739399Y-127730891D01*
X102739399Y-127730892D01*
X102739397Y-127730894D01*
X102739162Y-127731218D01*
X102632583Y-127877909D01*
X102550083Y-128039825D01*
X102550081Y-128039828D01*
X102493928Y-128212649D01*
X102493928Y-128212652D01*
X102472473Y-128348114D01*
X102442544Y-128411249D01*
X102383232Y-128448180D01*
X102313370Y-128447182D01*
X102255137Y-128408572D01*
X102227527Y-128348114D01*
X102209990Y-128237394D01*
X102206072Y-128212654D01*
X102206071Y-128212650D01*
X102206071Y-128212649D01*
X102149918Y-128039828D01*
X102149916Y-128039825D01*
X102067550Y-127878171D01*
X102067417Y-127877910D01*
X101960603Y-127730894D01*
X101832106Y-127602397D01*
X101685090Y-127495583D01*
X101523174Y-127413083D01*
X101523171Y-127413081D01*
X101350348Y-127356928D01*
X101230689Y-127337976D01*
X101170861Y-127328500D01*
X100989139Y-127328500D01*
X100929310Y-127337976D01*
X100809652Y-127356928D01*
X100809649Y-127356928D01*
X100636828Y-127413081D01*
X100636825Y-127413083D01*
X100474909Y-127495583D01*
X100391030Y-127556525D01*
X100327894Y-127602397D01*
X100327892Y-127602399D01*
X100327891Y-127602399D01*
X100199399Y-127730891D01*
X100199399Y-127730892D01*
X100199397Y-127730894D01*
X100199162Y-127731218D01*
X100092583Y-127877909D01*
X100010083Y-128039825D01*
X100010081Y-128039828D01*
X99953928Y-128212649D01*
X99953928Y-128212652D01*
X99932473Y-128348114D01*
X99902544Y-128411249D01*
X99843232Y-128448180D01*
X99773370Y-128447182D01*
X99715137Y-128408572D01*
X99687527Y-128348114D01*
X99669990Y-128237394D01*
X99666072Y-128212654D01*
X99666071Y-128212650D01*
X99666071Y-128212649D01*
X99609918Y-128039828D01*
X99609916Y-128039825D01*
X99527550Y-127878171D01*
X99527417Y-127877910D01*
X99420603Y-127730894D01*
X99292106Y-127602397D01*
X99145090Y-127495583D01*
X98983174Y-127413083D01*
X98983171Y-127413081D01*
X98810348Y-127356928D01*
X98690689Y-127337976D01*
X98630861Y-127328500D01*
X98449139Y-127328500D01*
X98389310Y-127337976D01*
X98269652Y-127356928D01*
X98269649Y-127356928D01*
X98096828Y-127413081D01*
X98096825Y-127413083D01*
X97934909Y-127495583D01*
X97851030Y-127556525D01*
X97787894Y-127602397D01*
X97787892Y-127602399D01*
X97787891Y-127602399D01*
X97659399Y-127730891D01*
X97659399Y-127730892D01*
X97659397Y-127730894D01*
X97659162Y-127731218D01*
X97552583Y-127877909D01*
X97470083Y-128039825D01*
X97470081Y-128039828D01*
X97413928Y-128212649D01*
X97413928Y-128212652D01*
X97392473Y-128348114D01*
X97362544Y-128411249D01*
X97303232Y-128448180D01*
X97233370Y-128447182D01*
X97175137Y-128408572D01*
X97147527Y-128348114D01*
X97129990Y-128237394D01*
X97126072Y-128212654D01*
X97126071Y-128212650D01*
X97126071Y-128212649D01*
X97069918Y-128039828D01*
X97069916Y-128039825D01*
X96987550Y-127878171D01*
X96987417Y-127877910D01*
X96880603Y-127730894D01*
X96752106Y-127602397D01*
X96605090Y-127495583D01*
X96443174Y-127413083D01*
X96443171Y-127413081D01*
X96270348Y-127356928D01*
X96150689Y-127337976D01*
X96090861Y-127328500D01*
X95909139Y-127328500D01*
X95849310Y-127337976D01*
X95729652Y-127356928D01*
X95729649Y-127356928D01*
X95556828Y-127413081D01*
X95556825Y-127413083D01*
X95394909Y-127495583D01*
X95311030Y-127556525D01*
X95247894Y-127602397D01*
X95247892Y-127602399D01*
X95247891Y-127602399D01*
X95119399Y-127730891D01*
X95119399Y-127730892D01*
X95119397Y-127730894D01*
X95119162Y-127731218D01*
X95012583Y-127877909D01*
X94930083Y-128039825D01*
X94930081Y-128039828D01*
X94873928Y-128212649D01*
X94873928Y-128212652D01*
X94852473Y-128348114D01*
X94822544Y-128411249D01*
X94763232Y-128448180D01*
X94693370Y-128447182D01*
X94635137Y-128408572D01*
X94607527Y-128348114D01*
X94589990Y-128237394D01*
X94586072Y-128212654D01*
X94586071Y-128212650D01*
X94586071Y-128212649D01*
X94529918Y-128039828D01*
X94529916Y-128039825D01*
X94447550Y-127878171D01*
X94447417Y-127877910D01*
X94340603Y-127730894D01*
X94212106Y-127602397D01*
X94111613Y-127529384D01*
X94068949Y-127474054D01*
X94060500Y-127429067D01*
X94060500Y-106046650D01*
X94080185Y-105979611D01*
X94096814Y-105958974D01*
X119335292Y-80720495D01*
X119396613Y-80687012D01*
X119466305Y-80691996D01*
X119522238Y-80733868D01*
X119537532Y-80760725D01*
X119626652Y-80975881D01*
X119626657Y-80975890D01*
X119741392Y-81174617D01*
X119881081Y-81356661D01*
X119881089Y-81356670D01*
X120043330Y-81518911D01*
X120043338Y-81518918D01*
X120225382Y-81658607D01*
X120225385Y-81658608D01*
X120225388Y-81658611D01*
X120424112Y-81773344D01*
X120424117Y-81773346D01*
X120424123Y-81773349D01*
X120522952Y-81814285D01*
X120577356Y-81858125D01*
X120599421Y-81924420D01*
X120599500Y-81928846D01*
X120599500Y-91613330D01*
X120599499Y-91613348D01*
X120599499Y-91779054D01*
X120599498Y-91779054D01*
X120640423Y-91931785D01*
X120652260Y-91952287D01*
X120719477Y-92068712D01*
X120719481Y-92068717D01*
X120838349Y-92187585D01*
X120838355Y-92187590D01*
X161553027Y-132902262D01*
X161586512Y-132963585D01*
X161583277Y-133028260D01*
X161532754Y-133183755D01*
X161532753Y-133183759D01*
X161499500Y-133393713D01*
X161499500Y-133606286D01*
X161529237Y-133794042D01*
X161532754Y-133816243D01*
X161576452Y-133950732D01*
X161598444Y-134018414D01*
X161694951Y-134207820D01*
X161819890Y-134379786D01*
X161958705Y-134518601D01*
X161992190Y-134579924D01*
X161987206Y-134649616D01*
X161945334Y-134705549D01*
X161936121Y-134711821D01*
X161781342Y-134807289D01*
X161657289Y-134931342D01*
X161565187Y-135080663D01*
X161565186Y-135080666D01*
X161510001Y-135247203D01*
X161510001Y-135247204D01*
X161510000Y-135247204D01*
X161499500Y-135349983D01*
X161499500Y-135349996D01*
X161499501Y-136426500D01*
X161479817Y-136493539D01*
X161427013Y-136539294D01*
X161375501Y-136550500D01*
X160269942Y-136550500D01*
X160117214Y-136591423D01*
X160101494Y-136600500D01*
X160101491Y-136600501D01*
X159980290Y-136670475D01*
X159980282Y-136670481D01*
X144162583Y-152488181D01*
X144101260Y-152521666D01*
X144074902Y-152524500D01*
X143073500Y-152524500D01*
X143006461Y-152504815D01*
X142960706Y-152452011D01*
X142949500Y-152400500D01*
X142949500Y-144571396D01*
X142969185Y-144504357D01*
X142985814Y-144483720D01*
X147777997Y-139691536D01*
X147839318Y-139658053D01*
X147903994Y-139661288D01*
X147974249Y-139684115D01*
X148191978Y-139718600D01*
X148191979Y-139718600D01*
X148412421Y-139718600D01*
X148412422Y-139718600D01*
X148630151Y-139684115D01*
X148839806Y-139615995D01*
X149036222Y-139515915D01*
X149214565Y-139386342D01*
X149370442Y-139230465D01*
X149500015Y-139052122D01*
X149600095Y-138855706D01*
X149668215Y-138646051D01*
X149702700Y-138428322D01*
X149702700Y-138207878D01*
X149668215Y-137990149D01*
X149606854Y-137801297D01*
X149600096Y-137780496D01*
X149600095Y-137780493D01*
X149539019Y-137660627D01*
X149500015Y-137584078D01*
X149453254Y-137519716D01*
X149370447Y-137405741D01*
X149370443Y-137405736D01*
X149214563Y-137249856D01*
X149214558Y-137249852D01*
X149036225Y-137120287D01*
X149036224Y-137120286D01*
X149036222Y-137120285D01*
X148839806Y-137020205D01*
X148833338Y-137018103D01*
X148775665Y-136978665D01*
X148748469Y-136914305D01*
X148760385Y-136845459D01*
X148783977Y-136812496D01*
X154459656Y-131136819D01*
X154520979Y-131103334D01*
X154547337Y-131100500D01*
X156670234Y-131100500D01*
X156737273Y-131120185D01*
X156739125Y-131121398D01*
X156870814Y-131209390D01*
X156870827Y-131209397D01*
X156959795Y-131246248D01*
X157016503Y-131269737D01*
X157171153Y-131300499D01*
X157171156Y-131300500D01*
X157171158Y-131300500D01*
X157328844Y-131300500D01*
X157328845Y-131300499D01*
X157483497Y-131269737D01*
X157629179Y-131209394D01*
X157760289Y-131121789D01*
X157871789Y-131010289D01*
X157959394Y-130879179D01*
X157960481Y-130876556D01*
X158019735Y-130733501D01*
X158019737Y-130733497D01*
X158050500Y-130578842D01*
X158050500Y-130421158D01*
X158050500Y-130421155D01*
X158050499Y-130421153D01*
X158040679Y-130371786D01*
X158019737Y-130266503D01*
X157963728Y-130131284D01*
X157959397Y-130120827D01*
X157959390Y-130120814D01*
X157871789Y-129989711D01*
X157871786Y-129989707D01*
X157760292Y-129878213D01*
X157760288Y-129878210D01*
X157629185Y-129790609D01*
X157629172Y-129790602D01*
X157483501Y-129730264D01*
X157483489Y-129730261D01*
X157328845Y-129699500D01*
X157328842Y-129699500D01*
X157171158Y-129699500D01*
X157171155Y-129699500D01*
X157016510Y-129730261D01*
X157016498Y-129730264D01*
X156870827Y-129790602D01*
X156870814Y-129790609D01*
X156739125Y-129878602D01*
X156672447Y-129899480D01*
X156670234Y-129899500D01*
X154333909Y-129899500D01*
X154333893Y-129899499D01*
X154326297Y-129899499D01*
X154168183Y-129899499D01*
X154060827Y-129928265D01*
X154015450Y-129940424D01*
X154015449Y-129940425D01*
X153965336Y-129969359D01*
X153965335Y-129969360D01*
X153940863Y-129983489D01*
X153878525Y-130019479D01*
X153878522Y-130019481D01*
X131054131Y-152843873D01*
X130992808Y-152877358D01*
X130923116Y-152872374D01*
X130884120Y-152847312D01*
X130883488Y-152848053D01*
X130879786Y-152844890D01*
X130707815Y-152719948D01*
X130707814Y-152719947D01*
X130668205Y-152699765D01*
X130617409Y-152651791D01*
X130600500Y-152589281D01*
X130600500Y-152050097D01*
X130620185Y-151983058D01*
X130636819Y-151962416D01*
X141317657Y-141281578D01*
X152014662Y-130584572D01*
X152075983Y-130551089D01*
X152078150Y-130550638D01*
X152136085Y-130539113D01*
X152233497Y-130519737D01*
X152346166Y-130473067D01*
X152379172Y-130459397D01*
X152379172Y-130459396D01*
X152379179Y-130459394D01*
X152510289Y-130371789D01*
X152621789Y-130260289D01*
X152709394Y-130129179D01*
X152712854Y-130120827D01*
X152767163Y-129989711D01*
X152769737Y-129983497D01*
X152800500Y-129828842D01*
X152800500Y-129671158D01*
X152800500Y-129671155D01*
X152800499Y-129671153D01*
X152776980Y-129552916D01*
X152769737Y-129516503D01*
X152750470Y-129469988D01*
X152709397Y-129370827D01*
X152709390Y-129370814D01*
X152621789Y-129239711D01*
X152621786Y-129239707D01*
X152510292Y-129128213D01*
X152510288Y-129128210D01*
X152379185Y-129040609D01*
X152379172Y-129040602D01*
X152233501Y-128980264D01*
X152233489Y-128980261D01*
X152078845Y-128949500D01*
X152078842Y-128949500D01*
X151921158Y-128949500D01*
X151921155Y-128949500D01*
X151766510Y-128980261D01*
X151766498Y-128980264D01*
X151620827Y-129040602D01*
X151620814Y-129040609D01*
X151489711Y-129128210D01*
X151489707Y-129128213D01*
X151378213Y-129239707D01*
X151378210Y-129239711D01*
X151290609Y-129370814D01*
X151290602Y-129370827D01*
X151230264Y-129516498D01*
X151230261Y-129516508D01*
X151199361Y-129671850D01*
X151166976Y-129733761D01*
X151165425Y-129735339D01*
X149760969Y-131139794D01*
X149699646Y-131173279D01*
X149629954Y-131168295D01*
X149574021Y-131126423D01*
X149562803Y-131108408D01*
X149499588Y-130984343D01*
X149453266Y-130920585D01*
X149453265Y-130920585D01*
X148866812Y-131507040D01*
X148861311Y-131486509D01*
X148782319Y-131349692D01*
X148670608Y-131237981D01*
X148533791Y-131158989D01*
X148513257Y-131153487D01*
X149099713Y-130567032D01*
X149035956Y-130520711D01*
X148839610Y-130420667D01*
X148630035Y-130352573D01*
X148412381Y-130318100D01*
X148192019Y-130318100D01*
X147974364Y-130352573D01*
X147764789Y-130420667D01*
X147568433Y-130520716D01*
X147504685Y-130567031D01*
X147504685Y-130567032D01*
X148091140Y-131153487D01*
X148070609Y-131158989D01*
X147933792Y-131237981D01*
X147822081Y-131349692D01*
X147743089Y-131486509D01*
X147737587Y-131507040D01*
X147151132Y-130920585D01*
X147151131Y-130920585D01*
X147104816Y-130984333D01*
X147004767Y-131180689D01*
X146936673Y-131390264D01*
X146902200Y-131607918D01*
X146902200Y-131828281D01*
X146936673Y-132045935D01*
X147004767Y-132255510D01*
X147104811Y-132451856D01*
X147151132Y-132515613D01*
X147737587Y-131929158D01*
X147743089Y-131949691D01*
X147822081Y-132086508D01*
X147933792Y-132198219D01*
X148070609Y-132277211D01*
X148091140Y-132282712D01*
X147504685Y-132869165D01*
X147504685Y-132869166D01*
X147568446Y-132915490D01*
X147568445Y-132915490D01*
X147692507Y-132978702D01*
X147743304Y-133026676D01*
X147760099Y-133094497D01*
X147737562Y-133160632D01*
X147723894Y-133176868D01*
X129631286Y-151269478D01*
X129519481Y-151381282D01*
X129519479Y-151381285D01*
X129469361Y-151468094D01*
X129469359Y-151468096D01*
X129440425Y-151518209D01*
X129440424Y-151518210D01*
X129440423Y-151518215D01*
X129399499Y-151670943D01*
X129399499Y-151670945D01*
X129399499Y-151839046D01*
X129399500Y-151839059D01*
X129399500Y-152589281D01*
X129379815Y-152656320D01*
X129331795Y-152699765D01*
X129292185Y-152719947D01*
X129292184Y-152719948D01*
X129120213Y-152844890D01*
X128969890Y-152995213D01*
X128844951Y-153167179D01*
X128748444Y-153356585D01*
X128682753Y-153558760D01*
X128673069Y-153619905D01*
X128649500Y-153768713D01*
X128649500Y-154231287D01*
X128653460Y-154256287D01*
X128682735Y-154441127D01*
X128682754Y-154441243D01*
X128702256Y-154501264D01*
X128706129Y-154513182D01*
X128708124Y-154583023D01*
X128672044Y-154642856D01*
X128609343Y-154673684D01*
X128588198Y-154675500D01*
X126576098Y-154675500D01*
X126546657Y-154666855D01*
X126516671Y-154660332D01*
X126511655Y-154656577D01*
X126509059Y-154655815D01*
X126488417Y-154639181D01*
X126386818Y-154537582D01*
X126353333Y-154476259D01*
X126350499Y-154449901D01*
X126350499Y-153224998D01*
X126350498Y-153224981D01*
X126339999Y-153122203D01*
X126339998Y-153122200D01*
X126305321Y-153017553D01*
X126284814Y-152955666D01*
X126192712Y-152806344D01*
X126068656Y-152682288D01*
X125955728Y-152612634D01*
X125919336Y-152590187D01*
X125919331Y-152590185D01*
X125899329Y-152583557D01*
X125752797Y-152535001D01*
X125752795Y-152535000D01*
X125650010Y-152524500D01*
X124349998Y-152524500D01*
X124349981Y-152524501D01*
X124247203Y-152535000D01*
X124247200Y-152535001D01*
X124080668Y-152590185D01*
X124080663Y-152590187D01*
X123931342Y-152682289D01*
X123807289Y-152806342D01*
X123715187Y-152955663D01*
X123715185Y-152955668D01*
X123710205Y-152970697D01*
X123660001Y-153122203D01*
X123660001Y-153122204D01*
X123660000Y-153122204D01*
X123649500Y-153224983D01*
X123649500Y-154775001D01*
X123649501Y-154775018D01*
X123660000Y-154877796D01*
X123660001Y-154877799D01*
X123705774Y-155015931D01*
X123715186Y-155044334D01*
X123807288Y-155193656D01*
X123931344Y-155317712D01*
X124080666Y-155409814D01*
X124247203Y-155464999D01*
X124349991Y-155475500D01*
X125574901Y-155475499D01*
X125641940Y-155495184D01*
X125662582Y-155511818D01*
X125907284Y-155756520D01*
X125907286Y-155756521D01*
X125907290Y-155756524D01*
X126035445Y-155830513D01*
X126044216Y-155835577D01*
X126196943Y-155876501D01*
X126196945Y-155876501D01*
X126362654Y-155876501D01*
X126362670Y-155876500D01*
X130390091Y-155876500D01*
X130390107Y-155876501D01*
X130397703Y-155876501D01*
X130555814Y-155876501D01*
X130555817Y-155876501D01*
X130708545Y-155835577D01*
X130758664Y-155806639D01*
X130845476Y-155756520D01*
X130957280Y-155644716D01*
X130957280Y-155644714D01*
X130967488Y-155634507D01*
X130967490Y-155634504D01*
X131445868Y-155156126D01*
X131507191Y-155122641D01*
X131576883Y-155127625D01*
X131615879Y-155152687D01*
X131616512Y-155151947D01*
X131620213Y-155155109D01*
X131792179Y-155280048D01*
X131792181Y-155280049D01*
X131792184Y-155280051D01*
X131981588Y-155376557D01*
X132183757Y-155442246D01*
X132393713Y-155475500D01*
X132393714Y-155475500D01*
X132606286Y-155475500D01*
X132606287Y-155475500D01*
X132816243Y-155442246D01*
X133018412Y-155376557D01*
X133207816Y-155280051D01*
X133249521Y-155249751D01*
X133379786Y-155155109D01*
X133379788Y-155155106D01*
X133379792Y-155155104D01*
X133530104Y-155004792D01*
X133649991Y-154839779D01*
X133705320Y-154797115D01*
X133774933Y-154791136D01*
X133836729Y-154823741D01*
X133850627Y-154839781D01*
X133970272Y-155004459D01*
X133970276Y-155004464D01*
X134120535Y-155154723D01*
X134120540Y-155154727D01*
X134292442Y-155279620D01*
X134481782Y-155376095D01*
X134683871Y-155441757D01*
X134750000Y-155452231D01*
X134750000Y-154404145D01*
X134816657Y-154442630D01*
X134937465Y-154475000D01*
X135062535Y-154475000D01*
X135183343Y-154442630D01*
X135250000Y-154404145D01*
X135250000Y-155452230D01*
X135316126Y-155441757D01*
X135316129Y-155441757D01*
X135518217Y-155376095D01*
X135707557Y-155279620D01*
X135879459Y-155154727D01*
X135879464Y-155154723D01*
X136029723Y-155004464D01*
X136029727Y-155004459D01*
X136154620Y-154832557D01*
X136251095Y-154643217D01*
X136316757Y-154441130D01*
X136316757Y-154441127D01*
X136347030Y-154250000D01*
X135404146Y-154250000D01*
X135442630Y-154183343D01*
X135475000Y-154062535D01*
X135475000Y-153937465D01*
X135442630Y-153816657D01*
X135404146Y-153750000D01*
X136347030Y-153750000D01*
X136316757Y-153558872D01*
X136316757Y-153558869D01*
X136251095Y-153356782D01*
X136154620Y-153167442D01*
X136029727Y-152995540D01*
X136029723Y-152995535D01*
X135879464Y-152845276D01*
X135879459Y-152845272D01*
X135707557Y-152720379D01*
X135518215Y-152623903D01*
X135316124Y-152558241D01*
X135250000Y-152547768D01*
X135250000Y-153595854D01*
X135183343Y-153557370D01*
X135062535Y-153525000D01*
X134937465Y-153525000D01*
X134816657Y-153557370D01*
X134750000Y-153595854D01*
X134750000Y-152650596D01*
X134758644Y-152621155D01*
X134765168Y-152591169D01*
X134768922Y-152586153D01*
X134769685Y-152583557D01*
X134786319Y-152562915D01*
X134946312Y-152402922D01*
X135299138Y-152050097D01*
X136712416Y-150636819D01*
X136773739Y-150603334D01*
X136800097Y-150600500D01*
X138920234Y-150600500D01*
X138987273Y-150620185D01*
X138989125Y-150621398D01*
X139120814Y-150709390D01*
X139120827Y-150709397D01*
X139266498Y-150769735D01*
X139266503Y-150769737D01*
X139421153Y-150800499D01*
X139421156Y-150800500D01*
X139421158Y-150800500D01*
X139578844Y-150800500D01*
X139578845Y-150800499D01*
X139733497Y-150769737D01*
X139879179Y-150709394D01*
X140010289Y-150621789D01*
X140121789Y-150510289D01*
X140209394Y-150379179D01*
X140211657Y-150373717D01*
X140269735Y-150233501D01*
X140269737Y-150233497D01*
X140300500Y-150078842D01*
X140300500Y-149921158D01*
X140300500Y-149921155D01*
X140300499Y-149921153D01*
X140269738Y-149766510D01*
X140269737Y-149766503D01*
X140265496Y-149756265D01*
X140209397Y-149620827D01*
X140209390Y-149620814D01*
X140121789Y-149489711D01*
X140121786Y-149489707D01*
X140010292Y-149378213D01*
X140010288Y-149378210D01*
X139879185Y-149290609D01*
X139879172Y-149290602D01*
X139733501Y-149230264D01*
X139733489Y-149230261D01*
X139578845Y-149199500D01*
X139578842Y-149199500D01*
X139421158Y-149199500D01*
X139421155Y-149199500D01*
X139266510Y-149230261D01*
X139266498Y-149230264D01*
X139120827Y-149290602D01*
X139120814Y-149290609D01*
X138989125Y-149378602D01*
X138922447Y-149399480D01*
X138920234Y-149399500D01*
X136496336Y-149399500D01*
X136429297Y-149379815D01*
X136383542Y-149327011D01*
X136373598Y-149257853D01*
X136402623Y-149194297D01*
X136408655Y-149187819D01*
X138968264Y-146628210D01*
X141547282Y-144049191D01*
X141608603Y-144015708D01*
X141678295Y-144020692D01*
X141734228Y-144062564D01*
X141758645Y-144128028D01*
X141758825Y-144142672D01*
X141758199Y-144156042D01*
X141748499Y-144192243D01*
X141748499Y-144350357D01*
X141748500Y-144350360D01*
X141748500Y-144363251D01*
X141748500Y-154873490D01*
X141748499Y-154873508D01*
X141748499Y-155039214D01*
X141748498Y-155039214D01*
X141786251Y-155180109D01*
X141789423Y-155191945D01*
X141804844Y-155218655D01*
X141804845Y-155218657D01*
X141804846Y-155218657D01*
X141862035Y-155317712D01*
X141868479Y-155328874D01*
X141868481Y-155328877D01*
X141987349Y-155447745D01*
X141987355Y-155447750D01*
X142179979Y-155640374D01*
X142179989Y-155640385D01*
X142184319Y-155644715D01*
X142184320Y-155644716D01*
X142296124Y-155756520D01*
X142382935Y-155806639D01*
X142382937Y-155806641D01*
X142433048Y-155835573D01*
X142433055Y-155835577D01*
X142585782Y-155876500D01*
X142585783Y-155876500D01*
X147775500Y-155876500D01*
X147842539Y-155896185D01*
X147888294Y-155948989D01*
X147899500Y-156000500D01*
X147899500Y-156413330D01*
X147899499Y-156413348D01*
X147899499Y-156579054D01*
X147899498Y-156579054D01*
X147899499Y-156579057D01*
X147940423Y-156731785D01*
X147947087Y-156743327D01*
X147947088Y-156743328D01*
X147947088Y-156743329D01*
X148019477Y-156868712D01*
X148019481Y-156868717D01*
X148138349Y-156987585D01*
X148138355Y-156987590D01*
X149938584Y-158787819D01*
X149972069Y-158849142D01*
X149967085Y-158918834D01*
X149925213Y-158974767D01*
X149859749Y-158999184D01*
X149850903Y-158999500D01*
X121657703Y-158999500D01*
X121590664Y-158979815D01*
X121544909Y-158927011D01*
X121534965Y-158857853D01*
X121536086Y-158851309D01*
X121550499Y-158778846D01*
X121550500Y-158778844D01*
X121550500Y-158621155D01*
X121550499Y-158621153D01*
X121542835Y-158582623D01*
X121519737Y-158466503D01*
X121519735Y-158466498D01*
X121459397Y-158320827D01*
X121459390Y-158320814D01*
X121371789Y-158189711D01*
X121371786Y-158189707D01*
X121260292Y-158078213D01*
X121260288Y-158078210D01*
X121129185Y-157990609D01*
X121129172Y-157990602D01*
X120983501Y-157930264D01*
X120983489Y-157930261D01*
X120828845Y-157899500D01*
X120828842Y-157899500D01*
X120671158Y-157899500D01*
X120671155Y-157899500D01*
X120516510Y-157930261D01*
X120516498Y-157930264D01*
X120370827Y-157990602D01*
X120370814Y-157990609D01*
X120239125Y-158078602D01*
X120172447Y-158099480D01*
X120170234Y-158099500D01*
X105943097Y-158099500D01*
X105876058Y-158079815D01*
X105855416Y-158063181D01*
X103604416Y-155812181D01*
X103570931Y-155750858D01*
X103575915Y-155681166D01*
X103617787Y-155625233D01*
X103683251Y-155600816D01*
X103692097Y-155600500D01*
X110063743Y-155600500D01*
X110093183Y-155609144D01*
X110123170Y-155615668D01*
X110128185Y-155619422D01*
X110130782Y-155620185D01*
X110151424Y-155636819D01*
X110179979Y-155665374D01*
X110179989Y-155665385D01*
X110184319Y-155669715D01*
X110184320Y-155669716D01*
X110296124Y-155781520D01*
X110380997Y-155830521D01*
X110380998Y-155830522D01*
X110433049Y-155860574D01*
X110433050Y-155860574D01*
X110433055Y-155860577D01*
X110585782Y-155901500D01*
X110585783Y-155901500D01*
X112612331Y-155901500D01*
X112612347Y-155901501D01*
X112619943Y-155901501D01*
X112778054Y-155901501D01*
X112778057Y-155901501D01*
X112930785Y-155860577D01*
X112930787Y-155860575D01*
X112930789Y-155860575D01*
X112930790Y-155860574D01*
X112982842Y-155830522D01*
X112982843Y-155830521D01*
X113067716Y-155781520D01*
X113179520Y-155669716D01*
X113179520Y-155669714D01*
X113189724Y-155659511D01*
X113189728Y-155659506D01*
X113402263Y-155446970D01*
X113463584Y-155413487D01*
X113528260Y-155416722D01*
X113548487Y-155423294D01*
X113683757Y-155467246D01*
X113893713Y-155500500D01*
X113893714Y-155500500D01*
X114106286Y-155500500D01*
X114106287Y-155500500D01*
X114316243Y-155467246D01*
X114518412Y-155401557D01*
X114707816Y-155305051D01*
X114742819Y-155279620D01*
X114879786Y-155180109D01*
X114879788Y-155180106D01*
X114879792Y-155180104D01*
X115030104Y-155029792D01*
X115030106Y-155029788D01*
X115030109Y-155029786D01*
X115155048Y-154857820D01*
X115155047Y-154857820D01*
X115155051Y-154857816D01*
X115251557Y-154668412D01*
X115317246Y-154466243D01*
X115350500Y-154256287D01*
X115350500Y-153743713D01*
X115317246Y-153533757D01*
X115251557Y-153331588D01*
X115155051Y-153142184D01*
X115155049Y-153142181D01*
X115155048Y-153142179D01*
X115030109Y-152970213D01*
X114879786Y-152819890D01*
X114707817Y-152694949D01*
X114640418Y-152660608D01*
X114589621Y-152612634D01*
X114572826Y-152544813D01*
X114595363Y-152478678D01*
X114609025Y-152462448D01*
X124321474Y-142750000D01*
X125864638Y-142750000D01*
X125869548Y-142781002D01*
X125927914Y-142960637D01*
X126013670Y-143128940D01*
X126124685Y-143281741D01*
X126124689Y-143281746D01*
X126258253Y-143415310D01*
X126258258Y-143415314D01*
X126411059Y-143526329D01*
X126579362Y-143612085D01*
X126758997Y-143670451D01*
X126790000Y-143675362D01*
X126790000Y-143675361D01*
X127290000Y-143675361D01*
X127321002Y-143670451D01*
X127500637Y-143612085D01*
X127668940Y-143526329D01*
X127821741Y-143415314D01*
X127821746Y-143415310D01*
X127955310Y-143281746D01*
X127955314Y-143281741D01*
X128066329Y-143128940D01*
X128152085Y-142960637D01*
X128210451Y-142781002D01*
X128215362Y-142750000D01*
X127290000Y-142750000D01*
X127290000Y-143675361D01*
X126790000Y-143675361D01*
X126790000Y-142750000D01*
X125864638Y-142750000D01*
X124321474Y-142750000D01*
X124617552Y-142453922D01*
X126690000Y-142453922D01*
X126690000Y-142546078D01*
X126713852Y-142635095D01*
X126759930Y-142714905D01*
X126825095Y-142780070D01*
X126904905Y-142826148D01*
X126993922Y-142850000D01*
X127086078Y-142850000D01*
X127175095Y-142826148D01*
X127254905Y-142780070D01*
X127320070Y-142714905D01*
X127366148Y-142635095D01*
X127390000Y-142546078D01*
X127390000Y-142453922D01*
X127366148Y-142364905D01*
X127320070Y-142285095D01*
X127284975Y-142250000D01*
X127290000Y-142250000D01*
X128215362Y-142250000D01*
X128210451Y-142218997D01*
X128152085Y-142039362D01*
X128066329Y-141871059D01*
X127955314Y-141718258D01*
X127955310Y-141718253D01*
X127821746Y-141584689D01*
X127821741Y-141584685D01*
X127668940Y-141473670D01*
X127500635Y-141387913D01*
X127321004Y-141329549D01*
X127320995Y-141329547D01*
X127290000Y-141324637D01*
X127290000Y-142250000D01*
X127284975Y-142250000D01*
X127254905Y-142219930D01*
X127175095Y-142173852D01*
X127086078Y-142150000D01*
X126993922Y-142150000D01*
X126904905Y-142173852D01*
X126825095Y-142219930D01*
X126759930Y-142285095D01*
X126713852Y-142364905D01*
X126690000Y-142453922D01*
X124617552Y-142453922D01*
X124821474Y-142250000D01*
X125864638Y-142250000D01*
X126790000Y-142250000D01*
X126790000Y-141324637D01*
X126789999Y-141324637D01*
X126759004Y-141329547D01*
X126758995Y-141329549D01*
X126579364Y-141387913D01*
X126411059Y-141473670D01*
X126258258Y-141584685D01*
X126258253Y-141584689D01*
X126124689Y-141718253D01*
X126124685Y-141718258D01*
X126013670Y-141871059D01*
X125927914Y-142039362D01*
X125869548Y-142218997D01*
X125864638Y-142250000D01*
X124821474Y-142250000D01*
X128868713Y-138202761D01*
X128868716Y-138202760D01*
X128980520Y-138090956D01*
X129030639Y-138004144D01*
X129059577Y-137954025D01*
X129100501Y-137801297D01*
X129100501Y-137643183D01*
X129100501Y-137635588D01*
X129100500Y-137635570D01*
X129100500Y-135619060D01*
X129100501Y-135619057D01*
X129100501Y-135460942D01*
X129100500Y-135460938D01*
X129100500Y-132864997D01*
X129120185Y-132797958D01*
X129172989Y-132752203D01*
X129242147Y-132742259D01*
X129305703Y-132771284D01*
X129312181Y-132777316D01*
X134328761Y-137793896D01*
X134362246Y-137855219D01*
X134359011Y-137919894D01*
X134336185Y-137990145D01*
X134301700Y-138207878D01*
X134301700Y-138428321D01*
X134336185Y-138646052D01*
X134404303Y-138855703D01*
X134404304Y-138855706D01*
X134504387Y-139052125D01*
X134633952Y-139230458D01*
X134633956Y-139230463D01*
X134789836Y-139386343D01*
X134789841Y-139386347D01*
X134945392Y-139499360D01*
X134968178Y-139515915D01*
X135096575Y-139581337D01*
X135164593Y-139615995D01*
X135164596Y-139615996D01*
X135231725Y-139637807D01*
X135374249Y-139684115D01*
X135591978Y-139718600D01*
X135591979Y-139718600D01*
X135812421Y-139718600D01*
X135812422Y-139718600D01*
X136030151Y-139684115D01*
X136239806Y-139615995D01*
X136436222Y-139515915D01*
X136614565Y-139386342D01*
X136770442Y-139230465D01*
X136900015Y-139052122D01*
X137000095Y-138855706D01*
X137068215Y-138646051D01*
X137102700Y-138428322D01*
X137102700Y-138207878D01*
X137068215Y-137990149D01*
X137006854Y-137801297D01*
X137000096Y-137780496D01*
X137000095Y-137780493D01*
X136939019Y-137660627D01*
X136900015Y-137584078D01*
X136853254Y-137519716D01*
X136770447Y-137405741D01*
X136770443Y-137405736D01*
X136614563Y-137249856D01*
X136614558Y-137249852D01*
X136436225Y-137120287D01*
X136436224Y-137120286D01*
X136436222Y-137120285D01*
X136373296Y-137088222D01*
X136239806Y-137020204D01*
X136239803Y-137020203D01*
X136030152Y-136952085D01*
X135901060Y-136931639D01*
X135812422Y-136917600D01*
X135591978Y-136917600D01*
X135548432Y-136924497D01*
X135374245Y-136952085D01*
X135303994Y-136974911D01*
X135234153Y-136976906D01*
X135177996Y-136944661D01*
X129841253Y-131607918D01*
X134302200Y-131607918D01*
X134302200Y-131828281D01*
X134336673Y-132045935D01*
X134404767Y-132255510D01*
X134504811Y-132451856D01*
X134551132Y-132515613D01*
X135137587Y-131929158D01*
X135143089Y-131949691D01*
X135222081Y-132086508D01*
X135333792Y-132198219D01*
X135470609Y-132277211D01*
X135491139Y-132282712D01*
X134904685Y-132869165D01*
X134904685Y-132869166D01*
X134968443Y-132915488D01*
X135164789Y-133015532D01*
X135374364Y-133083626D01*
X135592019Y-133118100D01*
X135812381Y-133118100D01*
X136030035Y-133083626D01*
X136239610Y-133015532D01*
X136435960Y-132915486D01*
X136499713Y-132869166D01*
X136499714Y-132869166D01*
X135913259Y-132282712D01*
X135933791Y-132277211D01*
X136070608Y-132198219D01*
X136182319Y-132086508D01*
X136261311Y-131949691D01*
X136266812Y-131929160D01*
X136853266Y-132515614D01*
X136853266Y-132515613D01*
X136899586Y-132451860D01*
X136999632Y-132255510D01*
X137067726Y-132045935D01*
X137102200Y-131828281D01*
X137102200Y-131607918D01*
X137067726Y-131390264D01*
X136999632Y-131180689D01*
X136899588Y-130984343D01*
X136853266Y-130920585D01*
X136853265Y-130920585D01*
X136266812Y-131507039D01*
X136261311Y-131486509D01*
X136182319Y-131349692D01*
X136070608Y-131237981D01*
X135933791Y-131158989D01*
X135913257Y-131153487D01*
X136499713Y-130567032D01*
X136435956Y-130520711D01*
X136239610Y-130420667D01*
X136030035Y-130352573D01*
X135812381Y-130318100D01*
X135592019Y-130318100D01*
X135374364Y-130352573D01*
X135164789Y-130420667D01*
X134968433Y-130520716D01*
X134904685Y-130567031D01*
X134904685Y-130567032D01*
X135491140Y-131153487D01*
X135470609Y-131158989D01*
X135333792Y-131237981D01*
X135222081Y-131349692D01*
X135143089Y-131486509D01*
X135137587Y-131507040D01*
X134551132Y-130920585D01*
X134551131Y-130920585D01*
X134504816Y-130984333D01*
X134404767Y-131180689D01*
X134336673Y-131390264D01*
X134302200Y-131607918D01*
X129841253Y-131607918D01*
X129136819Y-130903484D01*
X129122115Y-130876556D01*
X129105523Y-130850738D01*
X129104631Y-130844537D01*
X129103334Y-130842161D01*
X129100500Y-130815803D01*
X129100500Y-121728846D01*
X129120185Y-121661807D01*
X129172989Y-121616052D01*
X129177048Y-121614285D01*
X129275876Y-121573349D01*
X129275876Y-121573348D01*
X129275888Y-121573344D01*
X129474612Y-121458611D01*
X129656661Y-121318919D01*
X129656665Y-121318914D01*
X129656670Y-121318911D01*
X129818911Y-121156670D01*
X129818914Y-121156665D01*
X129818919Y-121156661D01*
X129958611Y-120974612D01*
X130073344Y-120775888D01*
X130161158Y-120563887D01*
X130220548Y-120342238D01*
X130250500Y-120114734D01*
X130250500Y-119885266D01*
X130220548Y-119657762D01*
X130161158Y-119436113D01*
X130096170Y-119279219D01*
X130073349Y-119224123D01*
X130073346Y-119224117D01*
X130073344Y-119224112D01*
X129958611Y-119025388D01*
X129958608Y-119025385D01*
X129958607Y-119025382D01*
X129818918Y-118843338D01*
X129818911Y-118843330D01*
X129656670Y-118681089D01*
X129656661Y-118681081D01*
X129474617Y-118541392D01*
X129275890Y-118426657D01*
X129275876Y-118426650D01*
X129063887Y-118338842D01*
X128970965Y-118313944D01*
X128842238Y-118279452D01*
X128804215Y-118274446D01*
X128614741Y-118249500D01*
X128614734Y-118249500D01*
X128385266Y-118249500D01*
X128385258Y-118249500D01*
X128168715Y-118278009D01*
X128157762Y-118279452D01*
X128084445Y-118299097D01*
X127936112Y-118338842D01*
X127724123Y-118426650D01*
X127724109Y-118426657D01*
X127525382Y-118541392D01*
X127343338Y-118681081D01*
X127181081Y-118843338D01*
X127041392Y-119025382D01*
X126926657Y-119224109D01*
X126926650Y-119224123D01*
X126838842Y-119436112D01*
X126824123Y-119491046D01*
X126787462Y-119627870D01*
X126779453Y-119657759D01*
X126779451Y-119657770D01*
X126749500Y-119885258D01*
X126749500Y-120114741D01*
X126756928Y-120171158D01*
X126779452Y-120342238D01*
X126791602Y-120387583D01*
X126838842Y-120563887D01*
X126926650Y-120775876D01*
X126926657Y-120775890D01*
X127041392Y-120974617D01*
X127181081Y-121156661D01*
X127181089Y-121156670D01*
X127343330Y-121318911D01*
X127343338Y-121318918D01*
X127343339Y-121318919D01*
X127360482Y-121332073D01*
X127525382Y-121458607D01*
X127525385Y-121458608D01*
X127525388Y-121458611D01*
X127724112Y-121573344D01*
X127724117Y-121573346D01*
X127724123Y-121573349D01*
X127822952Y-121614285D01*
X127877356Y-121658125D01*
X127899421Y-121724420D01*
X127899500Y-121728846D01*
X127899500Y-130397199D01*
X127879815Y-130464238D01*
X127827011Y-130509993D01*
X127757853Y-130519937D01*
X127702615Y-130497518D01*
X127669198Y-130473239D01*
X127500836Y-130387454D01*
X127321118Y-130329059D01*
X127134486Y-130299500D01*
X127134481Y-130299500D01*
X126945519Y-130299500D01*
X126945514Y-130299500D01*
X126758881Y-130329059D01*
X126579163Y-130387454D01*
X126410797Y-130473242D01*
X126297385Y-130555641D01*
X126231579Y-130579121D01*
X126163525Y-130563296D01*
X126114830Y-130513190D01*
X126100500Y-130455323D01*
X126100500Y-125579765D01*
X126120185Y-125512726D01*
X126121398Y-125510874D01*
X126174575Y-125431290D01*
X126209394Y-125379179D01*
X126269737Y-125233497D01*
X126300500Y-125078842D01*
X126300500Y-124921158D01*
X126300500Y-124921155D01*
X126300499Y-124921153D01*
X126269738Y-124766510D01*
X126269737Y-124766503D01*
X126243655Y-124703534D01*
X126209397Y-124620827D01*
X126209390Y-124620814D01*
X126121789Y-124489711D01*
X126121786Y-124489707D01*
X126010292Y-124378213D01*
X126010288Y-124378210D01*
X125879185Y-124290609D01*
X125879172Y-124290602D01*
X125733501Y-124230264D01*
X125733489Y-124230261D01*
X125578845Y-124199500D01*
X125578842Y-124199500D01*
X125421158Y-124199500D01*
X125421155Y-124199500D01*
X125266510Y-124230261D01*
X125266498Y-124230264D01*
X125120827Y-124290602D01*
X125120814Y-124290609D01*
X124989711Y-124378210D01*
X124989707Y-124378213D01*
X124878213Y-124489707D01*
X124878210Y-124489711D01*
X124790609Y-124620814D01*
X124790602Y-124620827D01*
X124730264Y-124766498D01*
X124730261Y-124766510D01*
X124699500Y-124921153D01*
X124699500Y-125078846D01*
X124730261Y-125233489D01*
X124730264Y-125233501D01*
X124790602Y-125379172D01*
X124790609Y-125379185D01*
X124878602Y-125510874D01*
X124899480Y-125577551D01*
X124899500Y-125579765D01*
X124899500Y-133159902D01*
X124879815Y-133226941D01*
X124863181Y-133247583D01*
X122320830Y-135789933D01*
X122259507Y-135823418D01*
X122213751Y-135824725D01*
X122054486Y-135799500D01*
X122054481Y-135799500D01*
X121865519Y-135799500D01*
X121865514Y-135799500D01*
X121678881Y-135829059D01*
X121499163Y-135887454D01*
X121330800Y-135973240D01*
X121243579Y-136036610D01*
X121177927Y-136084310D01*
X121177925Y-136084312D01*
X121177924Y-136084312D01*
X121044312Y-136217924D01*
X121044312Y-136217925D01*
X121044310Y-136217927D01*
X120996610Y-136283579D01*
X120933240Y-136370800D01*
X120847454Y-136539163D01*
X120789059Y-136718881D01*
X120759500Y-136905513D01*
X120759500Y-137094486D01*
X120789059Y-137281118D01*
X120847454Y-137460836D01*
X120933240Y-137629199D01*
X121044310Y-137782073D01*
X121177927Y-137915690D01*
X121330801Y-138026760D01*
X121410347Y-138067290D01*
X121499163Y-138112545D01*
X121499165Y-138112545D01*
X121499168Y-138112547D01*
X121602976Y-138146276D01*
X121678875Y-138170938D01*
X121678876Y-138170938D01*
X121678882Y-138170940D01*
X121756239Y-138183192D01*
X121819370Y-138213119D01*
X121856302Y-138272430D01*
X121855305Y-138342293D01*
X121824519Y-138393345D01*
X114812181Y-145405684D01*
X114750858Y-145439169D01*
X114681166Y-145434185D01*
X114625233Y-145392313D01*
X114600816Y-145326849D01*
X114600500Y-145318003D01*
X114600500Y-125889060D01*
X114600501Y-125889047D01*
X114600501Y-125720944D01*
X114600501Y-125720943D01*
X114559577Y-125568216D01*
X114538424Y-125531578D01*
X114480524Y-125431290D01*
X114480518Y-125431282D01*
X109436819Y-120387583D01*
X109403334Y-120326260D01*
X109400500Y-120299902D01*
X109400500Y-119885305D01*
X119450000Y-119885305D01*
X119450000Y-120114694D01*
X119450001Y-120114710D01*
X119479942Y-120342137D01*
X119539318Y-120563730D01*
X119627102Y-120775659D01*
X119627106Y-120775669D01*
X119741799Y-120974324D01*
X119741805Y-120974331D01*
X119798381Y-121048064D01*
X120409521Y-120436923D01*
X120500924Y-120573717D01*
X120626283Y-120699076D01*
X120763074Y-120790476D01*
X120151934Y-121401617D01*
X120151934Y-121401618D01*
X120225666Y-121458194D01*
X120424330Y-121572893D01*
X120424340Y-121572897D01*
X120636269Y-121660681D01*
X120857862Y-121720057D01*
X121085289Y-121749998D01*
X121085306Y-121750000D01*
X121314694Y-121750000D01*
X121314710Y-121749998D01*
X121542137Y-121720057D01*
X121763730Y-121660681D01*
X121979047Y-121571494D01*
X122048516Y-121564025D01*
X122110996Y-121595300D01*
X122146648Y-121655389D01*
X122150500Y-121686055D01*
X122150500Y-130175500D01*
X122130815Y-130242539D01*
X122078011Y-130288294D01*
X122026500Y-130299500D01*
X121865514Y-130299500D01*
X121678881Y-130329059D01*
X121499163Y-130387454D01*
X121330800Y-130473240D01*
X121266802Y-130519738D01*
X121177927Y-130584310D01*
X121177925Y-130584312D01*
X121177924Y-130584312D01*
X121044312Y-130717924D01*
X121044312Y-130717925D01*
X121044310Y-130717927D01*
X120996610Y-130783579D01*
X120933240Y-130870800D01*
X120847454Y-131039163D01*
X120789059Y-131218881D01*
X120759500Y-131405513D01*
X120759500Y-131594486D01*
X120789059Y-131781118D01*
X120847454Y-131960836D01*
X120903919Y-132071653D01*
X120933240Y-132129199D01*
X121044310Y-132282073D01*
X121177927Y-132415690D01*
X121330801Y-132526760D01*
X121366466Y-132544932D01*
X121499163Y-132612545D01*
X121499165Y-132612545D01*
X121499168Y-132612547D01*
X121595497Y-132643846D01*
X121678881Y-132670940D01*
X121865514Y-132700500D01*
X121865519Y-132700500D01*
X122054486Y-132700500D01*
X122241118Y-132670940D01*
X122420832Y-132612547D01*
X122589199Y-132526760D01*
X122742073Y-132415690D01*
X122875690Y-132282073D01*
X122986760Y-132129199D01*
X123072547Y-131960832D01*
X123130940Y-131781118D01*
X123153432Y-131639109D01*
X123160500Y-131594486D01*
X123160500Y-131405513D01*
X123138995Y-131269738D01*
X123135274Y-131246246D01*
X123144228Y-131176955D01*
X123170063Y-131139171D01*
X123231520Y-131077716D01*
X123253776Y-131039168D01*
X123300730Y-130957841D01*
X123300731Y-130957838D01*
X123310577Y-130940785D01*
X123351501Y-130788057D01*
X123351501Y-130629943D01*
X123351501Y-130622348D01*
X123351500Y-130622330D01*
X123351500Y-120171153D01*
X123949500Y-120171153D01*
X123949500Y-120328846D01*
X123980261Y-120483489D01*
X123980264Y-120483501D01*
X124040602Y-120629172D01*
X124040609Y-120629185D01*
X124128210Y-120760288D01*
X124128213Y-120760292D01*
X124239707Y-120871786D01*
X124239711Y-120871789D01*
X124370814Y-120959390D01*
X124370827Y-120959397D01*
X124495004Y-121010832D01*
X124516503Y-121019737D01*
X124671153Y-121050499D01*
X124671156Y-121050500D01*
X124671158Y-121050500D01*
X124828844Y-121050500D01*
X124828845Y-121050499D01*
X124983497Y-121019737D01*
X125129179Y-120959394D01*
X125260289Y-120871789D01*
X125371789Y-120760289D01*
X125459394Y-120629179D01*
X125519737Y-120483497D01*
X125550500Y-120328842D01*
X125550500Y-120171158D01*
X125550500Y-120171155D01*
X125550499Y-120171153D01*
X125548582Y-120161517D01*
X125519737Y-120016503D01*
X125487033Y-119937547D01*
X125459397Y-119870827D01*
X125459390Y-119870814D01*
X125384160Y-119758225D01*
X125363282Y-119691548D01*
X125381766Y-119624167D01*
X125399577Y-119601657D01*
X133114416Y-111886819D01*
X133175739Y-111853334D01*
X133202097Y-111850500D01*
X136670234Y-111850500D01*
X136737273Y-111870185D01*
X136739125Y-111871398D01*
X136870814Y-111959390D01*
X136870827Y-111959397D01*
X137016498Y-112019735D01*
X137016503Y-112019737D01*
X137171153Y-112050499D01*
X137171156Y-112050500D01*
X137171158Y-112050500D01*
X137328844Y-112050500D01*
X137328845Y-112050499D01*
X137483497Y-112019737D01*
X137629179Y-111959394D01*
X137760289Y-111871789D01*
X137871789Y-111760289D01*
X137959394Y-111629179D01*
X138019737Y-111483497D01*
X138050500Y-111328842D01*
X138050500Y-111171158D01*
X138050500Y-111171155D01*
X138050499Y-111171153D01*
X138019738Y-111016510D01*
X138019737Y-111016503D01*
X137963728Y-110881284D01*
X137959397Y-110870827D01*
X137959390Y-110870814D01*
X137871789Y-110739711D01*
X137871786Y-110739707D01*
X137760292Y-110628213D01*
X137760288Y-110628210D01*
X137629185Y-110540609D01*
X137629172Y-110540602D01*
X137483501Y-110480264D01*
X137483489Y-110480261D01*
X137328845Y-110449500D01*
X137328842Y-110449500D01*
X137171158Y-110449500D01*
X137171155Y-110449500D01*
X137016510Y-110480261D01*
X137016498Y-110480264D01*
X136870827Y-110540602D01*
X136870814Y-110540609D01*
X136739125Y-110628602D01*
X136672447Y-110649480D01*
X136670234Y-110649500D01*
X132988669Y-110649500D01*
X132988653Y-110649499D01*
X132981057Y-110649499D01*
X132822943Y-110649499D01*
X132715587Y-110678265D01*
X132670210Y-110690424D01*
X132670209Y-110690425D01*
X132620096Y-110719359D01*
X132620095Y-110719360D01*
X132584853Y-110739707D01*
X132533285Y-110769479D01*
X132533282Y-110769481D01*
X124269479Y-119033284D01*
X124253835Y-119060381D01*
X124247223Y-119071835D01*
X124230962Y-119100000D01*
X124191193Y-119168882D01*
X124190423Y-119170215D01*
X124149499Y-119322943D01*
X124149499Y-119322945D01*
X124149499Y-119491046D01*
X124149500Y-119491059D01*
X124149500Y-119670234D01*
X124129815Y-119737273D01*
X124128602Y-119739125D01*
X124040609Y-119870814D01*
X124040602Y-119870827D01*
X123980264Y-120016498D01*
X123980261Y-120016510D01*
X123949500Y-120171153D01*
X123351500Y-120171153D01*
X123351500Y-118299097D01*
X123371185Y-118232058D01*
X123387819Y-118211416D01*
X127400016Y-114199219D01*
X131764662Y-109834572D01*
X131825983Y-109801089D01*
X131828150Y-109800638D01*
X131886085Y-109789113D01*
X131983497Y-109769737D01*
X132129179Y-109709394D01*
X132260289Y-109621789D01*
X132371789Y-109510289D01*
X132459394Y-109379179D01*
X132519737Y-109233497D01*
X132550500Y-109078842D01*
X132550500Y-108921158D01*
X132550500Y-108921155D01*
X132550499Y-108921153D01*
X132519738Y-108766510D01*
X132519738Y-108766508D01*
X132519737Y-108766503D01*
X132501449Y-108722351D01*
X132459397Y-108620827D01*
X132459390Y-108620814D01*
X132371789Y-108489711D01*
X132371786Y-108489707D01*
X132260292Y-108378213D01*
X132260288Y-108378210D01*
X132129185Y-108290609D01*
X132129172Y-108290602D01*
X131983501Y-108230264D01*
X131983489Y-108230261D01*
X131828845Y-108199500D01*
X131828842Y-108199500D01*
X131671158Y-108199500D01*
X131671155Y-108199500D01*
X131516510Y-108230261D01*
X131516498Y-108230264D01*
X131370827Y-108290602D01*
X131370814Y-108290609D01*
X131239711Y-108378210D01*
X131239707Y-108378213D01*
X131128213Y-108489707D01*
X131128210Y-108489711D01*
X131040609Y-108620814D01*
X131040602Y-108620827D01*
X130980264Y-108766498D01*
X130980261Y-108766508D01*
X130949361Y-108921850D01*
X130916976Y-108983761D01*
X130915425Y-108985339D01*
X122270481Y-117630282D01*
X122270477Y-117630287D01*
X122248872Y-117667711D01*
X122248871Y-117667713D01*
X122191423Y-117767215D01*
X122150499Y-117919943D01*
X122150499Y-117919945D01*
X122150499Y-118088046D01*
X122150500Y-118088059D01*
X122150500Y-118313944D01*
X122130815Y-118380983D01*
X122078011Y-118426738D01*
X122008853Y-118436682D01*
X121979048Y-118428505D01*
X121763733Y-118339319D01*
X121542137Y-118279942D01*
X121314710Y-118250001D01*
X121314694Y-118250000D01*
X121085306Y-118250000D01*
X121085289Y-118250001D01*
X120857862Y-118279942D01*
X120636269Y-118339318D01*
X120424340Y-118427102D01*
X120424330Y-118427106D01*
X120225673Y-118541801D01*
X120225659Y-118541810D01*
X120151934Y-118598380D01*
X120151934Y-118598381D01*
X120763075Y-119209522D01*
X120626283Y-119300924D01*
X120500924Y-119426283D01*
X120409522Y-119563075D01*
X119798380Y-118951934D01*
X119741810Y-119025659D01*
X119741801Y-119025673D01*
X119627106Y-119224330D01*
X119627102Y-119224340D01*
X119539318Y-119436269D01*
X119479942Y-119657862D01*
X119450001Y-119885289D01*
X119450000Y-119885305D01*
X109400500Y-119885305D01*
X109400500Y-119355513D01*
X109370940Y-119168881D01*
X109324408Y-119025673D01*
X109312547Y-118989168D01*
X109312545Y-118989165D01*
X109312545Y-118989163D01*
X109258121Y-118882351D01*
X109226760Y-118820801D01*
X109115690Y-118667927D01*
X108982073Y-118534310D01*
X108829199Y-118423240D01*
X108793672Y-118405138D01*
X108660836Y-118337454D01*
X108481118Y-118279059D01*
X108294486Y-118249500D01*
X108294481Y-118249500D01*
X108105519Y-118249500D01*
X108105514Y-118249500D01*
X107918881Y-118279059D01*
X107739163Y-118337454D01*
X107570800Y-118423240D01*
X107498920Y-118475465D01*
X107417927Y-118534310D01*
X107417925Y-118534312D01*
X107417924Y-118534312D01*
X107284312Y-118667924D01*
X107284312Y-118667925D01*
X107284310Y-118667927D01*
X107247043Y-118719220D01*
X107173240Y-118820800D01*
X107110204Y-118944515D01*
X107062229Y-118995311D01*
X106994408Y-119012106D01*
X106928273Y-118989568D01*
X106889234Y-118944515D01*
X106826329Y-118821059D01*
X106715314Y-118668258D01*
X106715310Y-118668253D01*
X106581746Y-118534689D01*
X106581741Y-118534685D01*
X106428940Y-118423670D01*
X106260635Y-118337913D01*
X106081004Y-118279549D01*
X106080995Y-118279547D01*
X106050000Y-118274637D01*
X106050000Y-119166988D01*
X105992993Y-119134075D01*
X105865826Y-119100000D01*
X105734174Y-119100000D01*
X105607007Y-119134075D01*
X105550000Y-119166988D01*
X105550000Y-118274637D01*
X105549999Y-118274637D01*
X105519004Y-118279547D01*
X105518995Y-118279549D01*
X105339364Y-118337913D01*
X105171059Y-118423670D01*
X105018258Y-118534685D01*
X105018253Y-118534689D01*
X104884689Y-118668253D01*
X104884685Y-118668258D01*
X104773668Y-118821061D01*
X104710764Y-118944516D01*
X104662790Y-118995311D01*
X104594969Y-119012106D01*
X104528834Y-118989568D01*
X104489795Y-118944515D01*
X104478057Y-118921478D01*
X104426760Y-118820801D01*
X104315690Y-118667927D01*
X104182073Y-118534310D01*
X104029199Y-118423240D01*
X103993672Y-118405138D01*
X103860836Y-118337454D01*
X103681118Y-118279059D01*
X103494486Y-118249500D01*
X103494481Y-118249500D01*
X103305519Y-118249500D01*
X103305514Y-118249500D01*
X103118881Y-118279059D01*
X102939163Y-118337454D01*
X102770800Y-118423240D01*
X102698920Y-118475465D01*
X102617927Y-118534310D01*
X102617925Y-118534312D01*
X102617924Y-118534312D01*
X102484312Y-118667924D01*
X102484312Y-118667925D01*
X102484310Y-118667927D01*
X102447043Y-118719220D01*
X102373240Y-118820800D01*
X102287454Y-118989163D01*
X102229059Y-119168881D01*
X102199500Y-119355513D01*
X102199500Y-120644486D01*
X102229059Y-120831118D01*
X102287454Y-121010836D01*
X102361756Y-121156661D01*
X102373240Y-121179199D01*
X102484310Y-121332073D01*
X102617927Y-121465690D01*
X102770801Y-121576760D01*
X102807188Y-121595300D01*
X102939163Y-121662545D01*
X102939165Y-121662545D01*
X102939168Y-121662547D01*
X103011518Y-121686055D01*
X103118881Y-121720940D01*
X103305514Y-121750500D01*
X103305519Y-121750500D01*
X103494486Y-121750500D01*
X103681118Y-121720940D01*
X103683836Y-121720057D01*
X103860832Y-121662547D01*
X104029199Y-121576760D01*
X104182073Y-121465690D01*
X104315690Y-121332073D01*
X104426760Y-121179199D01*
X104489795Y-121055484D01*
X104537769Y-121004688D01*
X104605590Y-120987893D01*
X104671725Y-121010430D01*
X104710765Y-121055484D01*
X104773670Y-121178940D01*
X104884685Y-121331741D01*
X104884689Y-121331746D01*
X105018253Y-121465310D01*
X105018258Y-121465314D01*
X105171059Y-121576329D01*
X105339362Y-121662085D01*
X105518997Y-121720451D01*
X105550000Y-121725362D01*
X105550000Y-120833012D01*
X105607007Y-120865925D01*
X105734174Y-120900000D01*
X105865826Y-120900000D01*
X105992993Y-120865925D01*
X106050000Y-120833012D01*
X106050000Y-121725361D01*
X106081002Y-121720451D01*
X106260637Y-121662085D01*
X106428940Y-121576329D01*
X106581741Y-121465314D01*
X106581746Y-121465310D01*
X106715310Y-121331746D01*
X106715314Y-121331741D01*
X106826329Y-121178941D01*
X106889234Y-121055484D01*
X106937208Y-121004688D01*
X107005029Y-120987893D01*
X107071164Y-121010430D01*
X107110204Y-121055484D01*
X107173240Y-121179199D01*
X107284310Y-121332073D01*
X107417927Y-121465690D01*
X107570801Y-121576760D01*
X107607188Y-121595300D01*
X107739163Y-121662545D01*
X107739165Y-121662545D01*
X107739168Y-121662547D01*
X107811518Y-121686055D01*
X107918881Y-121720940D01*
X108105514Y-121750500D01*
X108105519Y-121750500D01*
X108294486Y-121750500D01*
X108481118Y-121720940D01*
X108483836Y-121720057D01*
X108660832Y-121662547D01*
X108814065Y-121584470D01*
X108882733Y-121571575D01*
X108947474Y-121597851D01*
X108958040Y-121607275D01*
X113363181Y-126012416D01*
X113396666Y-126073739D01*
X113399500Y-126100097D01*
X113399500Y-145792500D01*
X113379815Y-145859539D01*
X113327011Y-145905294D01*
X113275500Y-145916500D01*
X112293933Y-145916500D01*
X112226894Y-145896815D01*
X112193615Y-145865386D01*
X112140660Y-145792500D01*
X112120603Y-145764894D01*
X111992106Y-145636397D01*
X111845090Y-145529583D01*
X111683174Y-145447083D01*
X111683171Y-145447081D01*
X111510348Y-145390928D01*
X111390689Y-145371976D01*
X111330861Y-145362500D01*
X111149139Y-145362500D01*
X111089310Y-145371976D01*
X110969652Y-145390928D01*
X110969649Y-145390928D01*
X110796828Y-145447081D01*
X110796825Y-145447083D01*
X110634909Y-145529583D01*
X110551030Y-145590525D01*
X110487894Y-145636397D01*
X110487892Y-145636399D01*
X110487891Y-145636399D01*
X110359399Y-145764891D01*
X110359399Y-145764892D01*
X110359397Y-145764894D01*
X110339340Y-145792500D01*
X110252583Y-145911909D01*
X110170083Y-146073825D01*
X110170081Y-146073828D01*
X110113928Y-146246649D01*
X110113928Y-146246652D01*
X110113928Y-146246654D01*
X110085500Y-146426139D01*
X110085500Y-146607861D01*
X110088723Y-146628213D01*
X110104545Y-146728102D01*
X110095591Y-146797395D01*
X110050595Y-146850847D01*
X109983843Y-146871487D01*
X109982072Y-146871500D01*
X107417928Y-146871500D01*
X107350889Y-146851815D01*
X107305134Y-146799011D01*
X107295190Y-146729853D01*
X107295455Y-146728102D01*
X107311277Y-146628213D01*
X107314500Y-146607861D01*
X107314500Y-146426139D01*
X107286072Y-146246654D01*
X107286071Y-146246650D01*
X107286071Y-146246649D01*
X107229918Y-146073828D01*
X107229916Y-146073825D01*
X107149756Y-145916500D01*
X107147417Y-145911910D01*
X107040603Y-145764894D01*
X106912106Y-145636397D01*
X106765090Y-145529583D01*
X106603174Y-145447083D01*
X106603171Y-145447081D01*
X106430348Y-145390928D01*
X106310689Y-145371976D01*
X106250861Y-145362500D01*
X106069139Y-145362500D01*
X106009310Y-145371976D01*
X105889652Y-145390928D01*
X105889649Y-145390928D01*
X105716828Y-145447081D01*
X105716825Y-145447083D01*
X105554909Y-145529583D01*
X105471030Y-145590525D01*
X105407894Y-145636397D01*
X105407892Y-145636399D01*
X105407891Y-145636399D01*
X105279399Y-145764891D01*
X105279399Y-145764892D01*
X105279397Y-145764894D01*
X105259340Y-145792500D01*
X105172583Y-145911909D01*
X105090083Y-146073825D01*
X105090081Y-146073828D01*
X105033928Y-146246649D01*
X105033928Y-146246652D01*
X105012473Y-146382114D01*
X104982544Y-146445249D01*
X104923232Y-146482180D01*
X104853370Y-146481182D01*
X104795137Y-146442572D01*
X104767527Y-146382114D01*
X104746072Y-146246654D01*
X104746071Y-146246650D01*
X104746071Y-146246649D01*
X104689918Y-146073828D01*
X104689916Y-146073825D01*
X104609756Y-145916500D01*
X104607417Y-145911910D01*
X104500603Y-145764894D01*
X104372106Y-145636397D01*
X104225090Y-145529583D01*
X104063174Y-145447083D01*
X104063171Y-145447081D01*
X103890348Y-145390928D01*
X103770689Y-145371976D01*
X103710861Y-145362500D01*
X103529139Y-145362500D01*
X103469310Y-145371976D01*
X103349652Y-145390928D01*
X103349649Y-145390928D01*
X103176828Y-145447081D01*
X103176825Y-145447083D01*
X103014909Y-145529583D01*
X102931030Y-145590525D01*
X102867894Y-145636397D01*
X102867892Y-145636399D01*
X102867891Y-145636399D01*
X102739399Y-145764891D01*
X102739399Y-145764892D01*
X102739397Y-145764894D01*
X102719340Y-145792500D01*
X102632583Y-145911909D01*
X102550083Y-146073825D01*
X102550081Y-146073828D01*
X102493928Y-146246649D01*
X102493928Y-146246652D01*
X102472473Y-146382114D01*
X102442544Y-146445249D01*
X102383232Y-146482180D01*
X102313370Y-146481182D01*
X102255137Y-146442572D01*
X102227527Y-146382114D01*
X102206072Y-146246654D01*
X102206071Y-146246650D01*
X102206071Y-146246649D01*
X102149918Y-146073828D01*
X102149916Y-146073825D01*
X102069756Y-145916500D01*
X102067417Y-145911910D01*
X101960603Y-145764894D01*
X101832106Y-145636397D01*
X101685090Y-145529583D01*
X101523174Y-145447083D01*
X101523171Y-145447081D01*
X101350348Y-145390928D01*
X101230689Y-145371976D01*
X101170861Y-145362500D01*
X100989139Y-145362500D01*
X100929310Y-145371976D01*
X100809652Y-145390928D01*
X100809649Y-145390928D01*
X100636828Y-145447081D01*
X100636825Y-145447083D01*
X100474909Y-145529583D01*
X100391030Y-145590525D01*
X100327894Y-145636397D01*
X100327892Y-145636399D01*
X100327891Y-145636399D01*
X100199399Y-145764891D01*
X100199399Y-145764892D01*
X100199397Y-145764894D01*
X100179340Y-145792500D01*
X100092583Y-145911909D01*
X100010083Y-146073825D01*
X100010081Y-146073828D01*
X99953928Y-146246649D01*
X99953928Y-146246652D01*
X99932473Y-146382114D01*
X99902544Y-146445249D01*
X99843232Y-146482180D01*
X99773370Y-146481182D01*
X99715137Y-146442572D01*
X99687527Y-146382114D01*
X99666072Y-146246654D01*
X99666071Y-146246650D01*
X99666071Y-146246649D01*
X99609918Y-146073828D01*
X99609916Y-146073825D01*
X99529756Y-145916500D01*
X99527417Y-145911910D01*
X99420603Y-145764894D01*
X99292106Y-145636397D01*
X99145090Y-145529583D01*
X98983174Y-145447083D01*
X98983171Y-145447081D01*
X98810348Y-145390928D01*
X98690689Y-145371976D01*
X98630861Y-145362500D01*
X98449139Y-145362500D01*
X98389310Y-145371976D01*
X98269652Y-145390928D01*
X98269649Y-145390928D01*
X98096828Y-145447081D01*
X98096825Y-145447083D01*
X97934909Y-145529583D01*
X97851030Y-145590525D01*
X97787894Y-145636397D01*
X97787892Y-145636399D01*
X97787891Y-145636399D01*
X97659399Y-145764891D01*
X97659399Y-145764892D01*
X97659397Y-145764894D01*
X97639340Y-145792500D01*
X97552583Y-145911909D01*
X97470083Y-146073825D01*
X97470081Y-146073828D01*
X97413928Y-146246649D01*
X97413928Y-146246652D01*
X97392473Y-146382114D01*
X97362544Y-146445249D01*
X97303232Y-146482180D01*
X97233370Y-146481182D01*
X97175137Y-146442572D01*
X97147527Y-146382114D01*
X97126072Y-146246654D01*
X97126071Y-146246650D01*
X97126071Y-146246649D01*
X97069918Y-146073828D01*
X97069916Y-146073825D01*
X96989756Y-145916500D01*
X96987417Y-145911910D01*
X96880603Y-145764894D01*
X96752106Y-145636397D01*
X96605090Y-145529583D01*
X96443174Y-145447083D01*
X96443171Y-145447081D01*
X96270348Y-145390928D01*
X96150689Y-145371976D01*
X96090861Y-145362500D01*
X95909139Y-145362500D01*
X95849310Y-145371976D01*
X95729652Y-145390928D01*
X95729649Y-145390928D01*
X95556828Y-145447081D01*
X95556825Y-145447083D01*
X95394909Y-145529583D01*
X95311030Y-145590525D01*
X95247894Y-145636397D01*
X95247892Y-145636399D01*
X95247891Y-145636399D01*
X95227181Y-145657110D01*
X95165858Y-145690595D01*
X95096166Y-145685611D01*
X95040233Y-145643739D01*
X95015816Y-145578275D01*
X95015500Y-145569429D01*
X95015500Y-145482945D01*
X95015500Y-145482943D01*
X94974577Y-145330216D01*
X94967526Y-145318003D01*
X94895524Y-145193290D01*
X94895518Y-145193282D01*
X94783717Y-145081481D01*
X94783709Y-145081475D01*
X94646790Y-145002426D01*
X94646786Y-145002424D01*
X94646784Y-145002423D01*
X94494057Y-144961500D01*
X92584057Y-144961500D01*
X92425943Y-144961500D01*
X92273216Y-145002423D01*
X92273209Y-145002426D01*
X92136290Y-145081475D01*
X92136282Y-145081481D01*
X92024481Y-145193282D01*
X92024475Y-145193290D01*
X91945426Y-145330209D01*
X91945423Y-145330216D01*
X91904500Y-145482943D01*
X91904500Y-149918330D01*
X91904499Y-149918348D01*
X91904499Y-150084054D01*
X91904498Y-150084054D01*
X91945423Y-150236785D01*
X91974358Y-150286900D01*
X91974359Y-150286904D01*
X91974360Y-150286904D01*
X92024479Y-150373714D01*
X92024481Y-150373717D01*
X92143349Y-150492585D01*
X92143355Y-150492590D01*
X95113181Y-153462416D01*
X95146666Y-153523739D01*
X95149500Y-153550097D01*
X95149500Y-154800001D01*
X95149501Y-154800018D01*
X95160000Y-154902796D01*
X95160001Y-154902799D01*
X95206832Y-155044124D01*
X95215186Y-155069334D01*
X95307288Y-155218656D01*
X95431344Y-155342712D01*
X95580666Y-155434814D01*
X95747203Y-155489999D01*
X95849991Y-155500500D01*
X97150008Y-155500499D01*
X97252797Y-155489999D01*
X97419334Y-155434814D01*
X97568656Y-155342712D01*
X97692712Y-155218656D01*
X97784814Y-155069334D01*
X97839999Y-154902797D01*
X97850500Y-154800009D01*
X97850499Y-153199992D01*
X97848074Y-153176257D01*
X97839999Y-153097203D01*
X97839998Y-153097200D01*
X97784814Y-152930666D01*
X97692712Y-152781344D01*
X97568656Y-152657288D01*
X97459864Y-152590185D01*
X97419336Y-152565187D01*
X97419331Y-152565185D01*
X97398375Y-152558241D01*
X97252797Y-152510001D01*
X97252795Y-152510000D01*
X97150016Y-152499500D01*
X95900097Y-152499500D01*
X95833058Y-152479815D01*
X95812416Y-152463181D01*
X93141819Y-149792584D01*
X93108334Y-149731261D01*
X93105500Y-149704903D01*
X93105500Y-147795499D01*
X93125185Y-147728460D01*
X93177989Y-147682705D01*
X93229500Y-147671499D01*
X93713902Y-147671499D01*
X93780941Y-147691184D01*
X93801583Y-147707818D01*
X104881584Y-158787819D01*
X104915069Y-158849142D01*
X104910085Y-158918834D01*
X104868213Y-158974767D01*
X104802749Y-158999184D01*
X104793903Y-158999500D01*
X85800537Y-158999500D01*
X85733498Y-158979815D01*
X85687743Y-158927011D01*
X85677799Y-158857853D01*
X85706824Y-158794297D01*
X85738532Y-158768116D01*
X85769479Y-158750249D01*
X85987928Y-158582628D01*
X86182628Y-158387928D01*
X86350249Y-158169479D01*
X86487923Y-157931021D01*
X86593295Y-157676632D01*
X86664560Y-157410666D01*
X86700500Y-157137674D01*
X86700500Y-156862326D01*
X86664560Y-156589334D01*
X86593295Y-156323368D01*
X86487923Y-156068979D01*
X86487921Y-156068976D01*
X86487919Y-156068971D01*
X86438732Y-155983778D01*
X86350249Y-155830521D01*
X86239415Y-155686079D01*
X86182629Y-155612073D01*
X86182623Y-155612066D01*
X85987933Y-155417376D01*
X85987926Y-155417370D01*
X85769483Y-155249754D01*
X85769482Y-155249753D01*
X85769479Y-155249751D01*
X85674407Y-155194861D01*
X85531028Y-155112080D01*
X85531017Y-155112075D01*
X85276630Y-155006704D01*
X85143649Y-154971072D01*
X85010666Y-154935440D01*
X85010660Y-154935439D01*
X85010655Y-154935438D01*
X84737684Y-154899501D01*
X84737679Y-154899500D01*
X84737674Y-154899500D01*
X84462326Y-154899500D01*
X84462320Y-154899500D01*
X84462315Y-154899501D01*
X84189344Y-154935438D01*
X84189337Y-154935439D01*
X84189334Y-154935440D01*
X84133125Y-154950500D01*
X83923369Y-155006704D01*
X83668982Y-155112075D01*
X83668971Y-155112080D01*
X83430516Y-155249754D01*
X83212073Y-155417370D01*
X83212066Y-155417376D01*
X83017376Y-155612066D01*
X83017370Y-155612073D01*
X82849756Y-155830513D01*
X82849752Y-155830518D01*
X82849751Y-155830521D01*
X82831384Y-155862332D01*
X82780819Y-155910545D01*
X82712212Y-155923767D01*
X82647348Y-155897799D01*
X82606820Y-155840885D01*
X82600000Y-155800329D01*
X82600000Y-80085258D01*
X99549500Y-80085258D01*
X99549500Y-80314741D01*
X99574446Y-80504215D01*
X99579452Y-80542238D01*
X99579453Y-80542240D01*
X99638842Y-80763887D01*
X99726650Y-80975876D01*
X99726657Y-80975890D01*
X99841392Y-81174617D01*
X99981081Y-81356661D01*
X99981089Y-81356670D01*
X100143330Y-81518911D01*
X100143338Y-81518918D01*
X100325382Y-81658607D01*
X100325385Y-81658608D01*
X100325388Y-81658611D01*
X100524112Y-81773344D01*
X100524117Y-81773346D01*
X100524123Y-81773349D01*
X100615480Y-81811190D01*
X100736113Y-81861158D01*
X100957762Y-81920548D01*
X101185266Y-81950500D01*
X101185273Y-81950500D01*
X101414727Y-81950500D01*
X101414734Y-81950500D01*
X101642238Y-81920548D01*
X101863887Y-81861158D01*
X102075888Y-81773344D01*
X102274612Y-81658611D01*
X102456661Y-81518919D01*
X102456665Y-81518914D01*
X102456670Y-81518911D01*
X102618911Y-81356670D01*
X102618914Y-81356665D01*
X102618919Y-81356661D01*
X102758611Y-81174612D01*
X102873344Y-80975888D01*
X102961158Y-80763887D01*
X103020548Y-80542238D01*
X103050500Y-80314734D01*
X103050500Y-80085266D01*
X103050499Y-80085258D01*
X106849500Y-80085258D01*
X106849500Y-80314741D01*
X106874446Y-80504215D01*
X106879452Y-80542238D01*
X106879453Y-80542240D01*
X106938842Y-80763887D01*
X107026650Y-80975876D01*
X107026657Y-80975890D01*
X107141392Y-81174617D01*
X107281081Y-81356661D01*
X107281089Y-81356670D01*
X107443330Y-81518911D01*
X107443338Y-81518918D01*
X107625382Y-81658607D01*
X107625385Y-81658608D01*
X107625388Y-81658611D01*
X107824112Y-81773344D01*
X107824117Y-81773346D01*
X107824123Y-81773349D01*
X107915480Y-81811190D01*
X108036113Y-81861158D01*
X108257762Y-81920548D01*
X108485266Y-81950500D01*
X108485273Y-81950500D01*
X108714727Y-81950500D01*
X108714734Y-81950500D01*
X108942238Y-81920548D01*
X109163887Y-81861158D01*
X109375888Y-81773344D01*
X109574612Y-81658611D01*
X109756661Y-81518919D01*
X109756665Y-81518914D01*
X109756670Y-81518911D01*
X109918911Y-81356670D01*
X109918914Y-81356665D01*
X109918919Y-81356661D01*
X110058611Y-81174612D01*
X110173344Y-80975888D01*
X110261158Y-80763887D01*
X110320548Y-80542238D01*
X110350500Y-80314734D01*
X110350500Y-80085266D01*
X110320548Y-79857762D01*
X110261158Y-79636113D01*
X110173344Y-79424112D01*
X110058611Y-79225388D01*
X110058608Y-79225385D01*
X110058607Y-79225382D01*
X109918918Y-79043338D01*
X109918911Y-79043330D01*
X109756670Y-78881089D01*
X109756661Y-78881081D01*
X109574617Y-78741392D01*
X109375890Y-78626657D01*
X109375876Y-78626650D01*
X109163887Y-78538842D01*
X108942238Y-78479452D01*
X108904215Y-78474446D01*
X108714741Y-78449500D01*
X108714734Y-78449500D01*
X108485266Y-78449500D01*
X108485258Y-78449500D01*
X108268715Y-78478009D01*
X108257762Y-78479452D01*
X108164076Y-78504554D01*
X108036112Y-78538842D01*
X107824123Y-78626650D01*
X107824109Y-78626657D01*
X107625382Y-78741392D01*
X107443338Y-78881081D01*
X107281081Y-79043338D01*
X107141392Y-79225382D01*
X107026657Y-79424109D01*
X107026650Y-79424123D01*
X106938842Y-79636112D01*
X106879453Y-79857759D01*
X106879451Y-79857770D01*
X106849500Y-80085258D01*
X103050499Y-80085258D01*
X103020548Y-79857762D01*
X102961158Y-79636113D01*
X102873344Y-79424112D01*
X102758611Y-79225388D01*
X102758608Y-79225385D01*
X102758607Y-79225382D01*
X102618918Y-79043338D01*
X102618911Y-79043330D01*
X102456670Y-78881089D01*
X102456661Y-78881081D01*
X102274617Y-78741392D01*
X102075890Y-78626657D01*
X102075876Y-78626650D01*
X101863887Y-78538842D01*
X101642238Y-78479452D01*
X101604215Y-78474446D01*
X101414741Y-78449500D01*
X101414734Y-78449500D01*
X101185266Y-78449500D01*
X101185258Y-78449500D01*
X100968715Y-78478009D01*
X100957762Y-78479452D01*
X100864076Y-78504554D01*
X100736112Y-78538842D01*
X100524123Y-78626650D01*
X100524109Y-78626657D01*
X100325382Y-78741392D01*
X100143338Y-78881081D01*
X99981081Y-79043338D01*
X99841392Y-79225382D01*
X99726657Y-79424109D01*
X99726650Y-79424123D01*
X99638842Y-79636112D01*
X99579453Y-79857759D01*
X99579451Y-79857770D01*
X99549500Y-80085258D01*
X82600000Y-80085258D01*
X82600000Y-78399670D01*
X82619685Y-78332631D01*
X82672489Y-78286876D01*
X82741647Y-78276932D01*
X82805203Y-78305957D01*
X82831383Y-78337665D01*
X82849751Y-78369479D01*
X82849753Y-78369481D01*
X82849755Y-78369485D01*
X83017370Y-78587926D01*
X83017376Y-78587933D01*
X83212066Y-78782623D01*
X83212072Y-78782628D01*
X83430521Y-78950249D01*
X83583778Y-79038732D01*
X83668971Y-79087919D01*
X83668976Y-79087921D01*
X83668979Y-79087923D01*
X83923368Y-79193295D01*
X84189334Y-79264560D01*
X84462326Y-79300500D01*
X84462333Y-79300500D01*
X84737667Y-79300500D01*
X84737674Y-79300500D01*
X85010666Y-79264560D01*
X85276632Y-79193295D01*
X85531021Y-79087923D01*
X85769479Y-78950249D01*
X85987928Y-78782628D01*
X86182628Y-78587928D01*
X86350249Y-78369479D01*
X86487923Y-78131021D01*
X86593295Y-77876632D01*
X86664560Y-77610666D01*
X86700500Y-77337674D01*
X86700500Y-77062326D01*
X86664560Y-76789334D01*
X86593295Y-76523368D01*
X86487923Y-76268979D01*
X86487921Y-76268976D01*
X86487919Y-76268971D01*
X86438732Y-76183778D01*
X86350249Y-76030521D01*
X86182628Y-75812072D01*
X86182623Y-75812066D01*
X85987933Y-75617376D01*
X85987926Y-75617370D01*
X85769483Y-75449754D01*
X85769482Y-75449753D01*
X85769479Y-75449751D01*
X85648525Y-75379918D01*
X85531028Y-75312080D01*
X85531016Y-75312075D01*
X85368749Y-75244861D01*
X85314346Y-75201020D01*
X85292281Y-75134726D01*
X85309560Y-75067026D01*
X85360698Y-75019416D01*
X85416475Y-75006300D01*
X169211413Y-75193761D01*
G37*
%TD.AperFunction*%
%TD*%
M02*
