%TF.GenerationSoftware,KiCad,Pcbnew,9.0.1*%
%TF.CreationDate,2026-08-18T15:04:56-04:00*%
%TF.ProjectId,Metronome,4d657472-6f6e-46f6-9d65-2e6b69636164,rev?*%
%TF.SameCoordinates,Original*%
%TF.FileFunction,Copper,L2,Bot*%
%TF.FilePolarity,Positive*%
%FSLAX46Y46*%
G04 Gerber Fmt 4.6, Leading zero omitted, Abs format (unit mm)*
G04 Created by KiCad (PCBNEW 9.0.1) date 2026-08-18 15:04:56*
%MOMM*%
%LPD*%
G01*
G04 APERTURE LIST*
G04 Aperture macros list*
%AMRoundRect*
0 Rectangle with rounded corners*
0 $1 Rounding radius*
0 $2 $3 $4 $5 $6 $7 $8 $9 X,Y pos of 4 corners*
0 Add a 4 corners polygon primitive as box body*
4,1,4,$2,$3,$4,$5,$6,$7,$8,$9,$2,$3,0*
0 Add four circle primitives for the rounded corners*
1,1,$1+$1,$2,$3*
1,1,$1+$1,$4,$5*
1,1,$1+$1,$6,$7*
1,1,$1+$1,$8,$9*
0 Add four rect primitives between the rounded corners*
20,1,$1+$1,$2,$3,$4,$5,0*
20,1,$1+$1,$4,$5,$6,$7,0*
20,1,$1+$1,$6,$7,$8,$9,0*
20,1,$1+$1,$8,$9,$2,$3,0*%
G04 Aperture macros list end*
%TA.AperFunction,ComponentPad*%
%ADD10O,1.700000X1.950000*%
%TD*%
%TA.AperFunction,ComponentPad*%
%ADD11RoundRect,0.250000X-0.600000X-0.725000X0.600000X-0.725000X0.600000X0.725000X-0.600000X0.725000X0*%
%TD*%
%TA.AperFunction,ComponentPad*%
%ADD12C,1.400000*%
%TD*%
%TA.AperFunction,ComponentPad*%
%ADD13O,1.400000X1.400000*%
%TD*%
%TA.AperFunction,ComponentPad*%
%ADD14RoundRect,0.250000X0.750000X-0.600000X0.750000X0.600000X-0.750000X0.600000X-0.750000X-0.600000X0*%
%TD*%
%TA.AperFunction,ComponentPad*%
%ADD15O,2.000000X1.700000*%
%TD*%
%TA.AperFunction,ComponentPad*%
%ADD16O,1.400000X2.500000*%
%TD*%
%TA.AperFunction,ComponentPad*%
%ADD17C,2.500000*%
%TD*%
%TA.AperFunction,ComponentPad*%
%ADD18R,1.308000X1.308000*%
%TD*%
%TA.AperFunction,ComponentPad*%
%ADD19C,1.308000*%
%TD*%
%TA.AperFunction,ComponentPad*%
%ADD20RoundRect,0.250000X-0.600000X-0.750000X0.600000X-0.750000X0.600000X0.750000X-0.600000X0.750000X0*%
%TD*%
%TA.AperFunction,ComponentPad*%
%ADD21O,1.700000X2.000000*%
%TD*%
%TA.AperFunction,ComponentPad*%
%ADD22R,1.600000X1.600000*%
%TD*%
%TA.AperFunction,ComponentPad*%
%ADD23O,1.600000X1.600000*%
%TD*%
%TA.AperFunction,ComponentPad*%
%ADD24C,1.800000*%
%TD*%
%TA.AperFunction,ViaPad*%
%ADD25C,0.600000*%
%TD*%
%TA.AperFunction,Conductor*%
%ADD26C,0.200000*%
%TD*%
G04 APERTURE END LIST*
D10*
%TO.P,J6,5,S2*%
%TO.N,GND*%
X159500000Y-153600000D03*
%TO.P,J6,4,S1*%
%TO.N,Net-(A1-D9)*%
X157000000Y-153600000D03*
%TO.P,J6,3,C*%
%TO.N,Net-(A1-D3)*%
X154500000Y-153600000D03*
%TO.P,J6,2,B*%
%TO.N,GND*%
X152000000Y-153600000D03*
D11*
%TO.P,J6,1,A*%
%TO.N,Net-(A1-D2)*%
X149500000Y-153600000D03*
%TD*%
D12*
%TO.P,R3,1*%
%TO.N,Net-(A1-A1)*%
X117580000Y-142600000D03*
D13*
%TO.P,R3,2*%
%TO.N,GND*%
X125200000Y-142600000D03*
%TD*%
D14*
%TO.P,J3,1,SPK1*%
%TO.N,Net-(J3-SPK1)*%
X164800000Y-145500000D03*
D15*
%TO.P,J3,2,SPK2*%
%TO.N,Net-(J3-SPK2)*%
X164800000Y-143000000D03*
%TD*%
D16*
%TO.P,U4,1,L*%
%TO.N,unconnected-(U4-L-Pad1)*%
X103600000Y-119600000D03*
%TO.P,U4,2,P1*%
%TO.N,GND*%
X106000000Y-119600000D03*
%TO.P,U4,3,R*%
%TO.N,Net-(U1-SPK2)*%
X108400000Y-119600000D03*
D17*
%TO.P,U4,4,GND*%
%TO.N,GND*%
X121400000Y-119600000D03*
%TO.P,U4,5,VCC*%
%TO.N,+9V*%
X128700000Y-119600000D03*
%TO.P,U4,6,L+*%
%TO.N,unconnected-(U4-L+-Pad6)*%
X101500000Y-79800000D03*
%TO.P,U4,7,L-*%
%TO.N,unconnected-(U4-L--Pad7)*%
X108800000Y-79800000D03*
%TO.P,U4,8,R+*%
%TO.N,Net-(J3-SPK2)*%
X121400000Y-79800000D03*
%TO.P,U4,9,R-*%
%TO.N,Net-(J3-SPK1)*%
X128700000Y-79800000D03*
%TD*%
D12*
%TO.P,R2,1*%
%TO.N,Net-(A1-A1)*%
X117580000Y-137100000D03*
D13*
%TO.P,R2,2*%
%TO.N,+9V*%
X125200000Y-137100000D03*
%TD*%
D18*
%TO.P,U1,1,VCC*%
%TO.N,+5V*%
X104760000Y-129600000D03*
D19*
%TO.P,U1,2,RX*%
%TO.N,Net-(U1-RX)*%
X102220000Y-129600000D03*
%TO.P,U1,3,TX*%
%TO.N,Net-(A1-D11)*%
X99680000Y-129600000D03*
%TO.P,U1,4,DAC_R*%
%TO.N,unconnected-(U1-DAC_R-Pad4)*%
X97140000Y-129600000D03*
%TO.P,U1,5,DAC_L*%
%TO.N,unconnected-(U1-DAC_L-Pad5)*%
X94600000Y-129600000D03*
%TO.P,U1,6,SPK1*%
%TO.N,unconnected-(U1-SPK1-Pad6)*%
X92060000Y-129600000D03*
%TO.P,U1,7,GND*%
%TO.N,GND*%
X89520000Y-129600000D03*
%TO.P,U1,8,SPK2*%
%TO.N,Net-(U1-SPK2)*%
X86980000Y-129600000D03*
%TO.P,U1,9,IO1*%
%TO.N,unconnected-(U1-IO1-Pad9)*%
X86980000Y-147634000D03*
%TO.P,U1,10,GND*%
%TO.N,GND*%
X89520000Y-147634000D03*
%TO.P,U1,11,IO2*%
%TO.N,unconnected-(U1-IO2-Pad11)*%
X92060000Y-147634000D03*
%TO.P,U1,12,ADKEY1*%
%TO.N,unconnected-(U1-ADKEY1-Pad12)*%
X94600000Y-147634000D03*
%TO.P,U1,13,ADKEY2*%
%TO.N,unconnected-(U1-ADKEY2-Pad13)*%
X97140000Y-147634000D03*
%TO.P,U1,14,USB+*%
%TO.N,unconnected-(U1-USB+-Pad14)*%
X99680000Y-147634000D03*
%TO.P,U1,15,USB-*%
%TO.N,unconnected-(U1-USB--Pad15)*%
X102220000Y-147634000D03*
%TO.P,U1,16,BUSY*%
%TO.N,/A0{slash}BUSY*%
X104760000Y-147634000D03*
%TD*%
D20*
%TO.P,J1,1,9V+*%
%TO.N,Net-(J1-9V+)*%
X92700000Y-153400000D03*
D21*
%TO.P,J1,2,9V-*%
%TO.N,GND*%
X95200000Y-153400000D03*
%TD*%
D22*
%TO.P,A1,1,D1/TX*%
%TO.N,unconnected-(A1-D1{slash}TX-Pad1)*%
X163800000Y-118800000D03*
D23*
%TO.P,A1,2,D0/RX*%
%TO.N,unconnected-(A1-D0{slash}RX-Pad2)*%
X163800000Y-116260000D03*
%TO.P,A1,3,~{RESET}*%
%TO.N,unconnected-(A1-~{RESET}-Pad3)*%
X163800000Y-113720000D03*
%TO.P,A1,4,GND*%
%TO.N,GND*%
X163800000Y-111180000D03*
%TO.P,A1,5,D2*%
%TO.N,Net-(A1-D2)*%
X163800000Y-108640000D03*
%TO.P,A1,6,D3*%
%TO.N,Net-(A1-D3)*%
X163800000Y-106100000D03*
%TO.P,A1,7,D4*%
%TO.N,unconnected-(A1-D4-Pad7)*%
X163800000Y-103560000D03*
%TO.P,A1,8,D5*%
%TO.N,unconnected-(A1-D5-Pad8)*%
X163800000Y-101020000D03*
%TO.P,A1,9,D6*%
%TO.N,unconnected-(A1-D6-Pad9)*%
X163800000Y-98480000D03*
%TO.P,A1,10,D7*%
%TO.N,unconnected-(A1-D7-Pad10)*%
X163800000Y-95940000D03*
%TO.P,A1,11,D8*%
%TO.N,unconnected-(A1-D8-Pad11)*%
X163800000Y-93400000D03*
%TO.P,A1,12,D9*%
%TO.N,Net-(A1-D9)*%
X163800000Y-90860000D03*
%TO.P,A1,13,D10*%
%TO.N,unconnected-(A1-D10-Pad13)*%
X163800000Y-88320000D03*
%TO.P,A1,14,D11*%
%TO.N,Net-(A1-D11)*%
X163800000Y-85780000D03*
%TO.P,A1,15,D12*%
%TO.N,Net-(A1-D12)*%
X163800000Y-83240000D03*
%TO.P,A1,16,D13*%
%TO.N,unconnected-(A1-D13-Pad16)*%
X148560000Y-83240000D03*
%TO.P,A1,17,3V3*%
%TO.N,unconnected-(A1-3V3-Pad17)*%
X148560000Y-85780000D03*
%TO.P,A1,18,AREF*%
%TO.N,unconnected-(A1-AREF-Pad18)*%
X148560000Y-88320000D03*
%TO.P,A1,19,A0*%
%TO.N,/A0{slash}BUSY*%
X148560000Y-90860000D03*
%TO.P,A1,20,A1*%
%TO.N,Net-(A1-A1)*%
X148560000Y-93400000D03*
%TO.P,A1,21,A2*%
%TO.N,Net-(A1-A2)*%
X148560000Y-95940000D03*
%TO.P,A1,22,A3*%
%TO.N,unconnected-(A1-A3-Pad22)*%
X148560000Y-98480000D03*
%TO.P,A1,23,A4*%
%TO.N,Net-(A1-A4)*%
X148560000Y-101020000D03*
%TO.P,A1,24,A5*%
%TO.N,Net-(A1-A5)*%
X148560000Y-103560000D03*
%TO.P,A1,25,A6*%
%TO.N,unconnected-(A1-A6-Pad25)*%
X148560000Y-106100000D03*
%TO.P,A1,26,A7*%
%TO.N,unconnected-(A1-A7-Pad26)*%
X148560000Y-108640000D03*
%TO.P,A1,27,+5V*%
%TO.N,+5V*%
X148560000Y-111180000D03*
%TO.P,A1,28,~{RESET}*%
%TO.N,unconnected-(A1-~{RESET}-Pad28)*%
X148560000Y-113720000D03*
%TO.P,A1,29,GND*%
%TO.N,GND*%
X148560000Y-116260000D03*
%TO.P,A1,30,VIN*%
%TO.N,unconnected-(A1-VIN-Pad30)*%
X148560000Y-118800000D03*
%TD*%
D12*
%TO.P,R1,1*%
%TO.N,Net-(A1-D12)*%
X117580000Y-131600000D03*
D13*
%TO.P,R1,2*%
%TO.N,Net-(U1-RX)*%
X125200000Y-131600000D03*
%TD*%
D11*
%TO.P,J5,1,Pin_1*%
%TO.N,GND*%
X108400000Y-153000000D03*
D10*
%TO.P,J5,2,Pin_2*%
%TO.N,Net-(A1-A2)*%
X110900000Y-153000000D03*
%TO.P,J5,3,Pin_3*%
%TO.N,+5V*%
X113400000Y-153000000D03*
%TD*%
D11*
%TO.P,J4,1,SDA*%
%TO.N,Net-(A1-A4)*%
X128100000Y-153200000D03*
D10*
%TO.P,J4,2,SCL*%
%TO.N,Net-(A1-A5)*%
X130600000Y-153200000D03*
%TO.P,J4,3,+5V*%
%TO.N,+5V*%
X133100000Y-153200000D03*
%TO.P,J4,4,GND*%
%TO.N,GND*%
X135600000Y-153200000D03*
%TD*%
D14*
%TO.P,J2,1,S1*%
%TO.N,+9V*%
X164800000Y-132500000D03*
D15*
%TO.P,J2,2,S2*%
%TO.N,Net-(J1-9V+)*%
X164800000Y-130000000D03*
%TD*%
D24*
%TO.P,U2,1,IN+*%
%TO.N,+9V*%
X137500000Y-141000000D03*
%TO.P,U2,2,IN-*%
%TO.N,GND*%
X137500000Y-133000000D03*
%TO.P,U2,3,OUT+*%
%TO.N,+5V*%
X151800000Y-141000000D03*
%TO.P,U2,4,OUT-*%
%TO.N,GND*%
X151800000Y-133000000D03*
%TD*%
D25*
%TO.N,Net-(A1-A5)*%
X130600000Y-147800000D03*
%TO.N,+5V*%
X146000000Y-133800000D03*
X150800000Y-136200000D03*
%TO.N,GND*%
X151800000Y-122200000D03*
%TO.N,+5V*%
X147600000Y-141400000D03*
X133600000Y-149400000D03*
X137000000Y-149400000D03*
%TO.N,Net-(A1-D11)*%
X104400000Y-125600000D03*
%TO.N,Net-(U1-SPK2)*%
X99600000Y-124200000D03*
%TO.N,GND*%
X119400000Y-114800000D03*
%TO.N,Net-(A1-A4)*%
X128000000Y-147000000D03*
%TO.N,+9V*%
X159600000Y-143000000D03*
%TO.N,Net-(J1-9V+)*%
X158400000Y-144000000D03*
%TO.N,Net-(A1-D3)*%
X156000000Y-142400000D03*
%TO.N,GND*%
X132000000Y-138800000D03*
%TO.N,Net-(U1-RX)*%
X107000000Y-134200000D03*
%TD*%
D26*
%TO.N,+5V*%
X131824000Y-154476000D02*
X133100000Y-153200000D01*
X114876000Y-154476000D02*
X131824000Y-154476000D01*
X113400000Y-153000000D02*
X114876000Y-154476000D01*
%TO.N,GND*%
X89520000Y-129600000D02*
X89520000Y-147634000D01*
X160020000Y-104800000D02*
X148560000Y-116260000D01*
X167000000Y-107980000D02*
X167000000Y-104800000D01*
X167000000Y-104800000D02*
X160020000Y-104800000D01*
X163800000Y-111180000D02*
X167000000Y-107980000D01*
%TO.N,Net-(A1-A5)*%
X130600000Y-121520000D02*
X148560000Y-103560000D01*
X130600000Y-147800000D02*
X130600000Y-121520000D01*
%TO.N,+5V*%
X146600000Y-134400000D02*
X149000000Y-134400000D01*
X150800000Y-136200000D02*
X149000000Y-134400000D01*
X146600000Y-134400000D02*
X146000000Y-133800000D01*
%TO.N,GND*%
X151800000Y-122200000D02*
X151800000Y-119500000D01*
X151800000Y-119500000D02*
X148560000Y-116260000D01*
%TO.N,+5V*%
X148600000Y-141000000D02*
X151800000Y-141000000D01*
X148200000Y-141400000D02*
X148600000Y-141000000D01*
X147600000Y-141400000D02*
X148200000Y-141400000D01*
X133600000Y-149400000D02*
X137000000Y-149400000D01*
%TO.N,GND*%
X137500000Y-133000000D02*
X151800000Y-133000000D01*
%TO.N,Net-(A1-A1)*%
X118000000Y-93400000D02*
X148560000Y-93400000D01*
X98999000Y-124448943D02*
X98999000Y-112401000D01*
X98999000Y-112401000D02*
X118000000Y-93400000D01*
X101631057Y-127081000D02*
X98999000Y-124448943D01*
X117580000Y-137100000D02*
X107561000Y-127081000D01*
X107561000Y-127081000D02*
X101631057Y-127081000D01*
%TO.N,Net-(A1-D11)*%
X149980000Y-99600000D02*
X163800000Y-85780000D01*
X148422950Y-99600000D02*
X149980000Y-99600000D01*
X129973950Y-118049000D02*
X148422950Y-99600000D01*
X111951000Y-118049000D02*
X129973950Y-118049000D01*
X104400000Y-125600000D02*
X111951000Y-118049000D01*
%TO.N,Net-(U1-SPK2)*%
X103800000Y-124200000D02*
X108400000Y-119600000D01*
X99600000Y-124200000D02*
X103800000Y-124200000D01*
%TO.N,GND*%
X109400000Y-114800000D02*
X106000000Y-118200000D01*
X119400000Y-114800000D02*
X109400000Y-114800000D01*
X106000000Y-118200000D02*
X106000000Y-119600000D01*
%TO.N,Net-(A1-A4)*%
X128000000Y-147000000D02*
X128000000Y-122562950D01*
X148560000Y-102002950D02*
X148560000Y-101020000D01*
X128000000Y-122562950D02*
X148560000Y-102002950D01*
%TO.N,+9V*%
X155800000Y-144800000D02*
X141300000Y-144800000D01*
X159600000Y-143000000D02*
X157600000Y-143000000D01*
X141300000Y-144800000D02*
X137500000Y-141000000D01*
X157600000Y-143000000D02*
X155800000Y-144800000D01*
%TO.N,Net-(J1-9V+)*%
X97511000Y-148589000D02*
X92700000Y-153400000D01*
X158400000Y-144000000D02*
X153811000Y-148589000D01*
X153811000Y-148589000D02*
X97511000Y-148589000D01*
%TO.N,Net-(A1-D3)*%
X156000000Y-142400000D02*
X156000000Y-113900000D01*
X156000000Y-113900000D02*
X163800000Y-106100000D01*
%TO.N,GND*%
X132000000Y-138800000D02*
X132400000Y-138400000D01*
X132400000Y-138400000D02*
X132400000Y-138100000D01*
X132400000Y-138100000D02*
X137500000Y-133000000D01*
%TO.N,Net-(U1-RX)*%
X106820000Y-134200000D02*
X102220000Y-129600000D01*
X107000000Y-134200000D02*
X106820000Y-134200000D01*
%TD*%
%TA.AperFunction,Conductor*%
%TO.N,GND*%
G36*
X162405398Y-88111953D02*
G01*
X162418834Y-88112914D01*
X162436560Y-88126184D01*
X162456703Y-88135383D01*
X162463985Y-88146714D01*
X162474767Y-88154786D01*
X162482504Y-88175531D01*
X162494477Y-88194161D01*
X162497628Y-88216079D01*
X162499184Y-88220250D01*
X162499500Y-88229096D01*
X162499500Y-88422351D01*
X162531522Y-88624534D01*
X162594781Y-88819223D01*
X162687715Y-89001613D01*
X162808028Y-89167213D01*
X162952786Y-89311971D01*
X163107749Y-89424556D01*
X163118390Y-89432287D01*
X163209840Y-89478883D01*
X163211080Y-89479515D01*
X163261876Y-89527490D01*
X163278671Y-89595311D01*
X163256134Y-89661446D01*
X163211080Y-89700485D01*
X163118386Y-89747715D01*
X162952786Y-89868028D01*
X162808028Y-90012786D01*
X162687715Y-90178386D01*
X162594781Y-90360776D01*
X162531522Y-90555465D01*
X162499500Y-90757648D01*
X162499500Y-90962351D01*
X162531522Y-91164534D01*
X162594781Y-91359223D01*
X162687715Y-91541613D01*
X162808028Y-91707213D01*
X162952786Y-91851971D01*
X163107749Y-91964556D01*
X163118390Y-91972287D01*
X163209840Y-92018883D01*
X163211080Y-92019515D01*
X163261876Y-92067490D01*
X163278671Y-92135311D01*
X163256134Y-92201446D01*
X163211080Y-92240485D01*
X163118386Y-92287715D01*
X162952786Y-92408028D01*
X162808028Y-92552786D01*
X162687715Y-92718386D01*
X162594781Y-92900776D01*
X162531522Y-93095465D01*
X162499500Y-93297648D01*
X162499500Y-93502351D01*
X162531522Y-93704534D01*
X162594781Y-93899223D01*
X162687715Y-94081613D01*
X162808028Y-94247213D01*
X162952786Y-94391971D01*
X163107749Y-94504556D01*
X163118390Y-94512287D01*
X163209840Y-94558883D01*
X163211080Y-94559515D01*
X163261876Y-94607490D01*
X163278671Y-94675311D01*
X163256134Y-94741446D01*
X163211080Y-94780485D01*
X163118386Y-94827715D01*
X162952786Y-94948028D01*
X162808028Y-95092786D01*
X162687715Y-95258386D01*
X162594781Y-95440776D01*
X162531522Y-95635465D01*
X162499500Y-95837648D01*
X162499500Y-96042351D01*
X162531522Y-96244534D01*
X162594781Y-96439223D01*
X162687715Y-96621613D01*
X162808028Y-96787213D01*
X162952786Y-96931971D01*
X163107749Y-97044556D01*
X163118390Y-97052287D01*
X163209840Y-97098883D01*
X163211080Y-97099515D01*
X163261876Y-97147490D01*
X163278671Y-97215311D01*
X163256134Y-97281446D01*
X163211080Y-97320485D01*
X163118386Y-97367715D01*
X162952786Y-97488028D01*
X162808028Y-97632786D01*
X162687715Y-97798386D01*
X162594781Y-97980776D01*
X162531522Y-98175465D01*
X162499500Y-98377648D01*
X162499500Y-98582351D01*
X162531522Y-98784534D01*
X162594781Y-98979223D01*
X162687715Y-99161613D01*
X162808028Y-99327213D01*
X162952786Y-99471971D01*
X163065872Y-99554131D01*
X163118390Y-99592287D01*
X163209840Y-99638883D01*
X163211080Y-99639515D01*
X163261876Y-99687490D01*
X163278671Y-99755311D01*
X163256134Y-99821446D01*
X163211080Y-99860485D01*
X163118386Y-99907715D01*
X162952786Y-100028028D01*
X162808028Y-100172786D01*
X162687715Y-100338386D01*
X162594781Y-100520776D01*
X162531522Y-100715465D01*
X162499500Y-100917648D01*
X162499500Y-101122351D01*
X162531522Y-101324534D01*
X162594781Y-101519223D01*
X162687715Y-101701613D01*
X162808028Y-101867213D01*
X162952786Y-102011971D01*
X163107749Y-102124556D01*
X163118390Y-102132287D01*
X163209840Y-102178883D01*
X163211080Y-102179515D01*
X163261876Y-102227490D01*
X163278671Y-102295311D01*
X163256134Y-102361446D01*
X163211080Y-102400485D01*
X163118386Y-102447715D01*
X162952786Y-102568028D01*
X162808028Y-102712786D01*
X162687715Y-102878386D01*
X162594781Y-103060776D01*
X162531522Y-103255465D01*
X162499500Y-103457648D01*
X162499500Y-103662351D01*
X162531522Y-103864534D01*
X162594781Y-104059223D01*
X162687715Y-104241613D01*
X162808028Y-104407213D01*
X162952786Y-104551971D01*
X163107749Y-104664556D01*
X163118390Y-104672287D01*
X163209840Y-104718883D01*
X163211080Y-104719515D01*
X163261876Y-104767490D01*
X163278671Y-104835311D01*
X163256134Y-104901446D01*
X163211080Y-104940485D01*
X163118386Y-104987715D01*
X162952786Y-105108028D01*
X162808028Y-105252786D01*
X162687715Y-105418386D01*
X162594781Y-105600776D01*
X162531522Y-105795465D01*
X162499500Y-105997648D01*
X162499500Y-106202351D01*
X162531523Y-106404535D01*
X162536172Y-106418845D01*
X162538165Y-106488687D01*
X162505921Y-106544841D01*
X155631286Y-113419478D01*
X155519481Y-113531282D01*
X155519475Y-113531290D01*
X155469618Y-113617647D01*
X155469618Y-113617648D01*
X155440423Y-113668215D01*
X155399499Y-113820943D01*
X155399499Y-113820945D01*
X155399499Y-113989046D01*
X155399500Y-113989059D01*
X155399500Y-141820234D01*
X155379815Y-141887273D01*
X155378602Y-141889125D01*
X155290609Y-142020814D01*
X155290602Y-142020827D01*
X155230264Y-142166498D01*
X155230261Y-142166510D01*
X155199500Y-142321153D01*
X155199500Y-142478846D01*
X155230261Y-142633489D01*
X155230264Y-142633501D01*
X155290602Y-142779172D01*
X155290609Y-142779185D01*
X155378210Y-142910288D01*
X155378213Y-142910292D01*
X155489707Y-143021786D01*
X155489711Y-143021789D01*
X155620814Y-143109390D01*
X155620827Y-143109397D01*
X155749169Y-143162557D01*
X155766503Y-143169737D01*
X155921153Y-143200499D01*
X155921156Y-143200500D01*
X155921158Y-143200500D01*
X156078844Y-143200500D01*
X156078845Y-143200499D01*
X156233497Y-143169737D01*
X156250832Y-143162556D01*
X156320297Y-143155087D01*
X156382777Y-143186359D01*
X156418431Y-143246447D01*
X156415940Y-143316273D01*
X156385965Y-143364798D01*
X155587584Y-144163181D01*
X155526261Y-144196666D01*
X155499903Y-144199500D01*
X141600098Y-144199500D01*
X141533059Y-144179815D01*
X141512417Y-144163181D01*
X138873438Y-141524203D01*
X138867699Y-141513693D01*
X138858462Y-141506074D01*
X138851264Y-141483595D01*
X138839953Y-141462880D01*
X138840273Y-141449269D01*
X138837156Y-141439532D01*
X138841147Y-141412182D01*
X138841329Y-141404486D01*
X138842174Y-141401323D01*
X138866015Y-141327951D01*
X138867092Y-141321153D01*
X146799500Y-141321153D01*
X146799500Y-141478846D01*
X146830261Y-141633489D01*
X146830264Y-141633501D01*
X146890602Y-141779172D01*
X146890609Y-141779185D01*
X146978210Y-141910288D01*
X146978213Y-141910292D01*
X147089707Y-142021786D01*
X147089711Y-142021789D01*
X147220814Y-142109390D01*
X147220827Y-142109397D01*
X147358683Y-142166498D01*
X147366503Y-142169737D01*
X147507645Y-142197812D01*
X147521153Y-142200499D01*
X147521156Y-142200500D01*
X147521158Y-142200500D01*
X147678844Y-142200500D01*
X147678845Y-142200499D01*
X147833497Y-142169737D01*
X147953059Y-142120213D01*
X147979172Y-142109397D01*
X147979172Y-142109396D01*
X147979179Y-142109394D01*
X148110289Y-142021789D01*
X148110288Y-142021789D01*
X148110873Y-142021399D01*
X148177550Y-142000521D01*
X148179764Y-142000501D01*
X148279054Y-142000501D01*
X148279057Y-142000501D01*
X148431785Y-141959577D01*
X148513558Y-141912365D01*
X148513562Y-141912363D01*
X148568709Y-141880524D01*
X148568708Y-141880524D01*
X148568716Y-141880520D01*
X148680520Y-141768716D01*
X148680520Y-141768714D01*
X148690721Y-141758514D01*
X148690725Y-141758508D01*
X148812417Y-141636818D01*
X148873741Y-141603334D01*
X148900098Y-141600500D01*
X150458164Y-141600500D01*
X150525203Y-141620185D01*
X150568648Y-141668204D01*
X150602185Y-141734023D01*
X150731752Y-141912358D01*
X150731756Y-141912363D01*
X150887636Y-142068243D01*
X150887641Y-142068247D01*
X151022880Y-142166503D01*
X151065978Y-142197815D01*
X151168396Y-142250000D01*
X151262393Y-142297895D01*
X151262396Y-142297896D01*
X151333976Y-142321153D01*
X151472049Y-142366015D01*
X151689778Y-142400500D01*
X151689779Y-142400500D01*
X151910221Y-142400500D01*
X151910222Y-142400500D01*
X152127951Y-142366015D01*
X152337606Y-142297895D01*
X152534022Y-142197815D01*
X152712365Y-142068242D01*
X152868242Y-141912365D01*
X152997815Y-141734022D01*
X153097895Y-141537606D01*
X153166015Y-141327951D01*
X153200500Y-141110222D01*
X153200500Y-140889778D01*
X153166015Y-140672049D01*
X153131955Y-140567221D01*
X153097896Y-140462396D01*
X153097895Y-140462393D01*
X153031351Y-140331796D01*
X152997815Y-140265978D01*
X152981260Y-140243192D01*
X152868247Y-140087641D01*
X152868243Y-140087636D01*
X152712363Y-139931756D01*
X152712358Y-139931752D01*
X152534025Y-139802187D01*
X152534024Y-139802186D01*
X152534022Y-139802185D01*
X152471096Y-139770122D01*
X152337606Y-139702104D01*
X152337603Y-139702103D01*
X152127952Y-139633985D01*
X152019086Y-139616742D01*
X151910222Y-139599500D01*
X151689778Y-139599500D01*
X151617201Y-139610995D01*
X151472047Y-139633985D01*
X151262396Y-139702103D01*
X151262393Y-139702104D01*
X151065974Y-139802187D01*
X150887641Y-139931752D01*
X150887636Y-139931756D01*
X150731756Y-140087636D01*
X150731752Y-140087641D01*
X150602185Y-140265976D01*
X150568648Y-140331796D01*
X150520674Y-140382591D01*
X150458164Y-140399500D01*
X148520940Y-140399500D01*
X148480019Y-140410464D01*
X148480019Y-140410465D01*
X148442751Y-140420451D01*
X148368214Y-140440423D01*
X148368209Y-140440426D01*
X148231290Y-140519475D01*
X148231282Y-140519481D01*
X148119478Y-140631286D01*
X148119476Y-140631288D01*
X148095024Y-140655739D01*
X148033701Y-140689223D01*
X147964009Y-140684237D01*
X147959893Y-140682617D01*
X147833501Y-140630264D01*
X147833489Y-140630261D01*
X147678845Y-140599500D01*
X147678842Y-140599500D01*
X147521158Y-140599500D01*
X147521155Y-140599500D01*
X147366510Y-140630261D01*
X147366498Y-140630264D01*
X147220827Y-140690602D01*
X147220814Y-140690609D01*
X147089711Y-140778210D01*
X147089707Y-140778213D01*
X146978213Y-140889707D01*
X146978210Y-140889711D01*
X146890609Y-141020814D01*
X146890602Y-141020827D01*
X146830264Y-141166498D01*
X146830261Y-141166510D01*
X146799500Y-141321153D01*
X138867092Y-141321153D01*
X138900500Y-141110222D01*
X138900500Y-140889778D01*
X138866015Y-140672049D01*
X138831955Y-140567221D01*
X138797896Y-140462396D01*
X138797895Y-140462393D01*
X138731351Y-140331796D01*
X138697815Y-140265978D01*
X138681260Y-140243192D01*
X138568247Y-140087641D01*
X138568243Y-140087636D01*
X138412363Y-139931756D01*
X138412358Y-139931752D01*
X138234025Y-139802187D01*
X138234024Y-139802186D01*
X138234022Y-139802185D01*
X138171096Y-139770122D01*
X138037606Y-139702104D01*
X138037603Y-139702103D01*
X137827952Y-139633985D01*
X137719086Y-139616742D01*
X137610222Y-139599500D01*
X137389778Y-139599500D01*
X137317201Y-139610995D01*
X137172047Y-139633985D01*
X136962396Y-139702103D01*
X136962393Y-139702104D01*
X136765974Y-139802187D01*
X136587641Y-139931752D01*
X136587636Y-139931756D01*
X136431756Y-140087636D01*
X136431752Y-140087641D01*
X136302187Y-140265974D01*
X136202104Y-140462393D01*
X136202103Y-140462396D01*
X136133985Y-140672047D01*
X136099500Y-140889778D01*
X136099500Y-141110221D01*
X136133985Y-141327952D01*
X136202103Y-141537603D01*
X136202104Y-141537606D01*
X136302187Y-141734025D01*
X136431752Y-141912358D01*
X136431756Y-141912363D01*
X136587636Y-142068243D01*
X136587641Y-142068247D01*
X136722880Y-142166503D01*
X136765978Y-142197815D01*
X136868396Y-142250000D01*
X136962393Y-142297895D01*
X136962396Y-142297896D01*
X137033976Y-142321153D01*
X137172049Y-142366015D01*
X137389778Y-142400500D01*
X137389779Y-142400500D01*
X137610221Y-142400500D01*
X137610222Y-142400500D01*
X137827951Y-142366015D01*
X137898205Y-142343187D01*
X137968044Y-142341192D01*
X138024202Y-142373437D01*
X140931284Y-145280520D01*
X140931286Y-145280521D01*
X140931290Y-145280524D01*
X141018093Y-145330639D01*
X141068216Y-145359577D01*
X141220943Y-145400501D01*
X141220945Y-145400501D01*
X141386654Y-145400501D01*
X141386670Y-145400500D01*
X155713332Y-145400500D01*
X155720939Y-145400500D01*
X155720943Y-145400501D01*
X155850903Y-145400501D01*
X155917942Y-145420186D01*
X155963697Y-145472990D01*
X155971103Y-145524501D01*
X155973640Y-145542148D01*
X155944615Y-145605704D01*
X155938583Y-145612182D01*
X153598584Y-147952181D01*
X153537261Y-147985666D01*
X153510903Y-147988500D01*
X131524500Y-147988500D01*
X131457461Y-147968815D01*
X131411706Y-147916011D01*
X131400500Y-147864500D01*
X131400500Y-147721155D01*
X131400499Y-147721153D01*
X131393638Y-147686661D01*
X131369737Y-147566503D01*
X131366866Y-147559572D01*
X131309397Y-147420827D01*
X131309390Y-147420814D01*
X131221398Y-147289125D01*
X131200520Y-147222447D01*
X131200500Y-147220234D01*
X131200500Y-132889818D01*
X136100000Y-132889818D01*
X136100000Y-133110181D01*
X136134473Y-133327835D01*
X136202567Y-133537410D01*
X136302611Y-133733756D01*
X136348932Y-133797513D01*
X136935387Y-133211058D01*
X136940889Y-133231591D01*
X137019881Y-133368408D01*
X137131592Y-133480119D01*
X137268409Y-133559111D01*
X137288939Y-133564612D01*
X136702485Y-134151065D01*
X136702485Y-134151066D01*
X136766243Y-134197388D01*
X136962589Y-134297432D01*
X137172164Y-134365526D01*
X137389819Y-134400000D01*
X137610181Y-134400000D01*
X137827835Y-134365526D01*
X138037410Y-134297432D01*
X138233760Y-134197386D01*
X138297513Y-134151066D01*
X138297514Y-134151066D01*
X137711059Y-133564612D01*
X137731591Y-133559111D01*
X137868408Y-133480119D01*
X137980119Y-133368408D01*
X138059111Y-133231591D01*
X138064612Y-133211060D01*
X138651066Y-133797514D01*
X138651066Y-133797513D01*
X138697386Y-133733760D01*
X138703810Y-133721153D01*
X145199500Y-133721153D01*
X145199500Y-133878846D01*
X145230261Y-134033489D01*
X145230264Y-134033501D01*
X145290602Y-134179172D01*
X145290609Y-134179185D01*
X145378210Y-134310288D01*
X145378213Y-134310292D01*
X145489707Y-134421786D01*
X145489711Y-134421789D01*
X145620814Y-134509390D01*
X145620827Y-134509397D01*
X145766498Y-134569735D01*
X145766503Y-134569737D01*
X145831147Y-134582595D01*
X145921849Y-134600638D01*
X145938605Y-134609402D01*
X145957085Y-134613423D01*
X145982123Y-134632167D01*
X145983760Y-134633023D01*
X145985339Y-134634574D01*
X146115139Y-134764374D01*
X146115149Y-134764385D01*
X146119479Y-134768715D01*
X146119480Y-134768716D01*
X146231284Y-134880520D01*
X146231286Y-134880521D01*
X146231290Y-134880524D01*
X146281293Y-134909393D01*
X146281298Y-134909395D01*
X146368209Y-134959574D01*
X146368210Y-134959574D01*
X146368215Y-134959577D01*
X146520943Y-135000500D01*
X146679057Y-135000500D01*
X148699903Y-135000500D01*
X148766942Y-135020185D01*
X148787584Y-135036819D01*
X149965425Y-136214660D01*
X149998910Y-136275983D01*
X149999361Y-136278149D01*
X150030261Y-136433491D01*
X150030264Y-136433501D01*
X150090602Y-136579172D01*
X150090609Y-136579185D01*
X150178210Y-136710288D01*
X150178213Y-136710292D01*
X150289707Y-136821786D01*
X150289711Y-136821789D01*
X150420814Y-136909390D01*
X150420827Y-136909397D01*
X150566498Y-136969735D01*
X150566503Y-136969737D01*
X150721153Y-137000499D01*
X150721156Y-137000500D01*
X150721158Y-137000500D01*
X150878844Y-137000500D01*
X150878845Y-137000499D01*
X151033497Y-136969737D01*
X151179179Y-136909394D01*
X151310289Y-136821789D01*
X151421789Y-136710289D01*
X151509394Y-136579179D01*
X151569737Y-136433497D01*
X151600500Y-136278842D01*
X151600500Y-136121158D01*
X151600500Y-136121155D01*
X151600499Y-136121153D01*
X151569738Y-135966510D01*
X151569737Y-135966503D01*
X151569735Y-135966498D01*
X151509397Y-135820827D01*
X151509390Y-135820814D01*
X151421789Y-135689711D01*
X151421786Y-135689707D01*
X151310292Y-135578213D01*
X151310288Y-135578210D01*
X151179185Y-135490609D01*
X151179172Y-135490602D01*
X151033501Y-135430264D01*
X151033491Y-135430261D01*
X150878149Y-135399361D01*
X150816238Y-135366976D01*
X150814660Y-135365425D01*
X149487590Y-134038355D01*
X149487588Y-134038352D01*
X149368717Y-133919481D01*
X149368716Y-133919480D01*
X149281904Y-133869360D01*
X149281904Y-133869359D01*
X149281900Y-133869358D01*
X149231785Y-133840423D01*
X149079057Y-133799499D01*
X148920943Y-133799499D01*
X148913347Y-133799499D01*
X148913331Y-133799500D01*
X146917848Y-133799500D01*
X146850809Y-133779815D01*
X146805054Y-133727011D01*
X146796231Y-133699692D01*
X146769738Y-133566508D01*
X146769737Y-133566507D01*
X146769737Y-133566503D01*
X146766675Y-133559111D01*
X146709397Y-133420827D01*
X146709390Y-133420814D01*
X146621789Y-133289711D01*
X146621786Y-133289707D01*
X146510292Y-133178213D01*
X146510288Y-133178210D01*
X146379185Y-133090609D01*
X146379172Y-133090602D01*
X146233501Y-133030264D01*
X146233489Y-133030261D01*
X146114353Y-133006563D01*
X146114352Y-133006563D01*
X146078844Y-132999500D01*
X146078842Y-132999500D01*
X145921158Y-132999500D01*
X145921155Y-132999500D01*
X145766510Y-133030261D01*
X145766498Y-133030264D01*
X145620827Y-133090602D01*
X145620814Y-133090609D01*
X145489711Y-133178210D01*
X145489707Y-133178213D01*
X145378213Y-133289707D01*
X145378210Y-133289711D01*
X145290609Y-133420814D01*
X145290602Y-133420827D01*
X145230264Y-133566498D01*
X145230261Y-133566510D01*
X145199500Y-133721153D01*
X138703810Y-133721153D01*
X138735596Y-133658771D01*
X138797432Y-133537410D01*
X138865526Y-133327835D01*
X138900000Y-133110181D01*
X138900000Y-132889818D01*
X150400000Y-132889818D01*
X150400000Y-133110181D01*
X150434473Y-133327835D01*
X150502567Y-133537410D01*
X150602611Y-133733756D01*
X150648932Y-133797513D01*
X151235387Y-133211058D01*
X151240889Y-133231591D01*
X151319881Y-133368408D01*
X151431592Y-133480119D01*
X151568409Y-133559111D01*
X151588939Y-133564612D01*
X151002485Y-134151065D01*
X151002485Y-134151066D01*
X151066243Y-134197388D01*
X151262589Y-134297432D01*
X151472164Y-134365526D01*
X151689819Y-134400000D01*
X151910181Y-134400000D01*
X152127835Y-134365526D01*
X152337410Y-134297432D01*
X152533760Y-134197386D01*
X152597513Y-134151066D01*
X152597514Y-134151066D01*
X152011059Y-133564612D01*
X152031591Y-133559111D01*
X152168408Y-133480119D01*
X152280119Y-133368408D01*
X152359111Y-133231591D01*
X152364612Y-133211059D01*
X152951066Y-133797514D01*
X152951066Y-133797513D01*
X152997386Y-133733760D01*
X153097432Y-133537410D01*
X153165526Y-133327835D01*
X153200000Y-133110181D01*
X153200000Y-132889818D01*
X153165526Y-132672164D01*
X153097432Y-132462589D01*
X152997388Y-132266243D01*
X152951066Y-132202485D01*
X152951065Y-132202485D01*
X152364612Y-132788939D01*
X152359111Y-132768409D01*
X152280119Y-132631592D01*
X152168408Y-132519881D01*
X152031591Y-132440889D01*
X152011057Y-132435387D01*
X152597513Y-131848932D01*
X152533756Y-131802611D01*
X152337410Y-131702567D01*
X152127835Y-131634473D01*
X151910181Y-131600000D01*
X151689819Y-131600000D01*
X151472164Y-131634473D01*
X151262589Y-131702567D01*
X151066233Y-131802616D01*
X151002485Y-131848931D01*
X151002485Y-131848932D01*
X151588940Y-132435387D01*
X151568409Y-132440889D01*
X151431592Y-132519881D01*
X151319881Y-132631592D01*
X151240889Y-132768409D01*
X151235387Y-132788940D01*
X150648932Y-132202485D01*
X150648931Y-132202485D01*
X150602616Y-132266233D01*
X150502567Y-132462589D01*
X150434473Y-132672164D01*
X150400000Y-132889818D01*
X138900000Y-132889818D01*
X138865526Y-132672164D01*
X138797432Y-132462589D01*
X138697388Y-132266243D01*
X138651066Y-132202485D01*
X138651065Y-132202485D01*
X138064612Y-132788939D01*
X138059111Y-132768409D01*
X137980119Y-132631592D01*
X137868408Y-132519881D01*
X137731591Y-132440889D01*
X137711057Y-132435387D01*
X138297513Y-131848932D01*
X138233756Y-131802611D01*
X138037410Y-131702567D01*
X137827835Y-131634473D01*
X137610181Y-131600000D01*
X137389819Y-131600000D01*
X137172164Y-131634473D01*
X136962589Y-131702567D01*
X136766233Y-131802616D01*
X136702485Y-131848931D01*
X136702485Y-131848932D01*
X137288940Y-132435387D01*
X137268409Y-132440889D01*
X137131592Y-132519881D01*
X137019881Y-132631592D01*
X136940889Y-132768409D01*
X136935387Y-132788940D01*
X136348932Y-132202485D01*
X136348931Y-132202485D01*
X136302616Y-132266233D01*
X136202567Y-132462589D01*
X136134473Y-132672164D01*
X136100000Y-132889818D01*
X131200500Y-132889818D01*
X131200500Y-121820097D01*
X131220185Y-121753058D01*
X131236819Y-121732416D01*
X147047819Y-105921416D01*
X147109142Y-105887931D01*
X147178834Y-105892915D01*
X147234767Y-105934787D01*
X147259184Y-106000251D01*
X147259500Y-106009097D01*
X147259500Y-106202351D01*
X147291522Y-106404534D01*
X147354781Y-106599223D01*
X147447715Y-106781613D01*
X147568028Y-106947213D01*
X147712786Y-107091971D01*
X147867749Y-107204556D01*
X147878390Y-107212287D01*
X147969840Y-107258883D01*
X147971080Y-107259515D01*
X148021876Y-107307490D01*
X148038671Y-107375311D01*
X148016134Y-107441446D01*
X147971080Y-107480485D01*
X147878386Y-107527715D01*
X147712786Y-107648028D01*
X147568028Y-107792786D01*
X147447715Y-107958386D01*
X147354781Y-108140776D01*
X147291522Y-108335465D01*
X147259500Y-108537648D01*
X147259500Y-108742351D01*
X147291522Y-108944534D01*
X147354781Y-109139223D01*
X147447715Y-109321613D01*
X147568028Y-109487213D01*
X147712786Y-109631971D01*
X147867749Y-109744556D01*
X147878390Y-109752287D01*
X147969840Y-109798883D01*
X147971080Y-109799515D01*
X148021876Y-109847490D01*
X148038671Y-109915311D01*
X148016134Y-109981446D01*
X147971080Y-110020485D01*
X147878386Y-110067715D01*
X147712786Y-110188028D01*
X147568028Y-110332786D01*
X147447715Y-110498386D01*
X147354781Y-110680776D01*
X147291522Y-110875465D01*
X147259500Y-111077648D01*
X147259500Y-111282351D01*
X147291522Y-111484534D01*
X147354781Y-111679223D01*
X147447715Y-111861613D01*
X147568028Y-112027213D01*
X147712786Y-112171971D01*
X147867749Y-112284556D01*
X147878390Y-112292287D01*
X147969840Y-112338883D01*
X147971080Y-112339515D01*
X148021876Y-112387490D01*
X148038671Y-112455311D01*
X148016134Y-112521446D01*
X147971080Y-112560485D01*
X147878386Y-112607715D01*
X147712786Y-112728028D01*
X147568028Y-112872786D01*
X147447715Y-113038386D01*
X147354781Y-113220776D01*
X147291522Y-113415465D01*
X147259500Y-113617647D01*
X147259500Y-113822351D01*
X147291522Y-114024534D01*
X147354781Y-114219223D01*
X147447715Y-114401613D01*
X147568028Y-114567213D01*
X147712786Y-114711971D01*
X147867749Y-114824556D01*
X147878390Y-114832287D01*
X147950424Y-114868990D01*
X147971629Y-114879795D01*
X148022425Y-114927770D01*
X148039220Y-114995591D01*
X148016682Y-115061726D01*
X147971629Y-115100765D01*
X147878650Y-115148140D01*
X147713105Y-115268417D01*
X147713104Y-115268417D01*
X147568417Y-115413104D01*
X147568417Y-115413105D01*
X147448140Y-115578650D01*
X147355244Y-115760970D01*
X147292009Y-115955586D01*
X147283391Y-116010000D01*
X148126988Y-116010000D01*
X148094075Y-116067007D01*
X148060000Y-116194174D01*
X148060000Y-116325826D01*
X148094075Y-116452993D01*
X148126988Y-116510000D01*
X147283391Y-116510000D01*
X147292009Y-116564413D01*
X147355244Y-116759029D01*
X147448140Y-116941349D01*
X147568417Y-117106894D01*
X147568417Y-117106895D01*
X147713104Y-117251582D01*
X147878652Y-117371861D01*
X147971628Y-117419234D01*
X148022425Y-117467208D01*
X148039220Y-117535029D01*
X148016683Y-117601164D01*
X147971630Y-117640203D01*
X147878388Y-117687713D01*
X147712786Y-117808028D01*
X147568028Y-117952786D01*
X147447715Y-118118386D01*
X147354781Y-118300776D01*
X147291522Y-118495465D01*
X147259500Y-118697648D01*
X147259500Y-118902351D01*
X147291522Y-119104534D01*
X147354781Y-119299223D01*
X147447715Y-119481613D01*
X147568028Y-119647213D01*
X147712786Y-119791971D01*
X147861345Y-119899903D01*
X147878390Y-119912287D01*
X147967212Y-119957544D01*
X148060776Y-120005218D01*
X148060778Y-120005218D01*
X148060781Y-120005220D01*
X148165137Y-120039127D01*
X148255465Y-120068477D01*
X148356557Y-120084488D01*
X148457648Y-120100500D01*
X148457649Y-120100500D01*
X148662351Y-120100500D01*
X148662352Y-120100500D01*
X148864534Y-120068477D01*
X149059219Y-120005220D01*
X149241610Y-119912287D01*
X149337901Y-119842328D01*
X149407213Y-119791971D01*
X149407215Y-119791968D01*
X149407219Y-119791966D01*
X149551966Y-119647219D01*
X149551968Y-119647215D01*
X149551971Y-119647213D01*
X149622407Y-119550264D01*
X149672287Y-119481610D01*
X149765220Y-119299219D01*
X149828477Y-119104534D01*
X149860500Y-118902352D01*
X149860500Y-118697648D01*
X149833871Y-118529520D01*
X149828477Y-118495465D01*
X149765218Y-118300776D01*
X149731503Y-118234607D01*
X149672287Y-118118390D01*
X149664556Y-118107749D01*
X149551971Y-117952786D01*
X149407213Y-117808028D01*
X149241611Y-117687713D01*
X149148369Y-117640203D01*
X149097574Y-117592229D01*
X149080779Y-117524407D01*
X149103317Y-117458273D01*
X149148371Y-117419234D01*
X149241347Y-117371861D01*
X149406894Y-117251582D01*
X149406895Y-117251582D01*
X149551582Y-117106895D01*
X149551582Y-117106894D01*
X149671859Y-116941349D01*
X149764755Y-116759029D01*
X149827990Y-116564413D01*
X149836609Y-116510000D01*
X148993012Y-116510000D01*
X149025925Y-116452993D01*
X149060000Y-116325826D01*
X149060000Y-116194174D01*
X149025925Y-116067007D01*
X148993012Y-116010000D01*
X149836609Y-116010000D01*
X149827990Y-115955586D01*
X149764755Y-115760970D01*
X149671859Y-115578650D01*
X149551582Y-115413105D01*
X149551582Y-115413104D01*
X149406895Y-115268417D01*
X149241349Y-115148140D01*
X149148370Y-115100765D01*
X149097574Y-115052790D01*
X149080779Y-114984969D01*
X149103316Y-114918835D01*
X149148370Y-114879795D01*
X149148920Y-114879515D01*
X149241610Y-114832287D01*
X149262770Y-114816913D01*
X149407213Y-114711971D01*
X149407215Y-114711968D01*
X149407219Y-114711966D01*
X149551966Y-114567219D01*
X149551968Y-114567215D01*
X149551971Y-114567213D01*
X149604732Y-114494590D01*
X149672287Y-114401610D01*
X149765220Y-114219219D01*
X149828477Y-114024534D01*
X149860500Y-113822352D01*
X149860500Y-113617648D01*
X149829113Y-113419478D01*
X149828477Y-113415465D01*
X149765218Y-113220776D01*
X149731503Y-113154607D01*
X149672287Y-113038390D01*
X149664556Y-113027749D01*
X149551971Y-112872786D01*
X149407213Y-112728028D01*
X149241614Y-112607715D01*
X149235006Y-112604348D01*
X149148917Y-112560483D01*
X149098123Y-112512511D01*
X149081328Y-112444690D01*
X149103865Y-112378555D01*
X149148917Y-112339516D01*
X149241610Y-112292287D01*
X149262770Y-112276913D01*
X149407213Y-112171971D01*
X149407215Y-112171968D01*
X149407219Y-112171966D01*
X149551966Y-112027219D01*
X149551968Y-112027215D01*
X149551971Y-112027213D01*
X149604732Y-111954590D01*
X149672287Y-111861610D01*
X149765220Y-111679219D01*
X149828477Y-111484534D01*
X149860500Y-111282352D01*
X149860500Y-111077648D01*
X149828477Y-110875466D01*
X149765220Y-110680781D01*
X149765218Y-110680778D01*
X149765218Y-110680776D01*
X149731503Y-110614607D01*
X149672287Y-110498390D01*
X149664556Y-110487749D01*
X149551971Y-110332786D01*
X149407213Y-110188028D01*
X149241614Y-110067715D01*
X149235006Y-110064348D01*
X149148917Y-110020483D01*
X149098123Y-109972511D01*
X149081328Y-109904690D01*
X149103865Y-109838555D01*
X149148917Y-109799516D01*
X149241610Y-109752287D01*
X149262770Y-109736913D01*
X149407213Y-109631971D01*
X149407215Y-109631968D01*
X149407219Y-109631966D01*
X149551966Y-109487219D01*
X149551968Y-109487215D01*
X149551971Y-109487213D01*
X149604732Y-109414590D01*
X149672287Y-109321610D01*
X149765220Y-109139219D01*
X149828477Y-108944534D01*
X149860500Y-108742352D01*
X149860500Y-108537648D01*
X149828477Y-108335466D01*
X149765220Y-108140781D01*
X149765218Y-108140778D01*
X149765218Y-108140776D01*
X149731503Y-108074607D01*
X149672287Y-107958390D01*
X149664556Y-107947749D01*
X149551971Y-107792786D01*
X149407213Y-107648028D01*
X149241614Y-107527715D01*
X149235006Y-107524348D01*
X149148917Y-107480483D01*
X149098123Y-107432511D01*
X149081328Y-107364690D01*
X149103865Y-107298555D01*
X149148917Y-107259516D01*
X149241610Y-107212287D01*
X149262770Y-107196913D01*
X149407213Y-107091971D01*
X149407215Y-107091968D01*
X149407219Y-107091966D01*
X149551966Y-106947219D01*
X149551968Y-106947215D01*
X149551971Y-106947213D01*
X149604732Y-106874590D01*
X149672287Y-106781610D01*
X149765220Y-106599219D01*
X149828477Y-106404534D01*
X149860500Y-106202352D01*
X149860500Y-105997648D01*
X149828477Y-105795466D01*
X149765220Y-105600781D01*
X149765218Y-105600778D01*
X149765218Y-105600776D01*
X149731503Y-105534607D01*
X149672287Y-105418390D01*
X149664556Y-105407749D01*
X149551971Y-105252786D01*
X149407213Y-105108028D01*
X149241614Y-104987715D01*
X149235006Y-104984348D01*
X149148917Y-104940483D01*
X149098123Y-104892511D01*
X149081328Y-104824690D01*
X149103865Y-104758555D01*
X149148917Y-104719516D01*
X149241610Y-104672287D01*
X149262770Y-104656913D01*
X149407213Y-104551971D01*
X149407215Y-104551968D01*
X149407219Y-104551966D01*
X149551966Y-104407219D01*
X149551968Y-104407215D01*
X149551971Y-104407213D01*
X149604732Y-104334590D01*
X149672287Y-104241610D01*
X149765220Y-104059219D01*
X149828477Y-103864534D01*
X149860500Y-103662352D01*
X149860500Y-103457648D01*
X149828477Y-103255466D01*
X149765220Y-103060781D01*
X149765218Y-103060778D01*
X149765218Y-103060776D01*
X149731503Y-102994607D01*
X149672287Y-102878390D01*
X149664556Y-102867749D01*
X149551971Y-102712786D01*
X149407213Y-102568028D01*
X149241611Y-102447713D01*
X149194107Y-102423509D01*
X149168729Y-102410578D01*
X149163536Y-102405673D01*
X149156707Y-102403577D01*
X149138470Y-102382000D01*
X149117934Y-102362605D01*
X149116216Y-102355671D01*
X149111605Y-102350215D01*
X149107928Y-102322201D01*
X149101138Y-102294784D01*
X149103220Y-102286337D01*
X149102512Y-102280939D01*
X149109274Y-102261784D01*
X149112871Y-102247200D01*
X149115061Y-102242556D01*
X149119577Y-102234735D01*
X149120665Y-102230674D01*
X149125405Y-102220624D01*
X149141484Y-102202521D01*
X149154068Y-102181837D01*
X149169074Y-102171460D01*
X149171806Y-102168386D01*
X149174691Y-102167577D01*
X149181254Y-102163038D01*
X149241610Y-102132287D01*
X149407219Y-102011966D01*
X149551966Y-101867219D01*
X149551968Y-101867215D01*
X149551971Y-101867213D01*
X149604732Y-101794590D01*
X149672287Y-101701610D01*
X149765220Y-101519219D01*
X149828477Y-101324534D01*
X149860500Y-101122352D01*
X149860500Y-100917648D01*
X149828477Y-100715466D01*
X149765220Y-100520781D01*
X149765218Y-100520778D01*
X149765218Y-100520776D01*
X149693893Y-100380795D01*
X149693384Y-100378089D01*
X149691584Y-100376011D01*
X149686975Y-100343961D01*
X149680997Y-100312126D01*
X149682031Y-100309576D01*
X149681640Y-100306853D01*
X149695095Y-100277389D01*
X149707273Y-100247386D01*
X149709521Y-100245800D01*
X149710665Y-100243297D01*
X149737909Y-100225787D01*
X149764379Y-100207128D01*
X149767837Y-100206554D01*
X149769443Y-100205523D01*
X149804378Y-100200500D01*
X149893331Y-100200500D01*
X149893347Y-100200501D01*
X149900943Y-100200501D01*
X150059054Y-100200501D01*
X150059057Y-100200501D01*
X150211785Y-100159577D01*
X150261904Y-100130639D01*
X150348716Y-100080520D01*
X150460520Y-99968716D01*
X150460520Y-99968714D01*
X150470728Y-99958507D01*
X150470730Y-99958504D01*
X162287819Y-88141415D01*
X162307255Y-88130802D01*
X162323989Y-88116302D01*
X162337320Y-88114385D01*
X162349142Y-88107930D01*
X162371228Y-88109509D01*
X162393147Y-88106358D01*
X162405398Y-88111953D01*
G37*
%TD.AperFunction*%
%TA.AperFunction,Conductor*%
G36*
X147345000Y-94004787D02*
G01*
X147360206Y-94004136D01*
X147377843Y-94014431D01*
X147397437Y-94020185D01*
X147408335Y-94032230D01*
X147420547Y-94039359D01*
X147440883Y-94068205D01*
X147447715Y-94081614D01*
X147568028Y-94247213D01*
X147712786Y-94391971D01*
X147867749Y-94504556D01*
X147878390Y-94512287D01*
X147969840Y-94558883D01*
X147971080Y-94559515D01*
X148021876Y-94607490D01*
X148038671Y-94675311D01*
X148016134Y-94741446D01*
X147971080Y-94780485D01*
X147878386Y-94827715D01*
X147712786Y-94948028D01*
X147568028Y-95092786D01*
X147447715Y-95258386D01*
X147354781Y-95440776D01*
X147291522Y-95635465D01*
X147259500Y-95837648D01*
X147259500Y-96042351D01*
X147291522Y-96244534D01*
X147354781Y-96439223D01*
X147447715Y-96621613D01*
X147568028Y-96787213D01*
X147712786Y-96931971D01*
X147867749Y-97044556D01*
X147878390Y-97052287D01*
X147969840Y-97098883D01*
X147971080Y-97099515D01*
X148021876Y-97147490D01*
X148038671Y-97215311D01*
X148016134Y-97281446D01*
X147971080Y-97320485D01*
X147878386Y-97367715D01*
X147712786Y-97488028D01*
X147568028Y-97632786D01*
X147447715Y-97798386D01*
X147354781Y-97980776D01*
X147291522Y-98175465D01*
X147259500Y-98377648D01*
X147259500Y-98582351D01*
X147291522Y-98784534D01*
X147354781Y-98979223D01*
X147447715Y-99161613D01*
X147568028Y-99327213D01*
X147619584Y-99378769D01*
X147653069Y-99440092D01*
X147648085Y-99509784D01*
X147619584Y-99554131D01*
X129761534Y-117412181D01*
X129700211Y-117445666D01*
X129673853Y-117448500D01*
X112037670Y-117448500D01*
X112037654Y-117448499D01*
X112030058Y-117448499D01*
X111871943Y-117448499D01*
X111810108Y-117465068D01*
X111719214Y-117489423D01*
X111719209Y-117489426D01*
X111582290Y-117568475D01*
X111582282Y-117568481D01*
X109812181Y-119338583D01*
X109750858Y-119372068D01*
X109681166Y-119367084D01*
X109625233Y-119325212D01*
X109600816Y-119259748D01*
X109600500Y-119250902D01*
X109600500Y-118955513D01*
X109570940Y-118768881D01*
X109532150Y-118649500D01*
X109512547Y-118589168D01*
X109512545Y-118589165D01*
X109512545Y-118589163D01*
X109426759Y-118420800D01*
X109315690Y-118267927D01*
X109182073Y-118134310D01*
X109029199Y-118023240D01*
X108860836Y-117937454D01*
X108681118Y-117879059D01*
X108494486Y-117849500D01*
X108494481Y-117849500D01*
X108305519Y-117849500D01*
X108305514Y-117849500D01*
X108118881Y-117879059D01*
X107939163Y-117937454D01*
X107770800Y-118023240D01*
X107683579Y-118086610D01*
X107617927Y-118134310D01*
X107617925Y-118134312D01*
X107617924Y-118134312D01*
X107484312Y-118267924D01*
X107484312Y-118267925D01*
X107484310Y-118267927D01*
X107460444Y-118300776D01*
X107373240Y-118420800D01*
X107287454Y-118589163D01*
X107229059Y-118768881D01*
X107199500Y-118955513D01*
X107199500Y-119899903D01*
X107179815Y-119966942D01*
X107163181Y-119987584D01*
X103587584Y-123563181D01*
X103526261Y-123596666D01*
X103499903Y-123599500D01*
X100179766Y-123599500D01*
X100112727Y-123579815D01*
X100110875Y-123578602D01*
X99979185Y-123490609D01*
X99979172Y-123490602D01*
X99833501Y-123430264D01*
X99833491Y-123430261D01*
X99699308Y-123403570D01*
X99637397Y-123371185D01*
X99602823Y-123310469D01*
X99599500Y-123281953D01*
X99599500Y-118955513D01*
X102399500Y-118955513D01*
X102399500Y-120244486D01*
X102429059Y-120431118D01*
X102487454Y-120610836D01*
X102561756Y-120756661D01*
X102573240Y-120779199D01*
X102684310Y-120932073D01*
X102817927Y-121065690D01*
X102970801Y-121176760D01*
X103050347Y-121217290D01*
X103139163Y-121262545D01*
X103139165Y-121262545D01*
X103139168Y-121262547D01*
X103235497Y-121293846D01*
X103318881Y-121320940D01*
X103505514Y-121350500D01*
X103505519Y-121350500D01*
X103694486Y-121350500D01*
X103881118Y-121320940D01*
X103918459Y-121308807D01*
X104060832Y-121262547D01*
X104229199Y-121176760D01*
X104382073Y-121065690D01*
X104515690Y-120932073D01*
X104626760Y-120779199D01*
X104712547Y-120610832D01*
X104770940Y-120431118D01*
X104800500Y-120244486D01*
X104800500Y-118955513D01*
X104770940Y-118768881D01*
X104732150Y-118649500D01*
X104712547Y-118589168D01*
X104712545Y-118589165D01*
X104712545Y-118589163D01*
X104626759Y-118420800D01*
X104515690Y-118267927D01*
X104382073Y-118134310D01*
X104229199Y-118023240D01*
X104060836Y-117937454D01*
X103881118Y-117879059D01*
X103694486Y-117849500D01*
X103694481Y-117849500D01*
X103505519Y-117849500D01*
X103505514Y-117849500D01*
X103318881Y-117879059D01*
X103139163Y-117937454D01*
X102970800Y-118023240D01*
X102883579Y-118086610D01*
X102817927Y-118134310D01*
X102817925Y-118134312D01*
X102817924Y-118134312D01*
X102684312Y-118267924D01*
X102684312Y-118267925D01*
X102684310Y-118267927D01*
X102660444Y-118300776D01*
X102573240Y-118420800D01*
X102487454Y-118589163D01*
X102429059Y-118768881D01*
X102399500Y-118955513D01*
X99599500Y-118955513D01*
X99599500Y-112701097D01*
X99619185Y-112634058D01*
X99635819Y-112613416D01*
X118212416Y-94036819D01*
X118273739Y-94003334D01*
X118300097Y-94000500D01*
X147330398Y-94000500D01*
X147345000Y-94004787D01*
G37*
%TD.AperFunction*%
%TA.AperFunction,Conductor*%
G36*
X171942539Y-75020185D02*
G01*
X171988294Y-75072989D01*
X171999500Y-75124500D01*
X171999500Y-155329581D01*
X171979815Y-155396620D01*
X171927011Y-155442375D01*
X171857853Y-155452319D01*
X171794297Y-155423294D01*
X171788077Y-155417503D01*
X171787926Y-155417370D01*
X171569483Y-155249754D01*
X171569482Y-155249753D01*
X171569479Y-155249751D01*
X171474407Y-155194861D01*
X171331028Y-155112080D01*
X171331017Y-155112075D01*
X171076630Y-155006704D01*
X170943649Y-154971072D01*
X170810666Y-154935440D01*
X170810660Y-154935439D01*
X170810655Y-154935438D01*
X170537684Y-154899501D01*
X170537679Y-154899500D01*
X170537674Y-154899500D01*
X170262326Y-154899500D01*
X170262320Y-154899500D01*
X170262315Y-154899501D01*
X169989344Y-154935438D01*
X169989337Y-154935439D01*
X169989334Y-154935440D01*
X169933125Y-154950500D01*
X169723369Y-155006704D01*
X169468982Y-155112075D01*
X169468971Y-155112080D01*
X169230516Y-155249754D01*
X169012073Y-155417370D01*
X169012066Y-155417376D01*
X168817376Y-155612066D01*
X168817370Y-155612073D01*
X168649754Y-155830516D01*
X168512080Y-156068971D01*
X168512075Y-156068982D01*
X168406704Y-156323369D01*
X168335441Y-156589331D01*
X168335438Y-156589344D01*
X168299501Y-156862315D01*
X168299500Y-156862332D01*
X168299500Y-157137667D01*
X168299501Y-157137684D01*
X168335438Y-157410655D01*
X168335439Y-157410660D01*
X168335440Y-157410666D01*
X168335441Y-157410668D01*
X168406704Y-157676630D01*
X168512075Y-157931017D01*
X168512080Y-157931028D01*
X168567683Y-158027333D01*
X168649751Y-158169479D01*
X168649753Y-158169482D01*
X168649754Y-158169483D01*
X168817370Y-158387926D01*
X168817376Y-158387933D01*
X169012066Y-158582623D01*
X169012073Y-158582629D01*
X169230513Y-158750243D01*
X169230521Y-158750249D01*
X169261466Y-158768115D01*
X169309679Y-158818680D01*
X169322901Y-158887288D01*
X169296933Y-158952152D01*
X169240019Y-158992680D01*
X169199463Y-158999500D01*
X85800537Y-158999500D01*
X85733498Y-158979815D01*
X85687743Y-158927011D01*
X85677799Y-158857853D01*
X85706824Y-158794297D01*
X85738532Y-158768116D01*
X85769479Y-158750249D01*
X85987928Y-158582628D01*
X86182628Y-158387928D01*
X86350249Y-158169479D01*
X86487923Y-157931021D01*
X86593295Y-157676632D01*
X86664560Y-157410666D01*
X86700500Y-157137674D01*
X86700500Y-156862326D01*
X86664560Y-156589334D01*
X86593295Y-156323368D01*
X86487923Y-156068979D01*
X86487921Y-156068976D01*
X86487919Y-156068971D01*
X86438732Y-155983778D01*
X86350249Y-155830521D01*
X86182628Y-155612072D01*
X86182623Y-155612066D01*
X85987933Y-155417376D01*
X85987926Y-155417370D01*
X85769483Y-155249754D01*
X85769482Y-155249753D01*
X85769479Y-155249751D01*
X85674407Y-155194861D01*
X85531028Y-155112080D01*
X85531017Y-155112075D01*
X85276630Y-155006704D01*
X85143649Y-154971072D01*
X85010666Y-154935440D01*
X85010660Y-154935439D01*
X85010655Y-154935438D01*
X84737684Y-154899501D01*
X84737679Y-154899500D01*
X84737674Y-154899500D01*
X84462326Y-154899500D01*
X84462320Y-154899500D01*
X84462315Y-154899501D01*
X84189344Y-154935438D01*
X84189337Y-154935439D01*
X84189334Y-154935440D01*
X84133125Y-154950500D01*
X83923369Y-155006704D01*
X83668982Y-155112075D01*
X83668971Y-155112080D01*
X83430516Y-155249754D01*
X83212073Y-155417370D01*
X83212066Y-155417376D01*
X83017376Y-155612066D01*
X83017370Y-155612073D01*
X82849756Y-155830513D01*
X82731887Y-156034667D01*
X82681320Y-156082882D01*
X82612712Y-156096104D01*
X82547848Y-156070136D01*
X82507320Y-156013222D01*
X82500500Y-155972666D01*
X82500500Y-147543139D01*
X85825500Y-147543139D01*
X85825500Y-147724861D01*
X85835563Y-147788394D01*
X85853928Y-147904347D01*
X85853928Y-147904350D01*
X85910081Y-148077171D01*
X85910083Y-148077174D01*
X85992583Y-148239090D01*
X86099397Y-148386106D01*
X86227894Y-148514603D01*
X86374910Y-148621417D01*
X86536826Y-148703917D01*
X86536828Y-148703918D01*
X86698029Y-148756294D01*
X86709654Y-148760072D01*
X86889139Y-148788500D01*
X86889140Y-148788500D01*
X87070860Y-148788500D01*
X87070861Y-148788500D01*
X87250346Y-148760072D01*
X87250349Y-148760071D01*
X87250350Y-148760071D01*
X87423171Y-148703918D01*
X87423171Y-148703917D01*
X87423174Y-148703917D01*
X87585090Y-148621417D01*
X87732106Y-148514603D01*
X87860603Y-148386106D01*
X87967417Y-148239090D01*
X88049917Y-148077174D01*
X88082370Y-147977294D01*
X88106071Y-147904350D01*
X88106071Y-147904349D01*
X88106072Y-147904346D01*
X88127780Y-147767286D01*
X88157709Y-147704152D01*
X88217021Y-147667221D01*
X88286883Y-147668219D01*
X88345116Y-147706829D01*
X88372726Y-147767287D01*
X88394415Y-147904225D01*
X88450548Y-148076984D01*
X88533011Y-148238828D01*
X88639780Y-148385781D01*
X88639780Y-148385782D01*
X88768217Y-148514219D01*
X88915171Y-148620988D01*
X89077015Y-148703451D01*
X89249774Y-148759584D01*
X89270000Y-148762788D01*
X89270000Y-147949686D01*
X89274394Y-147954080D01*
X89365606Y-148006741D01*
X89467339Y-148034000D01*
X89572661Y-148034000D01*
X89674394Y-148006741D01*
X89765606Y-147954080D01*
X89770000Y-147949686D01*
X89770000Y-148762787D01*
X89790225Y-148759584D01*
X89962984Y-148703451D01*
X90124828Y-148620988D01*
X90271781Y-148514219D01*
X90271782Y-148514219D01*
X90400219Y-148385782D01*
X90400219Y-148385781D01*
X90506988Y-148238828D01*
X90589451Y-148076984D01*
X90645584Y-147904225D01*
X90645585Y-147904224D01*
X90667273Y-147767288D01*
X90697202Y-147704153D01*
X90756513Y-147667221D01*
X90826376Y-147668219D01*
X90884609Y-147706828D01*
X90912219Y-147767286D01*
X90933928Y-147904349D01*
X90933928Y-147904350D01*
X90990081Y-148077171D01*
X90990083Y-148077174D01*
X91072583Y-148239090D01*
X91179397Y-148386106D01*
X91307894Y-148514603D01*
X91454910Y-148621417D01*
X91616826Y-148703917D01*
X91616828Y-148703918D01*
X91778029Y-148756294D01*
X91789654Y-148760072D01*
X91969139Y-148788500D01*
X91969140Y-148788500D01*
X92150860Y-148788500D01*
X92150861Y-148788500D01*
X92330346Y-148760072D01*
X92330349Y-148760071D01*
X92330350Y-148760071D01*
X92503171Y-148703918D01*
X92503171Y-148703917D01*
X92503174Y-148703917D01*
X92665090Y-148621417D01*
X92812106Y-148514603D01*
X92940603Y-148386106D01*
X93047417Y-148239090D01*
X93129917Y-148077174D01*
X93162370Y-147977294D01*
X93186071Y-147904350D01*
X93186071Y-147904349D01*
X93186072Y-147904346D01*
X93207527Y-147768884D01*
X93237456Y-147705750D01*
X93296768Y-147668819D01*
X93366630Y-147669817D01*
X93424863Y-147708427D01*
X93452472Y-147768884D01*
X93455563Y-147788394D01*
X93473928Y-147904347D01*
X93473928Y-147904350D01*
X93530081Y-148077171D01*
X93530083Y-148077174D01*
X93612583Y-148239090D01*
X93719397Y-148386106D01*
X93847894Y-148514603D01*
X93994910Y-148621417D01*
X94156826Y-148703917D01*
X94156828Y-148703918D01*
X94318029Y-148756294D01*
X94329654Y-148760072D01*
X94509139Y-148788500D01*
X94509140Y-148788500D01*
X94690860Y-148788500D01*
X94690861Y-148788500D01*
X94870346Y-148760072D01*
X94870349Y-148760071D01*
X94870350Y-148760071D01*
X95043171Y-148703918D01*
X95043171Y-148703917D01*
X95043174Y-148703917D01*
X95205090Y-148621417D01*
X95352106Y-148514603D01*
X95480603Y-148386106D01*
X95587417Y-148239090D01*
X95669917Y-148077174D01*
X95702370Y-147977294D01*
X95726071Y-147904350D01*
X95726071Y-147904349D01*
X95726072Y-147904346D01*
X95747527Y-147768884D01*
X95777456Y-147705750D01*
X95836768Y-147668819D01*
X95906630Y-147669817D01*
X95964863Y-147708427D01*
X95992472Y-147768884D01*
X95995563Y-147788394D01*
X96013928Y-147904347D01*
X96013928Y-147904350D01*
X96070081Y-148077171D01*
X96070083Y-148077174D01*
X96152583Y-148239090D01*
X96259397Y-148386106D01*
X96387894Y-148514603D01*
X96387900Y-148514607D01*
X96472150Y-148575820D01*
X96514816Y-148631150D01*
X96520794Y-148700763D01*
X96488188Y-148762558D01*
X96486945Y-148763818D01*
X93387582Y-151863181D01*
X93326259Y-151896666D01*
X93299901Y-151899500D01*
X92049998Y-151899500D01*
X92049981Y-151899501D01*
X91947203Y-151910000D01*
X91947200Y-151910001D01*
X91780668Y-151965185D01*
X91780663Y-151965187D01*
X91631342Y-152057289D01*
X91507289Y-152181342D01*
X91415187Y-152330663D01*
X91415185Y-152330668D01*
X91391396Y-152402459D01*
X91360001Y-152497203D01*
X91360001Y-152497204D01*
X91360000Y-152497204D01*
X91349500Y-152599983D01*
X91349500Y-154200001D01*
X91349501Y-154200018D01*
X91360000Y-154302796D01*
X91360001Y-154302799D01*
X91415185Y-154469331D01*
X91415187Y-154469336D01*
X91418680Y-154474999D01*
X91507288Y-154618656D01*
X91631344Y-154742712D01*
X91780666Y-154834814D01*
X91947203Y-154889999D01*
X92049991Y-154900500D01*
X93350008Y-154900499D01*
X93452797Y-154889999D01*
X93619334Y-154834814D01*
X93768656Y-154742712D01*
X93892712Y-154618656D01*
X93984814Y-154469334D01*
X94039999Y-154302797D01*
X94050500Y-154200009D01*
X94050499Y-152950095D01*
X94070184Y-152883057D01*
X94086813Y-152862420D01*
X94724220Y-152225013D01*
X107050000Y-152225013D01*
X107050000Y-152750000D01*
X107995854Y-152750000D01*
X107957370Y-152816657D01*
X107925000Y-152937465D01*
X107925000Y-153062535D01*
X107957370Y-153183343D01*
X107995854Y-153250000D01*
X107050001Y-153250000D01*
X107050001Y-153774986D01*
X107060494Y-153877697D01*
X107115641Y-154044119D01*
X107115643Y-154044124D01*
X107207684Y-154193345D01*
X107331654Y-154317315D01*
X107480875Y-154409356D01*
X107480880Y-154409358D01*
X107647302Y-154464505D01*
X107647309Y-154464506D01*
X107750019Y-154474999D01*
X108149999Y-154474999D01*
X108150000Y-154474998D01*
X108150000Y-153404145D01*
X108216657Y-153442630D01*
X108337465Y-153475000D01*
X108462535Y-153475000D01*
X108583343Y-153442630D01*
X108650000Y-153404145D01*
X108650000Y-154474999D01*
X109049972Y-154474999D01*
X109049986Y-154474998D01*
X109152697Y-154464505D01*
X109319119Y-154409358D01*
X109319124Y-154409356D01*
X109468345Y-154317315D01*
X109592317Y-154193343D01*
X109687815Y-154038516D01*
X109739763Y-153991791D01*
X109808725Y-153980568D01*
X109872808Y-154008412D01*
X109881035Y-154015931D01*
X110020213Y-154155109D01*
X110192179Y-154280048D01*
X110192181Y-154280049D01*
X110192184Y-154280051D01*
X110381588Y-154376557D01*
X110583757Y-154442246D01*
X110793713Y-154475500D01*
X110793714Y-154475500D01*
X111006286Y-154475500D01*
X111006287Y-154475500D01*
X111216243Y-154442246D01*
X111418412Y-154376557D01*
X111607816Y-154280051D01*
X111711402Y-154204792D01*
X111779786Y-154155109D01*
X111779788Y-154155106D01*
X111779792Y-154155104D01*
X111930104Y-154004792D01*
X112049683Y-153840204D01*
X112105011Y-153797540D01*
X112174624Y-153791561D01*
X112236420Y-153824166D01*
X112250313Y-153840199D01*
X112351953Y-153980095D01*
X112369896Y-154004792D01*
X112520213Y-154155109D01*
X112692179Y-154280048D01*
X112692181Y-154280049D01*
X112692184Y-154280051D01*
X112881588Y-154376557D01*
X113083757Y-154442246D01*
X113293713Y-154475500D01*
X113293714Y-154475500D01*
X113506286Y-154475500D01*
X113506287Y-154475500D01*
X113716243Y-154442246D01*
X113852873Y-154397851D01*
X113922708Y-154395856D01*
X113978867Y-154428102D01*
X114391139Y-154840374D01*
X114391149Y-154840385D01*
X114395479Y-154844715D01*
X114395480Y-154844716D01*
X114507284Y-154956520D01*
X114594095Y-155006639D01*
X114594097Y-155006641D01*
X114644213Y-155035576D01*
X114644215Y-155035577D01*
X114796942Y-155076500D01*
X114796943Y-155076500D01*
X131737331Y-155076500D01*
X131737347Y-155076501D01*
X131744943Y-155076501D01*
X131903054Y-155076501D01*
X131903057Y-155076501D01*
X132055785Y-155035577D01*
X132105904Y-155006639D01*
X132192716Y-154956520D01*
X132304520Y-154844716D01*
X132304520Y-154844714D01*
X132314728Y-154834507D01*
X132314730Y-154834504D01*
X132521133Y-154628100D01*
X132582454Y-154594617D01*
X132647126Y-154597851D01*
X132783757Y-154642246D01*
X132993713Y-154675500D01*
X132993714Y-154675500D01*
X133206286Y-154675500D01*
X133206287Y-154675500D01*
X133416243Y-154642246D01*
X133618412Y-154576557D01*
X133807816Y-154480051D01*
X133829789Y-154464086D01*
X133979786Y-154355109D01*
X133979788Y-154355106D01*
X133979792Y-154355104D01*
X134130104Y-154204792D01*
X134249991Y-154039779D01*
X134305320Y-153997115D01*
X134374933Y-153991136D01*
X134436729Y-154023741D01*
X134450627Y-154039781D01*
X134570272Y-154204459D01*
X134570276Y-154204464D01*
X134720535Y-154354723D01*
X134720540Y-154354727D01*
X134892442Y-154479620D01*
X135081782Y-154576095D01*
X135283871Y-154641757D01*
X135350000Y-154652231D01*
X135350000Y-153604145D01*
X135416657Y-153642630D01*
X135537465Y-153675000D01*
X135662535Y-153675000D01*
X135783343Y-153642630D01*
X135850000Y-153604145D01*
X135850000Y-154652230D01*
X135916126Y-154641757D01*
X135916129Y-154641757D01*
X136118217Y-154576095D01*
X136307557Y-154479620D01*
X136479459Y-154354727D01*
X136479464Y-154354723D01*
X136629723Y-154204464D01*
X136629727Y-154204459D01*
X136754620Y-154032557D01*
X136851095Y-153843217D01*
X136916757Y-153641130D01*
X136916757Y-153641127D01*
X136947030Y-153450000D01*
X136004146Y-153450000D01*
X136042630Y-153383343D01*
X136075000Y-153262535D01*
X136075000Y-153137465D01*
X136042630Y-153016657D01*
X136004146Y-152950000D01*
X136947030Y-152950000D01*
X136929803Y-152841232D01*
X136927229Y-152824983D01*
X148149500Y-152824983D01*
X148149500Y-154375001D01*
X148149501Y-154375018D01*
X148160000Y-154477796D01*
X148160001Y-154477799D01*
X148191730Y-154573549D01*
X148215186Y-154644334D01*
X148307288Y-154793656D01*
X148431344Y-154917712D01*
X148580666Y-155009814D01*
X148747203Y-155064999D01*
X148849991Y-155075500D01*
X150150008Y-155075499D01*
X150252797Y-155064999D01*
X150419334Y-155009814D01*
X150568656Y-154917712D01*
X150692712Y-154793656D01*
X150784814Y-154644334D01*
X150839999Y-154477797D01*
X150850500Y-154375009D01*
X150850499Y-153368713D01*
X153149500Y-153368713D01*
X153149500Y-153831287D01*
X153152464Y-153850000D01*
X153182735Y-154041127D01*
X153182754Y-154041243D01*
X153235786Y-154204459D01*
X153248444Y-154243414D01*
X153344951Y-154432820D01*
X153469890Y-154604786D01*
X153620213Y-154755109D01*
X153792179Y-154880048D01*
X153792181Y-154880049D01*
X153792184Y-154880051D01*
X153981588Y-154976557D01*
X154183757Y-155042246D01*
X154393713Y-155075500D01*
X154393714Y-155075500D01*
X154606286Y-155075500D01*
X154606287Y-155075500D01*
X154816243Y-155042246D01*
X155018412Y-154976557D01*
X155207816Y-154880051D01*
X155270083Y-154834812D01*
X155379786Y-154755109D01*
X155379788Y-154755106D01*
X155379792Y-154755104D01*
X155530104Y-154604792D01*
X155649683Y-154440204D01*
X155705011Y-154397540D01*
X155774624Y-154391561D01*
X155836420Y-154424166D01*
X155850313Y-154440199D01*
X155964854Y-154597852D01*
X155969896Y-154604792D01*
X156120213Y-154755109D01*
X156292179Y-154880048D01*
X156292181Y-154880049D01*
X156292184Y-154880051D01*
X156481588Y-154976557D01*
X156683757Y-155042246D01*
X156893713Y-155075500D01*
X156893714Y-155075500D01*
X157106286Y-155075500D01*
X157106287Y-155075500D01*
X157316243Y-155042246D01*
X157518412Y-154976557D01*
X157707816Y-154880051D01*
X157770083Y-154834812D01*
X157879786Y-154755109D01*
X157879788Y-154755106D01*
X157879792Y-154755104D01*
X158030104Y-154604792D01*
X158149991Y-154439779D01*
X158205320Y-154397115D01*
X158274933Y-154391136D01*
X158336729Y-154423741D01*
X158350627Y-154439781D01*
X158470272Y-154604459D01*
X158470276Y-154604464D01*
X158620535Y-154754723D01*
X158620540Y-154754727D01*
X158792442Y-154879620D01*
X158981782Y-154976095D01*
X159183871Y-155041757D01*
X159250000Y-155052231D01*
X159250000Y-154004145D01*
X159316657Y-154042630D01*
X159437465Y-154075000D01*
X159562535Y-154075000D01*
X159683343Y-154042630D01*
X159750000Y-154004145D01*
X159750000Y-155052230D01*
X159816126Y-155041757D01*
X159816129Y-155041757D01*
X160018217Y-154976095D01*
X160207557Y-154879620D01*
X160379459Y-154754727D01*
X160379464Y-154754723D01*
X160529723Y-154604464D01*
X160529727Y-154604459D01*
X160654620Y-154432557D01*
X160751095Y-154243217D01*
X160816757Y-154041130D01*
X160816757Y-154041127D01*
X160847030Y-153850000D01*
X159904146Y-153850000D01*
X159942630Y-153783343D01*
X159975000Y-153662535D01*
X159975000Y-153537465D01*
X159942630Y-153416657D01*
X159904146Y-153350000D01*
X160847030Y-153350000D01*
X160816757Y-153158872D01*
X160816757Y-153158869D01*
X160751095Y-152956782D01*
X160654620Y-152767442D01*
X160529727Y-152595540D01*
X160529723Y-152595535D01*
X160379464Y-152445276D01*
X160379459Y-152445272D01*
X160207557Y-152320379D01*
X160018215Y-152223903D01*
X159816124Y-152158241D01*
X159750000Y-152147768D01*
X159750000Y-153195854D01*
X159683343Y-153157370D01*
X159562535Y-153125000D01*
X159437465Y-153125000D01*
X159316657Y-153157370D01*
X159250000Y-153195854D01*
X159250000Y-152147768D01*
X159249999Y-152147768D01*
X159183875Y-152158241D01*
X158981784Y-152223903D01*
X158792442Y-152320379D01*
X158620540Y-152445272D01*
X158620535Y-152445276D01*
X158470276Y-152595535D01*
X158470272Y-152595540D01*
X158350627Y-152760218D01*
X158295297Y-152802884D01*
X158225684Y-152808863D01*
X158163889Y-152776257D01*
X158149991Y-152760218D01*
X158030109Y-152595214D01*
X158030105Y-152595209D01*
X157879786Y-152444890D01*
X157707820Y-152319951D01*
X157518414Y-152223444D01*
X157518413Y-152223443D01*
X157518412Y-152223443D01*
X157316243Y-152157754D01*
X157316241Y-152157753D01*
X157316240Y-152157753D01*
X157154957Y-152132208D01*
X157106287Y-152124500D01*
X156893713Y-152124500D01*
X156845042Y-152132208D01*
X156683760Y-152157753D01*
X156481585Y-152223444D01*
X156292179Y-152319951D01*
X156120213Y-152444890D01*
X155969894Y-152595209D01*
X155969890Y-152595214D01*
X155850318Y-152759793D01*
X155794989Y-152802459D01*
X155725375Y-152808438D01*
X155663580Y-152775833D01*
X155649682Y-152759793D01*
X155530109Y-152595214D01*
X155530105Y-152595209D01*
X155379786Y-152444890D01*
X155207820Y-152319951D01*
X155018414Y-152223444D01*
X155018413Y-152223443D01*
X155018412Y-152223443D01*
X154816243Y-152157754D01*
X154816241Y-152157753D01*
X154816240Y-152157753D01*
X154654957Y-152132208D01*
X154606287Y-152124500D01*
X154393713Y-152124500D01*
X154345042Y-152132208D01*
X154183760Y-152157753D01*
X153981585Y-152223444D01*
X153792179Y-152319951D01*
X153620213Y-152444890D01*
X153469890Y-152595213D01*
X153344951Y-152767179D01*
X153248444Y-152956585D01*
X153182753Y-153158760D01*
X153159062Y-153308343D01*
X153149500Y-153368713D01*
X150850499Y-153368713D01*
X150850499Y-152824992D01*
X150848851Y-152808863D01*
X150839999Y-152722203D01*
X150839998Y-152722200D01*
X150835406Y-152708343D01*
X150784814Y-152555666D01*
X150692712Y-152406344D01*
X150568656Y-152282288D01*
X150455034Y-152212206D01*
X150419336Y-152190187D01*
X150419331Y-152190185D01*
X150417862Y-152189698D01*
X150252797Y-152135001D01*
X150252795Y-152135000D01*
X150150010Y-152124500D01*
X148849998Y-152124500D01*
X148849981Y-152124501D01*
X148747203Y-152135000D01*
X148747200Y-152135001D01*
X148580668Y-152190185D01*
X148580663Y-152190187D01*
X148431342Y-152282289D01*
X148307289Y-152406342D01*
X148215187Y-152555663D01*
X148215185Y-152555668D01*
X148202083Y-152595208D01*
X148160001Y-152722203D01*
X148160001Y-152722204D01*
X148160000Y-152722204D01*
X148149500Y-152824983D01*
X136927229Y-152824983D01*
X136916757Y-152758870D01*
X136916757Y-152758869D01*
X136851095Y-152556782D01*
X136754620Y-152367442D01*
X136629727Y-152195540D01*
X136629723Y-152195535D01*
X136479464Y-152045276D01*
X136479459Y-152045272D01*
X136307557Y-151920379D01*
X136118215Y-151823903D01*
X135916124Y-151758241D01*
X135850000Y-151747768D01*
X135850000Y-152795854D01*
X135783343Y-152757370D01*
X135662535Y-152725000D01*
X135537465Y-152725000D01*
X135416657Y-152757370D01*
X135350000Y-152795854D01*
X135350000Y-151747768D01*
X135349999Y-151747768D01*
X135283875Y-151758241D01*
X135081784Y-151823903D01*
X134892442Y-151920379D01*
X134720540Y-152045272D01*
X134720535Y-152045276D01*
X134570276Y-152195535D01*
X134570272Y-152195540D01*
X134450627Y-152360218D01*
X134395297Y-152402884D01*
X134325684Y-152408863D01*
X134263889Y-152376257D01*
X134249991Y-152360218D01*
X134130109Y-152195214D01*
X134130105Y-152195209D01*
X133979786Y-152044890D01*
X133807820Y-151919951D01*
X133618414Y-151823444D01*
X133618413Y-151823443D01*
X133618412Y-151823443D01*
X133416243Y-151757754D01*
X133416241Y-151757753D01*
X133416240Y-151757753D01*
X133254957Y-151732208D01*
X133206287Y-151724500D01*
X132993713Y-151724500D01*
X132945042Y-151732208D01*
X132783760Y-151757753D01*
X132581585Y-151823444D01*
X132392179Y-151919951D01*
X132220213Y-152044890D01*
X132069894Y-152195209D01*
X132069890Y-152195214D01*
X131950318Y-152359793D01*
X131894989Y-152402459D01*
X131825375Y-152408438D01*
X131763580Y-152375833D01*
X131749682Y-152359793D01*
X131630109Y-152195214D01*
X131630105Y-152195209D01*
X131479786Y-152044890D01*
X131307820Y-151919951D01*
X131118414Y-151823444D01*
X131118413Y-151823443D01*
X131118412Y-151823443D01*
X130916243Y-151757754D01*
X130916241Y-151757753D01*
X130916240Y-151757753D01*
X130754957Y-151732208D01*
X130706287Y-151724500D01*
X130493713Y-151724500D01*
X130445042Y-151732208D01*
X130283760Y-151757753D01*
X130081585Y-151823444D01*
X129892179Y-151919951D01*
X129720215Y-152044889D01*
X129581398Y-152183706D01*
X129520075Y-152217190D01*
X129450383Y-152212206D01*
X129394450Y-152170334D01*
X129388178Y-152161120D01*
X129379942Y-152147768D01*
X129292712Y-152006344D01*
X129168656Y-151882288D01*
X129019334Y-151790186D01*
X128852797Y-151735001D01*
X128852795Y-151735000D01*
X128750010Y-151724500D01*
X127449998Y-151724500D01*
X127449981Y-151724501D01*
X127347203Y-151735000D01*
X127347200Y-151735001D01*
X127180668Y-151790185D01*
X127180663Y-151790187D01*
X127031342Y-151882289D01*
X126907289Y-152006342D01*
X126815187Y-152155663D01*
X126815185Y-152155668D01*
X126792574Y-152223903D01*
X126760001Y-152322203D01*
X126760001Y-152322204D01*
X126760000Y-152322204D01*
X126749500Y-152424983D01*
X126749500Y-152424991D01*
X126749500Y-153137465D01*
X126749501Y-153751500D01*
X126729816Y-153818539D01*
X126677013Y-153864294D01*
X126625501Y-153875500D01*
X115176097Y-153875500D01*
X115109058Y-153855815D01*
X115088416Y-153839181D01*
X114758261Y-153509026D01*
X114724776Y-153447703D01*
X114723469Y-153401951D01*
X114750500Y-153231287D01*
X114750500Y-152768713D01*
X114717246Y-152558757D01*
X114651557Y-152356588D01*
X114555051Y-152167184D01*
X114555049Y-152167181D01*
X114555048Y-152167179D01*
X114430109Y-151995213D01*
X114279786Y-151844890D01*
X114107820Y-151719951D01*
X113918414Y-151623444D01*
X113918413Y-151623443D01*
X113918412Y-151623443D01*
X113716243Y-151557754D01*
X113716241Y-151557753D01*
X113716240Y-151557753D01*
X113554957Y-151532208D01*
X113506287Y-151524500D01*
X113293713Y-151524500D01*
X113245042Y-151532208D01*
X113083760Y-151557753D01*
X112881585Y-151623444D01*
X112692179Y-151719951D01*
X112520213Y-151844890D01*
X112369894Y-151995209D01*
X112369890Y-151995214D01*
X112250318Y-152159793D01*
X112194989Y-152202459D01*
X112125375Y-152208438D01*
X112063580Y-152175833D01*
X112049682Y-152159793D01*
X111930109Y-151995214D01*
X111930105Y-151995209D01*
X111779786Y-151844890D01*
X111607820Y-151719951D01*
X111418414Y-151623444D01*
X111418413Y-151623443D01*
X111418412Y-151623443D01*
X111216243Y-151557754D01*
X111216241Y-151557753D01*
X111216240Y-151557753D01*
X111054957Y-151532208D01*
X111006287Y-151524500D01*
X110793713Y-151524500D01*
X110745042Y-151532208D01*
X110583760Y-151557753D01*
X110381585Y-151623444D01*
X110192179Y-151719951D01*
X110020215Y-151844889D01*
X109881035Y-151984069D01*
X109819712Y-152017553D01*
X109750020Y-152012569D01*
X109694087Y-151970697D01*
X109687815Y-151961484D01*
X109592315Y-151806654D01*
X109468345Y-151682684D01*
X109319124Y-151590643D01*
X109319119Y-151590641D01*
X109152697Y-151535494D01*
X109152690Y-151535493D01*
X109049986Y-151525000D01*
X108650000Y-151525000D01*
X108650000Y-152595854D01*
X108583343Y-152557370D01*
X108462535Y-152525000D01*
X108337465Y-152525000D01*
X108216657Y-152557370D01*
X108150000Y-152595854D01*
X108150000Y-151525000D01*
X107750028Y-151525000D01*
X107750012Y-151525001D01*
X107647302Y-151535494D01*
X107480880Y-151590641D01*
X107480875Y-151590643D01*
X107331654Y-151682684D01*
X107207684Y-151806654D01*
X107115643Y-151955875D01*
X107115641Y-151955880D01*
X107060494Y-152122302D01*
X107060493Y-152122309D01*
X107050000Y-152225013D01*
X94724220Y-152225013D01*
X97723416Y-149225819D01*
X97784739Y-149192334D01*
X97811097Y-149189500D01*
X132675654Y-149189500D01*
X132742693Y-149209185D01*
X132788448Y-149261989D01*
X132797297Y-149315066D01*
X132799500Y-149315066D01*
X132799500Y-149478846D01*
X132830261Y-149633489D01*
X132830264Y-149633501D01*
X132890602Y-149779172D01*
X132890609Y-149779185D01*
X132978210Y-149910288D01*
X132978213Y-149910292D01*
X133089707Y-150021786D01*
X133089711Y-150021789D01*
X133220814Y-150109390D01*
X133220827Y-150109397D01*
X133366498Y-150169735D01*
X133366503Y-150169737D01*
X133521153Y-150200499D01*
X133521156Y-150200500D01*
X133521158Y-150200500D01*
X133678844Y-150200500D01*
X133678845Y-150200499D01*
X133833497Y-150169737D01*
X133979179Y-150109394D01*
X133979185Y-150109390D01*
X134110875Y-150021398D01*
X134177553Y-150000520D01*
X134179766Y-150000500D01*
X136420234Y-150000500D01*
X136487273Y-150020185D01*
X136489125Y-150021398D01*
X136620814Y-150109390D01*
X136620827Y-150109397D01*
X136766498Y-150169735D01*
X136766503Y-150169737D01*
X136921153Y-150200499D01*
X136921156Y-150200500D01*
X136921158Y-150200500D01*
X137078844Y-150200500D01*
X137078845Y-150200499D01*
X137233497Y-150169737D01*
X137379179Y-150109394D01*
X137510289Y-150021789D01*
X137621789Y-149910289D01*
X137709394Y-149779179D01*
X137769737Y-149633497D01*
X137800500Y-149478842D01*
X137800500Y-149321158D01*
X137800500Y-149315066D01*
X137802947Y-149315066D01*
X137813970Y-149256991D01*
X137862043Y-149206288D01*
X137924346Y-149189500D01*
X153724331Y-149189500D01*
X153724347Y-149189501D01*
X153731943Y-149189501D01*
X153890054Y-149189501D01*
X153890057Y-149189501D01*
X154042785Y-149148577D01*
X154092904Y-149119639D01*
X154179716Y-149069520D01*
X154291520Y-148957716D01*
X154291520Y-148957714D01*
X154301728Y-148947507D01*
X154301729Y-148947504D01*
X158414662Y-144834572D01*
X158475983Y-144801089D01*
X158478150Y-144800638D01*
X158536085Y-144789113D01*
X158633497Y-144769737D01*
X158779179Y-144709394D01*
X158910289Y-144621789D01*
X159021789Y-144510289D01*
X159109394Y-144379179D01*
X159169737Y-144233497D01*
X159200500Y-144078842D01*
X159200500Y-143921158D01*
X159200500Y-143921155D01*
X159198030Y-143908741D01*
X159204254Y-143839149D01*
X159247115Y-143783970D01*
X159313004Y-143760723D01*
X159360412Y-143768837D01*
X159360676Y-143767969D01*
X159366492Y-143769732D01*
X159366503Y-143769737D01*
X159521153Y-143800499D01*
X159521156Y-143800500D01*
X159521158Y-143800500D01*
X159678844Y-143800500D01*
X159678845Y-143800499D01*
X159833497Y-143769737D01*
X159979179Y-143709394D01*
X160110289Y-143621789D01*
X160221789Y-143510289D01*
X160309394Y-143379179D01*
X160369737Y-143233497D01*
X160400500Y-143078842D01*
X160400500Y-142921158D01*
X160395040Y-142893713D01*
X163299500Y-142893713D01*
X163299500Y-143106287D01*
X163332754Y-143316243D01*
X163397436Y-143515314D01*
X163398444Y-143518414D01*
X163494951Y-143707820D01*
X163619890Y-143879786D01*
X163758705Y-144018601D01*
X163792190Y-144079924D01*
X163787206Y-144149616D01*
X163745334Y-144205549D01*
X163736121Y-144211821D01*
X163581342Y-144307289D01*
X163457289Y-144431342D01*
X163365187Y-144580663D01*
X163365186Y-144580666D01*
X163310001Y-144747203D01*
X163310001Y-144747204D01*
X163310000Y-144747204D01*
X163299500Y-144849983D01*
X163299500Y-146150001D01*
X163299501Y-146150018D01*
X163310000Y-146252796D01*
X163310001Y-146252799D01*
X163365185Y-146419331D01*
X163365186Y-146419334D01*
X163457288Y-146568656D01*
X163581344Y-146692712D01*
X163730666Y-146784814D01*
X163897203Y-146839999D01*
X163999991Y-146850500D01*
X165600008Y-146850499D01*
X165702797Y-146839999D01*
X165869334Y-146784814D01*
X166018656Y-146692712D01*
X166142712Y-146568656D01*
X166234814Y-146419334D01*
X166289999Y-146252797D01*
X166300500Y-146150009D01*
X166300499Y-144849992D01*
X166295457Y-144800638D01*
X166289999Y-144747203D01*
X166289998Y-144747200D01*
X166277469Y-144709390D01*
X166234814Y-144580666D01*
X166142712Y-144431344D01*
X166018656Y-144307288D01*
X165869334Y-144215186D01*
X165869333Y-144215185D01*
X165863878Y-144211821D01*
X165817154Y-144159873D01*
X165805931Y-144090910D01*
X165833775Y-144026828D01*
X165841272Y-144018623D01*
X165980104Y-143879792D01*
X166105051Y-143707816D01*
X166201557Y-143518412D01*
X166267246Y-143316243D01*
X166300500Y-143106287D01*
X166300500Y-142893713D01*
X166267246Y-142683757D01*
X166201557Y-142481588D01*
X166105051Y-142292184D01*
X166105049Y-142292181D01*
X166105048Y-142292179D01*
X165980109Y-142120213D01*
X165829786Y-141969890D01*
X165657820Y-141844951D01*
X165468414Y-141748444D01*
X165468413Y-141748443D01*
X165468412Y-141748443D01*
X165266243Y-141682754D01*
X165266241Y-141682753D01*
X165266240Y-141682753D01*
X165104957Y-141657208D01*
X165056287Y-141649500D01*
X164543713Y-141649500D01*
X164495042Y-141657208D01*
X164333760Y-141682753D01*
X164131585Y-141748444D01*
X163942179Y-141844951D01*
X163770213Y-141969890D01*
X163619890Y-142120213D01*
X163494951Y-142292179D01*
X163398444Y-142481585D01*
X163332753Y-142683760D01*
X163301661Y-142880070D01*
X163299500Y-142893713D01*
X160395040Y-142893713D01*
X160392535Y-142881118D01*
X160375115Y-142793540D01*
X160369737Y-142766503D01*
X160369735Y-142766498D01*
X160309397Y-142620827D01*
X160309390Y-142620814D01*
X160221789Y-142489711D01*
X160221786Y-142489707D01*
X160110292Y-142378213D01*
X160110288Y-142378210D01*
X159979185Y-142290609D01*
X159979172Y-142290602D01*
X159833501Y-142230264D01*
X159833489Y-142230261D01*
X159678845Y-142199500D01*
X159678842Y-142199500D01*
X159521158Y-142199500D01*
X159521155Y-142199500D01*
X159366510Y-142230261D01*
X159366498Y-142230264D01*
X159220827Y-142290602D01*
X159220814Y-142290609D01*
X159089125Y-142378602D01*
X159022447Y-142399480D01*
X159020234Y-142399500D01*
X157520940Y-142399500D01*
X157480019Y-142410464D01*
X157480019Y-142410465D01*
X157442751Y-142420451D01*
X157368214Y-142440423D01*
X157368209Y-142440426D01*
X157231290Y-142519475D01*
X157231282Y-142519481D01*
X157119480Y-142631283D01*
X157119480Y-142631284D01*
X157119478Y-142631286D01*
X157015669Y-142735095D01*
X156964798Y-142785966D01*
X156903475Y-142819450D01*
X156833783Y-142814466D01*
X156777850Y-142772594D01*
X156753433Y-142707130D01*
X156762556Y-142650833D01*
X156769737Y-142633497D01*
X156800500Y-142478842D01*
X156800500Y-142321158D01*
X156800500Y-142321155D01*
X156800499Y-142321153D01*
X156776499Y-142200499D01*
X156769737Y-142166503D01*
X156758415Y-142139168D01*
X156709397Y-142020827D01*
X156709390Y-142020814D01*
X156621398Y-141889125D01*
X156600520Y-141822447D01*
X156600500Y-141820234D01*
X156600500Y-129893713D01*
X163299500Y-129893713D01*
X163299500Y-130106286D01*
X163330479Y-130301883D01*
X163332754Y-130316243D01*
X163391268Y-130496331D01*
X163398444Y-130518414D01*
X163494951Y-130707820D01*
X163619890Y-130879786D01*
X163758705Y-131018601D01*
X163792190Y-131079924D01*
X163787206Y-131149616D01*
X163745334Y-131205549D01*
X163736121Y-131211821D01*
X163581342Y-131307289D01*
X163457289Y-131431342D01*
X163365187Y-131580663D01*
X163365186Y-131580666D01*
X163310001Y-131747203D01*
X163310001Y-131747204D01*
X163310000Y-131747204D01*
X163299500Y-131849983D01*
X163299500Y-133150001D01*
X163299501Y-133150018D01*
X163310000Y-133252796D01*
X163310001Y-133252799D01*
X163365185Y-133419331D01*
X163365187Y-133419336D01*
X163400069Y-133475888D01*
X163457288Y-133568656D01*
X163581344Y-133692712D01*
X163730666Y-133784814D01*
X163897203Y-133839999D01*
X163999991Y-133850500D01*
X165600008Y-133850499D01*
X165702797Y-133839999D01*
X165869334Y-133784814D01*
X166018656Y-133692712D01*
X166142712Y-133568656D01*
X166234814Y-133419334D01*
X166289999Y-133252797D01*
X166300500Y-133150009D01*
X166300499Y-131849992D01*
X166295659Y-131802616D01*
X166289999Y-131747203D01*
X166289998Y-131747200D01*
X166272530Y-131694486D01*
X166234814Y-131580666D01*
X166142712Y-131431344D01*
X166018656Y-131307288D01*
X165869334Y-131215186D01*
X165869333Y-131215185D01*
X165863878Y-131211821D01*
X165817154Y-131159873D01*
X165805931Y-131090910D01*
X165833775Y-131026828D01*
X165841272Y-131018623D01*
X165980104Y-130879792D01*
X166025054Y-130817924D01*
X166105048Y-130707820D01*
X166105047Y-130707820D01*
X166105051Y-130707816D01*
X166201557Y-130518412D01*
X166267246Y-130316243D01*
X166300500Y-130106287D01*
X166300500Y-129893713D01*
X166267246Y-129683757D01*
X166201557Y-129481588D01*
X166105051Y-129292184D01*
X166105049Y-129292181D01*
X166105048Y-129292179D01*
X165980109Y-129120213D01*
X165829786Y-128969890D01*
X165657820Y-128844951D01*
X165468414Y-128748444D01*
X165468413Y-128748443D01*
X165468412Y-128748443D01*
X165266243Y-128682754D01*
X165266241Y-128682753D01*
X165266240Y-128682753D01*
X165104957Y-128657208D01*
X165056287Y-128649500D01*
X164543713Y-128649500D01*
X164495042Y-128657208D01*
X164333760Y-128682753D01*
X164131585Y-128748444D01*
X163942179Y-128844951D01*
X163770213Y-128969890D01*
X163619890Y-129120213D01*
X163494951Y-129292179D01*
X163398444Y-129481585D01*
X163332753Y-129683760D01*
X163299500Y-129893713D01*
X156600500Y-129893713D01*
X156600500Y-114200097D01*
X156620185Y-114133058D01*
X156636819Y-114112416D01*
X157131588Y-113617647D01*
X162499500Y-113617647D01*
X162499500Y-113822351D01*
X162531522Y-114024534D01*
X162594781Y-114219223D01*
X162687715Y-114401613D01*
X162808028Y-114567213D01*
X162952786Y-114711971D01*
X163107749Y-114824556D01*
X163118390Y-114832287D01*
X163209840Y-114878883D01*
X163211080Y-114879515D01*
X163261876Y-114927490D01*
X163278671Y-114995311D01*
X163256134Y-115061446D01*
X163211080Y-115100485D01*
X163118386Y-115147715D01*
X162952786Y-115268028D01*
X162808028Y-115412786D01*
X162687715Y-115578386D01*
X162594781Y-115760776D01*
X162531522Y-115955465D01*
X162499500Y-116157648D01*
X162499500Y-116362351D01*
X162531522Y-116564534D01*
X162594781Y-116759223D01*
X162687715Y-116941613D01*
X162808028Y-117107213D01*
X162952784Y-117251969D01*
X162989068Y-117278330D01*
X163031735Y-117333659D01*
X163037715Y-117403273D01*
X163005109Y-117465068D01*
X162944271Y-117499426D01*
X162929440Y-117501938D01*
X162892519Y-117505907D01*
X162757671Y-117556202D01*
X162757664Y-117556206D01*
X162642455Y-117642452D01*
X162642452Y-117642455D01*
X162556206Y-117757664D01*
X162556202Y-117757671D01*
X162505908Y-117892517D01*
X162499501Y-117952116D01*
X162499501Y-117952123D01*
X162499500Y-117952135D01*
X162499500Y-119647870D01*
X162499501Y-119647876D01*
X162505908Y-119707483D01*
X162556202Y-119842328D01*
X162556206Y-119842335D01*
X162642452Y-119957544D01*
X162642455Y-119957547D01*
X162757664Y-120043793D01*
X162757671Y-120043797D01*
X162892517Y-120094091D01*
X162892516Y-120094091D01*
X162899444Y-120094835D01*
X162952127Y-120100500D01*
X164647872Y-120100499D01*
X164707483Y-120094091D01*
X164842331Y-120043796D01*
X164957546Y-119957546D01*
X165043796Y-119842331D01*
X165094091Y-119707483D01*
X165100500Y-119647873D01*
X165100499Y-117952128D01*
X165094091Y-117892517D01*
X165089071Y-117879059D01*
X165043797Y-117757671D01*
X165043793Y-117757664D01*
X164957547Y-117642455D01*
X164957544Y-117642452D01*
X164842335Y-117556206D01*
X164842328Y-117556202D01*
X164707482Y-117505908D01*
X164707483Y-117505908D01*
X164670560Y-117501939D01*
X164606009Y-117475201D01*
X164566160Y-117417809D01*
X164563667Y-117347984D01*
X164599319Y-117287895D01*
X164610930Y-117278331D01*
X164647219Y-117251966D01*
X164791966Y-117107219D01*
X164791968Y-117107215D01*
X164791971Y-117107213D01*
X164844732Y-117034590D01*
X164912287Y-116941610D01*
X165005220Y-116759219D01*
X165068477Y-116564534D01*
X165100500Y-116362352D01*
X165100500Y-116157648D01*
X165086144Y-116067007D01*
X165068477Y-115955465D01*
X165005218Y-115760776D01*
X164912419Y-115578650D01*
X164912287Y-115578390D01*
X164904556Y-115567749D01*
X164791971Y-115412786D01*
X164647213Y-115268028D01*
X164481614Y-115147715D01*
X164475006Y-115144348D01*
X164388917Y-115100483D01*
X164338123Y-115052511D01*
X164321328Y-114984690D01*
X164343865Y-114918555D01*
X164388917Y-114879516D01*
X164481610Y-114832287D01*
X164502770Y-114816913D01*
X164647213Y-114711971D01*
X164647215Y-114711968D01*
X164647219Y-114711966D01*
X164791966Y-114567219D01*
X164791968Y-114567215D01*
X164791971Y-114567213D01*
X164844732Y-114494590D01*
X164912287Y-114401610D01*
X165005220Y-114219219D01*
X165068477Y-114024534D01*
X165100500Y-113822352D01*
X165100500Y-113617648D01*
X165069113Y-113419478D01*
X165068477Y-113415465D01*
X165005218Y-113220776D01*
X164971503Y-113154607D01*
X164912287Y-113038390D01*
X164904556Y-113027749D01*
X164791971Y-112872786D01*
X164647213Y-112728028D01*
X164481613Y-112607715D01*
X164481612Y-112607714D01*
X164481610Y-112607713D01*
X164424653Y-112578691D01*
X164299223Y-112514781D01*
X164104534Y-112451522D01*
X163929995Y-112423878D01*
X163902352Y-112419500D01*
X163697648Y-112419500D01*
X163673329Y-112423351D01*
X163495465Y-112451522D01*
X163300776Y-112514781D01*
X163118386Y-112607715D01*
X162952786Y-112728028D01*
X162808028Y-112872786D01*
X162687715Y-113038386D01*
X162594781Y-113220776D01*
X162531522Y-113415465D01*
X162499500Y-113617647D01*
X157131588Y-113617647D01*
X162287819Y-108461416D01*
X162349142Y-108427931D01*
X162418834Y-108432915D01*
X162474767Y-108474787D01*
X162499184Y-108540251D01*
X162499500Y-108549097D01*
X162499500Y-108742351D01*
X162531522Y-108944534D01*
X162594781Y-109139223D01*
X162687715Y-109321613D01*
X162808028Y-109487213D01*
X162952786Y-109631971D01*
X163107749Y-109744556D01*
X163118390Y-109752287D01*
X163211080Y-109799515D01*
X163300776Y-109845218D01*
X163300778Y-109845218D01*
X163300781Y-109845220D01*
X163405137Y-109879127D01*
X163495465Y-109908477D01*
X163514697Y-109911523D01*
X163697648Y-109940500D01*
X163697649Y-109940500D01*
X163902351Y-109940500D01*
X163902352Y-109940500D01*
X164104534Y-109908477D01*
X164299219Y-109845220D01*
X164481610Y-109752287D01*
X164574590Y-109684732D01*
X164647213Y-109631971D01*
X164647215Y-109631968D01*
X164647219Y-109631966D01*
X164791966Y-109487219D01*
X164791968Y-109487215D01*
X164791971Y-109487213D01*
X164844732Y-109414590D01*
X164912287Y-109321610D01*
X165005220Y-109139219D01*
X165068477Y-108944534D01*
X165100500Y-108742352D01*
X165100500Y-108537648D01*
X165068477Y-108335466D01*
X165005220Y-108140781D01*
X165005218Y-108140778D01*
X165005218Y-108140776D01*
X164971503Y-108074607D01*
X164912287Y-107958390D01*
X164904556Y-107947749D01*
X164791971Y-107792786D01*
X164647213Y-107648028D01*
X164481614Y-107527715D01*
X164475006Y-107524348D01*
X164388917Y-107480483D01*
X164338123Y-107432511D01*
X164321328Y-107364690D01*
X164343865Y-107298555D01*
X164388917Y-107259516D01*
X164481610Y-107212287D01*
X164502770Y-107196913D01*
X164647213Y-107091971D01*
X164647215Y-107091968D01*
X164647219Y-107091966D01*
X164791966Y-106947219D01*
X164791968Y-106947215D01*
X164791971Y-106947213D01*
X164844732Y-106874590D01*
X164912287Y-106781610D01*
X165005220Y-106599219D01*
X165068477Y-106404534D01*
X165100500Y-106202352D01*
X165100500Y-105997648D01*
X165068477Y-105795466D01*
X165005220Y-105600781D01*
X165005218Y-105600778D01*
X165005218Y-105600776D01*
X164971503Y-105534607D01*
X164912287Y-105418390D01*
X164904556Y-105407749D01*
X164791971Y-105252786D01*
X164647213Y-105108028D01*
X164481614Y-104987715D01*
X164475006Y-104984348D01*
X164388917Y-104940483D01*
X164338123Y-104892511D01*
X164321328Y-104824690D01*
X164343865Y-104758555D01*
X164388917Y-104719516D01*
X164481610Y-104672287D01*
X164502770Y-104656913D01*
X164647213Y-104551971D01*
X164647215Y-104551968D01*
X164647219Y-104551966D01*
X164791966Y-104407219D01*
X164791968Y-104407215D01*
X164791971Y-104407213D01*
X164844732Y-104334590D01*
X164912287Y-104241610D01*
X165005220Y-104059219D01*
X165068477Y-103864534D01*
X165100500Y-103662352D01*
X165100500Y-103457648D01*
X165068477Y-103255466D01*
X165005220Y-103060781D01*
X165005218Y-103060778D01*
X165005218Y-103060776D01*
X164971503Y-102994607D01*
X164912287Y-102878390D01*
X164904556Y-102867749D01*
X164791971Y-102712786D01*
X164647213Y-102568028D01*
X164481614Y-102447715D01*
X164475006Y-102444348D01*
X164388917Y-102400483D01*
X164338123Y-102352511D01*
X164321328Y-102284690D01*
X164343865Y-102218555D01*
X164388917Y-102179516D01*
X164481610Y-102132287D01*
X164534129Y-102094130D01*
X164647213Y-102011971D01*
X164647215Y-102011968D01*
X164647219Y-102011966D01*
X164791966Y-101867219D01*
X164791968Y-101867215D01*
X164791971Y-101867213D01*
X164844732Y-101794590D01*
X164912287Y-101701610D01*
X165005220Y-101519219D01*
X165068477Y-101324534D01*
X165100500Y-101122352D01*
X165100500Y-100917648D01*
X165068477Y-100715466D01*
X165005220Y-100520781D01*
X165005218Y-100520778D01*
X165005218Y-100520776D01*
X164933893Y-100380795D01*
X164912287Y-100338390D01*
X164867968Y-100277389D01*
X164791971Y-100172786D01*
X164647213Y-100028028D01*
X164481614Y-99907715D01*
X164475006Y-99904348D01*
X164388917Y-99860483D01*
X164338123Y-99812511D01*
X164321328Y-99744690D01*
X164343865Y-99678555D01*
X164388917Y-99639516D01*
X164481610Y-99592287D01*
X164595167Y-99509784D01*
X164647213Y-99471971D01*
X164647215Y-99471968D01*
X164647219Y-99471966D01*
X164791966Y-99327219D01*
X164791968Y-99327215D01*
X164791971Y-99327213D01*
X164844732Y-99254590D01*
X164912287Y-99161610D01*
X165005220Y-98979219D01*
X165068477Y-98784534D01*
X165100500Y-98582352D01*
X165100500Y-98377648D01*
X165068477Y-98175466D01*
X165005220Y-97980781D01*
X165005218Y-97980778D01*
X165005218Y-97980776D01*
X164971503Y-97914607D01*
X164912287Y-97798390D01*
X164904556Y-97787749D01*
X164791971Y-97632786D01*
X164647213Y-97488028D01*
X164481614Y-97367715D01*
X164475006Y-97364348D01*
X164388917Y-97320483D01*
X164338123Y-97272511D01*
X164321328Y-97204690D01*
X164343865Y-97138555D01*
X164388917Y-97099516D01*
X164481610Y-97052287D01*
X164502770Y-97036913D01*
X164647213Y-96931971D01*
X164647215Y-96931968D01*
X164647219Y-96931966D01*
X164791966Y-96787219D01*
X164791968Y-96787215D01*
X164791971Y-96787213D01*
X164844732Y-96714590D01*
X164912287Y-96621610D01*
X165005220Y-96439219D01*
X165068477Y-96244534D01*
X165100500Y-96042352D01*
X165100500Y-95837648D01*
X165068477Y-95635466D01*
X165005220Y-95440781D01*
X165005218Y-95440778D01*
X165005218Y-95440776D01*
X164971503Y-95374607D01*
X164912287Y-95258390D01*
X164904556Y-95247749D01*
X164791971Y-95092786D01*
X164647213Y-94948028D01*
X164481614Y-94827715D01*
X164475006Y-94824348D01*
X164388917Y-94780483D01*
X164338123Y-94732511D01*
X164321328Y-94664690D01*
X164343865Y-94598555D01*
X164388917Y-94559516D01*
X164481610Y-94512287D01*
X164502770Y-94496913D01*
X164647213Y-94391971D01*
X164647215Y-94391968D01*
X164647219Y-94391966D01*
X164791966Y-94247219D01*
X164791968Y-94247215D01*
X164791971Y-94247213D01*
X164844732Y-94174590D01*
X164912287Y-94081610D01*
X165005220Y-93899219D01*
X165068477Y-93704534D01*
X165100500Y-93502352D01*
X165100500Y-93297648D01*
X165068477Y-93095466D01*
X165005220Y-92900781D01*
X165005218Y-92900778D01*
X165005218Y-92900776D01*
X164971503Y-92834607D01*
X164912287Y-92718390D01*
X164904556Y-92707749D01*
X164791971Y-92552786D01*
X164647213Y-92408028D01*
X164481614Y-92287715D01*
X164475006Y-92284348D01*
X164388917Y-92240483D01*
X164338123Y-92192511D01*
X164321328Y-92124690D01*
X164343865Y-92058555D01*
X164388917Y-92019516D01*
X164481610Y-91972287D01*
X164502770Y-91956913D01*
X164647213Y-91851971D01*
X164647215Y-91851968D01*
X164647219Y-91851966D01*
X164791966Y-91707219D01*
X164791968Y-91707215D01*
X164791971Y-91707213D01*
X164844732Y-91634590D01*
X164912287Y-91541610D01*
X165005220Y-91359219D01*
X165068477Y-91164534D01*
X165100500Y-90962352D01*
X165100500Y-90757648D01*
X165068477Y-90555466D01*
X165005220Y-90360781D01*
X165005218Y-90360778D01*
X165005218Y-90360776D01*
X164971503Y-90294607D01*
X164912287Y-90178390D01*
X164904556Y-90167749D01*
X164791971Y-90012786D01*
X164647213Y-89868028D01*
X164481614Y-89747715D01*
X164475006Y-89744348D01*
X164388917Y-89700483D01*
X164338123Y-89652511D01*
X164321328Y-89584690D01*
X164343865Y-89518555D01*
X164388917Y-89479516D01*
X164481610Y-89432287D01*
X164502770Y-89416913D01*
X164647213Y-89311971D01*
X164647215Y-89311968D01*
X164647219Y-89311966D01*
X164791966Y-89167219D01*
X164791968Y-89167215D01*
X164791971Y-89167213D01*
X164844732Y-89094590D01*
X164912287Y-89001610D01*
X165005220Y-88819219D01*
X165068477Y-88624534D01*
X165100500Y-88422352D01*
X165100500Y-88217648D01*
X165093829Y-88175531D01*
X165068477Y-88015465D01*
X165005218Y-87820776D01*
X164971503Y-87754607D01*
X164912287Y-87638390D01*
X164904556Y-87627749D01*
X164791971Y-87472786D01*
X164647213Y-87328028D01*
X164481614Y-87207715D01*
X164475006Y-87204348D01*
X164388917Y-87160483D01*
X164338123Y-87112511D01*
X164321328Y-87044690D01*
X164343865Y-86978555D01*
X164388917Y-86939516D01*
X164481610Y-86892287D01*
X164502770Y-86876913D01*
X164647213Y-86771971D01*
X164647215Y-86771968D01*
X164647219Y-86771966D01*
X164791966Y-86627219D01*
X164791968Y-86627215D01*
X164791971Y-86627213D01*
X164844732Y-86554590D01*
X164912287Y-86461610D01*
X165005220Y-86279219D01*
X165068477Y-86084534D01*
X165100500Y-85882352D01*
X165100500Y-85677648D01*
X165068477Y-85475466D01*
X165005220Y-85280781D01*
X165005218Y-85280778D01*
X165005218Y-85280776D01*
X164971503Y-85214607D01*
X164912287Y-85098390D01*
X164904556Y-85087749D01*
X164791971Y-84932786D01*
X164647213Y-84788028D01*
X164481614Y-84667715D01*
X164475006Y-84664348D01*
X164388917Y-84620483D01*
X164338123Y-84572511D01*
X164321328Y-84504690D01*
X164343865Y-84438555D01*
X164388917Y-84399516D01*
X164481610Y-84352287D01*
X164502770Y-84336913D01*
X164647213Y-84231971D01*
X164647215Y-84231968D01*
X164647219Y-84231966D01*
X164791966Y-84087219D01*
X164791968Y-84087215D01*
X164791971Y-84087213D01*
X164844732Y-84014590D01*
X164912287Y-83921610D01*
X165005220Y-83739219D01*
X165068477Y-83544534D01*
X165100500Y-83342352D01*
X165100500Y-83137648D01*
X165068477Y-82935466D01*
X165005220Y-82740781D01*
X165005218Y-82740778D01*
X165005218Y-82740776D01*
X164971503Y-82674607D01*
X164912287Y-82558390D01*
X164904556Y-82547749D01*
X164791971Y-82392786D01*
X164647213Y-82248028D01*
X164481613Y-82127715D01*
X164481612Y-82127714D01*
X164481610Y-82127713D01*
X164424653Y-82098691D01*
X164299223Y-82034781D01*
X164104534Y-81971522D01*
X163929995Y-81943878D01*
X163902352Y-81939500D01*
X163697648Y-81939500D01*
X163673329Y-81943351D01*
X163495465Y-81971522D01*
X163300776Y-82034781D01*
X163118386Y-82127715D01*
X162952786Y-82248028D01*
X162808028Y-82392786D01*
X162687715Y-82558386D01*
X162594781Y-82740776D01*
X162531522Y-82935465D01*
X162499500Y-83137648D01*
X162499500Y-83342351D01*
X162531522Y-83544534D01*
X162594781Y-83739223D01*
X162687715Y-83921613D01*
X162808028Y-84087213D01*
X162952786Y-84231971D01*
X163107749Y-84344556D01*
X163118390Y-84352287D01*
X163209840Y-84398883D01*
X163211080Y-84399515D01*
X163261876Y-84447490D01*
X163278671Y-84515311D01*
X163256134Y-84581446D01*
X163211080Y-84620485D01*
X163118386Y-84667715D01*
X162952786Y-84788028D01*
X162808028Y-84932786D01*
X162687715Y-85098386D01*
X162594781Y-85280776D01*
X162531522Y-85475465D01*
X162499500Y-85677648D01*
X162499500Y-85882351D01*
X162531522Y-86084534D01*
X162536173Y-86098848D01*
X162538165Y-86168690D01*
X162505921Y-86224842D01*
X150072181Y-98658583D01*
X150010858Y-98692068D01*
X149941166Y-98687084D01*
X149885233Y-98645212D01*
X149860816Y-98579748D01*
X149860500Y-98570902D01*
X149860500Y-98377648D01*
X149828477Y-98175465D01*
X149765218Y-97980776D01*
X149731503Y-97914607D01*
X149672287Y-97798390D01*
X149664556Y-97787749D01*
X149551971Y-97632786D01*
X149407213Y-97488028D01*
X149241614Y-97367715D01*
X149235006Y-97364348D01*
X149148917Y-97320483D01*
X149098123Y-97272511D01*
X149081328Y-97204690D01*
X149103865Y-97138555D01*
X149148917Y-97099516D01*
X149241610Y-97052287D01*
X149262770Y-97036913D01*
X149407213Y-96931971D01*
X149407215Y-96931968D01*
X149407219Y-96931966D01*
X149551966Y-96787219D01*
X149551968Y-96787215D01*
X149551971Y-96787213D01*
X149604732Y-96714590D01*
X149672287Y-96621610D01*
X149765220Y-96439219D01*
X149828477Y-96244534D01*
X149860500Y-96042352D01*
X149860500Y-95837648D01*
X149828477Y-95635466D01*
X149765220Y-95440781D01*
X149765218Y-95440778D01*
X149765218Y-95440776D01*
X149731503Y-95374607D01*
X149672287Y-95258390D01*
X149664556Y-95247749D01*
X149551971Y-95092786D01*
X149407213Y-94948028D01*
X149241614Y-94827715D01*
X149235006Y-94824348D01*
X149148917Y-94780483D01*
X149098123Y-94732511D01*
X149081328Y-94664690D01*
X149103865Y-94598555D01*
X149148917Y-94559516D01*
X149241610Y-94512287D01*
X149262770Y-94496913D01*
X149407213Y-94391971D01*
X149407215Y-94391968D01*
X149407219Y-94391966D01*
X149551966Y-94247219D01*
X149551968Y-94247215D01*
X149551971Y-94247213D01*
X149604732Y-94174590D01*
X149672287Y-94081610D01*
X149765220Y-93899219D01*
X149828477Y-93704534D01*
X149860500Y-93502352D01*
X149860500Y-93297648D01*
X149828477Y-93095466D01*
X149765220Y-92900781D01*
X149765218Y-92900778D01*
X149765218Y-92900776D01*
X149731503Y-92834607D01*
X149672287Y-92718390D01*
X149664556Y-92707749D01*
X149551971Y-92552786D01*
X149407213Y-92408028D01*
X149241614Y-92287715D01*
X149235006Y-92284348D01*
X149148917Y-92240483D01*
X149098123Y-92192511D01*
X149081328Y-92124690D01*
X149103865Y-92058555D01*
X149148917Y-92019516D01*
X149241610Y-91972287D01*
X149262770Y-91956913D01*
X149407213Y-91851971D01*
X149407215Y-91851968D01*
X149407219Y-91851966D01*
X149551966Y-91707219D01*
X149551968Y-91707215D01*
X149551971Y-91707213D01*
X149604732Y-91634590D01*
X149672287Y-91541610D01*
X149765220Y-91359219D01*
X149828477Y-91164534D01*
X149860500Y-90962352D01*
X149860500Y-90757648D01*
X149828477Y-90555466D01*
X149765220Y-90360781D01*
X149765218Y-90360778D01*
X149765218Y-90360776D01*
X149731503Y-90294607D01*
X149672287Y-90178390D01*
X149664556Y-90167749D01*
X149551971Y-90012786D01*
X149407213Y-89868028D01*
X149241614Y-89747715D01*
X149235006Y-89744348D01*
X149148917Y-89700483D01*
X149098123Y-89652511D01*
X149081328Y-89584690D01*
X149103865Y-89518555D01*
X149148917Y-89479516D01*
X149241610Y-89432287D01*
X149262770Y-89416913D01*
X149407213Y-89311971D01*
X149407215Y-89311968D01*
X149407219Y-89311966D01*
X149551966Y-89167219D01*
X149551968Y-89167215D01*
X149551971Y-89167213D01*
X149604732Y-89094590D01*
X149672287Y-89001610D01*
X149765220Y-88819219D01*
X149828477Y-88624534D01*
X149860500Y-88422352D01*
X149860500Y-88217648D01*
X149853829Y-88175531D01*
X149828477Y-88015465D01*
X149765218Y-87820776D01*
X149731503Y-87754607D01*
X149672287Y-87638390D01*
X149664556Y-87627749D01*
X149551971Y-87472786D01*
X149407213Y-87328028D01*
X149241614Y-87207715D01*
X149235006Y-87204348D01*
X149148917Y-87160483D01*
X149098123Y-87112511D01*
X149081328Y-87044690D01*
X149103865Y-86978555D01*
X149148917Y-86939516D01*
X149241610Y-86892287D01*
X149262770Y-86876913D01*
X149407213Y-86771971D01*
X149407215Y-86771968D01*
X149407219Y-86771966D01*
X149551966Y-86627219D01*
X149551968Y-86627215D01*
X149551971Y-86627213D01*
X149604732Y-86554590D01*
X149672287Y-86461610D01*
X149765220Y-86279219D01*
X149828477Y-86084534D01*
X149860500Y-85882352D01*
X149860500Y-85677648D01*
X149828477Y-85475466D01*
X149765220Y-85280781D01*
X149765218Y-85280778D01*
X149765218Y-85280776D01*
X149731503Y-85214607D01*
X149672287Y-85098390D01*
X149664556Y-85087749D01*
X149551971Y-84932786D01*
X149407213Y-84788028D01*
X149241614Y-84667715D01*
X149235006Y-84664348D01*
X149148917Y-84620483D01*
X149098123Y-84572511D01*
X149081328Y-84504690D01*
X149103865Y-84438555D01*
X149148917Y-84399516D01*
X149241610Y-84352287D01*
X149262770Y-84336913D01*
X149407213Y-84231971D01*
X149407215Y-84231968D01*
X149407219Y-84231966D01*
X149551966Y-84087219D01*
X149551968Y-84087215D01*
X149551971Y-84087213D01*
X149604732Y-84014590D01*
X149672287Y-83921610D01*
X149765220Y-83739219D01*
X149828477Y-83544534D01*
X149860500Y-83342352D01*
X149860500Y-83137648D01*
X149828477Y-82935466D01*
X149765220Y-82740781D01*
X149765218Y-82740778D01*
X149765218Y-82740776D01*
X149731503Y-82674607D01*
X149672287Y-82558390D01*
X149664556Y-82547749D01*
X149551971Y-82392786D01*
X149407213Y-82248028D01*
X149241613Y-82127715D01*
X149241612Y-82127714D01*
X149241610Y-82127713D01*
X149184653Y-82098691D01*
X149059223Y-82034781D01*
X148864534Y-81971522D01*
X148689995Y-81943878D01*
X148662352Y-81939500D01*
X148457648Y-81939500D01*
X148433329Y-81943351D01*
X148255465Y-81971522D01*
X148060776Y-82034781D01*
X147878386Y-82127715D01*
X147712786Y-82248028D01*
X147568028Y-82392786D01*
X147447715Y-82558386D01*
X147354781Y-82740776D01*
X147291522Y-82935465D01*
X147259500Y-83137648D01*
X147259500Y-83342351D01*
X147291522Y-83544534D01*
X147354781Y-83739223D01*
X147447715Y-83921613D01*
X147568028Y-84087213D01*
X147712786Y-84231971D01*
X147867749Y-84344556D01*
X147878390Y-84352287D01*
X147969840Y-84398883D01*
X147971080Y-84399515D01*
X148021876Y-84447490D01*
X148038671Y-84515311D01*
X148016134Y-84581446D01*
X147971080Y-84620485D01*
X147878386Y-84667715D01*
X147712786Y-84788028D01*
X147568028Y-84932786D01*
X147447715Y-85098386D01*
X147354781Y-85280776D01*
X147291522Y-85475465D01*
X147259500Y-85677648D01*
X147259500Y-85882351D01*
X147291522Y-86084534D01*
X147354781Y-86279223D01*
X147447715Y-86461613D01*
X147568028Y-86627213D01*
X147712786Y-86771971D01*
X147867749Y-86884556D01*
X147878390Y-86892287D01*
X147969840Y-86938883D01*
X147971080Y-86939515D01*
X148021876Y-86987490D01*
X148038671Y-87055311D01*
X148016134Y-87121446D01*
X147971080Y-87160485D01*
X147878386Y-87207715D01*
X147712786Y-87328028D01*
X147568028Y-87472786D01*
X147447715Y-87638386D01*
X147354781Y-87820776D01*
X147291522Y-88015465D01*
X147259500Y-88217648D01*
X147259500Y-88422351D01*
X147291522Y-88624534D01*
X147354781Y-88819223D01*
X147447715Y-89001613D01*
X147568028Y-89167213D01*
X147712786Y-89311971D01*
X147867749Y-89424556D01*
X147878390Y-89432287D01*
X147969840Y-89478883D01*
X147971080Y-89479515D01*
X148021876Y-89527490D01*
X148038671Y-89595311D01*
X148016134Y-89661446D01*
X147971080Y-89700485D01*
X147878386Y-89747715D01*
X147712786Y-89868028D01*
X147568028Y-90012786D01*
X147447715Y-90178386D01*
X147354781Y-90360776D01*
X147291522Y-90555465D01*
X147259500Y-90757648D01*
X147259500Y-90962351D01*
X147291522Y-91164534D01*
X147354781Y-91359223D01*
X147447715Y-91541613D01*
X147568028Y-91707213D01*
X147712786Y-91851971D01*
X147867749Y-91964556D01*
X147878390Y-91972287D01*
X147969840Y-92018883D01*
X147971080Y-92019515D01*
X148021876Y-92067490D01*
X148038671Y-92135311D01*
X148016134Y-92201446D01*
X147971080Y-92240485D01*
X147878386Y-92287715D01*
X147712786Y-92408028D01*
X147568028Y-92552786D01*
X147447715Y-92718385D01*
X147440883Y-92731795D01*
X147392909Y-92782591D01*
X147330398Y-92799500D01*
X118086669Y-92799500D01*
X118086653Y-92799499D01*
X118079057Y-92799499D01*
X117920943Y-92799499D01*
X117813587Y-92828265D01*
X117768210Y-92840424D01*
X117768209Y-92840425D01*
X117718096Y-92869359D01*
X117718095Y-92869360D01*
X117674689Y-92894420D01*
X117631285Y-92919479D01*
X117631282Y-92919481D01*
X98518481Y-112032282D01*
X98518479Y-112032285D01*
X98468361Y-112119094D01*
X98468359Y-112119096D01*
X98439425Y-112169209D01*
X98439424Y-112169210D01*
X98423544Y-112228472D01*
X98398499Y-112321943D01*
X98398499Y-112321945D01*
X98398499Y-112490046D01*
X98398500Y-112490059D01*
X98398500Y-124362273D01*
X98398499Y-124362291D01*
X98398499Y-124527997D01*
X98398498Y-124527997D01*
X98439423Y-124680728D01*
X98453596Y-124705276D01*
X98453595Y-124705276D01*
X98453596Y-124705277D01*
X98518475Y-124817652D01*
X98518481Y-124817660D01*
X98637349Y-124936528D01*
X98637354Y-124936532D01*
X101262341Y-127561520D01*
X101262343Y-127561521D01*
X101262347Y-127561524D01*
X101399266Y-127640573D01*
X101399273Y-127640577D01*
X101552000Y-127681501D01*
X101552002Y-127681501D01*
X101717711Y-127681501D01*
X101717727Y-127681500D01*
X107260903Y-127681500D01*
X107327942Y-127701185D01*
X107348584Y-127717819D01*
X116369933Y-136739169D01*
X116403418Y-136800492D01*
X116404725Y-136846248D01*
X116379500Y-137005513D01*
X116379500Y-137194486D01*
X116409059Y-137381118D01*
X116467454Y-137560836D01*
X116553240Y-137729199D01*
X116664310Y-137882073D01*
X116797927Y-138015690D01*
X116950801Y-138126760D01*
X117030347Y-138167290D01*
X117119163Y-138212545D01*
X117119165Y-138212545D01*
X117119168Y-138212547D01*
X117215497Y-138243846D01*
X117298881Y-138270940D01*
X117485514Y-138300500D01*
X117485519Y-138300500D01*
X117674486Y-138300500D01*
X117861118Y-138270940D01*
X118040832Y-138212547D01*
X118209199Y-138126760D01*
X118362073Y-138015690D01*
X118495690Y-137882073D01*
X118606760Y-137729199D01*
X118692547Y-137560832D01*
X118750940Y-137381118D01*
X118780500Y-137194486D01*
X118780500Y-137005513D01*
X123999500Y-137005513D01*
X123999500Y-137194486D01*
X124029059Y-137381118D01*
X124087454Y-137560836D01*
X124173240Y-137729199D01*
X124284310Y-137882073D01*
X124417927Y-138015690D01*
X124570801Y-138126760D01*
X124650347Y-138167290D01*
X124739163Y-138212545D01*
X124739165Y-138212545D01*
X124739168Y-138212547D01*
X124835497Y-138243846D01*
X124918881Y-138270940D01*
X125105514Y-138300500D01*
X125105519Y-138300500D01*
X125294486Y-138300500D01*
X125481118Y-138270940D01*
X125660832Y-138212547D01*
X125829199Y-138126760D01*
X125982073Y-138015690D01*
X126115690Y-137882073D01*
X126226760Y-137729199D01*
X126312547Y-137560832D01*
X126370940Y-137381118D01*
X126400500Y-137194486D01*
X126400500Y-137005513D01*
X126370940Y-136818881D01*
X126312545Y-136639163D01*
X126226759Y-136470800D01*
X126115690Y-136317927D01*
X125982073Y-136184310D01*
X125829199Y-136073240D01*
X125660836Y-135987454D01*
X125481118Y-135929059D01*
X125294486Y-135899500D01*
X125294481Y-135899500D01*
X125105519Y-135899500D01*
X125105514Y-135899500D01*
X124918881Y-135929059D01*
X124739163Y-135987454D01*
X124570800Y-136073240D01*
X124504852Y-136121155D01*
X124417927Y-136184310D01*
X124417925Y-136184312D01*
X124417924Y-136184312D01*
X124284312Y-136317924D01*
X124284312Y-136317925D01*
X124284310Y-136317927D01*
X124236610Y-136383579D01*
X124173240Y-136470800D01*
X124087454Y-136639163D01*
X124029059Y-136818881D01*
X123999500Y-137005513D01*
X118780500Y-137005513D01*
X118750940Y-136818881D01*
X118692545Y-136639163D01*
X118606759Y-136470800D01*
X118495690Y-136317927D01*
X118362073Y-136184310D01*
X118209199Y-136073240D01*
X118040836Y-135987454D01*
X117861118Y-135929059D01*
X117674486Y-135899500D01*
X117674481Y-135899500D01*
X117485519Y-135899500D01*
X117485514Y-135899500D01*
X117326248Y-135924725D01*
X117256954Y-135915770D01*
X117219169Y-135889933D01*
X112917564Y-131588328D01*
X112834749Y-131505513D01*
X116379500Y-131505513D01*
X116379500Y-131694486D01*
X116409059Y-131881118D01*
X116467454Y-132060836D01*
X116553240Y-132229199D01*
X116664310Y-132382073D01*
X116797927Y-132515690D01*
X116950801Y-132626760D01*
X117030347Y-132667290D01*
X117119163Y-132712545D01*
X117119165Y-132712545D01*
X117119168Y-132712547D01*
X117215497Y-132743846D01*
X117298881Y-132770940D01*
X117485514Y-132800500D01*
X117485519Y-132800500D01*
X117674486Y-132800500D01*
X117861118Y-132770940D01*
X118040832Y-132712547D01*
X118209199Y-132626760D01*
X118362073Y-132515690D01*
X118495690Y-132382073D01*
X118606760Y-132229199D01*
X118692547Y-132060832D01*
X118750940Y-131881118D01*
X118756038Y-131848931D01*
X118780500Y-131694486D01*
X118780500Y-131505513D01*
X123999500Y-131505513D01*
X123999500Y-131694486D01*
X124029059Y-131881118D01*
X124087454Y-132060836D01*
X124173240Y-132229199D01*
X124284310Y-132382073D01*
X124417927Y-132515690D01*
X124570801Y-132626760D01*
X124650347Y-132667290D01*
X124739163Y-132712545D01*
X124739165Y-132712545D01*
X124739168Y-132712547D01*
X124835497Y-132743846D01*
X124918881Y-132770940D01*
X125105514Y-132800500D01*
X125105519Y-132800500D01*
X125294486Y-132800500D01*
X125481118Y-132770940D01*
X125660832Y-132712547D01*
X125829199Y-132626760D01*
X125982073Y-132515690D01*
X126115690Y-132382073D01*
X126226760Y-132229199D01*
X126312547Y-132060832D01*
X126370940Y-131881118D01*
X126376038Y-131848931D01*
X126400500Y-131694486D01*
X126400500Y-131505513D01*
X126370940Y-131318881D01*
X126337247Y-131215186D01*
X126312547Y-131139168D01*
X126312545Y-131139165D01*
X126312545Y-131139163D01*
X126226759Y-130970800D01*
X126115690Y-130817927D01*
X125982073Y-130684310D01*
X125829199Y-130573240D01*
X125660836Y-130487454D01*
X125481118Y-130429059D01*
X125294486Y-130399500D01*
X125294481Y-130399500D01*
X125105519Y-130399500D01*
X125105514Y-130399500D01*
X124918881Y-130429059D01*
X124739163Y-130487454D01*
X124570800Y-130573240D01*
X124518076Y-130611547D01*
X124417927Y-130684310D01*
X124417925Y-130684312D01*
X124417924Y-130684312D01*
X124284312Y-130817924D01*
X124284312Y-130817925D01*
X124284310Y-130817927D01*
X124271786Y-130835165D01*
X124173240Y-130970800D01*
X124087454Y-131139163D01*
X124029059Y-131318881D01*
X123999500Y-131505513D01*
X118780500Y-131505513D01*
X118750940Y-131318881D01*
X118717247Y-131215186D01*
X118692547Y-131139168D01*
X118692545Y-131139165D01*
X118692545Y-131139163D01*
X118606759Y-130970800D01*
X118495690Y-130817927D01*
X118362073Y-130684310D01*
X118209199Y-130573240D01*
X118040836Y-130487454D01*
X117861118Y-130429059D01*
X117674486Y-130399500D01*
X117674481Y-130399500D01*
X117485519Y-130399500D01*
X117485514Y-130399500D01*
X117298881Y-130429059D01*
X117119163Y-130487454D01*
X116950800Y-130573240D01*
X116898076Y-130611547D01*
X116797927Y-130684310D01*
X116797925Y-130684312D01*
X116797924Y-130684312D01*
X116664312Y-130817924D01*
X116664312Y-130817925D01*
X116664310Y-130817927D01*
X116651786Y-130835165D01*
X116553240Y-130970800D01*
X116467454Y-131139163D01*
X116409059Y-131318881D01*
X116379500Y-131505513D01*
X112834749Y-131505513D01*
X108048590Y-126719355D01*
X108048588Y-126719352D01*
X107929717Y-126600481D01*
X107929716Y-126600480D01*
X107842904Y-126550360D01*
X107842904Y-126550359D01*
X107842900Y-126550358D01*
X107792785Y-126521423D01*
X107640057Y-126480499D01*
X107481943Y-126480499D01*
X107474347Y-126480499D01*
X107474331Y-126480500D01*
X104931875Y-126480500D01*
X104864836Y-126460815D01*
X104819081Y-126408011D01*
X104809137Y-126338853D01*
X104838162Y-126275297D01*
X104862984Y-126253398D01*
X104888369Y-126236434D01*
X104910289Y-126221789D01*
X105021789Y-126110289D01*
X105109394Y-125979179D01*
X105169737Y-125833497D01*
X105189113Y-125736085D01*
X105200638Y-125678150D01*
X105233023Y-125616239D01*
X105234518Y-125614716D01*
X112163417Y-118685819D01*
X112224740Y-118652334D01*
X112251098Y-118649500D01*
X119713944Y-118649500D01*
X119780983Y-118669185D01*
X119826738Y-118721989D01*
X119836682Y-118791147D01*
X119828505Y-118820952D01*
X119739319Y-119036266D01*
X119679942Y-119257862D01*
X119650001Y-119485289D01*
X119650000Y-119485305D01*
X119650000Y-119714694D01*
X119650001Y-119714710D01*
X119679942Y-119942137D01*
X119739318Y-120163730D01*
X119827102Y-120375659D01*
X119827106Y-120375669D01*
X119941799Y-120574324D01*
X119941805Y-120574331D01*
X119998381Y-120648064D01*
X120609521Y-120036923D01*
X120700924Y-120173717D01*
X120826283Y-120299076D01*
X120963074Y-120390477D01*
X120351934Y-121001617D01*
X120351934Y-121001618D01*
X120425666Y-121058194D01*
X120624330Y-121172893D01*
X120624340Y-121172897D01*
X120836269Y-121260681D01*
X121057862Y-121320057D01*
X121285289Y-121349998D01*
X121285306Y-121350000D01*
X121514694Y-121350000D01*
X121514710Y-121349998D01*
X121742137Y-121320057D01*
X121963730Y-121260681D01*
X122175659Y-121172897D01*
X122175668Y-121172893D01*
X122374327Y-121058197D01*
X122374334Y-121058192D01*
X122448064Y-121001617D01*
X121836924Y-120390477D01*
X121973717Y-120299076D01*
X122099076Y-120173717D01*
X122190477Y-120036924D01*
X122801617Y-120648064D01*
X122858192Y-120574334D01*
X122858197Y-120574327D01*
X122972893Y-120375668D01*
X122972897Y-120375659D01*
X123060681Y-120163730D01*
X123120057Y-119942137D01*
X123149998Y-119714710D01*
X123150000Y-119714694D01*
X123150000Y-119485305D01*
X123149998Y-119485289D01*
X123120057Y-119257862D01*
X123060680Y-119036266D01*
X122971495Y-118820952D01*
X122964026Y-118751483D01*
X122995301Y-118689004D01*
X123055390Y-118653352D01*
X123086056Y-118649500D01*
X127013403Y-118649500D01*
X127080442Y-118669185D01*
X127126197Y-118721989D01*
X127136141Y-118791147D01*
X127127964Y-118820952D01*
X127038842Y-119036112D01*
X126979453Y-119257759D01*
X126979451Y-119257770D01*
X126949500Y-119485258D01*
X126949500Y-119714741D01*
X126966299Y-119842335D01*
X126979452Y-119942238D01*
X127021858Y-120100500D01*
X127038842Y-120163887D01*
X127126650Y-120375876D01*
X127126656Y-120375888D01*
X127241228Y-120574334D01*
X127241392Y-120574617D01*
X127381081Y-120756661D01*
X127381089Y-120756670D01*
X127543330Y-120918911D01*
X127543338Y-120918918D01*
X127725382Y-121058607D01*
X127725385Y-121058608D01*
X127725388Y-121058611D01*
X127924112Y-121173344D01*
X127924117Y-121173346D01*
X127924123Y-121173349D01*
X128015480Y-121211190D01*
X128136113Y-121261158D01*
X128178227Y-121272442D01*
X128237888Y-121308807D01*
X128268417Y-121371654D01*
X128260122Y-121441030D01*
X128233815Y-121479898D01*
X127631286Y-122082428D01*
X127519481Y-122194232D01*
X127519479Y-122194235D01*
X127469361Y-122281044D01*
X127469359Y-122281046D01*
X127440425Y-122331159D01*
X127440424Y-122331160D01*
X127440423Y-122331165D01*
X127399499Y-122483893D01*
X127399499Y-122483895D01*
X127399499Y-122651996D01*
X127399500Y-122652009D01*
X127399500Y-146420234D01*
X127379815Y-146487273D01*
X127378602Y-146489125D01*
X127290609Y-146620814D01*
X127290602Y-146620827D01*
X127230264Y-146766498D01*
X127230261Y-146766510D01*
X127199500Y-146921153D01*
X127199500Y-147078846D01*
X127230261Y-147233489D01*
X127230264Y-147233501D01*
X127290602Y-147379172D01*
X127290609Y-147379185D01*
X127378210Y-147510288D01*
X127378213Y-147510292D01*
X127489707Y-147621786D01*
X127489711Y-147621789D01*
X127620814Y-147709390D01*
X127620827Y-147709397D01*
X127718705Y-147749939D01*
X127773109Y-147793780D01*
X127795174Y-147860074D01*
X127777895Y-147927773D01*
X127726758Y-147975384D01*
X127671253Y-147988500D01*
X106017928Y-147988500D01*
X105950889Y-147968815D01*
X105905134Y-147916011D01*
X105895190Y-147846853D01*
X105895455Y-147845102D01*
X105902520Y-147800500D01*
X105914500Y-147724861D01*
X105914500Y-147543139D01*
X105886072Y-147363654D01*
X105886071Y-147363650D01*
X105886071Y-147363649D01*
X105829918Y-147190828D01*
X105829916Y-147190825D01*
X105772861Y-147078846D01*
X105747417Y-147028910D01*
X105640603Y-146881894D01*
X105512106Y-146753397D01*
X105365090Y-146646583D01*
X105203174Y-146564083D01*
X105203171Y-146564081D01*
X105030348Y-146507928D01*
X104899937Y-146487273D01*
X104850861Y-146479500D01*
X104669139Y-146479500D01*
X104620063Y-146487273D01*
X104489652Y-146507928D01*
X104489649Y-146507928D01*
X104316828Y-146564081D01*
X104316825Y-146564083D01*
X104154909Y-146646583D01*
X104091422Y-146692710D01*
X104007894Y-146753397D01*
X104007892Y-146753399D01*
X104007891Y-146753399D01*
X103879399Y-146881891D01*
X103879399Y-146881892D01*
X103879397Y-146881894D01*
X103879162Y-146882218D01*
X103772583Y-147028909D01*
X103690083Y-147190825D01*
X103690081Y-147190828D01*
X103633928Y-147363649D01*
X103633928Y-147363652D01*
X103612473Y-147499114D01*
X103582544Y-147562249D01*
X103523232Y-147599180D01*
X103453370Y-147598182D01*
X103395137Y-147559572D01*
X103367527Y-147499114D01*
X103349990Y-147388394D01*
X103346072Y-147363654D01*
X103346071Y-147363650D01*
X103346071Y-147363649D01*
X103289918Y-147190828D01*
X103289916Y-147190825D01*
X103232861Y-147078846D01*
X103207417Y-147028910D01*
X103100603Y-146881894D01*
X102972106Y-146753397D01*
X102825090Y-146646583D01*
X102663174Y-146564083D01*
X102663171Y-146564081D01*
X102490348Y-146507928D01*
X102359937Y-146487273D01*
X102310861Y-146479500D01*
X102129139Y-146479500D01*
X102080063Y-146487273D01*
X101949652Y-146507928D01*
X101949649Y-146507928D01*
X101776828Y-146564081D01*
X101776825Y-146564083D01*
X101614909Y-146646583D01*
X101551422Y-146692710D01*
X101467894Y-146753397D01*
X101467892Y-146753399D01*
X101467891Y-146753399D01*
X101339399Y-146881891D01*
X101339399Y-146881892D01*
X101339397Y-146881894D01*
X101339162Y-146882218D01*
X101232583Y-147028909D01*
X101150083Y-147190825D01*
X101150081Y-147190828D01*
X101093928Y-147363649D01*
X101093928Y-147363652D01*
X101072473Y-147499114D01*
X101042544Y-147562249D01*
X100983232Y-147599180D01*
X100913370Y-147598182D01*
X100855137Y-147559572D01*
X100827527Y-147499114D01*
X100809990Y-147388394D01*
X100806072Y-147363654D01*
X100806071Y-147363650D01*
X100806071Y-147363649D01*
X100749918Y-147190828D01*
X100749916Y-147190825D01*
X100692861Y-147078846D01*
X100667417Y-147028910D01*
X100560603Y-146881894D01*
X100432106Y-146753397D01*
X100285090Y-146646583D01*
X100123174Y-146564083D01*
X100123171Y-146564081D01*
X99950348Y-146507928D01*
X99819937Y-146487273D01*
X99770861Y-146479500D01*
X99589139Y-146479500D01*
X99540063Y-146487273D01*
X99409652Y-146507928D01*
X99409649Y-146507928D01*
X99236828Y-146564081D01*
X99236825Y-146564083D01*
X99074909Y-146646583D01*
X99011422Y-146692710D01*
X98927894Y-146753397D01*
X98927892Y-146753399D01*
X98927891Y-146753399D01*
X98799399Y-146881891D01*
X98799399Y-146881892D01*
X98799397Y-146881894D01*
X98799162Y-146882218D01*
X98692583Y-147028909D01*
X98610083Y-147190825D01*
X98610081Y-147190828D01*
X98553928Y-147363649D01*
X98553928Y-147363652D01*
X98532473Y-147499114D01*
X98502544Y-147562249D01*
X98443232Y-147599180D01*
X98373370Y-147598182D01*
X98315137Y-147559572D01*
X98287527Y-147499114D01*
X98269990Y-147388394D01*
X98266072Y-147363654D01*
X98266071Y-147363650D01*
X98266071Y-147363649D01*
X98209918Y-147190828D01*
X98209916Y-147190825D01*
X98152861Y-147078846D01*
X98127417Y-147028910D01*
X98020603Y-146881894D01*
X97892106Y-146753397D01*
X97745090Y-146646583D01*
X97583174Y-146564083D01*
X97583171Y-146564081D01*
X97410348Y-146507928D01*
X97279937Y-146487273D01*
X97230861Y-146479500D01*
X97049139Y-146479500D01*
X97000063Y-146487273D01*
X96869652Y-146507928D01*
X96869649Y-146507928D01*
X96696828Y-146564081D01*
X96696825Y-146564083D01*
X96534909Y-146646583D01*
X96471422Y-146692710D01*
X96387894Y-146753397D01*
X96387892Y-146753399D01*
X96387891Y-146753399D01*
X96259399Y-146881891D01*
X96259399Y-146881892D01*
X96259397Y-146881894D01*
X96259162Y-146882218D01*
X96152583Y-147028909D01*
X96070083Y-147190825D01*
X96070081Y-147190828D01*
X96013928Y-147363649D01*
X96013928Y-147363652D01*
X95992473Y-147499114D01*
X95962544Y-147562249D01*
X95903232Y-147599180D01*
X95833370Y-147598182D01*
X95775137Y-147559572D01*
X95747527Y-147499114D01*
X95729990Y-147388394D01*
X95726072Y-147363654D01*
X95726071Y-147363650D01*
X95726071Y-147363649D01*
X95669918Y-147190828D01*
X95669916Y-147190825D01*
X95612861Y-147078846D01*
X95587417Y-147028910D01*
X95480603Y-146881894D01*
X95352106Y-146753397D01*
X95205090Y-146646583D01*
X95043174Y-146564083D01*
X95043171Y-146564081D01*
X94870348Y-146507928D01*
X94739937Y-146487273D01*
X94690861Y-146479500D01*
X94509139Y-146479500D01*
X94460063Y-146487273D01*
X94329652Y-146507928D01*
X94329649Y-146507928D01*
X94156828Y-146564081D01*
X94156825Y-146564083D01*
X93994909Y-146646583D01*
X93931422Y-146692710D01*
X93847894Y-146753397D01*
X93847892Y-146753399D01*
X93847891Y-146753399D01*
X93719399Y-146881891D01*
X93719399Y-146881892D01*
X93719397Y-146881894D01*
X93719162Y-146882218D01*
X93612583Y-147028909D01*
X93530083Y-147190825D01*
X93530081Y-147190828D01*
X93473928Y-147363649D01*
X93473928Y-147363652D01*
X93452473Y-147499114D01*
X93422544Y-147562249D01*
X93363232Y-147599180D01*
X93293370Y-147598182D01*
X93235137Y-147559572D01*
X93207527Y-147499114D01*
X93189990Y-147388394D01*
X93186072Y-147363654D01*
X93186071Y-147363650D01*
X93186071Y-147363649D01*
X93129918Y-147190828D01*
X93129916Y-147190825D01*
X93072861Y-147078846D01*
X93047417Y-147028910D01*
X92940603Y-146881894D01*
X92812106Y-146753397D01*
X92665090Y-146646583D01*
X92503174Y-146564083D01*
X92503171Y-146564081D01*
X92330348Y-146507928D01*
X92199937Y-146487273D01*
X92150861Y-146479500D01*
X91969139Y-146479500D01*
X91920063Y-146487273D01*
X91789652Y-146507928D01*
X91789649Y-146507928D01*
X91616828Y-146564081D01*
X91616825Y-146564083D01*
X91454909Y-146646583D01*
X91391422Y-146692710D01*
X91307894Y-146753397D01*
X91307892Y-146753399D01*
X91307891Y-146753399D01*
X91179399Y-146881891D01*
X91179399Y-146881892D01*
X91179397Y-146881894D01*
X91179162Y-146882218D01*
X91072583Y-147028909D01*
X90990083Y-147190825D01*
X90990081Y-147190828D01*
X90933928Y-147363649D01*
X90933928Y-147363650D01*
X90912219Y-147500713D01*
X90882289Y-147563847D01*
X90822978Y-147600778D01*
X90753115Y-147599780D01*
X90694883Y-147561170D01*
X90667273Y-147500711D01*
X90645585Y-147363775D01*
X90645584Y-147363774D01*
X90589451Y-147191015D01*
X90506988Y-147029171D01*
X90400219Y-146882218D01*
X90400219Y-146882217D01*
X90271782Y-146753780D01*
X90124828Y-146647011D01*
X89962984Y-146564548D01*
X89790231Y-146508416D01*
X89790224Y-146508415D01*
X89770000Y-146505210D01*
X89770000Y-147318314D01*
X89765606Y-147313920D01*
X89674394Y-147261259D01*
X89572661Y-147234000D01*
X89467339Y-147234000D01*
X89365606Y-147261259D01*
X89274394Y-147313920D01*
X89270000Y-147318314D01*
X89270000Y-146505211D01*
X89269999Y-146505210D01*
X89249775Y-146508415D01*
X89249768Y-146508416D01*
X89077015Y-146564548D01*
X88915171Y-146647011D01*
X88768218Y-146753780D01*
X88768217Y-146753780D01*
X88639780Y-146882217D01*
X88639780Y-146882218D01*
X88533011Y-147029171D01*
X88450548Y-147191015D01*
X88394415Y-147363774D01*
X88372726Y-147500712D01*
X88342797Y-147563847D01*
X88283485Y-147600778D01*
X88213622Y-147599780D01*
X88155390Y-147561170D01*
X88127780Y-147500712D01*
X88109990Y-147388394D01*
X88106072Y-147363654D01*
X88106071Y-147363650D01*
X88106071Y-147363649D01*
X88049918Y-147190828D01*
X88049916Y-147190825D01*
X87992861Y-147078846D01*
X87967417Y-147028910D01*
X87860603Y-146881894D01*
X87732106Y-146753397D01*
X87585090Y-146646583D01*
X87423174Y-146564083D01*
X87423171Y-146564081D01*
X87250348Y-146507928D01*
X87119937Y-146487273D01*
X87070861Y-146479500D01*
X86889139Y-146479500D01*
X86840063Y-146487273D01*
X86709652Y-146507928D01*
X86709649Y-146507928D01*
X86536828Y-146564081D01*
X86536825Y-146564083D01*
X86374909Y-146646583D01*
X86311422Y-146692710D01*
X86227894Y-146753397D01*
X86227892Y-146753399D01*
X86227891Y-146753399D01*
X86099399Y-146881891D01*
X86099399Y-146881892D01*
X86099397Y-146881894D01*
X86099162Y-146882218D01*
X85992583Y-147028909D01*
X85910083Y-147190825D01*
X85910081Y-147190828D01*
X85853928Y-147363649D01*
X85853928Y-147363652D01*
X85825500Y-147543139D01*
X82500500Y-147543139D01*
X82500500Y-142505513D01*
X116379500Y-142505513D01*
X116379500Y-142694486D01*
X116409059Y-142881118D01*
X116467454Y-143060836D01*
X116538617Y-143200500D01*
X116553240Y-143229199D01*
X116664310Y-143382073D01*
X116797927Y-143515690D01*
X116950801Y-143626760D01*
X117030347Y-143667290D01*
X117119163Y-143712545D01*
X117119165Y-143712545D01*
X117119168Y-143712547D01*
X117215497Y-143743846D01*
X117298881Y-143770940D01*
X117485514Y-143800500D01*
X117485519Y-143800500D01*
X117674486Y-143800500D01*
X117861118Y-143770940D01*
X117870262Y-143767969D01*
X118040832Y-143712547D01*
X118209199Y-143626760D01*
X118362073Y-143515690D01*
X118495690Y-143382073D01*
X118606760Y-143229199D01*
X118692547Y-143060832D01*
X118750940Y-142881118D01*
X118755869Y-142850000D01*
X124024638Y-142850000D01*
X124029548Y-142881002D01*
X124087914Y-143060637D01*
X124173670Y-143228940D01*
X124284685Y-143381741D01*
X124284689Y-143381746D01*
X124418253Y-143515310D01*
X124418258Y-143515314D01*
X124571059Y-143626329D01*
X124739362Y-143712085D01*
X124918997Y-143770451D01*
X124950000Y-143775362D01*
X124950000Y-143775361D01*
X125450000Y-143775361D01*
X125481002Y-143770451D01*
X125660637Y-143712085D01*
X125828940Y-143626329D01*
X125981741Y-143515314D01*
X125981746Y-143515310D01*
X126115310Y-143381746D01*
X126115314Y-143381741D01*
X126226329Y-143228940D01*
X126312085Y-143060637D01*
X126370451Y-142881002D01*
X126375362Y-142850000D01*
X125450000Y-142850000D01*
X125450000Y-143775361D01*
X124950000Y-143775361D01*
X124950000Y-142850000D01*
X124024638Y-142850000D01*
X118755869Y-142850000D01*
X118761427Y-142814905D01*
X118764811Y-142793540D01*
X118764811Y-142793538D01*
X118780500Y-142694485D01*
X118780500Y-142553922D01*
X124850000Y-142553922D01*
X124850000Y-142646078D01*
X124873852Y-142735095D01*
X124919930Y-142814905D01*
X124985095Y-142880070D01*
X125064905Y-142926148D01*
X125153922Y-142950000D01*
X125246078Y-142950000D01*
X125335095Y-142926148D01*
X125414905Y-142880070D01*
X125480070Y-142814905D01*
X125526148Y-142735095D01*
X125550000Y-142646078D01*
X125550000Y-142553922D01*
X125526148Y-142464905D01*
X125480070Y-142385095D01*
X125444975Y-142350000D01*
X125450000Y-142350000D01*
X126375362Y-142350000D01*
X126370451Y-142318997D01*
X126312085Y-142139362D01*
X126226329Y-141971059D01*
X126115314Y-141818258D01*
X126115310Y-141818253D01*
X125981746Y-141684689D01*
X125981741Y-141684685D01*
X125828940Y-141573670D01*
X125660635Y-141487913D01*
X125481004Y-141429549D01*
X125480995Y-141429547D01*
X125450000Y-141424637D01*
X125450000Y-142350000D01*
X125444975Y-142350000D01*
X125414905Y-142319930D01*
X125335095Y-142273852D01*
X125246078Y-142250000D01*
X125153922Y-142250000D01*
X125064905Y-142273852D01*
X124985095Y-142319930D01*
X124919930Y-142385095D01*
X124873852Y-142464905D01*
X124850000Y-142553922D01*
X118780500Y-142553922D01*
X118780500Y-142505514D01*
X118764811Y-142406462D01*
X118764811Y-142406460D01*
X118755869Y-142350000D01*
X124024638Y-142350000D01*
X124950000Y-142350000D01*
X124950000Y-141424637D01*
X124949999Y-141424637D01*
X124919004Y-141429547D01*
X124918995Y-141429549D01*
X124739364Y-141487913D01*
X124571059Y-141573670D01*
X124418258Y-141684685D01*
X124418253Y-141684689D01*
X124284689Y-141818253D01*
X124284685Y-141818258D01*
X124173670Y-141971059D01*
X124087914Y-142139362D01*
X124029548Y-142318997D01*
X124024638Y-142350000D01*
X118755869Y-142350000D01*
X118750940Y-142318882D01*
X118750940Y-142318881D01*
X118702480Y-142169738D01*
X118692547Y-142139168D01*
X118692545Y-142139165D01*
X118692545Y-142139163D01*
X118647290Y-142050347D01*
X118606760Y-141970801D01*
X118495690Y-141817927D01*
X118362073Y-141684310D01*
X118209199Y-141573240D01*
X118040836Y-141487454D01*
X117861118Y-141429059D01*
X117674486Y-141399500D01*
X117674481Y-141399500D01*
X117485519Y-141399500D01*
X117485514Y-141399500D01*
X117298881Y-141429059D01*
X117119163Y-141487454D01*
X116950800Y-141573240D01*
X116909380Y-141603334D01*
X116797927Y-141684310D01*
X116797925Y-141684312D01*
X116797924Y-141684312D01*
X116664312Y-141817924D01*
X116664312Y-141817925D01*
X116664310Y-141817927D01*
X116644676Y-141844951D01*
X116553240Y-141970800D01*
X116467454Y-142139163D01*
X116409059Y-142318881D01*
X116379500Y-142505513D01*
X82500500Y-142505513D01*
X82500500Y-129509139D01*
X85825500Y-129509139D01*
X85825500Y-129690860D01*
X85853928Y-129870347D01*
X85853928Y-129870350D01*
X85910081Y-130043171D01*
X85910083Y-130043174D01*
X85992583Y-130205090D01*
X86099397Y-130352106D01*
X86227894Y-130480603D01*
X86374910Y-130587417D01*
X86536826Y-130669917D01*
X86536828Y-130669918D01*
X86653480Y-130707820D01*
X86709654Y-130726072D01*
X86889139Y-130754500D01*
X86889140Y-130754500D01*
X87070860Y-130754500D01*
X87070861Y-130754500D01*
X87250346Y-130726072D01*
X87250349Y-130726071D01*
X87250350Y-130726071D01*
X87423171Y-130669918D01*
X87423171Y-130669917D01*
X87423174Y-130669917D01*
X87585090Y-130587417D01*
X87732106Y-130480603D01*
X87860603Y-130352106D01*
X87967417Y-130205090D01*
X88049917Y-130043174D01*
X88098480Y-129893713D01*
X88106071Y-129870350D01*
X88106071Y-129870349D01*
X88106072Y-129870346D01*
X88134500Y-129690861D01*
X88134500Y-129509139D01*
X90905500Y-129509139D01*
X90905500Y-129690860D01*
X90933928Y-129870347D01*
X90933928Y-129870350D01*
X90990081Y-130043171D01*
X90990083Y-130043174D01*
X91072583Y-130205090D01*
X91179397Y-130352106D01*
X91307894Y-130480603D01*
X91454910Y-130587417D01*
X91616826Y-130669917D01*
X91616828Y-130669918D01*
X91733480Y-130707820D01*
X91789654Y-130726072D01*
X91969139Y-130754500D01*
X91969140Y-130754500D01*
X92150860Y-130754500D01*
X92150861Y-130754500D01*
X92330346Y-130726072D01*
X92330349Y-130726071D01*
X92330350Y-130726071D01*
X92503171Y-130669918D01*
X92503171Y-130669917D01*
X92503174Y-130669917D01*
X92665090Y-130587417D01*
X92812106Y-130480603D01*
X92940603Y-130352106D01*
X93047417Y-130205090D01*
X93129917Y-130043174D01*
X93178480Y-129893713D01*
X93186071Y-129870350D01*
X93186071Y-129870349D01*
X93186072Y-129870346D01*
X93207527Y-129734884D01*
X93237456Y-129671750D01*
X93296768Y-129634819D01*
X93366630Y-129635817D01*
X93424863Y-129674427D01*
X93452473Y-129734885D01*
X93473928Y-129870347D01*
X93473928Y-129870350D01*
X93530081Y-130043171D01*
X93530083Y-130043174D01*
X93612583Y-130205090D01*
X93719397Y-130352106D01*
X93847894Y-130480603D01*
X93994910Y-130587417D01*
X94156826Y-130669917D01*
X94156828Y-130669918D01*
X94273480Y-130707820D01*
X94329654Y-130726072D01*
X94509139Y-130754500D01*
X94509140Y-130754500D01*
X94690860Y-130754500D01*
X94690861Y-130754500D01*
X94870346Y-130726072D01*
X94870349Y-130726071D01*
X94870350Y-130726071D01*
X95043171Y-130669918D01*
X95043171Y-130669917D01*
X95043174Y-130669917D01*
X95205090Y-130587417D01*
X95352106Y-130480603D01*
X95480603Y-130352106D01*
X95587417Y-130205090D01*
X95669917Y-130043174D01*
X95718480Y-129893713D01*
X95726071Y-129870350D01*
X95726071Y-129870349D01*
X95726072Y-129870346D01*
X95747527Y-129734884D01*
X95777456Y-129671750D01*
X95836768Y-129634819D01*
X95906630Y-129635817D01*
X95964863Y-129674427D01*
X95992473Y-129734885D01*
X96013928Y-129870347D01*
X96013928Y-129870350D01*
X96070081Y-130043171D01*
X96070083Y-130043174D01*
X96152583Y-130205090D01*
X96259397Y-130352106D01*
X96387894Y-130480603D01*
X96534910Y-130587417D01*
X96696826Y-130669917D01*
X96696828Y-130669918D01*
X96813480Y-130707820D01*
X96869654Y-130726072D01*
X97049139Y-130754500D01*
X97049140Y-130754500D01*
X97230860Y-130754500D01*
X97230861Y-130754500D01*
X97410346Y-130726072D01*
X97410349Y-130726071D01*
X97410350Y-130726071D01*
X97583171Y-130669918D01*
X97583171Y-130669917D01*
X97583174Y-130669917D01*
X97745090Y-130587417D01*
X97892106Y-130480603D01*
X98020603Y-130352106D01*
X98127417Y-130205090D01*
X98209917Y-130043174D01*
X98258480Y-129893713D01*
X98266071Y-129870350D01*
X98266071Y-129870349D01*
X98266072Y-129870346D01*
X98287527Y-129734884D01*
X98317456Y-129671750D01*
X98376768Y-129634819D01*
X98446630Y-129635817D01*
X98504863Y-129674427D01*
X98532473Y-129734885D01*
X98553928Y-129870347D01*
X98553928Y-129870350D01*
X98610081Y-130043171D01*
X98610083Y-130043174D01*
X98692583Y-130205090D01*
X98799397Y-130352106D01*
X98927894Y-130480603D01*
X99074910Y-130587417D01*
X99236826Y-130669917D01*
X99236828Y-130669918D01*
X99353480Y-130707820D01*
X99409654Y-130726072D01*
X99589139Y-130754500D01*
X99589140Y-130754500D01*
X99770860Y-130754500D01*
X99770861Y-130754500D01*
X99950346Y-130726072D01*
X99950349Y-130726071D01*
X99950350Y-130726071D01*
X100123171Y-130669918D01*
X100123171Y-130669917D01*
X100123174Y-130669917D01*
X100285090Y-130587417D01*
X100432106Y-130480603D01*
X100560603Y-130352106D01*
X100667417Y-130205090D01*
X100749917Y-130043174D01*
X100798480Y-129893713D01*
X100806071Y-129870350D01*
X100806071Y-129870349D01*
X100806072Y-129870346D01*
X100827527Y-129734884D01*
X100857456Y-129671750D01*
X100916768Y-129634819D01*
X100986630Y-129635817D01*
X101044863Y-129674427D01*
X101072473Y-129734885D01*
X101093928Y-129870347D01*
X101093928Y-129870350D01*
X101150081Y-130043171D01*
X101150083Y-130043174D01*
X101232583Y-130205090D01*
X101339397Y-130352106D01*
X101467894Y-130480603D01*
X101614910Y-130587417D01*
X101776826Y-130669917D01*
X101776828Y-130669918D01*
X101893480Y-130707820D01*
X101949654Y-130726072D01*
X102129139Y-130754500D01*
X102129140Y-130754500D01*
X102310860Y-130754500D01*
X102310861Y-130754500D01*
X102433547Y-130735068D01*
X102502839Y-130744022D01*
X102540625Y-130769860D01*
X106231206Y-134460441D01*
X106258086Y-134500669D01*
X106290604Y-134579176D01*
X106290609Y-134579185D01*
X106378210Y-134710288D01*
X106378213Y-134710292D01*
X106489707Y-134821786D01*
X106489711Y-134821789D01*
X106620814Y-134909390D01*
X106620827Y-134909397D01*
X106741974Y-134959577D01*
X106766503Y-134969737D01*
X106921153Y-135000499D01*
X106921156Y-135000500D01*
X106921158Y-135000500D01*
X107078844Y-135000500D01*
X107078845Y-135000499D01*
X107233497Y-134969737D01*
X107379179Y-134909394D01*
X107510289Y-134821789D01*
X107621789Y-134710289D01*
X107709394Y-134579179D01*
X107769737Y-134433497D01*
X107800500Y-134278842D01*
X107800500Y-134121158D01*
X107800500Y-134121155D01*
X107800499Y-134121153D01*
X107769738Y-133966510D01*
X107769737Y-133966503D01*
X107733427Y-133878842D01*
X107709397Y-133820827D01*
X107709390Y-133820814D01*
X107621789Y-133689711D01*
X107621786Y-133689707D01*
X107510292Y-133578213D01*
X107510288Y-133578210D01*
X107379185Y-133490609D01*
X107379172Y-133490602D01*
X107233501Y-133430264D01*
X107233489Y-133430261D01*
X107078845Y-133399500D01*
X107078842Y-133399500D01*
X106921158Y-133399500D01*
X106920097Y-133399500D01*
X106853058Y-133379815D01*
X106832416Y-133363181D01*
X104435415Y-130966180D01*
X104401930Y-130904857D01*
X104406914Y-130835165D01*
X104448786Y-130779232D01*
X104514250Y-130754815D01*
X104523096Y-130754499D01*
X105461871Y-130754499D01*
X105461872Y-130754499D01*
X105521483Y-130748091D01*
X105656331Y-130697796D01*
X105771546Y-130611546D01*
X105857796Y-130496331D01*
X105908091Y-130361483D01*
X105914500Y-130301873D01*
X105914499Y-128898128D01*
X105908091Y-128838517D01*
X105857796Y-128703669D01*
X105857795Y-128703668D01*
X105857793Y-128703664D01*
X105771547Y-128588455D01*
X105771544Y-128588452D01*
X105656335Y-128502206D01*
X105656328Y-128502202D01*
X105521482Y-128451908D01*
X105521483Y-128451908D01*
X105461883Y-128445501D01*
X105461881Y-128445500D01*
X105461873Y-128445500D01*
X105461864Y-128445500D01*
X104058129Y-128445500D01*
X104058123Y-128445501D01*
X103998516Y-128451908D01*
X103863671Y-128502202D01*
X103863664Y-128502206D01*
X103748455Y-128588452D01*
X103748452Y-128588455D01*
X103662206Y-128703664D01*
X103662202Y-128703671D01*
X103611908Y-128838517D01*
X103605501Y-128898116D01*
X103605501Y-128898123D01*
X103605500Y-128898135D01*
X103605500Y-129392049D01*
X103585815Y-129459088D01*
X103533011Y-129504843D01*
X103463853Y-129514787D01*
X103400297Y-129485762D01*
X103362523Y-129426984D01*
X103359027Y-129411447D01*
X103357468Y-129401606D01*
X103346072Y-129329654D01*
X103346071Y-129329650D01*
X103346071Y-129329649D01*
X103289918Y-129156828D01*
X103289916Y-129156825D01*
X103271262Y-129120213D01*
X103207417Y-128994910D01*
X103100603Y-128847894D01*
X102972106Y-128719397D01*
X102825090Y-128612583D01*
X102663174Y-128530083D01*
X102663171Y-128530081D01*
X102490348Y-128473928D01*
X102351319Y-128451908D01*
X102310861Y-128445500D01*
X102129139Y-128445500D01*
X102088681Y-128451908D01*
X101949652Y-128473928D01*
X101949649Y-128473928D01*
X101776828Y-128530081D01*
X101776825Y-128530083D01*
X101614909Y-128612583D01*
X101564098Y-128649500D01*
X101467894Y-128719397D01*
X101467892Y-128719399D01*
X101467891Y-128719399D01*
X101339399Y-128847891D01*
X101339399Y-128847892D01*
X101339397Y-128847894D01*
X101302908Y-128898116D01*
X101232583Y-128994909D01*
X101150083Y-129156825D01*
X101150081Y-129156828D01*
X101093928Y-129329649D01*
X101093928Y-129329652D01*
X101072473Y-129465114D01*
X101042544Y-129528249D01*
X100983232Y-129565180D01*
X100913370Y-129564182D01*
X100855137Y-129525572D01*
X100827527Y-129465114D01*
X100819027Y-129411447D01*
X100806072Y-129329654D01*
X100806071Y-129329650D01*
X100806071Y-129329649D01*
X100749918Y-129156828D01*
X100749916Y-129156825D01*
X100731262Y-129120213D01*
X100667417Y-128994910D01*
X100560603Y-128847894D01*
X100432106Y-128719397D01*
X100285090Y-128612583D01*
X100123174Y-128530083D01*
X100123171Y-128530081D01*
X99950348Y-128473928D01*
X99811319Y-128451908D01*
X99770861Y-128445500D01*
X99589139Y-128445500D01*
X99548681Y-128451908D01*
X99409652Y-128473928D01*
X99409649Y-128473928D01*
X99236828Y-128530081D01*
X99236825Y-128530083D01*
X99074909Y-128612583D01*
X99024098Y-128649500D01*
X98927894Y-128719397D01*
X98927892Y-128719399D01*
X98927891Y-128719399D01*
X98799399Y-128847891D01*
X98799399Y-128847892D01*
X98799397Y-128847894D01*
X98762908Y-128898116D01*
X98692583Y-128994909D01*
X98610083Y-129156825D01*
X98610081Y-129156828D01*
X98553928Y-129329649D01*
X98553928Y-129329652D01*
X98532473Y-129465114D01*
X98502544Y-129528249D01*
X98443232Y-129565180D01*
X98373370Y-129564182D01*
X98315137Y-129525572D01*
X98287527Y-129465114D01*
X98279027Y-129411447D01*
X98266072Y-129329654D01*
X98266071Y-129329650D01*
X98266071Y-129329649D01*
X98209918Y-129156828D01*
X98209916Y-129156825D01*
X98191262Y-129120213D01*
X98127417Y-128994910D01*
X98020603Y-128847894D01*
X97892106Y-128719397D01*
X97745090Y-128612583D01*
X97583174Y-128530083D01*
X97583171Y-128530081D01*
X97410348Y-128473928D01*
X97271319Y-128451908D01*
X97230861Y-128445500D01*
X97049139Y-128445500D01*
X97008681Y-128451908D01*
X96869652Y-128473928D01*
X96869649Y-128473928D01*
X96696828Y-128530081D01*
X96696825Y-128530083D01*
X96534909Y-128612583D01*
X96484098Y-128649500D01*
X96387894Y-128719397D01*
X96387892Y-128719399D01*
X96387891Y-128719399D01*
X96259399Y-128847891D01*
X96259399Y-128847892D01*
X96259397Y-128847894D01*
X96222908Y-128898116D01*
X96152583Y-128994909D01*
X96070083Y-129156825D01*
X96070081Y-129156828D01*
X96013928Y-129329649D01*
X96013928Y-129329652D01*
X95992473Y-129465114D01*
X95962544Y-129528249D01*
X95903232Y-129565180D01*
X95833370Y-129564182D01*
X95775137Y-129525572D01*
X95747527Y-129465114D01*
X95739027Y-129411447D01*
X95726072Y-129329654D01*
X95726071Y-129329650D01*
X95726071Y-129329649D01*
X95669918Y-129156828D01*
X95669916Y-129156825D01*
X95651262Y-129120213D01*
X95587417Y-128994910D01*
X95480603Y-128847894D01*
X95352106Y-128719397D01*
X95205090Y-128612583D01*
X95043174Y-128530083D01*
X95043171Y-128530081D01*
X94870348Y-128473928D01*
X94731319Y-128451908D01*
X94690861Y-128445500D01*
X94509139Y-128445500D01*
X94468681Y-128451908D01*
X94329652Y-128473928D01*
X94329649Y-128473928D01*
X94156828Y-128530081D01*
X94156825Y-128530083D01*
X93994909Y-128612583D01*
X93944098Y-128649500D01*
X93847894Y-128719397D01*
X93847892Y-128719399D01*
X93847891Y-128719399D01*
X93719399Y-128847891D01*
X93719399Y-128847892D01*
X93719397Y-128847894D01*
X93682908Y-128898116D01*
X93612583Y-128994909D01*
X93530083Y-129156825D01*
X93530081Y-129156828D01*
X93473928Y-129329649D01*
X93473928Y-129329652D01*
X93452473Y-129465114D01*
X93422544Y-129528249D01*
X93363232Y-129565180D01*
X93293370Y-129564182D01*
X93235137Y-129525572D01*
X93207527Y-129465114D01*
X93199027Y-129411447D01*
X93186072Y-129329654D01*
X93186071Y-129329650D01*
X93186071Y-129329649D01*
X93129918Y-129156828D01*
X93129916Y-129156825D01*
X93111262Y-129120213D01*
X93047417Y-128994910D01*
X92940603Y-128847894D01*
X92812106Y-128719397D01*
X92665090Y-128612583D01*
X92503174Y-128530083D01*
X92503171Y-128530081D01*
X92330348Y-128473928D01*
X92191319Y-128451908D01*
X92150861Y-128445500D01*
X91969139Y-128445500D01*
X91928681Y-128451908D01*
X91789652Y-128473928D01*
X91789649Y-128473928D01*
X91616828Y-128530081D01*
X91616825Y-128530083D01*
X91454909Y-128612583D01*
X91404098Y-128649500D01*
X91307894Y-128719397D01*
X91307892Y-128719399D01*
X91307891Y-128719399D01*
X91179399Y-128847891D01*
X91179399Y-128847892D01*
X91179397Y-128847894D01*
X91142908Y-128898116D01*
X91072583Y-128994909D01*
X90990083Y-129156825D01*
X90990081Y-129156828D01*
X90933928Y-129329649D01*
X90933928Y-129329652D01*
X90905500Y-129509139D01*
X88134500Y-129509139D01*
X88106072Y-129329654D01*
X88106071Y-129329650D01*
X88106071Y-129329649D01*
X88049918Y-129156828D01*
X88049916Y-129156825D01*
X88031262Y-129120213D01*
X87967417Y-128994910D01*
X87860603Y-128847894D01*
X87732106Y-128719397D01*
X87585090Y-128612583D01*
X87423174Y-128530083D01*
X87423171Y-128530081D01*
X87250348Y-128473928D01*
X87111319Y-128451908D01*
X87070861Y-128445500D01*
X86889139Y-128445500D01*
X86848681Y-128451908D01*
X86709652Y-128473928D01*
X86709649Y-128473928D01*
X86536828Y-128530081D01*
X86536825Y-128530083D01*
X86374909Y-128612583D01*
X86324098Y-128649500D01*
X86227894Y-128719397D01*
X86227892Y-128719399D01*
X86227891Y-128719399D01*
X86099399Y-128847891D01*
X86099399Y-128847892D01*
X86099397Y-128847894D01*
X86062908Y-128898116D01*
X85992583Y-128994909D01*
X85910083Y-129156825D01*
X85910081Y-129156828D01*
X85853928Y-129329649D01*
X85853928Y-129329652D01*
X85825500Y-129509139D01*
X82500500Y-129509139D01*
X82500500Y-79685258D01*
X99749500Y-79685258D01*
X99749500Y-79914741D01*
X99774446Y-80104215D01*
X99779452Y-80142238D01*
X99779453Y-80142240D01*
X99838842Y-80363887D01*
X99926650Y-80575876D01*
X99926657Y-80575890D01*
X100041392Y-80774617D01*
X100181081Y-80956661D01*
X100181089Y-80956670D01*
X100343330Y-81118911D01*
X100343338Y-81118918D01*
X100525382Y-81258607D01*
X100525385Y-81258608D01*
X100525388Y-81258611D01*
X100724112Y-81373344D01*
X100724117Y-81373346D01*
X100724123Y-81373349D01*
X100815480Y-81411190D01*
X100936113Y-81461158D01*
X101157762Y-81520548D01*
X101385266Y-81550500D01*
X101385273Y-81550500D01*
X101614727Y-81550500D01*
X101614734Y-81550500D01*
X101842238Y-81520548D01*
X102063887Y-81461158D01*
X102275888Y-81373344D01*
X102474612Y-81258611D01*
X102656661Y-81118919D01*
X102656665Y-81118914D01*
X102656670Y-81118911D01*
X102818911Y-80956670D01*
X102818914Y-80956665D01*
X102818919Y-80956661D01*
X102958611Y-80774612D01*
X103073344Y-80575888D01*
X103161158Y-80363887D01*
X103220548Y-80142238D01*
X103250500Y-79914734D01*
X103250500Y-79685266D01*
X103250499Y-79685258D01*
X107049500Y-79685258D01*
X107049500Y-79914741D01*
X107074446Y-80104215D01*
X107079452Y-80142238D01*
X107079453Y-80142240D01*
X107138842Y-80363887D01*
X107226650Y-80575876D01*
X107226657Y-80575890D01*
X107341392Y-80774617D01*
X107481081Y-80956661D01*
X107481089Y-80956670D01*
X107643330Y-81118911D01*
X107643338Y-81118918D01*
X107825382Y-81258607D01*
X107825385Y-81258608D01*
X107825388Y-81258611D01*
X108024112Y-81373344D01*
X108024117Y-81373346D01*
X108024123Y-81373349D01*
X108115480Y-81411190D01*
X108236113Y-81461158D01*
X108457762Y-81520548D01*
X108685266Y-81550500D01*
X108685273Y-81550500D01*
X108914727Y-81550500D01*
X108914734Y-81550500D01*
X109142238Y-81520548D01*
X109363887Y-81461158D01*
X109575888Y-81373344D01*
X109774612Y-81258611D01*
X109956661Y-81118919D01*
X109956665Y-81118914D01*
X109956670Y-81118911D01*
X110118911Y-80956670D01*
X110118914Y-80956665D01*
X110118919Y-80956661D01*
X110258611Y-80774612D01*
X110373344Y-80575888D01*
X110461158Y-80363887D01*
X110520548Y-80142238D01*
X110550500Y-79914734D01*
X110550500Y-79685266D01*
X110550499Y-79685258D01*
X119649500Y-79685258D01*
X119649500Y-79914741D01*
X119674446Y-80104215D01*
X119679452Y-80142238D01*
X119679453Y-80142240D01*
X119738842Y-80363887D01*
X119826650Y-80575876D01*
X119826657Y-80575890D01*
X119941392Y-80774617D01*
X120081081Y-80956661D01*
X120081089Y-80956670D01*
X120243330Y-81118911D01*
X120243338Y-81118918D01*
X120425382Y-81258607D01*
X120425385Y-81258608D01*
X120425388Y-81258611D01*
X120624112Y-81373344D01*
X120624117Y-81373346D01*
X120624123Y-81373349D01*
X120715480Y-81411190D01*
X120836113Y-81461158D01*
X121057762Y-81520548D01*
X121285266Y-81550500D01*
X121285273Y-81550500D01*
X121514727Y-81550500D01*
X121514734Y-81550500D01*
X121742238Y-81520548D01*
X121963887Y-81461158D01*
X122175888Y-81373344D01*
X122374612Y-81258611D01*
X122556661Y-81118919D01*
X122556665Y-81118914D01*
X122556670Y-81118911D01*
X122718911Y-80956670D01*
X122718914Y-80956665D01*
X122718919Y-80956661D01*
X122858611Y-80774612D01*
X122973344Y-80575888D01*
X123061158Y-80363887D01*
X123120548Y-80142238D01*
X123150500Y-79914734D01*
X123150500Y-79685266D01*
X123150499Y-79685258D01*
X126949500Y-79685258D01*
X126949500Y-79914741D01*
X126974446Y-80104215D01*
X126979452Y-80142238D01*
X126979453Y-80142240D01*
X127038842Y-80363887D01*
X127126650Y-80575876D01*
X127126657Y-80575890D01*
X127241392Y-80774617D01*
X127381081Y-80956661D01*
X127381089Y-80956670D01*
X127543330Y-81118911D01*
X127543338Y-81118918D01*
X127725382Y-81258607D01*
X127725385Y-81258608D01*
X127725388Y-81258611D01*
X127924112Y-81373344D01*
X127924117Y-81373346D01*
X127924123Y-81373349D01*
X128015480Y-81411190D01*
X128136113Y-81461158D01*
X128357762Y-81520548D01*
X128585266Y-81550500D01*
X128585273Y-81550500D01*
X128814727Y-81550500D01*
X128814734Y-81550500D01*
X129042238Y-81520548D01*
X129263887Y-81461158D01*
X129475888Y-81373344D01*
X129674612Y-81258611D01*
X129856661Y-81118919D01*
X129856665Y-81118914D01*
X129856670Y-81118911D01*
X130018911Y-80956670D01*
X130018914Y-80956665D01*
X130018919Y-80956661D01*
X130158611Y-80774612D01*
X130273344Y-80575888D01*
X130361158Y-80363887D01*
X130420548Y-80142238D01*
X130450500Y-79914734D01*
X130450500Y-79685266D01*
X130420548Y-79457762D01*
X130361158Y-79236113D01*
X130299776Y-79087924D01*
X130273349Y-79024123D01*
X130273346Y-79024117D01*
X130273344Y-79024112D01*
X130158611Y-78825388D01*
X130158608Y-78825385D01*
X130158607Y-78825382D01*
X130018918Y-78643338D01*
X130018911Y-78643330D01*
X129856670Y-78481089D01*
X129856661Y-78481081D01*
X129674617Y-78341392D01*
X129475890Y-78226657D01*
X129475876Y-78226650D01*
X129263887Y-78138842D01*
X129234683Y-78131017D01*
X129042238Y-78079452D01*
X129004215Y-78074446D01*
X128814741Y-78049500D01*
X128814734Y-78049500D01*
X128585266Y-78049500D01*
X128585258Y-78049500D01*
X128368715Y-78078009D01*
X128357762Y-78079452D01*
X128264076Y-78104554D01*
X128136112Y-78138842D01*
X127924123Y-78226650D01*
X127924109Y-78226657D01*
X127725382Y-78341392D01*
X127543338Y-78481081D01*
X127381081Y-78643338D01*
X127241392Y-78825382D01*
X127126657Y-79024109D01*
X127126650Y-79024123D01*
X127038842Y-79236112D01*
X126979453Y-79457759D01*
X126979451Y-79457770D01*
X126949500Y-79685258D01*
X123150499Y-79685258D01*
X123120548Y-79457762D01*
X123061158Y-79236113D01*
X122999776Y-79087924D01*
X122973349Y-79024123D01*
X122973346Y-79024117D01*
X122973344Y-79024112D01*
X122858611Y-78825388D01*
X122858608Y-78825385D01*
X122858607Y-78825382D01*
X122718918Y-78643338D01*
X122718911Y-78643330D01*
X122556670Y-78481089D01*
X122556661Y-78481081D01*
X122374617Y-78341392D01*
X122175890Y-78226657D01*
X122175876Y-78226650D01*
X121963887Y-78138842D01*
X121934683Y-78131017D01*
X121742238Y-78079452D01*
X121704215Y-78074446D01*
X121514741Y-78049500D01*
X121514734Y-78049500D01*
X121285266Y-78049500D01*
X121285258Y-78049500D01*
X121068715Y-78078009D01*
X121057762Y-78079452D01*
X120964076Y-78104554D01*
X120836112Y-78138842D01*
X120624123Y-78226650D01*
X120624109Y-78226657D01*
X120425382Y-78341392D01*
X120243338Y-78481081D01*
X120081081Y-78643338D01*
X119941392Y-78825382D01*
X119826657Y-79024109D01*
X119826650Y-79024123D01*
X119738842Y-79236112D01*
X119679453Y-79457759D01*
X119679451Y-79457770D01*
X119649500Y-79685258D01*
X110550499Y-79685258D01*
X110520548Y-79457762D01*
X110461158Y-79236113D01*
X110399776Y-79087924D01*
X110373349Y-79024123D01*
X110373346Y-79024117D01*
X110373344Y-79024112D01*
X110258611Y-78825388D01*
X110258608Y-78825385D01*
X110258607Y-78825382D01*
X110118918Y-78643338D01*
X110118911Y-78643330D01*
X109956670Y-78481089D01*
X109956661Y-78481081D01*
X109774617Y-78341392D01*
X109575890Y-78226657D01*
X109575876Y-78226650D01*
X109363887Y-78138842D01*
X109334683Y-78131017D01*
X109142238Y-78079452D01*
X109104215Y-78074446D01*
X108914741Y-78049500D01*
X108914734Y-78049500D01*
X108685266Y-78049500D01*
X108685258Y-78049500D01*
X108468715Y-78078009D01*
X108457762Y-78079452D01*
X108364076Y-78104554D01*
X108236112Y-78138842D01*
X108024123Y-78226650D01*
X108024109Y-78226657D01*
X107825382Y-78341392D01*
X107643338Y-78481081D01*
X107481081Y-78643338D01*
X107341392Y-78825382D01*
X107226657Y-79024109D01*
X107226650Y-79024123D01*
X107138842Y-79236112D01*
X107079453Y-79457759D01*
X107079451Y-79457770D01*
X107049500Y-79685258D01*
X103250499Y-79685258D01*
X103220548Y-79457762D01*
X103161158Y-79236113D01*
X103099776Y-79087924D01*
X103073349Y-79024123D01*
X103073346Y-79024117D01*
X103073344Y-79024112D01*
X102958611Y-78825388D01*
X102958608Y-78825385D01*
X102958607Y-78825382D01*
X102818918Y-78643338D01*
X102818911Y-78643330D01*
X102656670Y-78481089D01*
X102656661Y-78481081D01*
X102474617Y-78341392D01*
X102275890Y-78226657D01*
X102275876Y-78226650D01*
X102063887Y-78138842D01*
X102034683Y-78131017D01*
X101842238Y-78079452D01*
X101804215Y-78074446D01*
X101614741Y-78049500D01*
X101614734Y-78049500D01*
X101385266Y-78049500D01*
X101385258Y-78049500D01*
X101168715Y-78078009D01*
X101157762Y-78079452D01*
X101064076Y-78104554D01*
X100936112Y-78138842D01*
X100724123Y-78226650D01*
X100724109Y-78226657D01*
X100525382Y-78341392D01*
X100343338Y-78481081D01*
X100181081Y-78643338D01*
X100041392Y-78825382D01*
X99926657Y-79024109D01*
X99926650Y-79024123D01*
X99838842Y-79236112D01*
X99779453Y-79457759D01*
X99779451Y-79457770D01*
X99749500Y-79685258D01*
X82500500Y-79685258D01*
X82500500Y-78227333D01*
X82520185Y-78160294D01*
X82572989Y-78114539D01*
X82642147Y-78104595D01*
X82705703Y-78133620D01*
X82731887Y-78165333D01*
X82849751Y-78369479D01*
X82849753Y-78369482D01*
X82849754Y-78369483D01*
X83017370Y-78587926D01*
X83017376Y-78587933D01*
X83212066Y-78782623D01*
X83212072Y-78782628D01*
X83430521Y-78950249D01*
X83583778Y-79038732D01*
X83668971Y-79087919D01*
X83668976Y-79087921D01*
X83668979Y-79087923D01*
X83923368Y-79193295D01*
X84189334Y-79264560D01*
X84462326Y-79300500D01*
X84462333Y-79300500D01*
X84737667Y-79300500D01*
X84737674Y-79300500D01*
X85010666Y-79264560D01*
X85276632Y-79193295D01*
X85531021Y-79087923D01*
X85769479Y-78950249D01*
X85987928Y-78782628D01*
X86182628Y-78587928D01*
X86350249Y-78369479D01*
X86487923Y-78131021D01*
X86593295Y-77876632D01*
X86664560Y-77610666D01*
X86681026Y-77485593D01*
X86684089Y-77462332D01*
X167499500Y-77462332D01*
X167499500Y-77737667D01*
X167499501Y-77737684D01*
X167535438Y-78010655D01*
X167535439Y-78010660D01*
X167535440Y-78010666D01*
X167560608Y-78104595D01*
X167606704Y-78276630D01*
X167712075Y-78531017D01*
X167712080Y-78531028D01*
X167776919Y-78643330D01*
X167849751Y-78769479D01*
X167849753Y-78769482D01*
X167849754Y-78769483D01*
X168017370Y-78987926D01*
X168017376Y-78987933D01*
X168212066Y-79182623D01*
X168212073Y-79182629D01*
X168281774Y-79236112D01*
X168430521Y-79350249D01*
X168583778Y-79438732D01*
X168668971Y-79487919D01*
X168668976Y-79487921D01*
X168668979Y-79487923D01*
X168923368Y-79593295D01*
X169189334Y-79664560D01*
X169462326Y-79700500D01*
X169462333Y-79700500D01*
X169737667Y-79700500D01*
X169737674Y-79700500D01*
X170010666Y-79664560D01*
X170276632Y-79593295D01*
X170531021Y-79487923D01*
X170769479Y-79350249D01*
X170987928Y-79182628D01*
X171182628Y-78987928D01*
X171350249Y-78769479D01*
X171487923Y-78531021D01*
X171593295Y-78276632D01*
X171664560Y-78010666D01*
X171700500Y-77737674D01*
X171700500Y-77462326D01*
X171664560Y-77189334D01*
X171593295Y-76923368D01*
X171487923Y-76668979D01*
X171487921Y-76668976D01*
X171487919Y-76668971D01*
X171438732Y-76583778D01*
X171350249Y-76430521D01*
X171226288Y-76268971D01*
X171182629Y-76212073D01*
X171182623Y-76212066D01*
X170987933Y-76017376D01*
X170987926Y-76017370D01*
X170769483Y-75849754D01*
X170769482Y-75849753D01*
X170769479Y-75849751D01*
X170674407Y-75794861D01*
X170531028Y-75712080D01*
X170531017Y-75712075D01*
X170276630Y-75606704D01*
X170143649Y-75571072D01*
X170010666Y-75535440D01*
X170010660Y-75535439D01*
X170010655Y-75535438D01*
X169737684Y-75499501D01*
X169737679Y-75499500D01*
X169737674Y-75499500D01*
X169462326Y-75499500D01*
X169462320Y-75499500D01*
X169462315Y-75499501D01*
X169189344Y-75535438D01*
X169189337Y-75535439D01*
X169189334Y-75535440D01*
X169133125Y-75550500D01*
X168923369Y-75606704D01*
X168668982Y-75712075D01*
X168668971Y-75712080D01*
X168430516Y-75849754D01*
X168212073Y-76017370D01*
X168212066Y-76017376D01*
X168017376Y-76212066D01*
X168017370Y-76212073D01*
X167849754Y-76430516D01*
X167712080Y-76668971D01*
X167712075Y-76668982D01*
X167606704Y-76923369D01*
X167535441Y-77189331D01*
X167535438Y-77189344D01*
X167499501Y-77462315D01*
X167499500Y-77462332D01*
X86684089Y-77462332D01*
X86686755Y-77442081D01*
X86686755Y-77442080D01*
X86690754Y-77411695D01*
X86700500Y-77337674D01*
X86700500Y-77062326D01*
X86664560Y-76789334D01*
X86593295Y-76523368D01*
X86487923Y-76268979D01*
X86487921Y-76268976D01*
X86487919Y-76268971D01*
X86438732Y-76183778D01*
X86350249Y-76030521D01*
X86182628Y-75812072D01*
X86182623Y-75812066D01*
X85987933Y-75617376D01*
X85987926Y-75617370D01*
X85769483Y-75449754D01*
X85769482Y-75449753D01*
X85769479Y-75449751D01*
X85674407Y-75394861D01*
X85531028Y-75312080D01*
X85531017Y-75312075D01*
X85354746Y-75239061D01*
X85300343Y-75195220D01*
X85278278Y-75128926D01*
X85295557Y-75061226D01*
X85346695Y-75013616D01*
X85402199Y-75000500D01*
X171875500Y-75000500D01*
X171942539Y-75020185D01*
G37*
%TD.AperFunction*%
%TD*%
M02*
