M48
; DRILL file {KiCad 9.0.1} date 2026-08-18T15:06:33-0400
; FORMAT={-:-/ absolute / metric / decimal}
; #@! TF.CreationDate,2026-08-18T15:06:33-04:00
; #@! TF.GenerationSoftware,Kicad,Pcbnew,9.0.1
; #@! TF.FileFunction,Plated,1,2,PTH
FMAT,2
METRIC
; #@! TA.AperFunction,Plated,PTH,ViaDrill
T1C0.300
; #@! TA.AperFunction,Plated,PTH,ComponentDrill
T2C0.700
; #@! TA.AperFunction,Plated,PTH,ComponentDrill
T3C0.800
; #@! TA.AperFunction,Plated,PTH,ComponentDrill
T4C0.950
; #@! TA.AperFunction,Plated,PTH,ComponentDrill
T5C1.000
; #@! TA.AperFunction,Plated,PTH,ComponentDrill
T6C1.200
; #@! TA.AperFunction,Plated,PTH,ComponentDrill
T7C1.800
%
G90
G05
T1
X99.6Y-124.2
X104.4Y-125.6
X107.0Y-134.2
X119.4Y-114.8
X128.0Y-147.0
X130.6Y-147.8
X132.0Y-138.8
X133.6Y-149.4
X137.0Y-149.4
X146.0Y-133.8
X147.6Y-141.4
X150.8Y-136.2
X151.8Y-122.2
X156.0Y-142.4
X158.4Y-144.0
X159.6Y-143.0
T2
X117.58Y-131.6
X117.58Y-137.1
X117.58Y-142.6
X125.2Y-131.6
X125.2Y-137.1
X125.2Y-142.6
T3
X86.98Y-129.6
X86.98Y-147.634
X89.52Y-129.6
X89.52Y-147.634
X92.06Y-129.6
X92.06Y-147.634
X94.6Y-129.6
X94.6Y-147.634
X97.14Y-129.6
X97.14Y-147.634
X99.68Y-129.6
X99.68Y-147.634
X102.22Y-129.6
X102.22Y-147.634
X104.76Y-129.6
X104.76Y-147.634
T4
X108.4Y-153.0
X110.9Y-153.0
X113.4Y-153.0
X128.1Y-153.2
X130.6Y-153.2
X133.1Y-153.2
X135.6Y-153.2
X149.5Y-153.6
X152.0Y-153.6
X154.5Y-153.6
X157.0Y-153.6
X159.5Y-153.6
T5
X92.7Y-153.4
X95.2Y-153.4
X148.56Y-83.24
X148.56Y-85.78
X148.56Y-88.32
X148.56Y-90.86
X148.56Y-93.4
X148.56Y-95.94
X148.56Y-98.48
X148.56Y-101.02
X148.56Y-103.56
X148.56Y-106.1
X148.56Y-108.64
X148.56Y-111.18
X148.56Y-113.72
X148.56Y-116.26
X148.56Y-118.8
X163.8Y-83.24
X163.8Y-85.78
X163.8Y-88.32
X163.8Y-90.86
X163.8Y-93.4
X163.8Y-95.94
X163.8Y-98.48
X163.8Y-101.02
X163.8Y-103.56
X163.8Y-106.1
X163.8Y-108.64
X163.8Y-111.18
X163.8Y-113.72
X163.8Y-116.26
X163.8Y-118.8
X164.8Y-130.0
X164.8Y-132.5
X164.8Y-143.0
X164.8Y-145.5
T6
X137.5Y-133.0
X137.5Y-141.0
X151.8Y-133.0
X151.8Y-141.0
T7
X101.5Y-79.8
X108.8Y-79.8
X121.4Y-79.8
X121.4Y-119.6
X128.7Y-79.8
X128.7Y-119.6
T5
G00X103.6Y-119.2
M15
G01X103.6Y-120.0
M16
G05
G00X106.0Y-119.2
M15
G01X106.0Y-120.0
M16
G05
G00X108.4Y-119.2
M15
G01X108.4Y-120.0
M16
G05
M30
