%TF.GenerationSoftware,KiCad,Pcbnew,9.0.1*%
%TF.CreationDate,2026-08-18T15:04:56-04:00*%
%TF.ProjectId,Metronome,4d657472-6f6e-46f6-9d65-2e6b69636164,rev?*%
%TF.SameCoordinates,Original*%
%TF.FileFunction,Legend,Top*%
%TF.FilePolarity,Positive*%
%FSLAX46Y46*%
G04 Gerber Fmt 4.6, Leading zero omitted, Abs format (unit mm)*
G04 Created by KiCad (PCBNEW 9.0.1) date 2026-08-18 15:04:56*
%MOMM*%
%LPD*%
G01*
G04 APERTURE LIST*
%ADD10C,0.150000*%
%ADD11C,0.100000*%
%ADD12C,0.101600*%
%ADD13C,0.120000*%
%ADD14C,0.127000*%
%ADD15C,0.200000*%
G04 APERTURE END LIST*
D10*
X154166666Y-149504819D02*
X154166666Y-150219104D01*
X154166666Y-150219104D02*
X154119047Y-150361961D01*
X154119047Y-150361961D02*
X154023809Y-150457200D01*
X154023809Y-150457200D02*
X153880952Y-150504819D01*
X153880952Y-150504819D02*
X153785714Y-150504819D01*
X155071428Y-149504819D02*
X154880952Y-149504819D01*
X154880952Y-149504819D02*
X154785714Y-149552438D01*
X154785714Y-149552438D02*
X154738095Y-149600057D01*
X154738095Y-149600057D02*
X154642857Y-149742914D01*
X154642857Y-149742914D02*
X154595238Y-149933390D01*
X154595238Y-149933390D02*
X154595238Y-150314342D01*
X154595238Y-150314342D02*
X154642857Y-150409580D01*
X154642857Y-150409580D02*
X154690476Y-150457200D01*
X154690476Y-150457200D02*
X154785714Y-150504819D01*
X154785714Y-150504819D02*
X154976190Y-150504819D01*
X154976190Y-150504819D02*
X155071428Y-150457200D01*
X155071428Y-150457200D02*
X155119047Y-150409580D01*
X155119047Y-150409580D02*
X155166666Y-150314342D01*
X155166666Y-150314342D02*
X155166666Y-150076247D01*
X155166666Y-150076247D02*
X155119047Y-149981009D01*
X155119047Y-149981009D02*
X155071428Y-149933390D01*
X155071428Y-149933390D02*
X154976190Y-149885771D01*
X154976190Y-149885771D02*
X154785714Y-149885771D01*
X154785714Y-149885771D02*
X154690476Y-149933390D01*
X154690476Y-149933390D02*
X154642857Y-149981009D01*
X154642857Y-149981009D02*
X154595238Y-150076247D01*
X121223333Y-141134819D02*
X120890000Y-140658628D01*
X120651905Y-141134819D02*
X120651905Y-140134819D01*
X120651905Y-140134819D02*
X121032857Y-140134819D01*
X121032857Y-140134819D02*
X121128095Y-140182438D01*
X121128095Y-140182438D02*
X121175714Y-140230057D01*
X121175714Y-140230057D02*
X121223333Y-140325295D01*
X121223333Y-140325295D02*
X121223333Y-140468152D01*
X121223333Y-140468152D02*
X121175714Y-140563390D01*
X121175714Y-140563390D02*
X121128095Y-140611009D01*
X121128095Y-140611009D02*
X121032857Y-140658628D01*
X121032857Y-140658628D02*
X120651905Y-140658628D01*
X121556667Y-140134819D02*
X122175714Y-140134819D01*
X122175714Y-140134819D02*
X121842381Y-140515771D01*
X121842381Y-140515771D02*
X121985238Y-140515771D01*
X121985238Y-140515771D02*
X122080476Y-140563390D01*
X122080476Y-140563390D02*
X122128095Y-140611009D01*
X122128095Y-140611009D02*
X122175714Y-140706247D01*
X122175714Y-140706247D02*
X122175714Y-140944342D01*
X122175714Y-140944342D02*
X122128095Y-141039580D01*
X122128095Y-141039580D02*
X122080476Y-141087200D01*
X122080476Y-141087200D02*
X121985238Y-141134819D01*
X121985238Y-141134819D02*
X121699524Y-141134819D01*
X121699524Y-141134819D02*
X121604286Y-141087200D01*
X121604286Y-141087200D02*
X121556667Y-141039580D01*
X160704819Y-144583333D02*
X161419104Y-144583333D01*
X161419104Y-144583333D02*
X161561961Y-144630952D01*
X161561961Y-144630952D02*
X161657200Y-144726190D01*
X161657200Y-144726190D02*
X161704819Y-144869047D01*
X161704819Y-144869047D02*
X161704819Y-144964285D01*
X160704819Y-144202380D02*
X160704819Y-143583333D01*
X160704819Y-143583333D02*
X161085771Y-143916666D01*
X161085771Y-143916666D02*
X161085771Y-143773809D01*
X161085771Y-143773809D02*
X161133390Y-143678571D01*
X161133390Y-143678571D02*
X161181009Y-143630952D01*
X161181009Y-143630952D02*
X161276247Y-143583333D01*
X161276247Y-143583333D02*
X161514342Y-143583333D01*
X161514342Y-143583333D02*
X161609580Y-143630952D01*
X161609580Y-143630952D02*
X161657200Y-143678571D01*
X161657200Y-143678571D02*
X161704819Y-143773809D01*
X161704819Y-143773809D02*
X161704819Y-144059523D01*
X161704819Y-144059523D02*
X161657200Y-144154761D01*
X161657200Y-144154761D02*
X161609580Y-144202380D01*
D11*
X114338095Y-97657419D02*
X114338095Y-98466942D01*
X114338095Y-98466942D02*
X114385714Y-98562180D01*
X114385714Y-98562180D02*
X114433333Y-98609800D01*
X114433333Y-98609800D02*
X114528571Y-98657419D01*
X114528571Y-98657419D02*
X114719047Y-98657419D01*
X114719047Y-98657419D02*
X114814285Y-98609800D01*
X114814285Y-98609800D02*
X114861904Y-98562180D01*
X114861904Y-98562180D02*
X114909523Y-98466942D01*
X114909523Y-98466942D02*
X114909523Y-97657419D01*
X115814285Y-97990752D02*
X115814285Y-98657419D01*
X115576190Y-97609800D02*
X115338095Y-98324085D01*
X115338095Y-98324085D02*
X115957142Y-98324085D01*
D10*
X121223333Y-135634819D02*
X120890000Y-135158628D01*
X120651905Y-135634819D02*
X120651905Y-134634819D01*
X120651905Y-134634819D02*
X121032857Y-134634819D01*
X121032857Y-134634819D02*
X121128095Y-134682438D01*
X121128095Y-134682438D02*
X121175714Y-134730057D01*
X121175714Y-134730057D02*
X121223333Y-134825295D01*
X121223333Y-134825295D02*
X121223333Y-134968152D01*
X121223333Y-134968152D02*
X121175714Y-135063390D01*
X121175714Y-135063390D02*
X121128095Y-135111009D01*
X121128095Y-135111009D02*
X121032857Y-135158628D01*
X121032857Y-135158628D02*
X120651905Y-135158628D01*
X121604286Y-134730057D02*
X121651905Y-134682438D01*
X121651905Y-134682438D02*
X121747143Y-134634819D01*
X121747143Y-134634819D02*
X121985238Y-134634819D01*
X121985238Y-134634819D02*
X122080476Y-134682438D01*
X122080476Y-134682438D02*
X122128095Y-134730057D01*
X122128095Y-134730057D02*
X122175714Y-134825295D01*
X122175714Y-134825295D02*
X122175714Y-134920533D01*
X122175714Y-134920533D02*
X122128095Y-135063390D01*
X122128095Y-135063390D02*
X121556667Y-135634819D01*
X121556667Y-135634819D02*
X122175714Y-135634819D01*
D12*
X107786673Y-128562032D02*
X106840826Y-128562032D01*
X106840826Y-128562032D02*
X106729550Y-128617670D01*
X106729550Y-128617670D02*
X106673912Y-128673308D01*
X106673912Y-128673308D02*
X106618273Y-128784584D01*
X106618273Y-128784584D02*
X106618273Y-129007137D01*
X106618273Y-129007137D02*
X106673912Y-129118413D01*
X106673912Y-129118413D02*
X106729550Y-129174051D01*
X106729550Y-129174051D02*
X106840826Y-129229689D01*
X106840826Y-129229689D02*
X107786673Y-129229689D01*
X106618273Y-130398089D02*
X106618273Y-129730432D01*
X106618273Y-130064260D02*
X107786673Y-130064260D01*
X107786673Y-130064260D02*
X107619759Y-129952984D01*
X107619759Y-129952984D02*
X107508483Y-129841708D01*
X107508483Y-129841708D02*
X107452845Y-129730432D01*
D10*
X93616666Y-149304819D02*
X93616666Y-150019104D01*
X93616666Y-150019104D02*
X93569047Y-150161961D01*
X93569047Y-150161961D02*
X93473809Y-150257200D01*
X93473809Y-150257200D02*
X93330952Y-150304819D01*
X93330952Y-150304819D02*
X93235714Y-150304819D01*
X94616666Y-150304819D02*
X94045238Y-150304819D01*
X94330952Y-150304819D02*
X94330952Y-149304819D01*
X94330952Y-149304819D02*
X94235714Y-149447676D01*
X94235714Y-149447676D02*
X94140476Y-149542914D01*
X94140476Y-149542914D02*
X94045238Y-149590533D01*
X155465714Y-124049104D02*
X155941904Y-124049104D01*
X155370476Y-124334819D02*
X155703809Y-123334819D01*
X155703809Y-123334819D02*
X156037142Y-124334819D01*
X156894285Y-124334819D02*
X156322857Y-124334819D01*
X156608571Y-124334819D02*
X156608571Y-123334819D01*
X156608571Y-123334819D02*
X156513333Y-123477676D01*
X156513333Y-123477676D02*
X156418095Y-123572914D01*
X156418095Y-123572914D02*
X156322857Y-123620533D01*
X157441904Y-83785180D02*
X157441904Y-82975657D01*
X157441904Y-82975657D02*
X157394285Y-82880419D01*
X157394285Y-82880419D02*
X157346666Y-82832800D01*
X157346666Y-82832800D02*
X157251428Y-82785180D01*
X157251428Y-82785180D02*
X157060952Y-82785180D01*
X157060952Y-82785180D02*
X156965714Y-82832800D01*
X156965714Y-82832800D02*
X156918095Y-82880419D01*
X156918095Y-82880419D02*
X156870476Y-82975657D01*
X156870476Y-82975657D02*
X156870476Y-83785180D01*
X156441904Y-82832800D02*
X156299047Y-82785180D01*
X156299047Y-82785180D02*
X156060952Y-82785180D01*
X156060952Y-82785180D02*
X155965714Y-82832800D01*
X155965714Y-82832800D02*
X155918095Y-82880419D01*
X155918095Y-82880419D02*
X155870476Y-82975657D01*
X155870476Y-82975657D02*
X155870476Y-83070895D01*
X155870476Y-83070895D02*
X155918095Y-83166133D01*
X155918095Y-83166133D02*
X155965714Y-83213752D01*
X155965714Y-83213752D02*
X156060952Y-83261371D01*
X156060952Y-83261371D02*
X156251428Y-83308990D01*
X156251428Y-83308990D02*
X156346666Y-83356609D01*
X156346666Y-83356609D02*
X156394285Y-83404228D01*
X156394285Y-83404228D02*
X156441904Y-83499466D01*
X156441904Y-83499466D02*
X156441904Y-83594704D01*
X156441904Y-83594704D02*
X156394285Y-83689942D01*
X156394285Y-83689942D02*
X156346666Y-83737561D01*
X156346666Y-83737561D02*
X156251428Y-83785180D01*
X156251428Y-83785180D02*
X156013333Y-83785180D01*
X156013333Y-83785180D02*
X155870476Y-83737561D01*
X155108571Y-83308990D02*
X154965714Y-83261371D01*
X154965714Y-83261371D02*
X154918095Y-83213752D01*
X154918095Y-83213752D02*
X154870476Y-83118514D01*
X154870476Y-83118514D02*
X154870476Y-82975657D01*
X154870476Y-82975657D02*
X154918095Y-82880419D01*
X154918095Y-82880419D02*
X154965714Y-82832800D01*
X154965714Y-82832800D02*
X155060952Y-82785180D01*
X155060952Y-82785180D02*
X155441904Y-82785180D01*
X155441904Y-82785180D02*
X155441904Y-83785180D01*
X155441904Y-83785180D02*
X155108571Y-83785180D01*
X155108571Y-83785180D02*
X155013333Y-83737561D01*
X155013333Y-83737561D02*
X154965714Y-83689942D01*
X154965714Y-83689942D02*
X154918095Y-83594704D01*
X154918095Y-83594704D02*
X154918095Y-83499466D01*
X154918095Y-83499466D02*
X154965714Y-83404228D01*
X154965714Y-83404228D02*
X155013333Y-83356609D01*
X155013333Y-83356609D02*
X155108571Y-83308990D01*
X155108571Y-83308990D02*
X155441904Y-83308990D01*
X121223333Y-130134819D02*
X120890000Y-129658628D01*
X120651905Y-130134819D02*
X120651905Y-129134819D01*
X120651905Y-129134819D02*
X121032857Y-129134819D01*
X121032857Y-129134819D02*
X121128095Y-129182438D01*
X121128095Y-129182438D02*
X121175714Y-129230057D01*
X121175714Y-129230057D02*
X121223333Y-129325295D01*
X121223333Y-129325295D02*
X121223333Y-129468152D01*
X121223333Y-129468152D02*
X121175714Y-129563390D01*
X121175714Y-129563390D02*
X121128095Y-129611009D01*
X121128095Y-129611009D02*
X121032857Y-129658628D01*
X121032857Y-129658628D02*
X120651905Y-129658628D01*
X122175714Y-130134819D02*
X121604286Y-130134819D01*
X121890000Y-130134819D02*
X121890000Y-129134819D01*
X121890000Y-129134819D02*
X121794762Y-129277676D01*
X121794762Y-129277676D02*
X121699524Y-129372914D01*
X121699524Y-129372914D02*
X121604286Y-129420533D01*
X110566666Y-148904819D02*
X110566666Y-149619104D01*
X110566666Y-149619104D02*
X110519047Y-149761961D01*
X110519047Y-149761961D02*
X110423809Y-149857200D01*
X110423809Y-149857200D02*
X110280952Y-149904819D01*
X110280952Y-149904819D02*
X110185714Y-149904819D01*
X111519047Y-148904819D02*
X111042857Y-148904819D01*
X111042857Y-148904819D02*
X110995238Y-149381009D01*
X110995238Y-149381009D02*
X111042857Y-149333390D01*
X111042857Y-149333390D02*
X111138095Y-149285771D01*
X111138095Y-149285771D02*
X111376190Y-149285771D01*
X111376190Y-149285771D02*
X111471428Y-149333390D01*
X111471428Y-149333390D02*
X111519047Y-149381009D01*
X111519047Y-149381009D02*
X111566666Y-149476247D01*
X111566666Y-149476247D02*
X111566666Y-149714342D01*
X111566666Y-149714342D02*
X111519047Y-149809580D01*
X111519047Y-149809580D02*
X111471428Y-149857200D01*
X111471428Y-149857200D02*
X111376190Y-149904819D01*
X111376190Y-149904819D02*
X111138095Y-149904819D01*
X111138095Y-149904819D02*
X111042857Y-149857200D01*
X111042857Y-149857200D02*
X110995238Y-149809580D01*
X131516666Y-149104819D02*
X131516666Y-149819104D01*
X131516666Y-149819104D02*
X131469047Y-149961961D01*
X131469047Y-149961961D02*
X131373809Y-150057200D01*
X131373809Y-150057200D02*
X131230952Y-150104819D01*
X131230952Y-150104819D02*
X131135714Y-150104819D01*
X132421428Y-149438152D02*
X132421428Y-150104819D01*
X132183333Y-149057200D02*
X131945238Y-149771485D01*
X131945238Y-149771485D02*
X132564285Y-149771485D01*
X160704819Y-131583333D02*
X161419104Y-131583333D01*
X161419104Y-131583333D02*
X161561961Y-131630952D01*
X161561961Y-131630952D02*
X161657200Y-131726190D01*
X161657200Y-131726190D02*
X161704819Y-131869047D01*
X161704819Y-131869047D02*
X161704819Y-131964285D01*
X160800057Y-131154761D02*
X160752438Y-131107142D01*
X160752438Y-131107142D02*
X160704819Y-131011904D01*
X160704819Y-131011904D02*
X160704819Y-130773809D01*
X160704819Y-130773809D02*
X160752438Y-130678571D01*
X160752438Y-130678571D02*
X160800057Y-130630952D01*
X160800057Y-130630952D02*
X160895295Y-130583333D01*
X160895295Y-130583333D02*
X160990533Y-130583333D01*
X160990533Y-130583333D02*
X161133390Y-130630952D01*
X161133390Y-130630952D02*
X161704819Y-131202380D01*
X161704819Y-131202380D02*
X161704819Y-130583333D01*
D11*
X143112095Y-135715519D02*
X143112095Y-136525042D01*
X143112095Y-136525042D02*
X143159714Y-136620280D01*
X143159714Y-136620280D02*
X143207333Y-136667900D01*
X143207333Y-136667900D02*
X143302571Y-136715519D01*
X143302571Y-136715519D02*
X143493047Y-136715519D01*
X143493047Y-136715519D02*
X143588285Y-136667900D01*
X143588285Y-136667900D02*
X143635904Y-136620280D01*
X143635904Y-136620280D02*
X143683523Y-136525042D01*
X143683523Y-136525042D02*
X143683523Y-135715519D01*
X144112095Y-135810757D02*
X144159714Y-135763138D01*
X144159714Y-135763138D02*
X144254952Y-135715519D01*
X144254952Y-135715519D02*
X144493047Y-135715519D01*
X144493047Y-135715519D02*
X144588285Y-135763138D01*
X144588285Y-135763138D02*
X144635904Y-135810757D01*
X144635904Y-135810757D02*
X144683523Y-135905995D01*
X144683523Y-135905995D02*
X144683523Y-136001233D01*
X144683523Y-136001233D02*
X144635904Y-136144090D01*
X144635904Y-136144090D02*
X144064476Y-136715519D01*
X144064476Y-136715519D02*
X144683523Y-136715519D01*
D13*
%TO.C,J6*%
X162060000Y-157110000D02*
X162060000Y-151140000D01*
X162060000Y-151140000D02*
X146940000Y-151140000D01*
X162050000Y-153400000D02*
X161300000Y-153400000D01*
X162050000Y-151900000D02*
X162050000Y-151150000D01*
X162050000Y-151150000D02*
X160250000Y-151150000D01*
X161300000Y-156350000D02*
X154500000Y-156350000D01*
X161300000Y-153400000D02*
X161300000Y-156350000D01*
X160250000Y-151900000D02*
X162050000Y-151900000D01*
X160250000Y-151150000D02*
X160250000Y-151900000D01*
X158750000Y-151900000D02*
X158750000Y-151150000D01*
X158750000Y-151150000D02*
X150250000Y-151150000D01*
X150250000Y-151900000D02*
X158750000Y-151900000D01*
X150250000Y-151150000D02*
X150250000Y-151900000D01*
X148750000Y-151900000D02*
X148750000Y-151150000D01*
X148750000Y-151150000D02*
X146950000Y-151150000D01*
X147900000Y-150850000D02*
X146650000Y-150850000D01*
X147700000Y-156350000D02*
X154500000Y-156350000D01*
X147700000Y-153400000D02*
X147700000Y-156350000D01*
X146950000Y-153400000D02*
X147700000Y-153400000D01*
X146950000Y-151900000D02*
X148750000Y-151900000D01*
X146950000Y-151150000D02*
X146950000Y-151900000D01*
X146940000Y-157110000D02*
X162060000Y-157110000D01*
X146940000Y-151140000D02*
X146940000Y-157110000D01*
X146650000Y-150850000D02*
X146650000Y-152100000D01*
%TO.C,R3*%
X118520000Y-142600000D02*
X119470000Y-142600000D01*
X119470000Y-141680000D02*
X119470000Y-143520000D01*
X119470000Y-143520000D02*
X123310000Y-143520000D01*
X123310000Y-141680000D02*
X119470000Y-141680000D01*
X123310000Y-143520000D02*
X123310000Y-141680000D01*
X124260000Y-142600000D02*
X123310000Y-142600000D01*
%TO.C,J3*%
X162050000Y-147100000D02*
X162050000Y-148350000D01*
X162050000Y-148350000D02*
X163300000Y-148350000D01*
X162340000Y-140440000D02*
X162340000Y-148060000D01*
X162340000Y-148060000D02*
X168310000Y-148060000D01*
X162350000Y-140450000D02*
X162350000Y-142250000D01*
X162350000Y-142250000D02*
X163100000Y-142250000D01*
X162350000Y-143750000D02*
X162350000Y-144750000D01*
X162350000Y-144750000D02*
X163100000Y-144750000D01*
X162350000Y-146250000D02*
X162350000Y-148050000D01*
X162350000Y-148050000D02*
X163100000Y-148050000D01*
X163100000Y-140450000D02*
X162350000Y-140450000D01*
X163100000Y-142250000D02*
X163100000Y-140450000D01*
X163100000Y-143750000D02*
X162350000Y-143750000D01*
X163100000Y-144750000D02*
X163100000Y-143750000D01*
X163100000Y-146250000D02*
X162350000Y-146250000D01*
X163100000Y-148050000D02*
X163100000Y-146250000D01*
X164600000Y-140450000D02*
X164600000Y-141200000D01*
X164600000Y-141200000D02*
X167550000Y-141200000D01*
X164600000Y-147300000D02*
X167550000Y-147300000D01*
X164600000Y-148050000D02*
X164600000Y-147300000D01*
X167550000Y-141200000D02*
X167550000Y-144250000D01*
X167550000Y-147300000D02*
X167550000Y-144250000D01*
X168310000Y-140440000D02*
X162340000Y-140440000D01*
X168310000Y-148060000D02*
X168310000Y-140440000D01*
%TO.C,U4*%
D11*
X88600000Y-77000000D02*
X141600000Y-77000000D01*
X141600000Y-122400000D01*
X88600000Y-122400000D01*
X88600000Y-77000000D01*
D13*
%TO.C,R2*%
X118520000Y-137100000D02*
X119470000Y-137100000D01*
X119470000Y-136180000D02*
X119470000Y-138020000D01*
X119470000Y-138020000D02*
X123310000Y-138020000D01*
X123310000Y-136180000D02*
X119470000Y-136180000D01*
X123310000Y-138020000D02*
X123310000Y-136180000D01*
X124260000Y-137100000D02*
X123310000Y-137100000D01*
D14*
%TO.C,U1*%
X106030000Y-148777000D02*
X85710000Y-148777000D01*
X106030000Y-128457000D02*
X106030000Y-148777000D01*
X85710000Y-148777000D02*
X85710000Y-128457000D01*
X85710000Y-128457000D02*
X106030000Y-128457000D01*
D15*
X104860000Y-127817000D02*
G75*
G02*
X104660000Y-127817000I-100000J0D01*
G01*
X104660000Y-127817000D02*
G75*
G02*
X104860000Y-127817000I100000J0D01*
G01*
D13*
%TO.C,J1*%
X89850000Y-150650000D02*
X89850000Y-151900000D01*
X90140000Y-150940000D02*
X90140000Y-156910000D01*
X90140000Y-156910000D02*
X97760000Y-156910000D01*
X90150000Y-150950000D02*
X90150000Y-151700000D01*
X90150000Y-151700000D02*
X91950000Y-151700000D01*
X90150000Y-153200000D02*
X90900000Y-153200000D01*
X90900000Y-153200000D02*
X90900000Y-156150000D01*
X90900000Y-156150000D02*
X93950000Y-156150000D01*
X91100000Y-150650000D02*
X89850000Y-150650000D01*
X91950000Y-150950000D02*
X90150000Y-150950000D01*
X91950000Y-151700000D02*
X91950000Y-150950000D01*
X93450000Y-150950000D02*
X93450000Y-151700000D01*
X93450000Y-151700000D02*
X94450000Y-151700000D01*
X94450000Y-150950000D02*
X93450000Y-150950000D01*
X94450000Y-151700000D02*
X94450000Y-150950000D01*
X95950000Y-150950000D02*
X95950000Y-151700000D01*
X95950000Y-151700000D02*
X97750000Y-151700000D01*
X97000000Y-153200000D02*
X97000000Y-156150000D01*
X97000000Y-156150000D02*
X93950000Y-156150000D01*
X97750000Y-150950000D02*
X95950000Y-150950000D01*
X97750000Y-151700000D02*
X97750000Y-150950000D01*
X97750000Y-153200000D02*
X97000000Y-153200000D01*
X97760000Y-150940000D02*
X90140000Y-150940000D01*
X97760000Y-156910000D02*
X97760000Y-150940000D01*
%TO.C,A1*%
X147160000Y-79300000D02*
X147160000Y-122740000D01*
X147160000Y-79300000D02*
X152240000Y-79300000D01*
X147160000Y-122740000D02*
X165200000Y-122740000D01*
X149830000Y-81970000D02*
X147160000Y-81970000D01*
X149830000Y-120070000D02*
X147160000Y-120070000D01*
X149830000Y-120070000D02*
X149830000Y-81970000D01*
X152240000Y-76760000D02*
X160120000Y-76760000D01*
X152240000Y-87180000D02*
X152240000Y-76760000D01*
X160120000Y-76760000D02*
X160120000Y-87180000D01*
X160120000Y-87180000D02*
X152240000Y-87180000D01*
X162530000Y-81970000D02*
X165200000Y-81970000D01*
X162530000Y-117530000D02*
X162530000Y-81970000D01*
X162530000Y-117530000D02*
X162530000Y-120070000D01*
X162530000Y-117530000D02*
X165200000Y-117530000D01*
X162530000Y-120070000D02*
X165200000Y-120070000D01*
X165200000Y-79300000D02*
X160120000Y-79300000D01*
X165200000Y-117530000D02*
X165200000Y-79300000D01*
X165200000Y-122740000D02*
X165200000Y-120070000D01*
%TO.C,R1*%
X118520000Y-131600000D02*
X119470000Y-131600000D01*
X119470000Y-130680000D02*
X119470000Y-132520000D01*
X119470000Y-132520000D02*
X123310000Y-132520000D01*
X123310000Y-130680000D02*
X119470000Y-130680000D01*
X123310000Y-132520000D02*
X123310000Y-130680000D01*
X124260000Y-131600000D02*
X123310000Y-131600000D01*
%TO.C,J5*%
X105550000Y-150250000D02*
X105550000Y-151500000D01*
X105840000Y-150540000D02*
X105840000Y-156510000D01*
X105840000Y-156510000D02*
X115960000Y-156510000D01*
X105850000Y-150550000D02*
X105850000Y-151300000D01*
X105850000Y-151300000D02*
X107650000Y-151300000D01*
X105850000Y-152800000D02*
X106600000Y-152800000D01*
X106600000Y-152800000D02*
X106600000Y-155750000D01*
X106600000Y-155750000D02*
X110900000Y-155750000D01*
X106800000Y-150250000D02*
X105550000Y-150250000D01*
X107650000Y-150550000D02*
X105850000Y-150550000D01*
X107650000Y-151300000D02*
X107650000Y-150550000D01*
X109150000Y-150550000D02*
X109150000Y-151300000D01*
X109150000Y-151300000D02*
X112650000Y-151300000D01*
X112650000Y-150550000D02*
X109150000Y-150550000D01*
X112650000Y-151300000D02*
X112650000Y-150550000D01*
X114150000Y-150550000D02*
X114150000Y-151300000D01*
X114150000Y-151300000D02*
X115950000Y-151300000D01*
X115200000Y-152800000D02*
X115200000Y-155750000D01*
X115200000Y-155750000D02*
X110900000Y-155750000D01*
X115950000Y-150550000D02*
X114150000Y-150550000D01*
X115950000Y-151300000D02*
X115950000Y-150550000D01*
X115950000Y-152800000D02*
X115200000Y-152800000D01*
X115960000Y-150540000D02*
X105840000Y-150540000D01*
X115960000Y-156510000D02*
X115960000Y-150540000D01*
%TO.C,J4*%
X125250000Y-150450000D02*
X125250000Y-151700000D01*
X125540000Y-150740000D02*
X125540000Y-156710000D01*
X125540000Y-156710000D02*
X138160000Y-156710000D01*
X125550000Y-150750000D02*
X125550000Y-151500000D01*
X125550000Y-151500000D02*
X127350000Y-151500000D01*
X125550000Y-153000000D02*
X126300000Y-153000000D01*
X126300000Y-153000000D02*
X126300000Y-155950000D01*
X126300000Y-155950000D02*
X131850000Y-155950000D01*
X126500000Y-150450000D02*
X125250000Y-150450000D01*
X127350000Y-150750000D02*
X125550000Y-150750000D01*
X127350000Y-151500000D02*
X127350000Y-150750000D01*
X128850000Y-150750000D02*
X128850000Y-151500000D01*
X128850000Y-151500000D02*
X134850000Y-151500000D01*
X134850000Y-150750000D02*
X128850000Y-150750000D01*
X134850000Y-151500000D02*
X134850000Y-150750000D01*
X136350000Y-150750000D02*
X136350000Y-151500000D01*
X136350000Y-151500000D02*
X138150000Y-151500000D01*
X137400000Y-153000000D02*
X137400000Y-155950000D01*
X137400000Y-155950000D02*
X131850000Y-155950000D01*
X138150000Y-150750000D02*
X136350000Y-150750000D01*
X138150000Y-151500000D02*
X138150000Y-150750000D01*
X138150000Y-153000000D02*
X137400000Y-153000000D01*
X138160000Y-150740000D02*
X125540000Y-150740000D01*
X138160000Y-156710000D02*
X138160000Y-150740000D01*
%TO.C,J2*%
X162050000Y-135350000D02*
X163300000Y-135350000D01*
X162340000Y-135060000D02*
X168310000Y-135060000D01*
X168310000Y-135060000D02*
X168310000Y-127440000D01*
X162350000Y-135050000D02*
X163100000Y-135050000D01*
X163100000Y-135050000D02*
X163100000Y-133250000D01*
X164600000Y-135050000D02*
X164600000Y-134300000D01*
X164600000Y-134300000D02*
X167550000Y-134300000D01*
X167550000Y-134300000D02*
X167550000Y-131250000D01*
X162050000Y-134100000D02*
X162050000Y-135350000D01*
X162350000Y-133250000D02*
X162350000Y-135050000D01*
X163100000Y-133250000D02*
X162350000Y-133250000D01*
X162350000Y-131750000D02*
X163100000Y-131750000D01*
X163100000Y-131750000D02*
X163100000Y-130750000D01*
X162350000Y-130750000D02*
X162350000Y-131750000D01*
X163100000Y-130750000D02*
X162350000Y-130750000D01*
X162350000Y-129250000D02*
X163100000Y-129250000D01*
X163100000Y-129250000D02*
X163100000Y-127450000D01*
X164600000Y-128200000D02*
X167550000Y-128200000D01*
X167550000Y-128200000D02*
X167550000Y-131250000D01*
X162350000Y-127450000D02*
X162350000Y-129250000D01*
X163100000Y-127450000D02*
X162350000Y-127450000D01*
X164600000Y-127450000D02*
X164600000Y-128200000D01*
X162340000Y-127440000D02*
X162340000Y-135060000D01*
X168310000Y-127440000D02*
X162340000Y-127440000D01*
%TO.C,U2*%
D11*
X136000000Y-131000000D02*
X153400000Y-131000000D01*
X153400000Y-142800000D01*
X136000000Y-142800000D01*
X136000000Y-131000000D01*
%TD*%
M02*
