M48
; DRILL file {KiCad 9.0.1} date 2026-07-24T08:52:08-0400
; FORMAT={-:-/ absolute / metric / decimal}
; #@! TF.CreationDate,2026-07-24T08:52:08-04:00
; #@! TF.GenerationSoftware,Kicad,Pcbnew,9.0.1
; #@! TF.FileFunction,Plated,1,2,PTH
FMAT,2
METRIC
; #@! TA.AperFunction,Plated,PTH,ViaDrill
T1C0.300
; #@! TA.AperFunction,Plated,PTH,ComponentDrill
T2C0.700
; #@! TA.AperFunction,Plated,PTH,ComponentDrill
T3C0.800
; #@! TA.AperFunction,Plated,PTH,ComponentDrill
T4C0.950
; #@! TA.AperFunction,Plated,PTH,ComponentDrill
T5C1.000
; #@! TA.AperFunction,Plated,PTH,ComponentDrill
T6C1.200
; #@! TA.AperFunction,Plated,PTH,ComponentDrill
T7C1.800
%
G90
G05
T1
X120.75Y-158.7
X121.25Y-126.25
X122.0Y-141.0
X124.75Y-120.25
X125.5Y-125.0
X131.25Y-145.25
X131.75Y-109.0
X137.25Y-111.25
X139.5Y-150.0
X144.0Y-100.5
X144.799Y-104.451
X152.0Y-129.75
X157.25Y-130.5
X157.75Y-112.5
X158.0Y-124.75
X159.75Y-140.5
X162.5Y-140.75
X164.5Y-126.25
X165.75Y-147.25
T2
X121.96Y-131.5
X121.96Y-137.0
X121.96Y-142.5
X127.04Y-131.5
X127.04Y-137.0
X127.04Y-142.5
T3
X93.46Y-128.483
X93.46Y-146.517
X96.0Y-128.483
X96.0Y-146.517
X98.54Y-128.483
X98.54Y-146.517
X101.08Y-128.483
X101.08Y-146.517
X103.62Y-128.483
X103.62Y-146.517
X106.16Y-128.483
X106.16Y-146.517
X108.7Y-128.483
X108.7Y-146.517
X111.24Y-128.483
X111.24Y-146.517
T4
X125.0Y-154.0
X127.5Y-154.0
X130.0Y-154.0
X132.5Y-154.0
X135.0Y-154.0
X143.5Y-154.0
X146.0Y-154.0
X148.5Y-154.0
X151.0Y-154.0
X160.0Y-154.0
X162.5Y-154.0
X165.0Y-154.0
T5
X96.5Y-154.0
X99.0Y-154.0
X111.5Y-154.0
X114.0Y-154.0
X150.0Y-83.22
X150.0Y-85.76
X150.0Y-88.3
X150.0Y-90.84
X150.0Y-93.38
X150.0Y-95.92
X150.0Y-98.46
X150.0Y-101.0
X150.0Y-103.54
X150.0Y-106.08
X150.0Y-108.62
X150.0Y-111.16
X150.0Y-113.7
X150.0Y-116.24
X150.0Y-118.78
X163.0Y-133.5
X163.0Y-136.0
X165.24Y-83.22
X165.24Y-85.76
X165.24Y-88.3
X165.24Y-90.84
X165.24Y-93.38
X165.24Y-95.92
X165.24Y-98.46
X165.24Y-101.0
X165.24Y-103.54
X165.24Y-106.08
X165.24Y-108.62
X165.24Y-111.16
X165.24Y-113.7
X165.24Y-116.24
X165.24Y-118.78
T6
X135.702Y-131.718
X135.702Y-138.318
X148.302Y-131.718
X148.302Y-138.318
T7
X101.3Y-80.2
X108.6Y-80.2
X121.2Y-80.2
X121.2Y-120.0
X128.5Y-80.2
X128.5Y-120.0
T5
G00X103.4Y-119.6
M15
G01X103.4Y-120.4
M16
G05
G00X105.8Y-119.6
M15
G01X105.8Y-120.4
M16
G05
G00X108.2Y-119.6
M15
G01X108.2Y-120.4
M16
G05
M30
