%TF.GenerationSoftware,KiCad,Pcbnew,9.0.1*%
%TF.CreationDate,2026-07-24T08:51:14-04:00*%
%TF.ProjectId,Metronome,4d657472-6f6e-46f6-9d65-2e6b69636164,rev?*%
%TF.SameCoordinates,Original*%
%TF.FileFunction,Copper,L2,Bot*%
%TF.FilePolarity,Positive*%
%FSLAX46Y46*%
G04 Gerber Fmt 4.6, Leading zero omitted, Abs format (unit mm)*
G04 Created by KiCad (PCBNEW 9.0.1) date 2026-07-24 08:51:14*
%MOMM*%
%LPD*%
G01*
G04 APERTURE LIST*
G04 Aperture macros list*
%AMRoundRect*
0 Rectangle with rounded corners*
0 $1 Rounding radius*
0 $2 $3 $4 $5 $6 $7 $8 $9 X,Y pos of 4 corners*
0 Add a 4 corners polygon primitive as box body*
4,1,4,$2,$3,$4,$5,$6,$7,$8,$9,$2,$3,0*
0 Add four circle primitives for the rounded corners*
1,1,$1+$1,$2,$3*
1,1,$1+$1,$4,$5*
1,1,$1+$1,$6,$7*
1,1,$1+$1,$8,$9*
0 Add four rect primitives between the rounded corners*
20,1,$1+$1,$2,$3,$4,$5,0*
20,1,$1+$1,$4,$5,$6,$7,0*
20,1,$1+$1,$6,$7,$8,$9,0*
20,1,$1+$1,$8,$9,$2,$3,0*%
G04 Aperture macros list end*
%TA.AperFunction,ComponentPad*%
%ADD10C,1.400000*%
%TD*%
%TA.AperFunction,ComponentPad*%
%ADD11O,1.400000X1.400000*%
%TD*%
%TA.AperFunction,ComponentPad*%
%ADD12RoundRect,0.250000X0.750000X-0.600000X0.750000X0.600000X-0.750000X0.600000X-0.750000X-0.600000X0*%
%TD*%
%TA.AperFunction,ComponentPad*%
%ADD13O,2.000000X1.700000*%
%TD*%
%TA.AperFunction,ComponentPad*%
%ADD14O,1.400000X2.500000*%
%TD*%
%TA.AperFunction,ComponentPad*%
%ADD15C,2.500000*%
%TD*%
%TA.AperFunction,ComponentPad*%
%ADD16RoundRect,0.250000X-0.600000X-0.725000X0.600000X-0.725000X0.600000X0.725000X-0.600000X0.725000X0*%
%TD*%
%TA.AperFunction,ComponentPad*%
%ADD17O,1.700000X1.950000*%
%TD*%
%TA.AperFunction,ComponentPad*%
%ADD18R,1.308000X1.308000*%
%TD*%
%TA.AperFunction,ComponentPad*%
%ADD19C,1.308000*%
%TD*%
%TA.AperFunction,ComponentPad*%
%ADD20RoundRect,0.250000X-0.600000X-0.750000X0.600000X-0.750000X0.600000X0.750000X-0.600000X0.750000X0*%
%TD*%
%TA.AperFunction,ComponentPad*%
%ADD21O,1.700000X2.000000*%
%TD*%
%TA.AperFunction,ComponentPad*%
%ADD22R,1.600000X1.600000*%
%TD*%
%TA.AperFunction,ComponentPad*%
%ADD23O,1.600000X1.600000*%
%TD*%
%TA.AperFunction,ComponentPad*%
%ADD24C,1.800000*%
%TD*%
%TA.AperFunction,ViaPad*%
%ADD25C,0.600000*%
%TD*%
%TA.AperFunction,Conductor*%
%ADD26C,0.200000*%
%TD*%
G04 APERTURE END LIST*
D10*
%TO.P,R3,1*%
%TO.N,Net-(A1-A1)*%
X121960000Y-142500000D03*
D11*
%TO.P,R3,2*%
%TO.N,GND*%
X127040000Y-142500000D03*
%TD*%
D12*
%TO.P,J3,1,SPK1*%
%TO.N,Net-(J3-SPK1)*%
X163000000Y-136000000D03*
D13*
%TO.P,J3,2,SPK2*%
%TO.N,Net-(J3-SPK2)*%
X163000000Y-133500000D03*
%TD*%
D14*
%TO.P,U4,1,L*%
%TO.N,unconnected-(U4-L-Pad1)*%
X103400000Y-120000000D03*
%TO.P,U4,2,P1*%
%TO.N,GND*%
X105800000Y-120000000D03*
%TO.P,U4,3,R*%
%TO.N,Net-(U1-SPK2)*%
X108200000Y-120000000D03*
D15*
%TO.P,U4,4,GND*%
%TO.N,GND*%
X121200000Y-120000000D03*
%TO.P,U4,5,VCC*%
%TO.N,+9V*%
X128500000Y-120000000D03*
%TO.P,U4,6,L+*%
%TO.N,unconnected-(U4-L+-Pad6)*%
X101300000Y-80200000D03*
%TO.P,U4,7,L-*%
%TO.N,unconnected-(U4-L--Pad7)*%
X108600000Y-80200000D03*
%TO.P,U4,8,R+*%
%TO.N,Net-(J3-SPK2)*%
X121200000Y-80200000D03*
%TO.P,U4,9,R-*%
%TO.N,Net-(J3-SPK1)*%
X128500000Y-80200000D03*
%TD*%
D16*
%TO.P,J6,1,A*%
%TO.N,Net-(A1-D2)*%
X125000000Y-154000000D03*
D17*
%TO.P,J6,2,B*%
%TO.N,GND*%
X127500000Y-154000000D03*
%TO.P,J6,3,C*%
%TO.N,Net-(A1-D3)*%
X130000000Y-154000000D03*
%TO.P,J6,4,S1*%
%TO.N,Net-(A1-D9)*%
X132500000Y-154000000D03*
%TO.P,J6,5,S2*%
%TO.N,GND*%
X135000000Y-154000000D03*
%TD*%
D10*
%TO.P,R2,1*%
%TO.N,Net-(A1-A1)*%
X121960000Y-137000000D03*
D11*
%TO.P,R2,2*%
%TO.N,+9V*%
X127040000Y-137000000D03*
%TD*%
D18*
%TO.P,U1,1,VCC*%
%TO.N,+5V*%
X93460000Y-146517000D03*
D19*
%TO.P,U1,2,RX*%
%TO.N,Net-(U1-RX)*%
X96000000Y-146517000D03*
%TO.P,U1,3,TX*%
%TO.N,Net-(A1-D11)*%
X98540000Y-146517000D03*
%TO.P,U1,4,DAC_R*%
%TO.N,unconnected-(U1-DAC_R-Pad4)*%
X101080000Y-146517000D03*
%TO.P,U1,5,DAC_L*%
%TO.N,unconnected-(U1-DAC_L-Pad5)*%
X103620000Y-146517000D03*
%TO.P,U1,6,SPK1*%
%TO.N,unconnected-(U1-SPK1-Pad6)*%
X106160000Y-146517000D03*
%TO.P,U1,7,GND*%
%TO.N,GND*%
X108700000Y-146517000D03*
%TO.P,U1,8,SPK2*%
%TO.N,Net-(U1-SPK2)*%
X111240000Y-146517000D03*
%TO.P,U1,9,IO1*%
%TO.N,unconnected-(U1-IO1-Pad9)*%
X111240000Y-128483000D03*
%TO.P,U1,10,GND*%
%TO.N,GND*%
X108700000Y-128483000D03*
%TO.P,U1,11,IO2*%
%TO.N,unconnected-(U1-IO2-Pad11)*%
X106160000Y-128483000D03*
%TO.P,U1,12,ADKEY1*%
%TO.N,unconnected-(U1-ADKEY1-Pad12)*%
X103620000Y-128483000D03*
%TO.P,U1,13,ADKEY2*%
%TO.N,unconnected-(U1-ADKEY2-Pad13)*%
X101080000Y-128483000D03*
%TO.P,U1,14,USB+*%
%TO.N,unconnected-(U1-USB+-Pad14)*%
X98540000Y-128483000D03*
%TO.P,U1,15,USB-*%
%TO.N,unconnected-(U1-USB--Pad15)*%
X96000000Y-128483000D03*
%TO.P,U1,16,BUSY*%
%TO.N,/A0{slash}BUSY*%
X93460000Y-128483000D03*
%TD*%
D20*
%TO.P,J1,1,9V+*%
%TO.N,Net-(J1-9V+)*%
X96500000Y-154000000D03*
D21*
%TO.P,J1,2,9V-*%
%TO.N,GND*%
X99000000Y-154000000D03*
%TD*%
D22*
%TO.P,A1,1,D1/TX*%
%TO.N,unconnected-(A1-D1{slash}TX-Pad1)*%
X165240000Y-118780000D03*
D23*
%TO.P,A1,2,D0/RX*%
%TO.N,unconnected-(A1-D0{slash}RX-Pad2)*%
X165240000Y-116240000D03*
%TO.P,A1,3,~{RESET}*%
%TO.N,unconnected-(A1-~{RESET}-Pad3)*%
X165240000Y-113700000D03*
%TO.P,A1,4,GND*%
%TO.N,unconnected-(A1-GND-Pad4)*%
X165240000Y-111160000D03*
%TO.P,A1,5,D2*%
%TO.N,Net-(A1-D2)*%
X165240000Y-108620000D03*
%TO.P,A1,6,D3*%
%TO.N,Net-(A1-D3)*%
X165240000Y-106080000D03*
%TO.P,A1,7,D4*%
%TO.N,unconnected-(A1-D4-Pad7)*%
X165240000Y-103540000D03*
%TO.P,A1,8,D5*%
%TO.N,unconnected-(A1-D5-Pad8)*%
X165240000Y-101000000D03*
%TO.P,A1,9,D6*%
%TO.N,unconnected-(A1-D6-Pad9)*%
X165240000Y-98460000D03*
%TO.P,A1,10,D7*%
%TO.N,unconnected-(A1-D7-Pad10)*%
X165240000Y-95920000D03*
%TO.P,A1,11,D8*%
%TO.N,unconnected-(A1-D8-Pad11)*%
X165240000Y-93380000D03*
%TO.P,A1,12,D9*%
%TO.N,Net-(A1-D9)*%
X165240000Y-90840000D03*
%TO.P,A1,13,D10*%
%TO.N,unconnected-(A1-D10-Pad13)*%
X165240000Y-88300000D03*
%TO.P,A1,14,D11*%
%TO.N,Net-(A1-D11)*%
X165240000Y-85760000D03*
%TO.P,A1,15,D12*%
%TO.N,Net-(A1-D12)*%
X165240000Y-83220000D03*
%TO.P,A1,16,D13*%
%TO.N,unconnected-(A1-D13-Pad16)*%
X150000000Y-83220000D03*
%TO.P,A1,17,3V3*%
%TO.N,unconnected-(A1-3V3-Pad17)*%
X150000000Y-85760000D03*
%TO.P,A1,18,AREF*%
%TO.N,unconnected-(A1-AREF-Pad18)*%
X150000000Y-88300000D03*
%TO.P,A1,19,A0*%
%TO.N,/A0{slash}BUSY*%
X150000000Y-90840000D03*
%TO.P,A1,20,A1*%
%TO.N,Net-(A1-A1)*%
X150000000Y-93380000D03*
%TO.P,A1,21,A2*%
%TO.N,Net-(A1-A2)*%
X150000000Y-95920000D03*
%TO.P,A1,22,A3*%
%TO.N,unconnected-(A1-A3-Pad22)*%
X150000000Y-98460000D03*
%TO.P,A1,23,A4*%
%TO.N,Net-(A1-A4)*%
X150000000Y-101000000D03*
%TO.P,A1,24,A5*%
%TO.N,Net-(A1-A5)*%
X150000000Y-103540000D03*
%TO.P,A1,25,A6*%
%TO.N,unconnected-(A1-A6-Pad25)*%
X150000000Y-106080000D03*
%TO.P,A1,26,A7*%
%TO.N,unconnected-(A1-A7-Pad26)*%
X150000000Y-108620000D03*
%TO.P,A1,27,+5V*%
%TO.N,+5V*%
X150000000Y-111160000D03*
%TO.P,A1,28,~{RESET}*%
%TO.N,unconnected-(A1-~{RESET}-Pad28)*%
X150000000Y-113700000D03*
%TO.P,A1,29,GND*%
%TO.N,unconnected-(A1-GND-Pad29)*%
X150000000Y-116240000D03*
%TO.P,A1,30,VIN*%
%TO.N,unconnected-(A1-VIN-Pad30)*%
X150000000Y-118780000D03*
%TD*%
D10*
%TO.P,R1,1*%
%TO.N,Net-(A1-D12)*%
X121960000Y-131500000D03*
D11*
%TO.P,R1,2*%
%TO.N,Net-(U1-RX)*%
X127040000Y-131500000D03*
%TD*%
D16*
%TO.P,J5,1,Pin_1*%
%TO.N,GND*%
X160000000Y-154000000D03*
D17*
%TO.P,J5,2,Pin_2*%
%TO.N,Net-(A1-A2)*%
X162500000Y-154000000D03*
%TO.P,J5,3,Pin_3*%
%TO.N,+5V*%
X165000000Y-154000000D03*
%TD*%
D16*
%TO.P,J4,1,SDA*%
%TO.N,Net-(A1-A4)*%
X143500000Y-154000000D03*
D17*
%TO.P,J4,2,SCL*%
%TO.N,Net-(A1-A5)*%
X146000000Y-154000000D03*
%TO.P,J4,3,+5V*%
%TO.N,+5V*%
X148500000Y-154000000D03*
%TO.P,J4,4,GND*%
%TO.N,GND*%
X151000000Y-154000000D03*
%TD*%
D20*
%TO.P,J2,1,S1*%
%TO.N,+9V*%
X111500000Y-154000000D03*
D21*
%TO.P,J2,2,S2*%
%TO.N,Net-(J1-9V+)*%
X114000000Y-154000000D03*
%TD*%
D24*
%TO.P,U2,1,IN+*%
%TO.N,+9V*%
X135702200Y-138318100D03*
%TO.P,U2,2,IN-*%
%TO.N,GND*%
X135702200Y-131718100D03*
%TO.P,U2,3,OUT+*%
%TO.N,+5V*%
X148302200Y-138318100D03*
%TO.P,U2,4,OUT-*%
%TO.N,GND*%
X148302200Y-131718100D03*
%TD*%
D25*
%TO.N,Net-(A1-D2)*%
X164500000Y-126250000D03*
X157250000Y-130500000D03*
X158000000Y-124750000D03*
%TO.N,Net-(A1-A1)*%
X122000000Y-141000000D03*
X125500000Y-125000000D03*
%TO.N,Net-(A1-D9)*%
X139500000Y-150000000D03*
X165750000Y-147250000D03*
%TO.N,Net-(A1-D11)*%
X124750000Y-120250000D03*
X137250000Y-111250000D03*
X144799265Y-104450735D03*
%TO.N,Net-(A1-A5)*%
X159750000Y-140500000D03*
%TO.N,+5V*%
X120750000Y-158700000D03*
%TO.N,Net-(A1-D3)*%
X157750000Y-112500000D03*
X152000000Y-129750000D03*
%TO.N,Net-(A1-A2)*%
X162500000Y-140750000D03*
%TO.N,Net-(A1-D12)*%
X131750000Y-109000000D03*
X144000000Y-100500000D03*
%TO.N,GND*%
X131250000Y-145250000D03*
X121250000Y-126250000D03*
%TD*%
D26*
%TO.N,Net-(A1-D2)*%
X166620000Y-110000000D02*
X165240000Y-108620000D01*
X157250000Y-125500000D02*
X158000000Y-124750000D01*
X168250000Y-122500000D02*
X168250000Y-111500000D01*
X166750000Y-110000000D02*
X166620000Y-110000000D01*
X164500000Y-126250000D02*
X168250000Y-122500000D01*
X168250000Y-111500000D02*
X166750000Y-110000000D01*
X157250000Y-130500000D02*
X157250000Y-125500000D01*
%TO.N,Net-(A1-A1)*%
X125500000Y-125000000D02*
X125500000Y-114400057D01*
X122000000Y-141000000D02*
X121960000Y-140960000D01*
X146520057Y-93380000D02*
X150000000Y-93380000D01*
X121960000Y-140960000D02*
X121960000Y-137000000D01*
X125500000Y-114400057D02*
X146520057Y-93380000D01*
%TO.N,Net-(A1-D9)*%
X142250000Y-147250000D02*
X165750000Y-147250000D01*
X139500000Y-150000000D02*
X142250000Y-147250000D01*
%TO.N,Net-(A1-D11)*%
X124750000Y-120250000D02*
X100000000Y-145000000D01*
X138000000Y-111250000D02*
X137250000Y-111250000D01*
X144799265Y-104450735D02*
X138000000Y-111250000D01*
X100000000Y-145057000D02*
X98540000Y-146517000D01*
X100000000Y-145000000D02*
X100000000Y-145057000D01*
%TO.N,Net-(A1-A5)*%
X159750000Y-140500000D02*
X159750000Y-113000000D01*
X150290000Y-103540000D02*
X150000000Y-103540000D01*
X159750000Y-113000000D02*
X150290000Y-103540000D01*
%TO.N,+5V*%
X148302200Y-138318100D02*
X151101000Y-135519300D01*
X151101000Y-135519300D02*
X151101000Y-112261000D01*
X143800000Y-158700000D02*
X148500000Y-154000000D01*
X151101000Y-112261000D02*
X150000000Y-111160000D01*
X120750000Y-158700000D02*
X143800000Y-158700000D01*
%TO.N,Net-(A1-D3)*%
X152000000Y-129750000D02*
X152000000Y-118250000D01*
X152000000Y-118250000D02*
X157750000Y-112500000D01*
%TO.N,Net-(A1-A2)*%
X161699000Y-139949000D02*
X161699000Y-107619000D01*
X162500000Y-140750000D02*
X161699000Y-139949000D01*
X161699000Y-107619000D02*
X150000000Y-95920000D01*
%TO.N,Net-(A1-D12)*%
X135500000Y-109000000D02*
X144000000Y-100500000D01*
X131750000Y-109000000D02*
X135500000Y-109000000D01*
%TO.N,GND*%
X128776000Y-155276000D02*
X133724000Y-155276000D01*
X132468100Y-131718100D02*
X135702200Y-131718100D01*
X99000000Y-154000000D02*
X101217000Y-154000000D01*
X135000000Y-154000000D02*
X136276000Y-152724000D01*
X117183000Y-120000000D02*
X108700000Y-128483000D01*
X121200000Y-120000000D02*
X117183000Y-120000000D01*
X127500000Y-154000000D02*
X128776000Y-155276000D01*
X136276000Y-152724000D02*
X149724000Y-152724000D01*
X131250000Y-147698000D02*
X131250000Y-145250000D01*
X124000000Y-129000000D02*
X129750000Y-129000000D01*
X101217000Y-154000000D02*
X108700000Y-146517000D01*
X135702200Y-131718100D02*
X148302200Y-131718100D01*
X160000000Y-154000000D02*
X151000000Y-154000000D01*
X133724000Y-155276000D02*
X135000000Y-154000000D01*
X149724000Y-152724000D02*
X151000000Y-154000000D01*
X129750000Y-129000000D02*
X132468100Y-131718100D01*
X136276000Y-152724000D02*
X131250000Y-147698000D01*
X121250000Y-126250000D02*
X124000000Y-129000000D01*
%TD*%
%TA.AperFunction,Conductor*%
%TO.N,GND*%
G36*
X169211413Y-75193761D02*
G01*
X169278408Y-75213596D01*
X169324044Y-75266502D01*
X169333833Y-75335683D01*
X169304666Y-75399173D01*
X169273139Y-75425145D01*
X169230521Y-75449751D01*
X169230518Y-75449752D01*
X169230513Y-75449756D01*
X169012073Y-75617370D01*
X169012066Y-75617376D01*
X168817376Y-75812066D01*
X168817370Y-75812073D01*
X168649754Y-76030516D01*
X168512080Y-76268971D01*
X168512075Y-76268982D01*
X168406704Y-76523369D01*
X168335441Y-76789331D01*
X168335438Y-76789344D01*
X168299501Y-77062315D01*
X168299500Y-77062332D01*
X168299500Y-77337667D01*
X168299501Y-77337684D01*
X168335438Y-77610655D01*
X168335439Y-77610660D01*
X168335440Y-77610666D01*
X168335441Y-77610668D01*
X168406704Y-77876630D01*
X168512075Y-78131017D01*
X168512080Y-78131028D01*
X168591809Y-78269121D01*
X168649751Y-78369479D01*
X168649753Y-78369482D01*
X168649754Y-78369483D01*
X168817370Y-78587926D01*
X168817376Y-78587933D01*
X169012066Y-78782623D01*
X169012072Y-78782628D01*
X169230521Y-78950249D01*
X169383778Y-79038732D01*
X169468971Y-79087919D01*
X169468976Y-79087921D01*
X169468979Y-79087923D01*
X169723368Y-79193295D01*
X169989334Y-79264560D01*
X170262326Y-79300500D01*
X170262333Y-79300500D01*
X170537667Y-79300500D01*
X170537674Y-79300500D01*
X170810666Y-79264560D01*
X171076632Y-79193295D01*
X171331021Y-79087923D01*
X171569479Y-78950249D01*
X171787928Y-78782628D01*
X171787934Y-78782621D01*
X171790981Y-78779951D01*
X171791613Y-78780671D01*
X171849120Y-78749257D01*
X171918813Y-78754228D01*
X171974754Y-78796090D01*
X171999182Y-78861550D01*
X171999500Y-78870418D01*
X171999500Y-155329581D01*
X171979815Y-155396620D01*
X171927011Y-155442375D01*
X171857853Y-155452319D01*
X171794297Y-155423294D01*
X171788077Y-155417503D01*
X171787926Y-155417370D01*
X171569483Y-155249754D01*
X171569482Y-155249753D01*
X171569479Y-155249751D01*
X171474407Y-155194861D01*
X171331028Y-155112080D01*
X171331017Y-155112075D01*
X171076630Y-155006704D01*
X170943649Y-154971072D01*
X170810666Y-154935440D01*
X170810660Y-154935439D01*
X170810655Y-154935438D01*
X170537684Y-154899501D01*
X170537679Y-154899500D01*
X170537674Y-154899500D01*
X170262326Y-154899500D01*
X170262320Y-154899500D01*
X170262315Y-154899501D01*
X169989344Y-154935438D01*
X169989337Y-154935439D01*
X169989334Y-154935440D01*
X169933125Y-154950500D01*
X169723369Y-155006704D01*
X169468982Y-155112075D01*
X169468971Y-155112080D01*
X169230516Y-155249754D01*
X169012073Y-155417370D01*
X169012066Y-155417376D01*
X168817376Y-155612066D01*
X168817370Y-155612073D01*
X168649754Y-155830516D01*
X168512080Y-156068971D01*
X168512075Y-156068982D01*
X168406704Y-156323369D01*
X168335441Y-156589331D01*
X168335438Y-156589344D01*
X168299501Y-156862315D01*
X168299500Y-156862332D01*
X168299500Y-157137667D01*
X168299501Y-157137684D01*
X168335438Y-157410655D01*
X168335439Y-157410660D01*
X168335440Y-157410666D01*
X168335441Y-157410668D01*
X168406704Y-157676630D01*
X168512075Y-157931017D01*
X168512080Y-157931028D01*
X168588380Y-158063181D01*
X168649751Y-158169479D01*
X168649753Y-158169482D01*
X168649754Y-158169483D01*
X168817370Y-158387926D01*
X168817376Y-158387933D01*
X169012066Y-158582623D01*
X169012073Y-158582629D01*
X169230513Y-158750243D01*
X169230521Y-158750249D01*
X169261466Y-158768115D01*
X169309679Y-158818680D01*
X169322901Y-158887288D01*
X169296933Y-158952152D01*
X169240019Y-158992680D01*
X169199463Y-158999500D01*
X144649097Y-158999500D01*
X144582058Y-158979815D01*
X144536303Y-158927011D01*
X144526359Y-158857853D01*
X144555384Y-158794297D01*
X144561416Y-158787819D01*
X146211568Y-157137667D01*
X147921134Y-155428100D01*
X147982455Y-155394617D01*
X148047126Y-155397851D01*
X148183757Y-155442246D01*
X148393713Y-155475500D01*
X148393714Y-155475500D01*
X148606286Y-155475500D01*
X148606287Y-155475500D01*
X148816243Y-155442246D01*
X149018412Y-155376557D01*
X149207816Y-155280051D01*
X149249521Y-155249751D01*
X149379786Y-155155109D01*
X149379788Y-155155106D01*
X149379792Y-155155104D01*
X149530104Y-155004792D01*
X149649991Y-154839779D01*
X149705320Y-154797115D01*
X149774933Y-154791136D01*
X149836729Y-154823741D01*
X149850627Y-154839781D01*
X149970272Y-155004459D01*
X149970276Y-155004464D01*
X150120535Y-155154723D01*
X150120540Y-155154727D01*
X150292442Y-155279620D01*
X150481782Y-155376095D01*
X150683871Y-155441757D01*
X150750000Y-155452231D01*
X150750000Y-154404145D01*
X150816657Y-154442630D01*
X150937465Y-154475000D01*
X151062535Y-154475000D01*
X151183343Y-154442630D01*
X151250000Y-154404145D01*
X151250000Y-155452230D01*
X151316126Y-155441757D01*
X151316129Y-155441757D01*
X151518217Y-155376095D01*
X151707557Y-155279620D01*
X151879459Y-155154727D01*
X151879464Y-155154723D01*
X152029723Y-155004464D01*
X152029727Y-155004459D01*
X152154620Y-154832557D01*
X152251095Y-154643217D01*
X152316757Y-154441130D01*
X152316757Y-154441127D01*
X152347030Y-154250000D01*
X151404146Y-154250000D01*
X151442630Y-154183343D01*
X151475000Y-154062535D01*
X151475000Y-153937465D01*
X151442630Y-153816657D01*
X151404146Y-153750000D01*
X152347030Y-153750000D01*
X152316757Y-153558872D01*
X152316757Y-153558869D01*
X152251094Y-153356780D01*
X152211035Y-153278160D01*
X152211034Y-153278159D01*
X152183954Y-153225013D01*
X158650000Y-153225013D01*
X158650000Y-153750000D01*
X159595854Y-153750000D01*
X159557370Y-153816657D01*
X159525000Y-153937465D01*
X159525000Y-154062535D01*
X159557370Y-154183343D01*
X159595854Y-154250000D01*
X158650001Y-154250000D01*
X158650001Y-154774986D01*
X158660494Y-154877697D01*
X158715641Y-155044119D01*
X158715643Y-155044124D01*
X158807684Y-155193345D01*
X158931654Y-155317315D01*
X159080875Y-155409356D01*
X159080880Y-155409358D01*
X159247302Y-155464505D01*
X159247309Y-155464506D01*
X159350019Y-155474999D01*
X159749999Y-155474999D01*
X159750000Y-155474998D01*
X159750000Y-154404145D01*
X159816657Y-154442630D01*
X159937465Y-154475000D01*
X160062535Y-154475000D01*
X160183343Y-154442630D01*
X160250000Y-154404145D01*
X160250000Y-155474999D01*
X160649972Y-155474999D01*
X160649986Y-155474998D01*
X160752697Y-155464505D01*
X160919119Y-155409358D01*
X160919124Y-155409356D01*
X161068345Y-155317315D01*
X161192317Y-155193343D01*
X161287815Y-155038516D01*
X161339763Y-154991791D01*
X161408725Y-154980568D01*
X161472808Y-155008412D01*
X161481035Y-155015931D01*
X161620213Y-155155109D01*
X161792179Y-155280048D01*
X161792181Y-155280049D01*
X161792184Y-155280051D01*
X161981588Y-155376557D01*
X162183757Y-155442246D01*
X162393713Y-155475500D01*
X162393714Y-155475500D01*
X162606286Y-155475500D01*
X162606287Y-155475500D01*
X162816243Y-155442246D01*
X163018412Y-155376557D01*
X163207816Y-155280051D01*
X163249521Y-155249751D01*
X163379786Y-155155109D01*
X163379788Y-155155106D01*
X163379792Y-155155104D01*
X163530104Y-155004792D01*
X163649683Y-154840204D01*
X163705011Y-154797540D01*
X163774624Y-154791561D01*
X163836420Y-154824166D01*
X163850313Y-154840199D01*
X163919510Y-154935441D01*
X163969896Y-155004792D01*
X164120213Y-155155109D01*
X164292179Y-155280048D01*
X164292181Y-155280049D01*
X164292184Y-155280051D01*
X164481588Y-155376557D01*
X164683757Y-155442246D01*
X164893713Y-155475500D01*
X164893714Y-155475500D01*
X165106286Y-155475500D01*
X165106287Y-155475500D01*
X165316243Y-155442246D01*
X165518412Y-155376557D01*
X165707816Y-155280051D01*
X165749521Y-155249751D01*
X165879786Y-155155109D01*
X165879788Y-155155106D01*
X165879792Y-155155104D01*
X166030104Y-155004792D01*
X166030106Y-155004788D01*
X166030109Y-155004786D01*
X166155048Y-154832820D01*
X166155047Y-154832820D01*
X166155051Y-154832816D01*
X166251557Y-154643412D01*
X166317246Y-154441243D01*
X166350500Y-154231287D01*
X166350500Y-153768713D01*
X166317246Y-153558757D01*
X166251557Y-153356588D01*
X166155051Y-153167184D01*
X166155049Y-153167181D01*
X166155048Y-153167179D01*
X166030109Y-152995213D01*
X165879786Y-152844890D01*
X165707820Y-152719951D01*
X165518414Y-152623444D01*
X165518413Y-152623443D01*
X165518412Y-152623443D01*
X165316243Y-152557754D01*
X165316241Y-152557753D01*
X165316240Y-152557753D01*
X165154957Y-152532208D01*
X165106287Y-152524500D01*
X164893713Y-152524500D01*
X164845042Y-152532208D01*
X164683760Y-152557753D01*
X164481585Y-152623444D01*
X164292179Y-152719951D01*
X164120213Y-152844890D01*
X163969894Y-152995209D01*
X163969890Y-152995214D01*
X163850318Y-153159793D01*
X163794989Y-153202459D01*
X163725375Y-153208438D01*
X163663580Y-153175833D01*
X163649682Y-153159793D01*
X163530109Y-152995214D01*
X163530105Y-152995209D01*
X163379786Y-152844890D01*
X163207820Y-152719951D01*
X163018414Y-152623444D01*
X163018413Y-152623443D01*
X163018412Y-152623443D01*
X162816243Y-152557754D01*
X162816241Y-152557753D01*
X162816240Y-152557753D01*
X162654957Y-152532208D01*
X162606287Y-152524500D01*
X162393713Y-152524500D01*
X162345042Y-152532208D01*
X162183760Y-152557753D01*
X161981585Y-152623444D01*
X161792179Y-152719951D01*
X161620215Y-152844889D01*
X161481035Y-152984069D01*
X161419712Y-153017553D01*
X161350020Y-153012569D01*
X161294087Y-152970697D01*
X161287815Y-152961484D01*
X161192315Y-152806654D01*
X161068345Y-152682684D01*
X160919124Y-152590643D01*
X160919119Y-152590641D01*
X160752697Y-152535494D01*
X160752690Y-152535493D01*
X160649986Y-152525000D01*
X160250000Y-152525000D01*
X160250000Y-153595854D01*
X160183343Y-153557370D01*
X160062535Y-153525000D01*
X159937465Y-153525000D01*
X159816657Y-153557370D01*
X159750000Y-153595854D01*
X159750000Y-152525000D01*
X159350028Y-152525000D01*
X159350012Y-152525001D01*
X159247302Y-152535494D01*
X159080880Y-152590641D01*
X159080875Y-152590643D01*
X158931654Y-152682684D01*
X158807684Y-152806654D01*
X158715643Y-152955875D01*
X158715641Y-152955880D01*
X158660494Y-153122302D01*
X158660493Y-153122309D01*
X158650000Y-153225013D01*
X152183954Y-153225013D01*
X152154620Y-153167442D01*
X152029727Y-152995540D01*
X152029723Y-152995535D01*
X151879464Y-152845276D01*
X151879459Y-152845272D01*
X151707557Y-152720379D01*
X151518215Y-152623903D01*
X151316124Y-152558241D01*
X151250000Y-152547768D01*
X151250000Y-153595854D01*
X151183343Y-153557370D01*
X151062535Y-153525000D01*
X150937465Y-153525000D01*
X150816657Y-153557370D01*
X150750000Y-153595854D01*
X150750000Y-152547768D01*
X150749999Y-152547768D01*
X150683875Y-152558241D01*
X150481784Y-152623903D01*
X150292442Y-152720379D01*
X150120540Y-152845272D01*
X150120535Y-152845276D01*
X149970276Y-152995535D01*
X149970272Y-152995540D01*
X149850627Y-153160218D01*
X149795297Y-153202884D01*
X149725684Y-153208863D01*
X149663889Y-153176257D01*
X149649991Y-153160218D01*
X149530109Y-152995214D01*
X149530105Y-152995209D01*
X149379786Y-152844890D01*
X149207820Y-152719951D01*
X149018414Y-152623444D01*
X149018413Y-152623443D01*
X149018412Y-152623443D01*
X148816243Y-152557754D01*
X148816241Y-152557753D01*
X148816240Y-152557753D01*
X148654957Y-152532208D01*
X148606287Y-152524500D01*
X148393713Y-152524500D01*
X148345042Y-152532208D01*
X148183760Y-152557753D01*
X147981585Y-152623444D01*
X147792179Y-152719951D01*
X147620213Y-152844890D01*
X147469894Y-152995209D01*
X147469890Y-152995214D01*
X147350318Y-153159793D01*
X147294989Y-153202459D01*
X147225375Y-153208438D01*
X147163580Y-153175833D01*
X147149682Y-153159793D01*
X147030109Y-152995214D01*
X147030105Y-152995209D01*
X146879786Y-152844890D01*
X146707820Y-152719951D01*
X146518414Y-152623444D01*
X146518413Y-152623443D01*
X146518412Y-152623443D01*
X146316243Y-152557754D01*
X146316241Y-152557753D01*
X146316240Y-152557753D01*
X146154957Y-152532208D01*
X146106287Y-152524500D01*
X145893713Y-152524500D01*
X145845042Y-152532208D01*
X145683760Y-152557753D01*
X145481585Y-152623444D01*
X145292179Y-152719951D01*
X145120215Y-152844889D01*
X144981398Y-152983706D01*
X144920075Y-153017190D01*
X144850383Y-153012206D01*
X144794450Y-152970334D01*
X144788178Y-152961120D01*
X144692712Y-152806344D01*
X144568657Y-152682289D01*
X144568656Y-152682288D01*
X144473253Y-152623443D01*
X144419336Y-152590187D01*
X144419331Y-152590185D01*
X144417862Y-152589698D01*
X144252797Y-152535001D01*
X144252795Y-152535000D01*
X144150010Y-152524500D01*
X142849998Y-152524500D01*
X142849981Y-152524501D01*
X142747203Y-152535000D01*
X142747200Y-152535001D01*
X142580668Y-152590185D01*
X142580663Y-152590187D01*
X142431342Y-152682289D01*
X142307289Y-152806342D01*
X142215187Y-152955663D01*
X142215185Y-152955668D01*
X142203083Y-152992190D01*
X142160001Y-153122203D01*
X142160001Y-153122204D01*
X142160000Y-153122204D01*
X142149500Y-153224983D01*
X142149500Y-154775001D01*
X142149501Y-154775018D01*
X142160000Y-154877796D01*
X142160001Y-154877799D01*
X142205774Y-155015931D01*
X142215186Y-155044334D01*
X142307288Y-155193656D01*
X142431344Y-155317712D01*
X142580666Y-155409814D01*
X142747203Y-155464999D01*
X142849991Y-155475500D01*
X144150008Y-155475499D01*
X144252797Y-155464999D01*
X144419334Y-155409814D01*
X144568656Y-155317712D01*
X144692712Y-155193656D01*
X144784814Y-155044334D01*
X144784814Y-155044331D01*
X144788178Y-155038879D01*
X144840126Y-154992154D01*
X144909088Y-154980931D01*
X144973170Y-155008774D01*
X144981398Y-155016294D01*
X145120213Y-155155109D01*
X145292179Y-155280048D01*
X145292181Y-155280049D01*
X145292184Y-155280051D01*
X145481588Y-155376557D01*
X145683757Y-155442246D01*
X145893713Y-155475500D01*
X145893717Y-155475500D01*
X145896400Y-155475925D01*
X145959534Y-155505854D01*
X145996466Y-155565165D01*
X145995468Y-155635028D01*
X145964683Y-155686079D01*
X143587584Y-158063181D01*
X143526261Y-158096666D01*
X143499903Y-158099500D01*
X121329766Y-158099500D01*
X121262727Y-158079815D01*
X121260875Y-158078602D01*
X121129185Y-157990609D01*
X121129172Y-157990602D01*
X120983501Y-157930264D01*
X120983489Y-157930261D01*
X120828845Y-157899500D01*
X120828842Y-157899500D01*
X120671158Y-157899500D01*
X120671155Y-157899500D01*
X120516510Y-157930261D01*
X120516498Y-157930264D01*
X120370827Y-157990602D01*
X120370814Y-157990609D01*
X120239711Y-158078210D01*
X120239707Y-158078213D01*
X120128213Y-158189707D01*
X120128210Y-158189711D01*
X120040609Y-158320814D01*
X120040602Y-158320827D01*
X119980264Y-158466498D01*
X119980261Y-158466510D01*
X119949500Y-158621153D01*
X119949500Y-158778846D01*
X119963914Y-158851309D01*
X119957687Y-158920900D01*
X119914824Y-158976078D01*
X119848934Y-158999322D01*
X119842297Y-158999500D01*
X85800537Y-158999500D01*
X85733498Y-158979815D01*
X85687743Y-158927011D01*
X85677799Y-158857853D01*
X85706824Y-158794297D01*
X85738532Y-158768116D01*
X85769479Y-158750249D01*
X85987928Y-158582628D01*
X86182628Y-158387928D01*
X86350249Y-158169479D01*
X86487923Y-157931021D01*
X86593295Y-157676632D01*
X86664560Y-157410666D01*
X86700500Y-157137674D01*
X86700500Y-156862326D01*
X86664560Y-156589334D01*
X86593295Y-156323368D01*
X86487923Y-156068979D01*
X86487921Y-156068976D01*
X86487919Y-156068971D01*
X86438732Y-155983778D01*
X86350249Y-155830521D01*
X86182628Y-155612072D01*
X86182623Y-155612066D01*
X85987933Y-155417376D01*
X85987926Y-155417370D01*
X85769483Y-155249754D01*
X85769482Y-155249753D01*
X85769479Y-155249751D01*
X85674407Y-155194861D01*
X85531028Y-155112080D01*
X85531017Y-155112075D01*
X85276630Y-155006704D01*
X85143649Y-154971072D01*
X85010666Y-154935440D01*
X85010660Y-154935439D01*
X85010655Y-154935438D01*
X84737684Y-154899501D01*
X84737679Y-154899500D01*
X84737674Y-154899500D01*
X84462326Y-154899500D01*
X84462320Y-154899500D01*
X84462315Y-154899501D01*
X84189344Y-154935438D01*
X84189337Y-154935439D01*
X84189334Y-154935440D01*
X84133125Y-154950500D01*
X83923369Y-155006704D01*
X83668982Y-155112075D01*
X83668971Y-155112080D01*
X83430516Y-155249754D01*
X83212073Y-155417370D01*
X83212066Y-155417376D01*
X83017376Y-155612066D01*
X83017370Y-155612073D01*
X82849756Y-155830513D01*
X82849752Y-155830518D01*
X82849751Y-155830521D01*
X82831384Y-155862332D01*
X82780819Y-155910545D01*
X82712212Y-155923767D01*
X82647348Y-155897799D01*
X82606820Y-155840885D01*
X82600000Y-155800329D01*
X82600000Y-153199983D01*
X95149500Y-153199983D01*
X95149500Y-154800001D01*
X95149501Y-154800018D01*
X95160000Y-154902796D01*
X95160001Y-154902799D01*
X95206832Y-155044124D01*
X95215186Y-155069334D01*
X95307288Y-155218656D01*
X95431344Y-155342712D01*
X95580666Y-155434814D01*
X95747203Y-155489999D01*
X95849991Y-155500500D01*
X97150008Y-155500499D01*
X97252797Y-155489999D01*
X97419334Y-155434814D01*
X97568656Y-155342712D01*
X97692712Y-155218656D01*
X97784814Y-155069334D01*
X97839999Y-154902797D01*
X97850500Y-154800009D01*
X97850499Y-153199992D01*
X97850498Y-153199983D01*
X110149500Y-153199983D01*
X110149500Y-154800001D01*
X110149501Y-154800018D01*
X110160000Y-154902796D01*
X110160001Y-154902799D01*
X110206832Y-155044124D01*
X110215186Y-155069334D01*
X110307288Y-155218656D01*
X110431344Y-155342712D01*
X110580666Y-155434814D01*
X110747203Y-155489999D01*
X110849991Y-155500500D01*
X112150008Y-155500499D01*
X112252797Y-155489999D01*
X112419334Y-155434814D01*
X112568656Y-155342712D01*
X112692712Y-155218656D01*
X112784814Y-155069334D01*
X112784814Y-155069331D01*
X112788178Y-155063879D01*
X112840126Y-155017154D01*
X112909088Y-155005931D01*
X112973170Y-155033774D01*
X112981398Y-155041294D01*
X113120213Y-155180109D01*
X113292179Y-155305048D01*
X113292181Y-155305049D01*
X113292184Y-155305051D01*
X113481588Y-155401557D01*
X113683757Y-155467246D01*
X113893713Y-155500500D01*
X113893714Y-155500500D01*
X114106286Y-155500500D01*
X114106287Y-155500500D01*
X114316243Y-155467246D01*
X114518412Y-155401557D01*
X114707816Y-155305051D01*
X114742819Y-155279620D01*
X114879786Y-155180109D01*
X114879788Y-155180106D01*
X114879792Y-155180104D01*
X115030104Y-155029792D01*
X115030106Y-155029788D01*
X115030109Y-155029786D01*
X115155048Y-154857820D01*
X115155047Y-154857820D01*
X115155051Y-154857816D01*
X115251557Y-154668412D01*
X115317246Y-154466243D01*
X115350500Y-154256287D01*
X115350500Y-153743713D01*
X115317246Y-153533757D01*
X115251557Y-153331588D01*
X115251555Y-153331585D01*
X115251554Y-153331580D01*
X115251553Y-153331579D01*
X115224320Y-153278131D01*
X115224318Y-153278129D01*
X115197254Y-153225013D01*
X115197239Y-153224983D01*
X123649500Y-153224983D01*
X123649500Y-154775001D01*
X123649501Y-154775018D01*
X123660000Y-154877796D01*
X123660001Y-154877799D01*
X123705774Y-155015931D01*
X123715186Y-155044334D01*
X123807288Y-155193656D01*
X123931344Y-155317712D01*
X124080666Y-155409814D01*
X124247203Y-155464999D01*
X124349991Y-155475500D01*
X125650008Y-155475499D01*
X125752797Y-155464999D01*
X125919334Y-155409814D01*
X126068656Y-155317712D01*
X126192712Y-155193656D01*
X126284814Y-155044334D01*
X126339999Y-154877797D01*
X126350500Y-154775009D01*
X126350499Y-153768713D01*
X128649500Y-153768713D01*
X128649500Y-154231287D01*
X128653460Y-154256287D01*
X128682735Y-154441127D01*
X128682754Y-154441243D01*
X128693722Y-154475000D01*
X128748444Y-154643414D01*
X128844951Y-154832820D01*
X128969890Y-155004786D01*
X129120213Y-155155109D01*
X129292179Y-155280048D01*
X129292181Y-155280049D01*
X129292184Y-155280051D01*
X129481588Y-155376557D01*
X129683757Y-155442246D01*
X129893713Y-155475500D01*
X129893714Y-155475500D01*
X130106286Y-155475500D01*
X130106287Y-155475500D01*
X130316243Y-155442246D01*
X130518412Y-155376557D01*
X130707816Y-155280051D01*
X130749521Y-155249751D01*
X130879786Y-155155109D01*
X130879788Y-155155106D01*
X130879792Y-155155104D01*
X131030104Y-155004792D01*
X131149683Y-154840204D01*
X131205011Y-154797540D01*
X131274624Y-154791561D01*
X131336420Y-154824166D01*
X131350313Y-154840199D01*
X131419510Y-154935441D01*
X131469896Y-155004792D01*
X131620213Y-155155109D01*
X131792179Y-155280048D01*
X131792181Y-155280049D01*
X131792184Y-155280051D01*
X131981588Y-155376557D01*
X132183757Y-155442246D01*
X132393713Y-155475500D01*
X132393714Y-155475500D01*
X132606286Y-155475500D01*
X132606287Y-155475500D01*
X132816243Y-155442246D01*
X133018412Y-155376557D01*
X133207816Y-155280051D01*
X133249521Y-155249751D01*
X133379786Y-155155109D01*
X133379788Y-155155106D01*
X133379792Y-155155104D01*
X133530104Y-155004792D01*
X133649991Y-154839779D01*
X133705320Y-154797115D01*
X133774933Y-154791136D01*
X133836729Y-154823741D01*
X133850627Y-154839781D01*
X133970272Y-155004459D01*
X133970276Y-155004464D01*
X134120535Y-155154723D01*
X134120540Y-155154727D01*
X134292442Y-155279620D01*
X134481782Y-155376095D01*
X134683871Y-155441757D01*
X134750000Y-155452231D01*
X134750000Y-154404145D01*
X134816657Y-154442630D01*
X134937465Y-154475000D01*
X135062535Y-154475000D01*
X135183343Y-154442630D01*
X135250000Y-154404145D01*
X135250000Y-155452230D01*
X135316126Y-155441757D01*
X135316129Y-155441757D01*
X135518217Y-155376095D01*
X135707557Y-155279620D01*
X135879459Y-155154727D01*
X135879464Y-155154723D01*
X136029723Y-155004464D01*
X136029727Y-155004459D01*
X136154620Y-154832557D01*
X136251095Y-154643217D01*
X136316757Y-154441130D01*
X136316757Y-154441127D01*
X136347030Y-154250000D01*
X135404146Y-154250000D01*
X135442630Y-154183343D01*
X135475000Y-154062535D01*
X135475000Y-153937465D01*
X135442630Y-153816657D01*
X135404146Y-153750000D01*
X136347030Y-153750000D01*
X136316757Y-153558872D01*
X136316757Y-153558869D01*
X136251095Y-153356782D01*
X136154620Y-153167442D01*
X136029727Y-152995540D01*
X136029723Y-152995535D01*
X135879464Y-152845276D01*
X135879459Y-152845272D01*
X135707557Y-152720379D01*
X135518215Y-152623903D01*
X135316124Y-152558241D01*
X135250000Y-152547768D01*
X135250000Y-153595854D01*
X135183343Y-153557370D01*
X135062535Y-153525000D01*
X134937465Y-153525000D01*
X134816657Y-153557370D01*
X134750000Y-153595854D01*
X134750000Y-152547768D01*
X134749999Y-152547768D01*
X134683875Y-152558241D01*
X134481784Y-152623903D01*
X134292442Y-152720379D01*
X134120540Y-152845272D01*
X134120535Y-152845276D01*
X133970276Y-152995535D01*
X133970272Y-152995540D01*
X133850627Y-153160218D01*
X133795297Y-153202884D01*
X133725684Y-153208863D01*
X133663889Y-153176257D01*
X133649991Y-153160218D01*
X133530109Y-152995214D01*
X133530105Y-152995209D01*
X133379786Y-152844890D01*
X133207820Y-152719951D01*
X133018414Y-152623444D01*
X133018413Y-152623443D01*
X133018412Y-152623443D01*
X132816243Y-152557754D01*
X132816241Y-152557753D01*
X132816240Y-152557753D01*
X132654957Y-152532208D01*
X132606287Y-152524500D01*
X132393713Y-152524500D01*
X132345042Y-152532208D01*
X132183760Y-152557753D01*
X131981585Y-152623444D01*
X131792179Y-152719951D01*
X131620213Y-152844890D01*
X131469894Y-152995209D01*
X131469890Y-152995214D01*
X131350318Y-153159793D01*
X131294989Y-153202459D01*
X131225375Y-153208438D01*
X131163580Y-153175833D01*
X131149682Y-153159793D01*
X131030109Y-152995214D01*
X131030105Y-152995209D01*
X130879786Y-152844890D01*
X130707820Y-152719951D01*
X130518414Y-152623444D01*
X130518413Y-152623443D01*
X130518412Y-152623443D01*
X130316243Y-152557754D01*
X130316241Y-152557753D01*
X130316240Y-152557753D01*
X130154957Y-152532208D01*
X130106287Y-152524500D01*
X129893713Y-152524500D01*
X129845042Y-152532208D01*
X129683760Y-152557753D01*
X129481585Y-152623444D01*
X129292179Y-152719951D01*
X129120213Y-152844890D01*
X128969890Y-152995213D01*
X128844951Y-153167179D01*
X128748444Y-153356585D01*
X128682753Y-153558760D01*
X128673069Y-153619905D01*
X128649500Y-153768713D01*
X126350499Y-153768713D01*
X126350499Y-153224992D01*
X126348851Y-153208863D01*
X126339999Y-153122203D01*
X126339998Y-153122200D01*
X126305201Y-153017190D01*
X126284814Y-152955666D01*
X126192712Y-152806344D01*
X126068656Y-152682288D01*
X125973253Y-152623443D01*
X125919336Y-152590187D01*
X125919331Y-152590185D01*
X125917862Y-152589698D01*
X125752797Y-152535001D01*
X125752795Y-152535000D01*
X125650010Y-152524500D01*
X124349998Y-152524500D01*
X124349981Y-152524501D01*
X124247203Y-152535000D01*
X124247200Y-152535001D01*
X124080668Y-152590185D01*
X124080663Y-152590187D01*
X123931342Y-152682289D01*
X123807289Y-152806342D01*
X123715187Y-152955663D01*
X123715185Y-152955668D01*
X123703083Y-152992190D01*
X123660001Y-153122203D01*
X123660001Y-153122204D01*
X123660000Y-153122204D01*
X123649500Y-153224983D01*
X115197239Y-153224983D01*
X115155051Y-153142184D01*
X115155049Y-153142181D01*
X115155048Y-153142179D01*
X115030109Y-152970213D01*
X114879786Y-152819890D01*
X114707820Y-152694951D01*
X114518414Y-152598444D01*
X114518413Y-152598443D01*
X114518412Y-152598443D01*
X114316243Y-152532754D01*
X114316241Y-152532753D01*
X114316240Y-152532753D01*
X114154957Y-152507208D01*
X114106287Y-152499500D01*
X113893713Y-152499500D01*
X113845042Y-152507208D01*
X113683760Y-152532753D01*
X113481585Y-152598444D01*
X113292179Y-152694951D01*
X113120215Y-152819889D01*
X112981398Y-152958706D01*
X112920075Y-152992190D01*
X112850383Y-152987206D01*
X112794450Y-152945334D01*
X112788178Y-152936120D01*
X112692712Y-152781344D01*
X112568657Y-152657289D01*
X112568656Y-152657288D01*
X112419334Y-152565186D01*
X112252797Y-152510001D01*
X112252795Y-152510000D01*
X112150010Y-152499500D01*
X110849998Y-152499500D01*
X110849981Y-152499501D01*
X110747203Y-152510000D01*
X110747200Y-152510001D01*
X110580668Y-152565185D01*
X110580663Y-152565187D01*
X110431342Y-152657289D01*
X110307289Y-152781342D01*
X110215187Y-152930663D01*
X110215185Y-152930668D01*
X110193689Y-152995540D01*
X110160001Y-153097203D01*
X110160001Y-153097204D01*
X110160000Y-153097204D01*
X110149500Y-153199983D01*
X97850498Y-153199983D01*
X97848074Y-153176257D01*
X97839999Y-153097203D01*
X97839998Y-153097200D01*
X97784814Y-152930666D01*
X97692712Y-152781344D01*
X97568656Y-152657288D01*
X97419334Y-152565186D01*
X97252797Y-152510001D01*
X97252795Y-152510000D01*
X97150010Y-152499500D01*
X95849998Y-152499500D01*
X95849981Y-152499501D01*
X95747203Y-152510000D01*
X95747200Y-152510001D01*
X95580668Y-152565185D01*
X95580663Y-152565187D01*
X95431342Y-152657289D01*
X95307289Y-152781342D01*
X95215187Y-152930663D01*
X95215185Y-152930668D01*
X95193689Y-152995540D01*
X95160001Y-153097203D01*
X95160001Y-153097204D01*
X95160000Y-153097204D01*
X95149500Y-153199983D01*
X82600000Y-153199983D01*
X82600000Y-149921153D01*
X138699500Y-149921153D01*
X138699500Y-150078846D01*
X138730261Y-150233489D01*
X138730264Y-150233501D01*
X138790602Y-150379172D01*
X138790609Y-150379185D01*
X138878210Y-150510288D01*
X138878213Y-150510292D01*
X138989707Y-150621786D01*
X138989711Y-150621789D01*
X139120814Y-150709390D01*
X139120827Y-150709397D01*
X139266498Y-150769735D01*
X139266503Y-150769737D01*
X139421153Y-150800499D01*
X139421156Y-150800500D01*
X139421158Y-150800500D01*
X139578844Y-150800500D01*
X139578845Y-150800499D01*
X139733497Y-150769737D01*
X139879179Y-150709394D01*
X140010289Y-150621789D01*
X140121789Y-150510289D01*
X140209394Y-150379179D01*
X140269737Y-150233497D01*
X140289113Y-150136085D01*
X140300638Y-150078150D01*
X140333023Y-150016239D01*
X140334518Y-150014716D01*
X142462416Y-147886819D01*
X142523739Y-147853334D01*
X142550097Y-147850500D01*
X165170234Y-147850500D01*
X165237273Y-147870185D01*
X165239125Y-147871398D01*
X165370814Y-147959390D01*
X165370827Y-147959397D01*
X165516498Y-148019735D01*
X165516503Y-148019737D01*
X165671153Y-148050499D01*
X165671156Y-148050500D01*
X165671158Y-148050500D01*
X165828844Y-148050500D01*
X165828845Y-148050499D01*
X165983497Y-148019737D01*
X166129179Y-147959394D01*
X166260289Y-147871789D01*
X166371789Y-147760289D01*
X166459394Y-147629179D01*
X166519737Y-147483497D01*
X166550500Y-147328842D01*
X166550500Y-147171158D01*
X166550500Y-147171155D01*
X166550499Y-147171153D01*
X166519738Y-147016510D01*
X166519737Y-147016503D01*
X166463728Y-146881284D01*
X166459397Y-146870827D01*
X166459390Y-146870814D01*
X166371789Y-146739711D01*
X166371786Y-146739707D01*
X166260292Y-146628213D01*
X166260288Y-146628210D01*
X166129185Y-146540609D01*
X166129172Y-146540602D01*
X165983501Y-146480264D01*
X165983489Y-146480261D01*
X165828845Y-146449500D01*
X165828842Y-146449500D01*
X165671158Y-146449500D01*
X165671155Y-146449500D01*
X165516510Y-146480261D01*
X165516498Y-146480264D01*
X165370827Y-146540602D01*
X165370814Y-146540609D01*
X165239125Y-146628602D01*
X165172447Y-146649480D01*
X165170234Y-146649500D01*
X142329057Y-146649500D01*
X142170942Y-146649500D01*
X142018215Y-146690423D01*
X142018214Y-146690423D01*
X142018212Y-146690424D01*
X142018209Y-146690425D01*
X141968096Y-146719359D01*
X141968095Y-146719360D01*
X141932853Y-146739707D01*
X141881285Y-146769479D01*
X141881282Y-146769481D01*
X139485339Y-149165425D01*
X139424016Y-149198910D01*
X139421850Y-149199361D01*
X139266508Y-149230261D01*
X139266498Y-149230264D01*
X139120827Y-149290602D01*
X139120814Y-149290609D01*
X138989711Y-149378210D01*
X138989707Y-149378213D01*
X138878213Y-149489707D01*
X138878210Y-149489711D01*
X138790609Y-149620814D01*
X138790602Y-149620827D01*
X138730264Y-149766498D01*
X138730261Y-149766510D01*
X138699500Y-149921153D01*
X82600000Y-149921153D01*
X82600000Y-145815135D01*
X92305500Y-145815135D01*
X92305500Y-147218870D01*
X92305501Y-147218876D01*
X92311908Y-147278483D01*
X92362202Y-147413328D01*
X92362206Y-147413335D01*
X92448452Y-147528544D01*
X92448455Y-147528547D01*
X92563664Y-147614793D01*
X92563671Y-147614797D01*
X92698517Y-147665091D01*
X92698516Y-147665091D01*
X92705444Y-147665835D01*
X92758127Y-147671500D01*
X94161872Y-147671499D01*
X94221483Y-147665091D01*
X94356331Y-147614796D01*
X94471546Y-147528546D01*
X94557796Y-147413331D01*
X94608091Y-147278483D01*
X94614500Y-147218873D01*
X94614499Y-146724945D01*
X94634183Y-146657909D01*
X94686987Y-146612154D01*
X94756146Y-146602210D01*
X94819702Y-146631235D01*
X94857476Y-146690013D01*
X94860972Y-146705549D01*
X94873928Y-146787349D01*
X94873928Y-146787350D01*
X94930081Y-146960171D01*
X94930083Y-146960174D01*
X95012583Y-147122090D01*
X95119397Y-147269106D01*
X95247894Y-147397603D01*
X95394910Y-147504417D01*
X95556826Y-147586917D01*
X95556828Y-147586918D01*
X95686914Y-147629185D01*
X95729654Y-147643072D01*
X95909139Y-147671500D01*
X95909140Y-147671500D01*
X96090860Y-147671500D01*
X96090861Y-147671500D01*
X96270346Y-147643072D01*
X96270349Y-147643071D01*
X96270350Y-147643071D01*
X96443171Y-147586918D01*
X96443171Y-147586917D01*
X96443174Y-147586917D01*
X96605090Y-147504417D01*
X96752106Y-147397603D01*
X96880603Y-147269106D01*
X96987417Y-147122090D01*
X97069917Y-146960174D01*
X97095550Y-146881284D01*
X97126071Y-146787350D01*
X97126071Y-146787349D01*
X97126072Y-146787346D01*
X97147527Y-146651884D01*
X97177456Y-146588750D01*
X97236768Y-146551819D01*
X97306630Y-146552817D01*
X97364863Y-146591427D01*
X97392472Y-146651884D01*
X97403160Y-146719359D01*
X97413928Y-146787347D01*
X97413928Y-146787350D01*
X97470081Y-146960171D01*
X97470083Y-146960174D01*
X97552583Y-147122090D01*
X97659397Y-147269106D01*
X97787894Y-147397603D01*
X97934910Y-147504417D01*
X98096826Y-147586917D01*
X98096828Y-147586918D01*
X98226914Y-147629185D01*
X98269654Y-147643072D01*
X98449139Y-147671500D01*
X98449140Y-147671500D01*
X98630860Y-147671500D01*
X98630861Y-147671500D01*
X98810346Y-147643072D01*
X98810349Y-147643071D01*
X98810350Y-147643071D01*
X98983171Y-147586918D01*
X98983171Y-147586917D01*
X98983174Y-147586917D01*
X99145090Y-147504417D01*
X99292106Y-147397603D01*
X99420603Y-147269106D01*
X99527417Y-147122090D01*
X99609917Y-146960174D01*
X99635550Y-146881284D01*
X99666071Y-146787350D01*
X99666071Y-146787349D01*
X99666072Y-146787346D01*
X99687527Y-146651884D01*
X99717456Y-146588750D01*
X99776768Y-146551819D01*
X99846630Y-146552817D01*
X99904863Y-146591427D01*
X99932472Y-146651884D01*
X99943160Y-146719359D01*
X99953928Y-146787347D01*
X99953928Y-146787350D01*
X100010081Y-146960171D01*
X100010083Y-146960174D01*
X100092583Y-147122090D01*
X100199397Y-147269106D01*
X100327894Y-147397603D01*
X100474910Y-147504417D01*
X100636826Y-147586917D01*
X100636828Y-147586918D01*
X100766914Y-147629185D01*
X100809654Y-147643072D01*
X100989139Y-147671500D01*
X100989140Y-147671500D01*
X101170860Y-147671500D01*
X101170861Y-147671500D01*
X101350346Y-147643072D01*
X101350349Y-147643071D01*
X101350350Y-147643071D01*
X101523171Y-147586918D01*
X101523171Y-147586917D01*
X101523174Y-147586917D01*
X101685090Y-147504417D01*
X101832106Y-147397603D01*
X101960603Y-147269106D01*
X102067417Y-147122090D01*
X102149917Y-146960174D01*
X102175550Y-146881284D01*
X102206071Y-146787350D01*
X102206071Y-146787349D01*
X102206072Y-146787346D01*
X102227527Y-146651884D01*
X102257456Y-146588750D01*
X102316768Y-146551819D01*
X102386630Y-146552817D01*
X102444863Y-146591427D01*
X102472472Y-146651884D01*
X102483160Y-146719359D01*
X102493928Y-146787347D01*
X102493928Y-146787350D01*
X102550081Y-146960171D01*
X102550083Y-146960174D01*
X102632583Y-147122090D01*
X102739397Y-147269106D01*
X102867894Y-147397603D01*
X103014910Y-147504417D01*
X103176826Y-147586917D01*
X103176828Y-147586918D01*
X103306914Y-147629185D01*
X103349654Y-147643072D01*
X103529139Y-147671500D01*
X103529140Y-147671500D01*
X103710860Y-147671500D01*
X103710861Y-147671500D01*
X103890346Y-147643072D01*
X103890349Y-147643071D01*
X103890350Y-147643071D01*
X104063171Y-147586918D01*
X104063171Y-147586917D01*
X104063174Y-147586917D01*
X104225090Y-147504417D01*
X104372106Y-147397603D01*
X104500603Y-147269106D01*
X104607417Y-147122090D01*
X104689917Y-146960174D01*
X104715550Y-146881284D01*
X104746071Y-146787350D01*
X104746071Y-146787349D01*
X104746072Y-146787346D01*
X104767527Y-146651884D01*
X104797456Y-146588750D01*
X104856768Y-146551819D01*
X104926630Y-146552817D01*
X104984863Y-146591427D01*
X105012472Y-146651884D01*
X105023160Y-146719359D01*
X105033928Y-146787347D01*
X105033928Y-146787350D01*
X105090081Y-146960171D01*
X105090083Y-146960174D01*
X105172583Y-147122090D01*
X105279397Y-147269106D01*
X105407894Y-147397603D01*
X105554910Y-147504417D01*
X105716826Y-147586917D01*
X105716828Y-147586918D01*
X105846914Y-147629185D01*
X105889654Y-147643072D01*
X106069139Y-147671500D01*
X106069140Y-147671500D01*
X106250860Y-147671500D01*
X106250861Y-147671500D01*
X106430346Y-147643072D01*
X106430349Y-147643071D01*
X106430350Y-147643071D01*
X106603171Y-147586918D01*
X106603171Y-147586917D01*
X106603174Y-147586917D01*
X106765090Y-147504417D01*
X106912106Y-147397603D01*
X107040603Y-147269106D01*
X107147417Y-147122090D01*
X107229917Y-146960174D01*
X107255550Y-146881284D01*
X107286071Y-146787350D01*
X107286071Y-146787349D01*
X107286072Y-146787346D01*
X107314500Y-146607861D01*
X107314500Y-146426139D01*
X110085500Y-146426139D01*
X110085500Y-146607861D01*
X110088785Y-146628602D01*
X110113928Y-146787347D01*
X110113928Y-146787350D01*
X110170081Y-146960171D01*
X110170083Y-146960174D01*
X110252583Y-147122090D01*
X110359397Y-147269106D01*
X110487894Y-147397603D01*
X110634910Y-147504417D01*
X110796826Y-147586917D01*
X110796828Y-147586918D01*
X110926914Y-147629185D01*
X110969654Y-147643072D01*
X111149139Y-147671500D01*
X111149140Y-147671500D01*
X111330860Y-147671500D01*
X111330861Y-147671500D01*
X111510346Y-147643072D01*
X111510349Y-147643071D01*
X111510350Y-147643071D01*
X111683171Y-147586918D01*
X111683171Y-147586917D01*
X111683174Y-147586917D01*
X111845090Y-147504417D01*
X111992106Y-147397603D01*
X112120603Y-147269106D01*
X112227417Y-147122090D01*
X112309917Y-146960174D01*
X112335550Y-146881284D01*
X112366071Y-146787350D01*
X112366071Y-146787349D01*
X112366072Y-146787346D01*
X112394500Y-146607861D01*
X112394500Y-146426139D01*
X112366072Y-146246654D01*
X112366071Y-146246650D01*
X112366071Y-146246649D01*
X112309918Y-146073828D01*
X112309916Y-146073825D01*
X112227416Y-145911909D01*
X112120603Y-145764894D01*
X111992106Y-145636397D01*
X111845090Y-145529583D01*
X111683174Y-145447083D01*
X111683171Y-145447081D01*
X111510348Y-145390928D01*
X111355099Y-145366339D01*
X111330861Y-145362500D01*
X111149139Y-145362500D01*
X111124901Y-145366339D01*
X110969652Y-145390928D01*
X110969649Y-145390928D01*
X110796828Y-145447081D01*
X110796825Y-145447083D01*
X110634909Y-145529583D01*
X110551030Y-145590525D01*
X110487894Y-145636397D01*
X110487892Y-145636399D01*
X110487891Y-145636399D01*
X110359399Y-145764891D01*
X110359399Y-145764892D01*
X110359397Y-145764894D01*
X110322908Y-145815116D01*
X110252583Y-145911909D01*
X110170083Y-146073825D01*
X110170081Y-146073828D01*
X110113928Y-146246649D01*
X110113928Y-146246652D01*
X110113928Y-146246654D01*
X110085500Y-146426139D01*
X107314500Y-146426139D01*
X107286072Y-146246654D01*
X107286071Y-146246650D01*
X107286071Y-146246649D01*
X107229918Y-146073828D01*
X107229916Y-146073825D01*
X107147416Y-145911909D01*
X107040603Y-145764894D01*
X106912106Y-145636397D01*
X106765090Y-145529583D01*
X106603174Y-145447083D01*
X106603171Y-145447081D01*
X106430348Y-145390928D01*
X106275099Y-145366339D01*
X106250861Y-145362500D01*
X106069139Y-145362500D01*
X106044901Y-145366339D01*
X105889652Y-145390928D01*
X105889649Y-145390928D01*
X105716828Y-145447081D01*
X105716825Y-145447083D01*
X105554909Y-145529583D01*
X105471030Y-145590525D01*
X105407894Y-145636397D01*
X105407892Y-145636399D01*
X105407891Y-145636399D01*
X105279399Y-145764891D01*
X105279399Y-145764892D01*
X105279397Y-145764894D01*
X105242908Y-145815116D01*
X105172583Y-145911909D01*
X105090083Y-146073825D01*
X105090081Y-146073828D01*
X105033928Y-146246649D01*
X105033928Y-146246652D01*
X105012473Y-146382114D01*
X104982544Y-146445249D01*
X104923232Y-146482180D01*
X104853370Y-146481182D01*
X104795137Y-146442572D01*
X104767527Y-146382114D01*
X104746072Y-146246654D01*
X104746071Y-146246650D01*
X104746071Y-146246649D01*
X104689918Y-146073828D01*
X104689916Y-146073825D01*
X104607416Y-145911909D01*
X104500603Y-145764894D01*
X104372106Y-145636397D01*
X104225090Y-145529583D01*
X104063174Y-145447083D01*
X104063171Y-145447081D01*
X103890348Y-145390928D01*
X103735099Y-145366339D01*
X103710861Y-145362500D01*
X103529139Y-145362500D01*
X103504901Y-145366339D01*
X103349652Y-145390928D01*
X103349649Y-145390928D01*
X103176828Y-145447081D01*
X103176825Y-145447083D01*
X103014909Y-145529583D01*
X102931030Y-145590525D01*
X102867894Y-145636397D01*
X102867892Y-145636399D01*
X102867891Y-145636399D01*
X102739399Y-145764891D01*
X102739399Y-145764892D01*
X102739397Y-145764894D01*
X102702908Y-145815116D01*
X102632583Y-145911909D01*
X102550083Y-146073825D01*
X102550081Y-146073828D01*
X102493928Y-146246649D01*
X102493928Y-146246652D01*
X102472473Y-146382114D01*
X102442544Y-146445249D01*
X102383232Y-146482180D01*
X102313370Y-146481182D01*
X102255137Y-146442572D01*
X102227527Y-146382114D01*
X102206072Y-146246654D01*
X102206071Y-146246650D01*
X102206071Y-146246649D01*
X102149918Y-146073828D01*
X102149916Y-146073825D01*
X102067416Y-145911909D01*
X101960603Y-145764894D01*
X101832106Y-145636397D01*
X101685090Y-145529583D01*
X101523174Y-145447083D01*
X101523171Y-145447081D01*
X101350348Y-145390928D01*
X101195099Y-145366339D01*
X101170861Y-145362500D01*
X100989139Y-145362500D01*
X100964901Y-145366339D01*
X100809652Y-145390928D01*
X100780416Y-145400427D01*
X100710575Y-145402421D01*
X100650743Y-145366339D01*
X100619916Y-145303637D01*
X100627882Y-145234223D01*
X100654416Y-145194817D01*
X108943721Y-136905513D01*
X120759500Y-136905513D01*
X120759500Y-137094486D01*
X120789059Y-137281118D01*
X120847454Y-137460836D01*
X120933240Y-137629199D01*
X121044310Y-137782073D01*
X121177927Y-137915690D01*
X121308386Y-138010474D01*
X121351051Y-138065803D01*
X121359500Y-138110791D01*
X121359500Y-140480099D01*
X121339815Y-140547138D01*
X121338602Y-140548990D01*
X121290609Y-140620815D01*
X121290602Y-140620828D01*
X121230264Y-140766498D01*
X121230261Y-140766510D01*
X121199500Y-140921153D01*
X121199500Y-141078846D01*
X121230261Y-141233489D01*
X121230264Y-141233501D01*
X121292444Y-141383617D01*
X121299913Y-141453086D01*
X121268638Y-141515565D01*
X121250769Y-141531387D01*
X121177925Y-141584311D01*
X121044312Y-141717924D01*
X121044312Y-141717925D01*
X121044310Y-141717927D01*
X121044070Y-141718258D01*
X120933240Y-141870800D01*
X120847454Y-142039163D01*
X120789059Y-142218881D01*
X120759500Y-142405513D01*
X120759500Y-142594486D01*
X120789059Y-142781118D01*
X120847454Y-142960836D01*
X120933108Y-143128940D01*
X120933240Y-143129199D01*
X121044310Y-143282073D01*
X121177927Y-143415690D01*
X121330801Y-143526760D01*
X121410347Y-143567290D01*
X121499163Y-143612545D01*
X121499165Y-143612545D01*
X121499168Y-143612547D01*
X121595497Y-143643846D01*
X121678881Y-143670940D01*
X121865514Y-143700500D01*
X121865519Y-143700500D01*
X122054486Y-143700500D01*
X122241118Y-143670940D01*
X122242623Y-143670451D01*
X122420832Y-143612547D01*
X122589199Y-143526760D01*
X122742073Y-143415690D01*
X122875690Y-143282073D01*
X122986760Y-143129199D01*
X123072547Y-142960832D01*
X123130940Y-142781118D01*
X123135868Y-142750000D01*
X125864638Y-142750000D01*
X125869548Y-142781002D01*
X125927914Y-142960637D01*
X126013670Y-143128940D01*
X126124685Y-143281741D01*
X126124689Y-143281746D01*
X126258253Y-143415310D01*
X126258258Y-143415314D01*
X126411059Y-143526329D01*
X126579362Y-143612085D01*
X126758997Y-143670451D01*
X126790000Y-143675362D01*
X126790000Y-143675361D01*
X127290000Y-143675361D01*
X127321002Y-143670451D01*
X127500637Y-143612085D01*
X127668940Y-143526329D01*
X127821741Y-143415314D01*
X127821746Y-143415310D01*
X127955310Y-143281746D01*
X127955314Y-143281741D01*
X128066329Y-143128940D01*
X128152085Y-142960637D01*
X128210451Y-142781002D01*
X128215362Y-142750000D01*
X127290000Y-142750000D01*
X127290000Y-143675361D01*
X126790000Y-143675361D01*
X126790000Y-142750000D01*
X125864638Y-142750000D01*
X123135868Y-142750000D01*
X123147363Y-142677423D01*
X123160500Y-142594485D01*
X123160500Y-142453922D01*
X126690000Y-142453922D01*
X126690000Y-142546078D01*
X126713852Y-142635095D01*
X126759930Y-142714905D01*
X126825095Y-142780070D01*
X126904905Y-142826148D01*
X126993922Y-142850000D01*
X127086078Y-142850000D01*
X127175095Y-142826148D01*
X127254905Y-142780070D01*
X127320070Y-142714905D01*
X127366148Y-142635095D01*
X127390000Y-142546078D01*
X127390000Y-142453922D01*
X127366148Y-142364905D01*
X127320070Y-142285095D01*
X127284975Y-142250000D01*
X127290000Y-142250000D01*
X128215362Y-142250000D01*
X128210451Y-142218997D01*
X128152085Y-142039362D01*
X128066329Y-141871059D01*
X127955314Y-141718258D01*
X127955310Y-141718253D01*
X127821746Y-141584689D01*
X127821741Y-141584685D01*
X127668940Y-141473670D01*
X127500635Y-141387913D01*
X127321004Y-141329549D01*
X127320995Y-141329547D01*
X127290000Y-141324637D01*
X127290000Y-142250000D01*
X127284975Y-142250000D01*
X127254905Y-142219930D01*
X127175095Y-142173852D01*
X127086078Y-142150000D01*
X126993922Y-142150000D01*
X126904905Y-142173852D01*
X126825095Y-142219930D01*
X126759930Y-142285095D01*
X126713852Y-142364905D01*
X126690000Y-142453922D01*
X123160500Y-142453922D01*
X123160500Y-142405514D01*
X123144811Y-142306462D01*
X123144811Y-142306460D01*
X123135869Y-142250000D01*
X125864638Y-142250000D01*
X126790000Y-142250000D01*
X126790000Y-141324637D01*
X126789999Y-141324637D01*
X126759004Y-141329547D01*
X126758995Y-141329549D01*
X126579364Y-141387913D01*
X126411059Y-141473670D01*
X126258258Y-141584685D01*
X126258253Y-141584689D01*
X126124689Y-141718253D01*
X126124685Y-141718258D01*
X126013670Y-141871059D01*
X125927914Y-142039362D01*
X125869548Y-142218997D01*
X125864638Y-142250000D01*
X123135869Y-142250000D01*
X123130940Y-142218882D01*
X123130940Y-142218881D01*
X123072545Y-142039163D01*
X122986759Y-141870800D01*
X122875690Y-141717927D01*
X122742073Y-141584310D01*
X122742069Y-141584307D01*
X122724254Y-141571363D01*
X122681590Y-141516032D01*
X122675612Y-141446419D01*
X122694038Y-141402159D01*
X122709394Y-141379179D01*
X122769737Y-141233497D01*
X122800500Y-141078842D01*
X122800500Y-140921158D01*
X122800500Y-140921155D01*
X122800499Y-140921153D01*
X122769738Y-140766510D01*
X122769737Y-140766503D01*
X122709397Y-140620828D01*
X122709397Y-140620827D01*
X122709390Y-140620814D01*
X122621789Y-140489711D01*
X122621786Y-140489707D01*
X122596819Y-140464740D01*
X122563334Y-140403417D01*
X122560500Y-140377059D01*
X122560500Y-138207878D01*
X134301700Y-138207878D01*
X134301700Y-138428321D01*
X134336185Y-138646052D01*
X134404303Y-138855703D01*
X134404304Y-138855706D01*
X134504387Y-139052125D01*
X134633952Y-139230458D01*
X134633956Y-139230463D01*
X134789836Y-139386343D01*
X134789841Y-139386347D01*
X134945392Y-139499360D01*
X134968178Y-139515915D01*
X135096575Y-139581337D01*
X135164593Y-139615995D01*
X135164596Y-139615996D01*
X135265876Y-139648903D01*
X135374249Y-139684115D01*
X135591978Y-139718600D01*
X135591979Y-139718600D01*
X135812421Y-139718600D01*
X135812422Y-139718600D01*
X136030151Y-139684115D01*
X136239806Y-139615995D01*
X136436222Y-139515915D01*
X136614565Y-139386342D01*
X136770442Y-139230465D01*
X136900015Y-139052122D01*
X137000095Y-138855706D01*
X137068215Y-138646051D01*
X137102700Y-138428322D01*
X137102700Y-138207878D01*
X137068215Y-137990149D01*
X137000609Y-137782075D01*
X137000096Y-137780496D01*
X137000095Y-137780493D01*
X136965437Y-137712475D01*
X136900015Y-137584078D01*
X136810472Y-137460832D01*
X136770447Y-137405741D01*
X136770443Y-137405736D01*
X136614563Y-137249856D01*
X136614558Y-137249852D01*
X136436225Y-137120287D01*
X136436224Y-137120286D01*
X136436222Y-137120285D01*
X136373296Y-137088222D01*
X136239806Y-137020204D01*
X136239803Y-137020203D01*
X136030152Y-136952085D01*
X135921286Y-136934842D01*
X135812422Y-136917600D01*
X135591978Y-136917600D01*
X135519401Y-136929095D01*
X135374247Y-136952085D01*
X135164596Y-137020203D01*
X135164593Y-137020204D01*
X134968174Y-137120287D01*
X134789841Y-137249852D01*
X134789836Y-137249856D01*
X134633956Y-137405736D01*
X134633952Y-137405741D01*
X134504387Y-137584074D01*
X134404304Y-137780493D01*
X134404303Y-137780496D01*
X134336185Y-137990147D01*
X134301700Y-138207878D01*
X122560500Y-138207878D01*
X122560500Y-138110791D01*
X122580185Y-138043752D01*
X122611612Y-138010475D01*
X122742073Y-137915690D01*
X122875690Y-137782073D01*
X122986760Y-137629199D01*
X123072547Y-137460832D01*
X123130940Y-137281118D01*
X123144942Y-137192712D01*
X123160500Y-137094486D01*
X123160500Y-136905513D01*
X125839500Y-136905513D01*
X125839500Y-137094486D01*
X125869059Y-137281118D01*
X125927454Y-137460836D01*
X126013240Y-137629199D01*
X126124310Y-137782073D01*
X126257927Y-137915690D01*
X126410801Y-138026760D01*
X126444150Y-138043752D01*
X126579163Y-138112545D01*
X126579165Y-138112545D01*
X126579168Y-138112547D01*
X126675497Y-138143846D01*
X126758881Y-138170940D01*
X126945514Y-138200500D01*
X126945519Y-138200500D01*
X127134486Y-138200500D01*
X127321118Y-138170940D01*
X127500832Y-138112547D01*
X127500835Y-138112544D01*
X127500839Y-138112544D01*
X127540134Y-138092522D01*
X127540136Y-138092521D01*
X127571787Y-138076393D01*
X127669199Y-138026760D01*
X127822073Y-137915690D01*
X127955690Y-137782073D01*
X128066760Y-137629199D01*
X128152547Y-137460832D01*
X128210940Y-137281118D01*
X128224942Y-137192712D01*
X128240500Y-137094486D01*
X128240500Y-136905513D01*
X128210940Y-136718881D01*
X128152545Y-136539163D01*
X128066759Y-136370800D01*
X127955690Y-136217927D01*
X127822073Y-136084310D01*
X127669199Y-135973240D01*
X127500836Y-135887454D01*
X127321118Y-135829059D01*
X127134486Y-135799500D01*
X127134481Y-135799500D01*
X126945519Y-135799500D01*
X126945514Y-135799500D01*
X126758881Y-135829059D01*
X126579163Y-135887454D01*
X126410800Y-135973240D01*
X126360172Y-136010024D01*
X126257927Y-136084310D01*
X126257925Y-136084312D01*
X126257924Y-136084312D01*
X126124312Y-136217924D01*
X126124312Y-136217925D01*
X126124310Y-136217927D01*
X126076610Y-136283579D01*
X126013240Y-136370800D01*
X125927454Y-136539163D01*
X125869059Y-136718881D01*
X125839500Y-136905513D01*
X123160500Y-136905513D01*
X123130940Y-136718881D01*
X123072545Y-136539163D01*
X122986759Y-136370800D01*
X122875690Y-136217927D01*
X122742073Y-136084310D01*
X122589199Y-135973240D01*
X122420836Y-135887454D01*
X122241118Y-135829059D01*
X122054486Y-135799500D01*
X122054481Y-135799500D01*
X121865519Y-135799500D01*
X121865514Y-135799500D01*
X121678881Y-135829059D01*
X121499163Y-135887454D01*
X121330800Y-135973240D01*
X121280172Y-136010024D01*
X121177927Y-136084310D01*
X121177925Y-136084312D01*
X121177924Y-136084312D01*
X121044312Y-136217924D01*
X121044312Y-136217925D01*
X121044310Y-136217927D01*
X120996610Y-136283579D01*
X120933240Y-136370800D01*
X120847454Y-136539163D01*
X120789059Y-136718881D01*
X120759500Y-136905513D01*
X108943721Y-136905513D01*
X114443721Y-131405513D01*
X120759500Y-131405513D01*
X120759500Y-131594486D01*
X120789059Y-131781118D01*
X120847454Y-131960836D01*
X120923122Y-132109341D01*
X120933240Y-132129199D01*
X121044310Y-132282073D01*
X121177927Y-132415690D01*
X121330801Y-132526760D01*
X121410347Y-132567290D01*
X121499163Y-132612545D01*
X121499165Y-132612545D01*
X121499168Y-132612547D01*
X121595497Y-132643846D01*
X121678881Y-132670940D01*
X121865514Y-132700500D01*
X121865519Y-132700500D01*
X122054486Y-132700500D01*
X122241118Y-132670940D01*
X122420832Y-132612547D01*
X122589199Y-132526760D01*
X122742073Y-132415690D01*
X122875690Y-132282073D01*
X122986760Y-132129199D01*
X123072547Y-131960832D01*
X123130940Y-131781118D01*
X123153432Y-131639109D01*
X123160500Y-131594486D01*
X123160500Y-131405513D01*
X125839500Y-131405513D01*
X125839500Y-131594486D01*
X125869059Y-131781118D01*
X125927454Y-131960836D01*
X126003122Y-132109341D01*
X126013240Y-132129199D01*
X126124310Y-132282073D01*
X126257927Y-132415690D01*
X126410801Y-132526760D01*
X126490347Y-132567290D01*
X126579163Y-132612545D01*
X126579165Y-132612545D01*
X126579168Y-132612547D01*
X126675497Y-132643846D01*
X126758881Y-132670940D01*
X126945514Y-132700500D01*
X126945519Y-132700500D01*
X127134486Y-132700500D01*
X127141217Y-132699434D01*
X127321118Y-132670940D01*
X127500832Y-132612547D01*
X127669199Y-132526760D01*
X127822073Y-132415690D01*
X127955690Y-132282073D01*
X128066760Y-132129199D01*
X128152547Y-131960832D01*
X128210940Y-131781118D01*
X128238372Y-131607918D01*
X134302200Y-131607918D01*
X134302200Y-131828281D01*
X134336673Y-132045935D01*
X134404767Y-132255510D01*
X134504811Y-132451856D01*
X134551132Y-132515613D01*
X135137587Y-131929158D01*
X135143089Y-131949691D01*
X135222081Y-132086508D01*
X135333792Y-132198219D01*
X135470609Y-132277211D01*
X135491139Y-132282712D01*
X134904685Y-132869165D01*
X134904685Y-132869166D01*
X134968443Y-132915488D01*
X135164789Y-133015532D01*
X135374364Y-133083626D01*
X135592019Y-133118100D01*
X135812381Y-133118100D01*
X136030035Y-133083626D01*
X136239610Y-133015532D01*
X136435960Y-132915486D01*
X136499713Y-132869166D01*
X136499714Y-132869166D01*
X135913259Y-132282712D01*
X135933791Y-132277211D01*
X136070608Y-132198219D01*
X136182319Y-132086508D01*
X136261311Y-131949691D01*
X136266812Y-131929160D01*
X136853266Y-132515614D01*
X136853266Y-132515613D01*
X136899586Y-132451860D01*
X136999632Y-132255510D01*
X137067726Y-132045935D01*
X137102200Y-131828281D01*
X137102200Y-131607918D01*
X146902200Y-131607918D01*
X146902200Y-131828281D01*
X146936673Y-132045935D01*
X147004767Y-132255510D01*
X147104811Y-132451856D01*
X147151132Y-132515613D01*
X147737587Y-131929158D01*
X147743089Y-131949691D01*
X147822081Y-132086508D01*
X147933792Y-132198219D01*
X148070609Y-132277211D01*
X148091139Y-132282712D01*
X147504685Y-132869165D01*
X147504685Y-132869166D01*
X147568443Y-132915488D01*
X147764789Y-133015532D01*
X147974364Y-133083626D01*
X148192019Y-133118100D01*
X148412381Y-133118100D01*
X148630035Y-133083626D01*
X148839610Y-133015532D01*
X149035960Y-132915486D01*
X149099713Y-132869166D01*
X149099714Y-132869166D01*
X148513259Y-132282712D01*
X148533791Y-132277211D01*
X148670608Y-132198219D01*
X148782319Y-132086508D01*
X148861311Y-131949691D01*
X148866812Y-131929159D01*
X149453266Y-132515614D01*
X149453266Y-132515613D01*
X149499586Y-132451860D01*
X149599632Y-132255510D01*
X149667726Y-132045935D01*
X149702200Y-131828281D01*
X149702200Y-131607918D01*
X149667726Y-131390264D01*
X149599632Y-131180689D01*
X149499588Y-130984343D01*
X149453266Y-130920585D01*
X149453265Y-130920585D01*
X148866812Y-131507039D01*
X148861311Y-131486509D01*
X148782319Y-131349692D01*
X148670608Y-131237981D01*
X148533791Y-131158989D01*
X148513257Y-131153487D01*
X149099713Y-130567032D01*
X149035956Y-130520711D01*
X148839610Y-130420667D01*
X148630035Y-130352573D01*
X148412381Y-130318100D01*
X148192019Y-130318100D01*
X147974364Y-130352573D01*
X147764789Y-130420667D01*
X147568433Y-130520716D01*
X147504685Y-130567031D01*
X147504685Y-130567032D01*
X148091140Y-131153487D01*
X148070609Y-131158989D01*
X147933792Y-131237981D01*
X147822081Y-131349692D01*
X147743089Y-131486509D01*
X147737587Y-131507040D01*
X147151132Y-130920585D01*
X147151131Y-130920585D01*
X147104816Y-130984333D01*
X147004767Y-131180689D01*
X146936673Y-131390264D01*
X146902200Y-131607918D01*
X137102200Y-131607918D01*
X137067726Y-131390264D01*
X136999632Y-131180689D01*
X136899588Y-130984343D01*
X136853266Y-130920585D01*
X136853265Y-130920585D01*
X136266812Y-131507039D01*
X136261311Y-131486509D01*
X136182319Y-131349692D01*
X136070608Y-131237981D01*
X135933791Y-131158989D01*
X135913257Y-131153487D01*
X136499713Y-130567032D01*
X136435956Y-130520711D01*
X136239610Y-130420667D01*
X136030035Y-130352573D01*
X135812381Y-130318100D01*
X135592019Y-130318100D01*
X135374364Y-130352573D01*
X135164789Y-130420667D01*
X134968433Y-130520716D01*
X134904685Y-130567031D01*
X134904685Y-130567032D01*
X135491140Y-131153487D01*
X135470609Y-131158989D01*
X135333792Y-131237981D01*
X135222081Y-131349692D01*
X135143089Y-131486509D01*
X135137587Y-131507040D01*
X134551132Y-130920585D01*
X134551131Y-130920585D01*
X134504816Y-130984333D01*
X134404767Y-131180689D01*
X134336673Y-131390264D01*
X134302200Y-131607918D01*
X128238372Y-131607918D01*
X128240500Y-131594481D01*
X128240500Y-131405519D01*
X128240500Y-131405513D01*
X128210940Y-131218881D01*
X128152545Y-131039163D01*
X128092126Y-130920585D01*
X128066760Y-130870801D01*
X127955690Y-130717927D01*
X127822073Y-130584310D01*
X127669199Y-130473240D01*
X127500836Y-130387454D01*
X127321118Y-130329059D01*
X127134486Y-130299500D01*
X127134481Y-130299500D01*
X126945519Y-130299500D01*
X126945514Y-130299500D01*
X126758881Y-130329059D01*
X126579163Y-130387454D01*
X126410800Y-130473240D01*
X126346802Y-130519738D01*
X126257927Y-130584310D01*
X126257925Y-130584312D01*
X126257924Y-130584312D01*
X126124312Y-130717924D01*
X126124312Y-130717925D01*
X126124310Y-130717927D01*
X126112998Y-130733497D01*
X126013240Y-130870800D01*
X125927454Y-131039163D01*
X125869059Y-131218881D01*
X125839500Y-131405513D01*
X123160500Y-131405513D01*
X123130940Y-131218881D01*
X123072545Y-131039163D01*
X123012126Y-130920585D01*
X122986760Y-130870801D01*
X122875690Y-130717927D01*
X122742073Y-130584310D01*
X122589199Y-130473240D01*
X122420836Y-130387454D01*
X122241118Y-130329059D01*
X122054486Y-130299500D01*
X122054481Y-130299500D01*
X121865519Y-130299500D01*
X121865514Y-130299500D01*
X121678881Y-130329059D01*
X121499163Y-130387454D01*
X121330800Y-130473240D01*
X121266802Y-130519738D01*
X121177927Y-130584310D01*
X121177925Y-130584312D01*
X121177924Y-130584312D01*
X121044312Y-130717924D01*
X121044312Y-130717925D01*
X121044310Y-130717927D01*
X121032998Y-130733497D01*
X120933240Y-130870800D01*
X120847454Y-131039163D01*
X120789059Y-131218881D01*
X120759500Y-131405513D01*
X114443721Y-131405513D01*
X124687821Y-121161414D01*
X124749142Y-121127931D01*
X124818834Y-121132915D01*
X124874767Y-121174787D01*
X124899184Y-121240251D01*
X124899500Y-121249097D01*
X124899500Y-124420234D01*
X124879815Y-124487273D01*
X124878602Y-124489125D01*
X124790609Y-124620814D01*
X124790602Y-124620827D01*
X124730264Y-124766498D01*
X124730261Y-124766510D01*
X124699500Y-124921153D01*
X124699500Y-125078846D01*
X124730261Y-125233489D01*
X124730264Y-125233501D01*
X124790602Y-125379172D01*
X124790609Y-125379185D01*
X124878210Y-125510288D01*
X124878213Y-125510292D01*
X124989707Y-125621786D01*
X124989711Y-125621789D01*
X125120814Y-125709390D01*
X125120827Y-125709397D01*
X125215799Y-125748735D01*
X125266503Y-125769737D01*
X125419132Y-125800097D01*
X125421153Y-125800499D01*
X125421156Y-125800500D01*
X125421158Y-125800500D01*
X125578844Y-125800500D01*
X125578845Y-125800499D01*
X125733497Y-125769737D01*
X125879179Y-125709394D01*
X126010289Y-125621789D01*
X126121789Y-125510289D01*
X126209394Y-125379179D01*
X126269737Y-125233497D01*
X126300500Y-125078842D01*
X126300500Y-124921158D01*
X126300500Y-124921155D01*
X126300499Y-124921153D01*
X126269738Y-124766510D01*
X126269737Y-124766503D01*
X126230242Y-124671153D01*
X126209397Y-124620827D01*
X126209390Y-124620814D01*
X126121398Y-124489125D01*
X126100520Y-124422447D01*
X126100500Y-124420234D01*
X126100500Y-119885258D01*
X126749500Y-119885258D01*
X126749500Y-120114741D01*
X126756928Y-120171158D01*
X126779452Y-120342238D01*
X126779453Y-120342240D01*
X126838842Y-120563887D01*
X126926650Y-120775876D01*
X126926656Y-120775888D01*
X127041228Y-120974334D01*
X127041392Y-120974617D01*
X127181081Y-121156661D01*
X127181089Y-121156670D01*
X127343330Y-121318911D01*
X127343338Y-121318918D01*
X127343339Y-121318919D01*
X127360482Y-121332073D01*
X127525382Y-121458607D01*
X127525385Y-121458608D01*
X127525388Y-121458611D01*
X127724112Y-121573344D01*
X127724117Y-121573346D01*
X127724123Y-121573349D01*
X127815480Y-121611190D01*
X127936113Y-121661158D01*
X128157762Y-121720548D01*
X128385266Y-121750500D01*
X128385273Y-121750500D01*
X128614727Y-121750500D01*
X128614734Y-121750500D01*
X128842238Y-121720548D01*
X129063887Y-121661158D01*
X129275888Y-121573344D01*
X129474612Y-121458611D01*
X129656661Y-121318919D01*
X129656665Y-121318914D01*
X129656670Y-121318911D01*
X129818911Y-121156670D01*
X129818914Y-121156665D01*
X129818919Y-121156661D01*
X129958611Y-120974612D01*
X130073344Y-120775888D01*
X130161158Y-120563887D01*
X130220548Y-120342238D01*
X130250500Y-120114734D01*
X130250500Y-119885266D01*
X130220548Y-119657762D01*
X130161158Y-119436113D01*
X130096170Y-119279219D01*
X130073349Y-119224123D01*
X130073346Y-119224117D01*
X130073344Y-119224112D01*
X129958611Y-119025388D01*
X129958608Y-119025385D01*
X129958607Y-119025382D01*
X129818918Y-118843338D01*
X129818911Y-118843330D01*
X129656670Y-118681089D01*
X129656661Y-118681081D01*
X129474617Y-118541392D01*
X129275890Y-118426657D01*
X129275876Y-118426650D01*
X129063887Y-118338842D01*
X129058703Y-118337453D01*
X128842238Y-118279452D01*
X128804215Y-118274446D01*
X128614741Y-118249500D01*
X128614734Y-118249500D01*
X128385266Y-118249500D01*
X128385258Y-118249500D01*
X128168715Y-118278009D01*
X128157762Y-118279452D01*
X128064076Y-118304554D01*
X127936112Y-118338842D01*
X127724123Y-118426650D01*
X127724109Y-118426657D01*
X127525382Y-118541392D01*
X127343338Y-118681081D01*
X127181081Y-118843338D01*
X127041392Y-119025382D01*
X126926657Y-119224109D01*
X126926650Y-119224123D01*
X126838842Y-119436112D01*
X126810843Y-119540609D01*
X126787462Y-119627870D01*
X126779453Y-119657759D01*
X126779451Y-119657770D01*
X126749500Y-119885258D01*
X126100500Y-119885258D01*
X126100500Y-114700154D01*
X126120185Y-114633115D01*
X126136819Y-114612473D01*
X127896511Y-112852781D01*
X129578138Y-111171153D01*
X136449500Y-111171153D01*
X136449500Y-111328846D01*
X136480261Y-111483489D01*
X136480264Y-111483501D01*
X136540602Y-111629172D01*
X136540609Y-111629185D01*
X136628210Y-111760288D01*
X136628213Y-111760292D01*
X136739707Y-111871786D01*
X136739711Y-111871789D01*
X136870814Y-111959390D01*
X136870827Y-111959397D01*
X137016498Y-112019735D01*
X137016503Y-112019737D01*
X137171153Y-112050499D01*
X137171156Y-112050500D01*
X137171158Y-112050500D01*
X137328844Y-112050500D01*
X137328845Y-112050499D01*
X137483497Y-112019737D01*
X137629179Y-111959394D01*
X137729615Y-111892285D01*
X137760875Y-111871398D01*
X137778921Y-111865747D01*
X137794831Y-111855523D01*
X137825792Y-111851071D01*
X137827553Y-111850520D01*
X137829766Y-111850500D01*
X137913331Y-111850500D01*
X137913347Y-111850501D01*
X137920943Y-111850501D01*
X138079054Y-111850501D01*
X138079057Y-111850501D01*
X138231785Y-111809577D01*
X138231787Y-111809575D01*
X138231789Y-111809575D01*
X138231790Y-111809574D01*
X138282181Y-111780481D01*
X138282182Y-111780480D01*
X138368716Y-111730520D01*
X138480520Y-111618716D01*
X138480520Y-111618714D01*
X138490724Y-111608511D01*
X138490727Y-111608506D01*
X144813929Y-105285306D01*
X144875250Y-105251823D01*
X144877417Y-105251372D01*
X144878106Y-105251235D01*
X144878107Y-105251235D01*
X145032762Y-105220472D01*
X145178444Y-105160129D01*
X145309554Y-105072524D01*
X145421054Y-104961024D01*
X145508659Y-104829914D01*
X145569002Y-104684232D01*
X145599765Y-104529577D01*
X145599765Y-104371893D01*
X145599765Y-104371890D01*
X145599764Y-104371888D01*
X145569872Y-104221613D01*
X145569002Y-104217238D01*
X145569000Y-104217233D01*
X145508662Y-104071562D01*
X145508655Y-104071549D01*
X145421054Y-103940446D01*
X145421051Y-103940442D01*
X145309557Y-103828948D01*
X145309553Y-103828945D01*
X145178450Y-103741344D01*
X145178437Y-103741337D01*
X145032766Y-103680999D01*
X145032754Y-103680996D01*
X144878110Y-103650235D01*
X144878107Y-103650235D01*
X144720423Y-103650235D01*
X144720420Y-103650235D01*
X144565775Y-103680996D01*
X144565763Y-103680999D01*
X144420092Y-103741337D01*
X144420079Y-103741344D01*
X144288976Y-103828945D01*
X144288972Y-103828948D01*
X144177478Y-103940442D01*
X144177475Y-103940446D01*
X144089874Y-104071549D01*
X144089867Y-104071562D01*
X144029529Y-104217233D01*
X144029526Y-104217243D01*
X143998627Y-104372583D01*
X143966242Y-104434494D01*
X143964691Y-104436072D01*
X137839599Y-110561164D01*
X137778276Y-110594649D01*
X137708584Y-110589665D01*
X137683028Y-110576586D01*
X137629183Y-110540608D01*
X137629172Y-110540602D01*
X137483501Y-110480264D01*
X137483489Y-110480261D01*
X137328845Y-110449500D01*
X137328842Y-110449500D01*
X137171158Y-110449500D01*
X137171155Y-110449500D01*
X137016510Y-110480261D01*
X137016498Y-110480264D01*
X136870827Y-110540602D01*
X136870814Y-110540609D01*
X136739711Y-110628210D01*
X136739707Y-110628213D01*
X136628213Y-110739707D01*
X136628210Y-110739711D01*
X136540609Y-110870814D01*
X136540602Y-110870827D01*
X136480264Y-111016498D01*
X136480261Y-111016510D01*
X136449500Y-111171153D01*
X129578138Y-111171153D01*
X131100490Y-109648801D01*
X131161811Y-109615318D01*
X131231503Y-109620302D01*
X131257060Y-109633382D01*
X131370814Y-109709390D01*
X131370827Y-109709397D01*
X131516498Y-109769735D01*
X131516503Y-109769737D01*
X131671153Y-109800499D01*
X131671156Y-109800500D01*
X131671158Y-109800500D01*
X131828844Y-109800500D01*
X131828845Y-109800499D01*
X131983497Y-109769737D01*
X132129179Y-109709394D01*
X132219860Y-109648803D01*
X132260875Y-109621398D01*
X132327553Y-109600520D01*
X132329766Y-109600500D01*
X135413331Y-109600500D01*
X135413347Y-109600501D01*
X135420943Y-109600501D01*
X135579054Y-109600501D01*
X135579057Y-109600501D01*
X135731785Y-109559577D01*
X135801233Y-109519481D01*
X135868716Y-109480520D01*
X135980520Y-109368716D01*
X135980520Y-109368714D01*
X135990724Y-109358511D01*
X135990727Y-109358506D01*
X144014662Y-101334572D01*
X144075983Y-101301089D01*
X144078150Y-101300638D01*
X144136085Y-101289113D01*
X144233497Y-101269737D01*
X144379179Y-101209394D01*
X144510289Y-101121789D01*
X144621789Y-101010289D01*
X144709394Y-100879179D01*
X144769737Y-100733497D01*
X144800500Y-100578842D01*
X144800500Y-100421158D01*
X144800500Y-100421155D01*
X144800499Y-100421153D01*
X144769738Y-100266510D01*
X144769738Y-100266508D01*
X144769737Y-100266503D01*
X144769735Y-100266498D01*
X144709397Y-100120827D01*
X144709390Y-100120814D01*
X144621789Y-99989711D01*
X144621786Y-99989707D01*
X144510292Y-99878213D01*
X144510288Y-99878210D01*
X144379185Y-99790609D01*
X144379172Y-99790602D01*
X144233501Y-99730264D01*
X144233489Y-99730261D01*
X144078845Y-99699500D01*
X144078842Y-99699500D01*
X143921158Y-99699500D01*
X143921155Y-99699500D01*
X143766510Y-99730261D01*
X143766498Y-99730264D01*
X143620827Y-99790602D01*
X143620814Y-99790609D01*
X143489711Y-99878210D01*
X143489707Y-99878213D01*
X143378213Y-99989707D01*
X143378210Y-99989711D01*
X143290609Y-100120814D01*
X143290602Y-100120827D01*
X143230264Y-100266498D01*
X143230261Y-100266508D01*
X143199361Y-100421850D01*
X143166976Y-100483761D01*
X143165425Y-100485339D01*
X135287584Y-108363181D01*
X135226261Y-108396666D01*
X135199903Y-108399500D01*
X132649154Y-108399500D01*
X132582115Y-108379815D01*
X132536360Y-108327011D01*
X132526416Y-108257853D01*
X132555441Y-108194297D01*
X132561473Y-108187819D01*
X139627504Y-101121789D01*
X146732474Y-94016819D01*
X146793797Y-93983334D01*
X146820155Y-93980500D01*
X148770398Y-93980500D01*
X148837437Y-94000185D01*
X148880883Y-94048205D01*
X148887715Y-94061614D01*
X149008028Y-94227213D01*
X149152786Y-94371971D01*
X149307749Y-94484556D01*
X149318390Y-94492287D01*
X149409840Y-94538883D01*
X149411080Y-94539515D01*
X149461876Y-94587490D01*
X149478671Y-94655311D01*
X149456134Y-94721446D01*
X149411080Y-94760485D01*
X149318386Y-94807715D01*
X149152786Y-94928028D01*
X149008028Y-95072786D01*
X148887715Y-95238386D01*
X148794781Y-95420776D01*
X148731522Y-95615465D01*
X148699500Y-95817648D01*
X148699500Y-96022351D01*
X148731522Y-96224534D01*
X148794781Y-96419223D01*
X148887715Y-96601613D01*
X149008028Y-96767213D01*
X149152786Y-96911971D01*
X149307749Y-97024556D01*
X149318390Y-97032287D01*
X149409840Y-97078883D01*
X149411080Y-97079515D01*
X149461876Y-97127490D01*
X149478671Y-97195311D01*
X149456134Y-97261446D01*
X149411080Y-97300485D01*
X149318386Y-97347715D01*
X149152786Y-97468028D01*
X149008028Y-97612786D01*
X148887715Y-97778386D01*
X148794781Y-97960776D01*
X148731522Y-98155465D01*
X148699500Y-98357648D01*
X148699500Y-98562351D01*
X148731522Y-98764534D01*
X148794781Y-98959223D01*
X148887715Y-99141613D01*
X149008028Y-99307213D01*
X149152786Y-99451971D01*
X149307749Y-99564556D01*
X149318390Y-99572287D01*
X149409840Y-99618883D01*
X149411080Y-99619515D01*
X149461876Y-99667490D01*
X149478671Y-99735311D01*
X149456134Y-99801446D01*
X149411080Y-99840485D01*
X149318386Y-99887715D01*
X149152786Y-100008028D01*
X149008028Y-100152786D01*
X148887715Y-100318386D01*
X148794781Y-100500776D01*
X148731522Y-100695465D01*
X148699500Y-100897648D01*
X148699500Y-101102351D01*
X148731522Y-101304534D01*
X148794781Y-101499223D01*
X148887715Y-101681613D01*
X149008028Y-101847213D01*
X149152786Y-101991971D01*
X149307749Y-102104556D01*
X149318390Y-102112287D01*
X149409840Y-102158883D01*
X149411080Y-102159515D01*
X149461876Y-102207490D01*
X149478671Y-102275311D01*
X149456134Y-102341446D01*
X149411080Y-102380485D01*
X149318386Y-102427715D01*
X149152786Y-102548028D01*
X149008028Y-102692786D01*
X148887715Y-102858386D01*
X148794781Y-103040776D01*
X148731522Y-103235465D01*
X148699500Y-103437648D01*
X148699500Y-103642351D01*
X148731522Y-103844534D01*
X148794781Y-104039223D01*
X148858691Y-104164653D01*
X148885485Y-104217238D01*
X148887715Y-104221613D01*
X149008028Y-104387213D01*
X149152786Y-104531971D01*
X149307749Y-104644556D01*
X149318390Y-104652287D01*
X149409840Y-104698883D01*
X149411080Y-104699515D01*
X149461876Y-104747490D01*
X149478671Y-104815311D01*
X149456134Y-104881446D01*
X149411080Y-104920485D01*
X149318386Y-104967715D01*
X149152786Y-105088028D01*
X149008028Y-105232786D01*
X148887715Y-105398386D01*
X148794781Y-105580776D01*
X148731522Y-105775465D01*
X148699500Y-105977648D01*
X148699500Y-106182351D01*
X148731522Y-106384534D01*
X148794781Y-106579223D01*
X148887715Y-106761613D01*
X149008028Y-106927213D01*
X149152786Y-107071971D01*
X149244330Y-107138480D01*
X149318390Y-107192287D01*
X149409840Y-107238883D01*
X149411080Y-107239515D01*
X149461876Y-107287490D01*
X149478671Y-107355311D01*
X149456134Y-107421446D01*
X149411080Y-107460485D01*
X149318386Y-107507715D01*
X149152786Y-107628028D01*
X149008028Y-107772786D01*
X148887715Y-107938386D01*
X148794781Y-108120776D01*
X148731522Y-108315465D01*
X148699500Y-108517648D01*
X148699500Y-108722351D01*
X148731522Y-108924534D01*
X148794781Y-109119223D01*
X148887715Y-109301613D01*
X149008028Y-109467213D01*
X149152786Y-109611971D01*
X149286880Y-109709394D01*
X149318390Y-109732287D01*
X149391886Y-109769735D01*
X149411080Y-109779515D01*
X149461876Y-109827490D01*
X149478671Y-109895311D01*
X149456134Y-109961446D01*
X149411080Y-110000485D01*
X149318386Y-110047715D01*
X149152786Y-110168028D01*
X149008028Y-110312786D01*
X148887715Y-110478386D01*
X148794781Y-110660776D01*
X148731522Y-110855465D01*
X148699500Y-111057648D01*
X148699500Y-111262351D01*
X148731522Y-111464534D01*
X148794781Y-111659223D01*
X148846277Y-111760288D01*
X148871391Y-111809577D01*
X148887715Y-111841613D01*
X149008028Y-112007213D01*
X149152786Y-112151971D01*
X149307749Y-112264556D01*
X149318390Y-112272287D01*
X149409840Y-112318883D01*
X149411080Y-112319515D01*
X149461876Y-112367490D01*
X149478671Y-112435311D01*
X149456134Y-112501446D01*
X149411080Y-112540485D01*
X149318386Y-112587715D01*
X149152786Y-112708028D01*
X149008028Y-112852786D01*
X148887715Y-113018386D01*
X148794781Y-113200776D01*
X148731522Y-113395465D01*
X148699500Y-113597648D01*
X148699500Y-113802351D01*
X148731522Y-114004534D01*
X148794781Y-114199223D01*
X148887715Y-114381613D01*
X149008028Y-114547213D01*
X149152786Y-114691971D01*
X149307749Y-114804556D01*
X149318390Y-114812287D01*
X149409840Y-114858883D01*
X149411080Y-114859515D01*
X149461876Y-114907490D01*
X149478671Y-114975311D01*
X149456134Y-115041446D01*
X149411080Y-115080485D01*
X149318386Y-115127715D01*
X149152786Y-115248028D01*
X149008028Y-115392786D01*
X148887715Y-115558386D01*
X148794781Y-115740776D01*
X148731522Y-115935465D01*
X148699500Y-116137648D01*
X148699500Y-116342351D01*
X148731522Y-116544534D01*
X148794781Y-116739223D01*
X148887715Y-116921613D01*
X149008028Y-117087213D01*
X149152786Y-117231971D01*
X149307749Y-117344556D01*
X149318390Y-117352287D01*
X149407732Y-117397809D01*
X149411080Y-117399515D01*
X149461876Y-117447490D01*
X149478671Y-117515311D01*
X149456134Y-117581446D01*
X149411080Y-117620485D01*
X149318386Y-117667715D01*
X149152786Y-117788028D01*
X149008028Y-117932786D01*
X148887715Y-118098386D01*
X148794781Y-118280776D01*
X148731522Y-118475465D01*
X148699500Y-118677648D01*
X148699500Y-118882351D01*
X148731522Y-119084534D01*
X148794781Y-119279223D01*
X148887715Y-119461613D01*
X149008028Y-119627213D01*
X149152786Y-119771971D01*
X149307749Y-119884556D01*
X149318390Y-119892287D01*
X149407212Y-119937544D01*
X149500776Y-119985218D01*
X149500778Y-119985218D01*
X149500781Y-119985220D01*
X149597045Y-120016498D01*
X149695465Y-120048477D01*
X149796557Y-120064488D01*
X149897648Y-120080500D01*
X149897649Y-120080500D01*
X150102351Y-120080500D01*
X150102352Y-120080500D01*
X150304534Y-120048477D01*
X150304539Y-120048475D01*
X150304541Y-120048475D01*
X150338180Y-120037545D01*
X150408021Y-120035548D01*
X150467854Y-120071628D01*
X150498684Y-120134328D01*
X150500500Y-120155475D01*
X150500500Y-135219202D01*
X150480815Y-135286241D01*
X150464181Y-135306883D01*
X148826402Y-136944661D01*
X148765079Y-136978146D01*
X148700403Y-136974911D01*
X148675784Y-136966912D01*
X148630152Y-136952085D01*
X148521286Y-136934842D01*
X148412422Y-136917600D01*
X148191978Y-136917600D01*
X148119401Y-136929095D01*
X147974247Y-136952085D01*
X147764596Y-137020203D01*
X147764593Y-137020204D01*
X147568174Y-137120287D01*
X147389841Y-137249852D01*
X147389836Y-137249856D01*
X147233956Y-137405736D01*
X147233952Y-137405741D01*
X147104387Y-137584074D01*
X147004304Y-137780493D01*
X147004303Y-137780496D01*
X146936185Y-137990147D01*
X146901700Y-138207878D01*
X146901700Y-138428321D01*
X146936185Y-138646052D01*
X147004303Y-138855703D01*
X147004304Y-138855706D01*
X147104387Y-139052125D01*
X147233952Y-139230458D01*
X147233956Y-139230463D01*
X147389836Y-139386343D01*
X147389841Y-139386347D01*
X147545392Y-139499360D01*
X147568178Y-139515915D01*
X147696575Y-139581337D01*
X147764593Y-139615995D01*
X147764596Y-139615996D01*
X147865876Y-139648903D01*
X147974249Y-139684115D01*
X148191978Y-139718600D01*
X148191979Y-139718600D01*
X148412421Y-139718600D01*
X148412422Y-139718600D01*
X148630151Y-139684115D01*
X148839806Y-139615995D01*
X149036222Y-139515915D01*
X149214565Y-139386342D01*
X149370442Y-139230465D01*
X149500015Y-139052122D01*
X149600095Y-138855706D01*
X149668215Y-138646051D01*
X149702700Y-138428322D01*
X149702700Y-138207878D01*
X149668215Y-137990149D01*
X149645388Y-137919894D01*
X149643393Y-137850053D01*
X149675636Y-137793897D01*
X151459506Y-136010028D01*
X151459511Y-136010024D01*
X151469714Y-135999820D01*
X151469716Y-135999820D01*
X151581520Y-135888016D01*
X151615558Y-135829060D01*
X151632624Y-135799501D01*
X151660575Y-135751088D01*
X151660574Y-135751088D01*
X151660577Y-135751085D01*
X151701501Y-135598357D01*
X151701501Y-135440243D01*
X151701501Y-135432648D01*
X151701500Y-135432630D01*
X151701500Y-130657901D01*
X151721185Y-130590862D01*
X151773989Y-130545107D01*
X151843147Y-130535163D01*
X151849670Y-130536280D01*
X151894046Y-130545107D01*
X151921157Y-130550500D01*
X151921158Y-130550500D01*
X152078844Y-130550500D01*
X152078845Y-130550499D01*
X152233497Y-130519737D01*
X152379179Y-130459394D01*
X152436411Y-130421153D01*
X156449500Y-130421153D01*
X156449500Y-130578846D01*
X156480261Y-130733489D01*
X156480264Y-130733501D01*
X156540602Y-130879172D01*
X156540609Y-130879185D01*
X156628210Y-131010288D01*
X156628213Y-131010292D01*
X156739707Y-131121786D01*
X156739711Y-131121789D01*
X156870814Y-131209390D01*
X156870827Y-131209397D01*
X157016498Y-131269735D01*
X157016503Y-131269737D01*
X157171153Y-131300499D01*
X157171156Y-131300500D01*
X157171158Y-131300500D01*
X157328844Y-131300500D01*
X157328845Y-131300499D01*
X157483497Y-131269737D01*
X157629179Y-131209394D01*
X157760289Y-131121789D01*
X157871789Y-131010289D01*
X157959394Y-130879179D01*
X158019737Y-130733497D01*
X158050500Y-130578842D01*
X158050500Y-130421158D01*
X158050500Y-130421155D01*
X158050499Y-130421153D01*
X158040679Y-130371786D01*
X158019737Y-130266503D01*
X158017163Y-130260288D01*
X157959397Y-130120827D01*
X157959390Y-130120814D01*
X157871398Y-129989125D01*
X157850520Y-129922447D01*
X157850500Y-129920234D01*
X157850500Y-125800097D01*
X157859145Y-125770653D01*
X157865668Y-125740671D01*
X157869422Y-125735655D01*
X157870185Y-125733058D01*
X157886813Y-125712421D01*
X158014663Y-125584571D01*
X158075982Y-125551089D01*
X158078150Y-125550638D01*
X158136085Y-125539113D01*
X158233497Y-125519737D01*
X158379179Y-125459394D01*
X158510289Y-125371789D01*
X158621789Y-125260289D01*
X158709394Y-125129179D01*
X158769737Y-124983497D01*
X158800500Y-124828842D01*
X158800500Y-124671158D01*
X158800500Y-124671155D01*
X158800499Y-124671153D01*
X158769738Y-124516510D01*
X158769738Y-124516508D01*
X158769737Y-124516503D01*
X158769735Y-124516498D01*
X158709397Y-124370827D01*
X158709390Y-124370814D01*
X158621789Y-124239711D01*
X158621786Y-124239707D01*
X158510292Y-124128213D01*
X158510288Y-124128210D01*
X158379185Y-124040609D01*
X158379172Y-124040602D01*
X158233501Y-123980264D01*
X158233489Y-123980261D01*
X158078845Y-123949500D01*
X158078842Y-123949500D01*
X157921158Y-123949500D01*
X157921155Y-123949500D01*
X157766510Y-123980261D01*
X157766498Y-123980264D01*
X157620827Y-124040602D01*
X157620814Y-124040609D01*
X157489711Y-124128210D01*
X157489707Y-124128213D01*
X157378213Y-124239707D01*
X157378210Y-124239711D01*
X157290609Y-124370814D01*
X157290602Y-124370827D01*
X157230264Y-124516498D01*
X157230261Y-124516508D01*
X157199361Y-124671850D01*
X157166976Y-124733761D01*
X157165425Y-124735339D01*
X156769481Y-125131282D01*
X156769479Y-125131285D01*
X156719361Y-125218094D01*
X156719359Y-125218096D01*
X156690425Y-125268209D01*
X156690424Y-125268210D01*
X156690423Y-125268215D01*
X156649499Y-125420943D01*
X156649499Y-125420945D01*
X156649499Y-125589046D01*
X156649500Y-125589059D01*
X156649500Y-129920234D01*
X156629815Y-129987273D01*
X156628602Y-129989125D01*
X156540609Y-130120814D01*
X156540602Y-130120827D01*
X156480264Y-130266498D01*
X156480261Y-130266510D01*
X156449500Y-130421153D01*
X152436411Y-130421153D01*
X152510289Y-130371789D01*
X152529505Y-130352573D01*
X152554694Y-130327385D01*
X152621786Y-130260292D01*
X152621789Y-130260289D01*
X152709394Y-130129179D01*
X152712854Y-130120827D01*
X152767163Y-129989711D01*
X152769737Y-129983497D01*
X152800500Y-129828842D01*
X152800500Y-129671158D01*
X152800500Y-129671155D01*
X152800499Y-129671153D01*
X152776980Y-129552916D01*
X152769737Y-129516503D01*
X152750470Y-129469988D01*
X152709397Y-129370827D01*
X152709390Y-129370814D01*
X152621398Y-129239125D01*
X152600520Y-129172447D01*
X152600500Y-129170234D01*
X152600500Y-118550097D01*
X152620185Y-118483058D01*
X152636819Y-118462416D01*
X155163770Y-115935465D01*
X157764662Y-113334572D01*
X157825983Y-113301089D01*
X157828150Y-113300638D01*
X157886085Y-113289113D01*
X157983497Y-113269737D01*
X158129179Y-113209394D01*
X158260289Y-113121789D01*
X158371789Y-113010289D01*
X158459394Y-112879179D01*
X158459397Y-112879172D01*
X158482263Y-112823969D01*
X158526104Y-112769565D01*
X158592398Y-112747500D01*
X158660097Y-112764779D01*
X158684505Y-112783740D01*
X159113181Y-113212416D01*
X159146666Y-113273739D01*
X159149500Y-113300097D01*
X159149500Y-139920234D01*
X159129815Y-139987273D01*
X159128602Y-139989125D01*
X159040609Y-140120814D01*
X159040602Y-140120827D01*
X158980264Y-140266498D01*
X158980261Y-140266510D01*
X158949500Y-140421153D01*
X158949500Y-140578846D01*
X158980261Y-140733489D01*
X158980264Y-140733501D01*
X159040602Y-140879172D01*
X159040609Y-140879185D01*
X159128210Y-141010288D01*
X159128213Y-141010292D01*
X159239707Y-141121786D01*
X159239711Y-141121789D01*
X159370814Y-141209390D01*
X159370827Y-141209397D01*
X159516498Y-141269735D01*
X159516503Y-141269737D01*
X159671153Y-141300499D01*
X159671156Y-141300500D01*
X159671158Y-141300500D01*
X159828844Y-141300500D01*
X159828845Y-141300499D01*
X159983497Y-141269737D01*
X160129179Y-141209394D01*
X160260289Y-141121789D01*
X160371789Y-141010289D01*
X160459394Y-140879179D01*
X160519737Y-140733497D01*
X160550500Y-140578842D01*
X160550500Y-140421158D01*
X160550500Y-140421155D01*
X160550499Y-140421153D01*
X160519738Y-140266510D01*
X160519737Y-140266503D01*
X160519735Y-140266498D01*
X160459397Y-140120827D01*
X160459390Y-140120814D01*
X160371398Y-139989125D01*
X160350520Y-139922447D01*
X160350500Y-139920234D01*
X160350500Y-112920943D01*
X160350499Y-112920939D01*
X160348135Y-112912119D01*
X160339310Y-112879179D01*
X160309577Y-112768215D01*
X160269904Y-112699500D01*
X160230520Y-112631284D01*
X160118716Y-112519480D01*
X160114385Y-112515149D01*
X160114374Y-112515139D01*
X151336623Y-103737388D01*
X151303138Y-103676065D01*
X151301183Y-103647225D01*
X151300500Y-103647225D01*
X151300500Y-103437648D01*
X151268477Y-103235465D01*
X151205218Y-103040776D01*
X151171503Y-102974607D01*
X151112287Y-102858390D01*
X151104556Y-102847749D01*
X150991971Y-102692786D01*
X150847213Y-102548028D01*
X150681614Y-102427715D01*
X150675006Y-102424348D01*
X150588917Y-102380483D01*
X150538123Y-102332511D01*
X150521328Y-102264690D01*
X150543865Y-102198555D01*
X150588917Y-102159516D01*
X150681610Y-102112287D01*
X150702770Y-102096913D01*
X150847213Y-101991971D01*
X150847215Y-101991968D01*
X150847219Y-101991966D01*
X150991966Y-101847219D01*
X150991968Y-101847215D01*
X150991971Y-101847213D01*
X151044732Y-101774590D01*
X151112287Y-101681610D01*
X151205220Y-101499219D01*
X151268477Y-101304534D01*
X151300500Y-101102352D01*
X151300500Y-100897648D01*
X151268477Y-100695466D01*
X151205220Y-100500781D01*
X151205218Y-100500778D01*
X151205218Y-100500776D01*
X151171503Y-100434607D01*
X151112287Y-100318390D01*
X151104556Y-100307749D01*
X150991971Y-100152786D01*
X150847213Y-100008028D01*
X150681614Y-99887715D01*
X150662959Y-99878210D01*
X150588917Y-99840483D01*
X150538123Y-99792511D01*
X150521328Y-99724690D01*
X150543865Y-99658555D01*
X150588917Y-99619516D01*
X150681610Y-99572287D01*
X150702770Y-99556913D01*
X150847213Y-99451971D01*
X150847215Y-99451968D01*
X150847219Y-99451966D01*
X150991966Y-99307219D01*
X150991968Y-99307215D01*
X150991971Y-99307213D01*
X151044732Y-99234590D01*
X151112287Y-99141610D01*
X151205220Y-98959219D01*
X151268477Y-98764534D01*
X151300500Y-98562352D01*
X151300500Y-98369097D01*
X151320185Y-98302058D01*
X151372989Y-98256303D01*
X151442147Y-98246359D01*
X151505703Y-98275384D01*
X151512181Y-98281416D01*
X161062181Y-107831416D01*
X161095666Y-107892739D01*
X161098500Y-107919097D01*
X161098500Y-139862330D01*
X161098499Y-139862348D01*
X161098499Y-140028054D01*
X161098498Y-140028054D01*
X161139423Y-140180786D01*
X161139424Y-140180787D01*
X161167989Y-140230263D01*
X161218480Y-140317716D01*
X161218482Y-140317718D01*
X161337349Y-140436585D01*
X161337355Y-140436590D01*
X161665425Y-140764660D01*
X161698910Y-140825983D01*
X161699361Y-140828149D01*
X161730261Y-140983491D01*
X161730264Y-140983501D01*
X161790602Y-141129172D01*
X161790609Y-141129185D01*
X161878210Y-141260288D01*
X161878213Y-141260292D01*
X161989707Y-141371786D01*
X161989711Y-141371789D01*
X162120814Y-141459390D01*
X162120827Y-141459397D01*
X162221960Y-141501287D01*
X162266503Y-141519737D01*
X162421153Y-141550499D01*
X162421156Y-141550500D01*
X162421158Y-141550500D01*
X162578844Y-141550500D01*
X162578845Y-141550499D01*
X162733497Y-141519737D01*
X162879179Y-141459394D01*
X163010289Y-141371789D01*
X163121789Y-141260289D01*
X163209394Y-141129179D01*
X163269737Y-140983497D01*
X163300500Y-140828842D01*
X163300500Y-140671158D01*
X163300500Y-140671155D01*
X163300499Y-140671153D01*
X163276199Y-140548990D01*
X163269737Y-140516503D01*
X163269735Y-140516498D01*
X163209397Y-140370827D01*
X163209390Y-140370814D01*
X163121789Y-140239711D01*
X163121786Y-140239707D01*
X163010292Y-140128213D01*
X163010288Y-140128210D01*
X162879185Y-140040609D01*
X162879172Y-140040602D01*
X162733501Y-139980264D01*
X162733491Y-139980261D01*
X162578149Y-139949361D01*
X162516238Y-139916976D01*
X162514660Y-139915425D01*
X162335819Y-139736584D01*
X162302334Y-139675261D01*
X162299500Y-139648903D01*
X162299500Y-137474499D01*
X162319185Y-137407460D01*
X162371989Y-137361705D01*
X162423500Y-137350499D01*
X163800002Y-137350499D01*
X163800008Y-137350499D01*
X163902797Y-137339999D01*
X164069334Y-137284814D01*
X164218656Y-137192712D01*
X164342712Y-137068656D01*
X164434814Y-136919334D01*
X164489999Y-136752797D01*
X164500500Y-136650009D01*
X164500499Y-135349992D01*
X164489999Y-135247203D01*
X164434814Y-135080666D01*
X164342712Y-134931344D01*
X164218656Y-134807288D01*
X164069334Y-134715186D01*
X164069333Y-134715185D01*
X164063878Y-134711821D01*
X164017154Y-134659873D01*
X164005931Y-134590910D01*
X164033775Y-134526828D01*
X164041272Y-134518623D01*
X164180104Y-134379792D01*
X164305051Y-134207816D01*
X164401557Y-134018412D01*
X164467246Y-133816243D01*
X164500500Y-133606287D01*
X164500500Y-133393713D01*
X164467246Y-133183757D01*
X164401557Y-132981588D01*
X164305051Y-132792184D01*
X164305049Y-132792181D01*
X164305048Y-132792179D01*
X164180109Y-132620213D01*
X164029786Y-132469890D01*
X163857820Y-132344951D01*
X163668414Y-132248444D01*
X163668413Y-132248443D01*
X163668412Y-132248443D01*
X163466243Y-132182754D01*
X163466241Y-132182753D01*
X163466240Y-132182753D01*
X163304957Y-132157208D01*
X163256287Y-132149500D01*
X162743713Y-132149500D01*
X162704202Y-132155757D01*
X162533759Y-132182753D01*
X162533755Y-132182754D01*
X162461817Y-132206128D01*
X162391976Y-132208123D01*
X162332143Y-132172042D01*
X162301316Y-132109341D01*
X162299500Y-132088197D01*
X162299500Y-126171153D01*
X163699500Y-126171153D01*
X163699500Y-126328846D01*
X163730261Y-126483489D01*
X163730264Y-126483501D01*
X163790602Y-126629172D01*
X163790609Y-126629185D01*
X163878210Y-126760288D01*
X163878213Y-126760292D01*
X163989707Y-126871786D01*
X163989711Y-126871789D01*
X164120814Y-126959390D01*
X164120827Y-126959397D01*
X164266498Y-127019735D01*
X164266503Y-127019737D01*
X164421153Y-127050499D01*
X164421156Y-127050500D01*
X164421158Y-127050500D01*
X164578844Y-127050500D01*
X164578845Y-127050499D01*
X164733497Y-127019737D01*
X164879179Y-126959394D01*
X165010289Y-126871789D01*
X165121789Y-126760289D01*
X165209394Y-126629179D01*
X165269737Y-126483497D01*
X165289113Y-126386085D01*
X165300638Y-126328150D01*
X165333023Y-126266239D01*
X165334519Y-126264715D01*
X168618713Y-122980521D01*
X168618716Y-122980520D01*
X168730520Y-122868716D01*
X168780639Y-122781904D01*
X168809577Y-122731785D01*
X168850501Y-122579057D01*
X168850501Y-122420943D01*
X168850501Y-122413348D01*
X168850500Y-122413330D01*
X168850500Y-111420945D01*
X168850500Y-111420943D01*
X168809577Y-111268216D01*
X168809573Y-111268209D01*
X168730524Y-111131290D01*
X168730521Y-111131286D01*
X168730520Y-111131284D01*
X168618716Y-111019480D01*
X168618715Y-111019479D01*
X168614385Y-111015149D01*
X168614374Y-111015139D01*
X167237590Y-109638355D01*
X167237588Y-109638352D01*
X167118716Y-109519480D01*
X167118714Y-109519479D01*
X167031904Y-109469360D01*
X166981785Y-109440423D01*
X166908040Y-109420662D01*
X166901024Y-109417830D01*
X166884742Y-109404948D01*
X166859763Y-109390527D01*
X166534077Y-109064841D01*
X166500592Y-109003518D01*
X166503827Y-108938842D01*
X166508477Y-108924534D01*
X166540500Y-108722352D01*
X166540500Y-108517648D01*
X166518669Y-108379815D01*
X166508477Y-108315465D01*
X166445218Y-108120776D01*
X166411503Y-108054607D01*
X166352287Y-107938390D01*
X166300954Y-107867735D01*
X166231971Y-107772786D01*
X166087213Y-107628028D01*
X165921614Y-107507715D01*
X165915006Y-107504348D01*
X165828917Y-107460483D01*
X165778123Y-107412511D01*
X165761328Y-107344690D01*
X165783865Y-107278555D01*
X165828917Y-107239516D01*
X165921610Y-107192287D01*
X165995670Y-107138480D01*
X166087213Y-107071971D01*
X166087215Y-107071968D01*
X166087219Y-107071966D01*
X166231966Y-106927219D01*
X166231968Y-106927215D01*
X166231971Y-106927213D01*
X166284732Y-106854590D01*
X166352287Y-106761610D01*
X166445220Y-106579219D01*
X166508477Y-106384534D01*
X166540500Y-106182352D01*
X166540500Y-105977648D01*
X166508477Y-105775466D01*
X166445220Y-105580781D01*
X166445218Y-105580778D01*
X166445218Y-105580776D01*
X166405167Y-105502173D01*
X166352287Y-105398390D01*
X166344556Y-105387749D01*
X166231971Y-105232786D01*
X166087213Y-105088028D01*
X165921614Y-104967715D01*
X165908480Y-104961023D01*
X165828917Y-104920483D01*
X165778123Y-104872511D01*
X165761328Y-104804690D01*
X165783865Y-104738555D01*
X165828917Y-104699516D01*
X165921610Y-104652287D01*
X165942770Y-104636913D01*
X166087213Y-104531971D01*
X166087215Y-104531968D01*
X166087219Y-104531966D01*
X166231966Y-104387219D01*
X166231968Y-104387215D01*
X166231971Y-104387213D01*
X166284732Y-104314590D01*
X166352287Y-104221610D01*
X166445220Y-104039219D01*
X166508477Y-103844534D01*
X166540500Y-103642352D01*
X166540500Y-103437648D01*
X166508477Y-103235466D01*
X166445220Y-103040781D01*
X166445218Y-103040778D01*
X166445218Y-103040776D01*
X166411503Y-102974607D01*
X166352287Y-102858390D01*
X166344556Y-102847749D01*
X166231971Y-102692786D01*
X166087213Y-102548028D01*
X165921614Y-102427715D01*
X165915006Y-102424348D01*
X165828917Y-102380483D01*
X165778123Y-102332511D01*
X165761328Y-102264690D01*
X165783865Y-102198555D01*
X165828917Y-102159516D01*
X165921610Y-102112287D01*
X165942770Y-102096913D01*
X166087213Y-101991971D01*
X166087215Y-101991968D01*
X166087219Y-101991966D01*
X166231966Y-101847219D01*
X166231968Y-101847215D01*
X166231971Y-101847213D01*
X166284732Y-101774590D01*
X166352287Y-101681610D01*
X166445220Y-101499219D01*
X166508477Y-101304534D01*
X166540500Y-101102352D01*
X166540500Y-100897648D01*
X166508477Y-100695466D01*
X166445220Y-100500781D01*
X166445218Y-100500778D01*
X166445218Y-100500776D01*
X166411503Y-100434607D01*
X166352287Y-100318390D01*
X166344556Y-100307749D01*
X166231971Y-100152786D01*
X166087213Y-100008028D01*
X165921614Y-99887715D01*
X165902959Y-99878210D01*
X165828917Y-99840483D01*
X165778123Y-99792511D01*
X165761328Y-99724690D01*
X165783865Y-99658555D01*
X165828917Y-99619516D01*
X165921610Y-99572287D01*
X165942770Y-99556913D01*
X166087213Y-99451971D01*
X166087215Y-99451968D01*
X166087219Y-99451966D01*
X166231966Y-99307219D01*
X166231968Y-99307215D01*
X166231971Y-99307213D01*
X166284732Y-99234590D01*
X166352287Y-99141610D01*
X166445220Y-98959219D01*
X166508477Y-98764534D01*
X166540500Y-98562352D01*
X166540500Y-98357648D01*
X166528426Y-98281416D01*
X166508477Y-98155465D01*
X166445218Y-97960776D01*
X166411503Y-97894607D01*
X166352287Y-97778390D01*
X166344556Y-97767749D01*
X166231971Y-97612786D01*
X166087213Y-97468028D01*
X165921614Y-97347715D01*
X165915006Y-97344348D01*
X165828917Y-97300483D01*
X165778123Y-97252511D01*
X165761328Y-97184690D01*
X165783865Y-97118555D01*
X165828917Y-97079516D01*
X165921610Y-97032287D01*
X165942770Y-97016913D01*
X166087213Y-96911971D01*
X166087215Y-96911968D01*
X166087219Y-96911966D01*
X166231966Y-96767219D01*
X166231968Y-96767215D01*
X166231971Y-96767213D01*
X166284732Y-96694590D01*
X166352287Y-96601610D01*
X166445220Y-96419219D01*
X166508477Y-96224534D01*
X166540500Y-96022352D01*
X166540500Y-95817648D01*
X166508477Y-95615466D01*
X166445220Y-95420781D01*
X166445218Y-95420778D01*
X166445218Y-95420776D01*
X166411503Y-95354607D01*
X166352287Y-95238390D01*
X166344556Y-95227749D01*
X166231971Y-95072786D01*
X166087213Y-94928028D01*
X165921614Y-94807715D01*
X165915006Y-94804348D01*
X165828917Y-94760483D01*
X165778123Y-94712511D01*
X165761328Y-94644690D01*
X165783865Y-94578555D01*
X165828917Y-94539516D01*
X165921610Y-94492287D01*
X165942770Y-94476913D01*
X166087213Y-94371971D01*
X166087215Y-94371968D01*
X166087219Y-94371966D01*
X166231966Y-94227219D01*
X166231968Y-94227215D01*
X166231971Y-94227213D01*
X166284732Y-94154590D01*
X166352287Y-94061610D01*
X166445220Y-93879219D01*
X166508477Y-93684534D01*
X166540500Y-93482352D01*
X166540500Y-93277648D01*
X166508477Y-93075466D01*
X166445220Y-92880781D01*
X166445218Y-92880778D01*
X166445218Y-92880776D01*
X166411503Y-92814607D01*
X166352287Y-92698390D01*
X166344556Y-92687749D01*
X166231971Y-92532786D01*
X166087213Y-92388028D01*
X165921614Y-92267715D01*
X165915006Y-92264348D01*
X165828917Y-92220483D01*
X165778123Y-92172511D01*
X165761328Y-92104690D01*
X165783865Y-92038555D01*
X165828917Y-91999516D01*
X165921610Y-91952287D01*
X165942770Y-91936913D01*
X166087213Y-91831971D01*
X166087215Y-91831968D01*
X166087219Y-91831966D01*
X166231966Y-91687219D01*
X166231968Y-91687215D01*
X166231971Y-91687213D01*
X166284732Y-91614590D01*
X166352287Y-91521610D01*
X166445220Y-91339219D01*
X166508477Y-91144534D01*
X166540500Y-90942352D01*
X166540500Y-90737648D01*
X166508477Y-90535466D01*
X166445220Y-90340781D01*
X166445218Y-90340778D01*
X166445218Y-90340776D01*
X166411503Y-90274607D01*
X166352287Y-90158390D01*
X166344556Y-90147749D01*
X166231971Y-89992786D01*
X166087213Y-89848028D01*
X165921614Y-89727715D01*
X165915006Y-89724348D01*
X165828917Y-89680483D01*
X165778123Y-89632511D01*
X165761328Y-89564690D01*
X165783865Y-89498555D01*
X165828917Y-89459516D01*
X165921610Y-89412287D01*
X165942770Y-89396913D01*
X166087213Y-89291971D01*
X166087215Y-89291968D01*
X166087219Y-89291966D01*
X166231966Y-89147219D01*
X166231968Y-89147215D01*
X166231971Y-89147213D01*
X166284732Y-89074590D01*
X166352287Y-88981610D01*
X166445220Y-88799219D01*
X166508477Y-88604534D01*
X166540500Y-88402352D01*
X166540500Y-88197648D01*
X166508477Y-87995466D01*
X166445220Y-87800781D01*
X166445218Y-87800778D01*
X166445218Y-87800776D01*
X166411503Y-87734607D01*
X166352287Y-87618390D01*
X166344556Y-87607749D01*
X166231971Y-87452786D01*
X166087213Y-87308028D01*
X165921614Y-87187715D01*
X165915006Y-87184348D01*
X165828917Y-87140483D01*
X165778123Y-87092511D01*
X165761328Y-87024690D01*
X165783865Y-86958555D01*
X165828917Y-86919516D01*
X165921610Y-86872287D01*
X165942770Y-86856913D01*
X166087213Y-86751971D01*
X166087215Y-86751968D01*
X166087219Y-86751966D01*
X166231966Y-86607219D01*
X166231968Y-86607215D01*
X166231971Y-86607213D01*
X166284732Y-86534590D01*
X166352287Y-86441610D01*
X166445220Y-86259219D01*
X166508477Y-86064534D01*
X166540500Y-85862352D01*
X166540500Y-85657648D01*
X166508477Y-85455466D01*
X166445220Y-85260781D01*
X166445218Y-85260778D01*
X166445218Y-85260776D01*
X166411503Y-85194607D01*
X166352287Y-85078390D01*
X166344556Y-85067749D01*
X166231971Y-84912786D01*
X166087213Y-84768028D01*
X165921614Y-84647715D01*
X165915006Y-84644348D01*
X165828917Y-84600483D01*
X165778123Y-84552511D01*
X165761328Y-84484690D01*
X165783865Y-84418555D01*
X165828917Y-84379516D01*
X165921610Y-84332287D01*
X165942770Y-84316913D01*
X166087213Y-84211971D01*
X166087215Y-84211968D01*
X166087219Y-84211966D01*
X166231966Y-84067219D01*
X166231968Y-84067215D01*
X166231971Y-84067213D01*
X166284732Y-83994590D01*
X166352287Y-83901610D01*
X166445220Y-83719219D01*
X166508477Y-83524534D01*
X166540500Y-83322352D01*
X166540500Y-83117648D01*
X166508477Y-82915466D01*
X166445220Y-82720781D01*
X166445218Y-82720778D01*
X166445218Y-82720776D01*
X166411503Y-82654607D01*
X166352287Y-82538390D01*
X166344556Y-82527749D01*
X166231971Y-82372786D01*
X166087213Y-82228028D01*
X165921613Y-82107715D01*
X165921612Y-82107714D01*
X165921610Y-82107713D01*
X165864653Y-82078691D01*
X165739223Y-82014781D01*
X165544534Y-81951522D01*
X165369995Y-81923878D01*
X165342352Y-81919500D01*
X165137648Y-81919500D01*
X165113329Y-81923351D01*
X164935465Y-81951522D01*
X164740776Y-82014781D01*
X164558386Y-82107715D01*
X164392786Y-82228028D01*
X164248028Y-82372786D01*
X164127715Y-82538386D01*
X164034781Y-82720776D01*
X163971522Y-82915465D01*
X163939500Y-83117648D01*
X163939500Y-83322351D01*
X163971522Y-83524534D01*
X164034781Y-83719223D01*
X164127715Y-83901613D01*
X164248028Y-84067213D01*
X164392786Y-84211971D01*
X164547749Y-84324556D01*
X164558390Y-84332287D01*
X164649840Y-84378883D01*
X164651080Y-84379515D01*
X164701876Y-84427490D01*
X164718671Y-84495311D01*
X164696134Y-84561446D01*
X164651080Y-84600485D01*
X164558386Y-84647715D01*
X164392786Y-84768028D01*
X164248028Y-84912786D01*
X164127715Y-85078386D01*
X164034781Y-85260776D01*
X163971522Y-85455465D01*
X163939500Y-85657648D01*
X163939500Y-85862351D01*
X163971522Y-86064534D01*
X164034781Y-86259223D01*
X164127715Y-86441613D01*
X164248028Y-86607213D01*
X164392786Y-86751971D01*
X164547749Y-86864556D01*
X164558390Y-86872287D01*
X164649840Y-86918883D01*
X164651080Y-86919515D01*
X164701876Y-86967490D01*
X164718671Y-87035311D01*
X164696134Y-87101446D01*
X164651080Y-87140485D01*
X164558386Y-87187715D01*
X164392786Y-87308028D01*
X164248028Y-87452786D01*
X164127715Y-87618386D01*
X164034781Y-87800776D01*
X163971522Y-87995465D01*
X163939500Y-88197648D01*
X163939500Y-88402351D01*
X163971522Y-88604534D01*
X164034781Y-88799223D01*
X164127715Y-88981613D01*
X164248028Y-89147213D01*
X164392786Y-89291971D01*
X164547749Y-89404556D01*
X164558390Y-89412287D01*
X164649840Y-89458883D01*
X164651080Y-89459515D01*
X164701876Y-89507490D01*
X164718671Y-89575311D01*
X164696134Y-89641446D01*
X164651080Y-89680485D01*
X164558386Y-89727715D01*
X164392786Y-89848028D01*
X164248028Y-89992786D01*
X164127715Y-90158386D01*
X164034781Y-90340776D01*
X163971522Y-90535465D01*
X163939500Y-90737648D01*
X163939500Y-90942351D01*
X163971522Y-91144534D01*
X164034781Y-91339223D01*
X164127715Y-91521613D01*
X164248028Y-91687213D01*
X164392786Y-91831971D01*
X164547749Y-91944556D01*
X164558390Y-91952287D01*
X164649840Y-91998883D01*
X164651080Y-91999515D01*
X164701876Y-92047490D01*
X164718671Y-92115311D01*
X164696134Y-92181446D01*
X164651080Y-92220485D01*
X164558386Y-92267715D01*
X164392786Y-92388028D01*
X164248028Y-92532786D01*
X164127715Y-92698386D01*
X164034781Y-92880776D01*
X163971522Y-93075465D01*
X163939500Y-93277648D01*
X163939500Y-93482351D01*
X163971522Y-93684534D01*
X164034781Y-93879223D01*
X164127715Y-94061613D01*
X164248028Y-94227213D01*
X164392786Y-94371971D01*
X164547749Y-94484556D01*
X164558390Y-94492287D01*
X164649840Y-94538883D01*
X164651080Y-94539515D01*
X164701876Y-94587490D01*
X164718671Y-94655311D01*
X164696134Y-94721446D01*
X164651080Y-94760485D01*
X164558386Y-94807715D01*
X164392786Y-94928028D01*
X164248028Y-95072786D01*
X164127715Y-95238386D01*
X164034781Y-95420776D01*
X163971522Y-95615465D01*
X163939500Y-95817648D01*
X163939500Y-96022351D01*
X163971522Y-96224534D01*
X164034781Y-96419223D01*
X164127715Y-96601613D01*
X164248028Y-96767213D01*
X164392786Y-96911971D01*
X164547749Y-97024556D01*
X164558390Y-97032287D01*
X164649840Y-97078883D01*
X164651080Y-97079515D01*
X164701876Y-97127490D01*
X164718671Y-97195311D01*
X164696134Y-97261446D01*
X164651080Y-97300485D01*
X164558386Y-97347715D01*
X164392786Y-97468028D01*
X164248028Y-97612786D01*
X164127715Y-97778386D01*
X164034781Y-97960776D01*
X163971522Y-98155465D01*
X163939500Y-98357648D01*
X163939500Y-98562351D01*
X163971522Y-98764534D01*
X164034781Y-98959223D01*
X164127715Y-99141613D01*
X164248028Y-99307213D01*
X164392786Y-99451971D01*
X164547749Y-99564556D01*
X164558390Y-99572287D01*
X164649840Y-99618883D01*
X164651080Y-99619515D01*
X164701876Y-99667490D01*
X164718671Y-99735311D01*
X164696134Y-99801446D01*
X164651080Y-99840485D01*
X164558386Y-99887715D01*
X164392786Y-100008028D01*
X164248028Y-100152786D01*
X164127715Y-100318386D01*
X164034781Y-100500776D01*
X163971522Y-100695465D01*
X163939500Y-100897648D01*
X163939500Y-101102351D01*
X163971522Y-101304534D01*
X164034781Y-101499223D01*
X164127715Y-101681613D01*
X164248028Y-101847213D01*
X164392786Y-101991971D01*
X164547749Y-102104556D01*
X164558390Y-102112287D01*
X164649840Y-102158883D01*
X164651080Y-102159515D01*
X164701876Y-102207490D01*
X164718671Y-102275311D01*
X164696134Y-102341446D01*
X164651080Y-102380485D01*
X164558386Y-102427715D01*
X164392786Y-102548028D01*
X164248028Y-102692786D01*
X164127715Y-102858386D01*
X164034781Y-103040776D01*
X163971522Y-103235465D01*
X163939500Y-103437648D01*
X163939500Y-103642351D01*
X163971522Y-103844534D01*
X164034781Y-104039223D01*
X164098691Y-104164653D01*
X164125485Y-104217238D01*
X164127715Y-104221613D01*
X164248028Y-104387213D01*
X164392786Y-104531971D01*
X164547749Y-104644556D01*
X164558390Y-104652287D01*
X164649840Y-104698883D01*
X164651080Y-104699515D01*
X164701876Y-104747490D01*
X164718671Y-104815311D01*
X164696134Y-104881446D01*
X164651080Y-104920485D01*
X164558386Y-104967715D01*
X164392786Y-105088028D01*
X164248028Y-105232786D01*
X164127715Y-105398386D01*
X164034781Y-105580776D01*
X163971522Y-105775465D01*
X163939500Y-105977648D01*
X163939500Y-106182351D01*
X163971522Y-106384534D01*
X164034781Y-106579223D01*
X164127715Y-106761613D01*
X164248028Y-106927213D01*
X164392786Y-107071971D01*
X164484330Y-107138480D01*
X164558390Y-107192287D01*
X164649840Y-107238883D01*
X164651080Y-107239515D01*
X164701876Y-107287490D01*
X164718671Y-107355311D01*
X164696134Y-107421446D01*
X164651080Y-107460485D01*
X164558386Y-107507715D01*
X164392786Y-107628028D01*
X164248028Y-107772786D01*
X164127715Y-107938386D01*
X164034781Y-108120776D01*
X163971522Y-108315465D01*
X163939500Y-108517648D01*
X163939500Y-108722351D01*
X163971522Y-108924534D01*
X164034781Y-109119223D01*
X164127715Y-109301613D01*
X164248028Y-109467213D01*
X164392786Y-109611971D01*
X164526880Y-109709394D01*
X164558390Y-109732287D01*
X164631886Y-109769735D01*
X164651080Y-109779515D01*
X164701876Y-109827490D01*
X164718671Y-109895311D01*
X164696134Y-109961446D01*
X164651080Y-110000485D01*
X164558386Y-110047715D01*
X164392786Y-110168028D01*
X164248028Y-110312786D01*
X164127715Y-110478386D01*
X164034781Y-110660776D01*
X163971522Y-110855465D01*
X163939500Y-111057648D01*
X163939500Y-111262351D01*
X163971522Y-111464534D01*
X164034781Y-111659223D01*
X164086277Y-111760288D01*
X164111391Y-111809577D01*
X164127715Y-111841613D01*
X164248028Y-112007213D01*
X164392786Y-112151971D01*
X164547749Y-112264556D01*
X164558390Y-112272287D01*
X164649840Y-112318883D01*
X164651080Y-112319515D01*
X164701876Y-112367490D01*
X164718671Y-112435311D01*
X164696134Y-112501446D01*
X164651080Y-112540485D01*
X164558386Y-112587715D01*
X164392786Y-112708028D01*
X164248028Y-112852786D01*
X164127715Y-113018386D01*
X164034781Y-113200776D01*
X163971522Y-113395465D01*
X163939500Y-113597648D01*
X163939500Y-113802351D01*
X163971522Y-114004534D01*
X164034781Y-114199223D01*
X164127715Y-114381613D01*
X164248028Y-114547213D01*
X164392786Y-114691971D01*
X164547749Y-114804556D01*
X164558390Y-114812287D01*
X164649840Y-114858883D01*
X164651080Y-114859515D01*
X164701876Y-114907490D01*
X164718671Y-114975311D01*
X164696134Y-115041446D01*
X164651080Y-115080485D01*
X164558386Y-115127715D01*
X164392786Y-115248028D01*
X164248028Y-115392786D01*
X164127715Y-115558386D01*
X164034781Y-115740776D01*
X163971522Y-115935465D01*
X163939500Y-116137648D01*
X163939500Y-116342351D01*
X163971522Y-116544534D01*
X164034781Y-116739223D01*
X164127715Y-116921613D01*
X164248028Y-117087213D01*
X164392784Y-117231969D01*
X164429068Y-117258330D01*
X164471735Y-117313659D01*
X164477715Y-117383273D01*
X164445109Y-117445068D01*
X164384271Y-117479426D01*
X164369440Y-117481938D01*
X164332519Y-117485907D01*
X164197671Y-117536202D01*
X164197664Y-117536206D01*
X164082455Y-117622452D01*
X164082452Y-117622455D01*
X163996206Y-117737664D01*
X163996202Y-117737671D01*
X163945908Y-117872517D01*
X163939501Y-117932116D01*
X163939501Y-117932123D01*
X163939500Y-117932135D01*
X163939500Y-119627870D01*
X163939501Y-119627876D01*
X163945908Y-119687483D01*
X163996202Y-119822328D01*
X163996206Y-119822335D01*
X164082452Y-119937544D01*
X164082455Y-119937547D01*
X164197664Y-120023793D01*
X164197671Y-120023797D01*
X164332517Y-120074091D01*
X164332516Y-120074091D01*
X164339444Y-120074835D01*
X164392127Y-120080500D01*
X166087872Y-120080499D01*
X166147483Y-120074091D01*
X166282331Y-120023796D01*
X166397546Y-119937546D01*
X166483796Y-119822331D01*
X166534091Y-119687483D01*
X166540500Y-119627873D01*
X166540499Y-117932128D01*
X166534091Y-117872517D01*
X166483796Y-117737669D01*
X166483795Y-117737668D01*
X166483793Y-117737664D01*
X166397547Y-117622455D01*
X166397544Y-117622452D01*
X166282335Y-117536206D01*
X166282328Y-117536202D01*
X166147482Y-117485908D01*
X166147483Y-117485908D01*
X166110560Y-117481939D01*
X166046009Y-117455201D01*
X166006160Y-117397809D01*
X166003667Y-117327984D01*
X166039319Y-117267895D01*
X166050930Y-117258331D01*
X166087219Y-117231966D01*
X166231966Y-117087219D01*
X166231968Y-117087215D01*
X166231971Y-117087213D01*
X166284732Y-117014590D01*
X166352287Y-116921610D01*
X166445220Y-116739219D01*
X166508477Y-116544534D01*
X166540500Y-116342352D01*
X166540500Y-116137648D01*
X166508477Y-115935466D01*
X166445220Y-115740781D01*
X166445218Y-115740778D01*
X166445218Y-115740776D01*
X166411503Y-115674607D01*
X166352287Y-115558390D01*
X166344556Y-115547749D01*
X166231971Y-115392786D01*
X166087213Y-115248028D01*
X165921614Y-115127715D01*
X165915006Y-115124348D01*
X165828917Y-115080483D01*
X165778123Y-115032511D01*
X165761328Y-114964690D01*
X165783865Y-114898555D01*
X165828917Y-114859516D01*
X165921610Y-114812287D01*
X165942770Y-114796913D01*
X166087213Y-114691971D01*
X166087215Y-114691968D01*
X166087219Y-114691966D01*
X166231966Y-114547219D01*
X166231968Y-114547215D01*
X166231971Y-114547213D01*
X166284732Y-114474590D01*
X166352287Y-114381610D01*
X166445220Y-114199219D01*
X166508477Y-114004534D01*
X166540500Y-113802352D01*
X166540500Y-113597648D01*
X166508477Y-113395466D01*
X166445220Y-113200781D01*
X166445218Y-113200778D01*
X166445218Y-113200776D01*
X166411503Y-113134607D01*
X166352287Y-113018390D01*
X166344556Y-113007749D01*
X166231971Y-112852786D01*
X166087213Y-112708028D01*
X165921614Y-112587715D01*
X165915006Y-112584348D01*
X165828917Y-112540483D01*
X165778123Y-112492511D01*
X165761328Y-112424690D01*
X165783865Y-112358555D01*
X165828917Y-112319516D01*
X165921610Y-112272287D01*
X165942770Y-112256913D01*
X166087213Y-112151971D01*
X166087215Y-112151968D01*
X166087219Y-112151966D01*
X166231966Y-112007219D01*
X166231968Y-112007215D01*
X166231971Y-112007213D01*
X166284732Y-111934590D01*
X166352287Y-111841610D01*
X166445220Y-111659219D01*
X166508477Y-111464534D01*
X166540500Y-111262352D01*
X166540500Y-111057648D01*
X166521552Y-110938018D01*
X166530506Y-110868727D01*
X166575502Y-110815275D01*
X166642254Y-110794635D01*
X166709568Y-110813360D01*
X166731706Y-110830941D01*
X167613181Y-111712416D01*
X167646666Y-111773739D01*
X167649500Y-111800097D01*
X167649500Y-122199903D01*
X167629815Y-122266942D01*
X167613181Y-122287584D01*
X164485339Y-125415425D01*
X164424016Y-125448910D01*
X164421850Y-125449361D01*
X164266508Y-125480261D01*
X164266498Y-125480264D01*
X164120827Y-125540602D01*
X164120814Y-125540609D01*
X163989711Y-125628210D01*
X163989707Y-125628213D01*
X163878213Y-125739707D01*
X163878210Y-125739711D01*
X163790609Y-125870814D01*
X163790602Y-125870827D01*
X163730264Y-126016498D01*
X163730261Y-126016510D01*
X163699500Y-126171153D01*
X162299500Y-126171153D01*
X162299500Y-107539945D01*
X162299500Y-107539943D01*
X162258577Y-107387216D01*
X162201001Y-107287490D01*
X162179524Y-107250290D01*
X162179521Y-107250286D01*
X162179520Y-107250284D01*
X162067716Y-107138480D01*
X162067715Y-107138479D01*
X162063385Y-107134149D01*
X162063374Y-107134139D01*
X151294077Y-96364842D01*
X151260592Y-96303519D01*
X151263828Y-96238841D01*
X151268477Y-96224534D01*
X151300500Y-96022352D01*
X151300500Y-95817648D01*
X151268477Y-95615466D01*
X151205220Y-95420781D01*
X151205218Y-95420778D01*
X151205218Y-95420776D01*
X151171503Y-95354607D01*
X151112287Y-95238390D01*
X151104556Y-95227749D01*
X150991971Y-95072786D01*
X150847213Y-94928028D01*
X150681614Y-94807715D01*
X150675006Y-94804348D01*
X150588917Y-94760483D01*
X150538123Y-94712511D01*
X150521328Y-94644690D01*
X150543865Y-94578555D01*
X150588917Y-94539516D01*
X150681610Y-94492287D01*
X150702770Y-94476913D01*
X150847213Y-94371971D01*
X150847215Y-94371968D01*
X150847219Y-94371966D01*
X150991966Y-94227219D01*
X150991968Y-94227215D01*
X150991971Y-94227213D01*
X151044732Y-94154590D01*
X151112287Y-94061610D01*
X151205220Y-93879219D01*
X151268477Y-93684534D01*
X151300500Y-93482352D01*
X151300500Y-93277648D01*
X151268477Y-93075466D01*
X151205220Y-92880781D01*
X151205218Y-92880778D01*
X151205218Y-92880776D01*
X151171503Y-92814607D01*
X151112287Y-92698390D01*
X151104556Y-92687749D01*
X150991971Y-92532786D01*
X150847213Y-92388028D01*
X150681614Y-92267715D01*
X150675006Y-92264348D01*
X150588917Y-92220483D01*
X150538123Y-92172511D01*
X150521328Y-92104690D01*
X150543865Y-92038555D01*
X150588917Y-91999516D01*
X150681610Y-91952287D01*
X150702770Y-91936913D01*
X150847213Y-91831971D01*
X150847215Y-91831968D01*
X150847219Y-91831966D01*
X150991966Y-91687219D01*
X150991968Y-91687215D01*
X150991971Y-91687213D01*
X151044732Y-91614590D01*
X151112287Y-91521610D01*
X151205220Y-91339219D01*
X151268477Y-91144534D01*
X151300500Y-90942352D01*
X151300500Y-90737648D01*
X151268477Y-90535466D01*
X151205220Y-90340781D01*
X151205218Y-90340778D01*
X151205218Y-90340776D01*
X151171503Y-90274607D01*
X151112287Y-90158390D01*
X151104556Y-90147749D01*
X150991971Y-89992786D01*
X150847213Y-89848028D01*
X150681614Y-89727715D01*
X150675006Y-89724348D01*
X150588917Y-89680483D01*
X150538123Y-89632511D01*
X150521328Y-89564690D01*
X150543865Y-89498555D01*
X150588917Y-89459516D01*
X150681610Y-89412287D01*
X150702770Y-89396913D01*
X150847213Y-89291971D01*
X150847215Y-89291968D01*
X150847219Y-89291966D01*
X150991966Y-89147219D01*
X150991968Y-89147215D01*
X150991971Y-89147213D01*
X151044732Y-89074590D01*
X151112287Y-88981610D01*
X151205220Y-88799219D01*
X151268477Y-88604534D01*
X151300500Y-88402352D01*
X151300500Y-88197648D01*
X151268477Y-87995466D01*
X151205220Y-87800781D01*
X151205218Y-87800778D01*
X151205218Y-87800776D01*
X151171503Y-87734607D01*
X151112287Y-87618390D01*
X151104556Y-87607749D01*
X150991971Y-87452786D01*
X150847213Y-87308028D01*
X150681614Y-87187715D01*
X150675006Y-87184348D01*
X150588917Y-87140483D01*
X150538123Y-87092511D01*
X150521328Y-87024690D01*
X150543865Y-86958555D01*
X150588917Y-86919516D01*
X150681610Y-86872287D01*
X150702770Y-86856913D01*
X150847213Y-86751971D01*
X150847215Y-86751968D01*
X150847219Y-86751966D01*
X150991966Y-86607219D01*
X150991968Y-86607215D01*
X150991971Y-86607213D01*
X151044732Y-86534590D01*
X151112287Y-86441610D01*
X151205220Y-86259219D01*
X151268477Y-86064534D01*
X151300500Y-85862352D01*
X151300500Y-85657648D01*
X151268477Y-85455466D01*
X151205220Y-85260781D01*
X151205218Y-85260778D01*
X151205218Y-85260776D01*
X151171503Y-85194607D01*
X151112287Y-85078390D01*
X151104556Y-85067749D01*
X150991971Y-84912786D01*
X150847213Y-84768028D01*
X150681614Y-84647715D01*
X150675006Y-84644348D01*
X150588917Y-84600483D01*
X150538123Y-84552511D01*
X150521328Y-84484690D01*
X150543865Y-84418555D01*
X150588917Y-84379516D01*
X150681610Y-84332287D01*
X150702770Y-84316913D01*
X150847213Y-84211971D01*
X150847215Y-84211968D01*
X150847219Y-84211966D01*
X150991966Y-84067219D01*
X150991968Y-84067215D01*
X150991971Y-84067213D01*
X151044732Y-83994590D01*
X151112287Y-83901610D01*
X151205220Y-83719219D01*
X151268477Y-83524534D01*
X151300500Y-83322352D01*
X151300500Y-83117648D01*
X151268477Y-82915466D01*
X151205220Y-82720781D01*
X151205218Y-82720778D01*
X151205218Y-82720776D01*
X151171503Y-82654607D01*
X151112287Y-82538390D01*
X151104556Y-82527749D01*
X150991971Y-82372786D01*
X150847213Y-82228028D01*
X150681613Y-82107715D01*
X150681612Y-82107714D01*
X150681610Y-82107713D01*
X150624653Y-82078691D01*
X150499223Y-82014781D01*
X150304534Y-81951522D01*
X150129995Y-81923878D01*
X150102352Y-81919500D01*
X149897648Y-81919500D01*
X149873329Y-81923351D01*
X149695465Y-81951522D01*
X149500776Y-82014781D01*
X149318386Y-82107715D01*
X149152786Y-82228028D01*
X149008028Y-82372786D01*
X148887715Y-82538386D01*
X148794781Y-82720776D01*
X148731522Y-82915465D01*
X148699500Y-83117648D01*
X148699500Y-83322351D01*
X148731522Y-83524534D01*
X148794781Y-83719223D01*
X148887715Y-83901613D01*
X149008028Y-84067213D01*
X149152786Y-84211971D01*
X149307749Y-84324556D01*
X149318390Y-84332287D01*
X149409840Y-84378883D01*
X149411080Y-84379515D01*
X149461876Y-84427490D01*
X149478671Y-84495311D01*
X149456134Y-84561446D01*
X149411080Y-84600485D01*
X149318386Y-84647715D01*
X149152786Y-84768028D01*
X149008028Y-84912786D01*
X148887715Y-85078386D01*
X148794781Y-85260776D01*
X148731522Y-85455465D01*
X148699500Y-85657648D01*
X148699500Y-85862351D01*
X148731522Y-86064534D01*
X148794781Y-86259223D01*
X148887715Y-86441613D01*
X149008028Y-86607213D01*
X149152786Y-86751971D01*
X149307749Y-86864556D01*
X149318390Y-86872287D01*
X149409840Y-86918883D01*
X149411080Y-86919515D01*
X149461876Y-86967490D01*
X149478671Y-87035311D01*
X149456134Y-87101446D01*
X149411080Y-87140485D01*
X149318386Y-87187715D01*
X149152786Y-87308028D01*
X149008028Y-87452786D01*
X148887715Y-87618386D01*
X148794781Y-87800776D01*
X148731522Y-87995465D01*
X148699500Y-88197648D01*
X148699500Y-88402351D01*
X148731522Y-88604534D01*
X148794781Y-88799223D01*
X148887715Y-88981613D01*
X149008028Y-89147213D01*
X149152786Y-89291971D01*
X149307749Y-89404556D01*
X149318390Y-89412287D01*
X149409840Y-89458883D01*
X149411080Y-89459515D01*
X149461876Y-89507490D01*
X149478671Y-89575311D01*
X149456134Y-89641446D01*
X149411080Y-89680485D01*
X149318386Y-89727715D01*
X149152786Y-89848028D01*
X149008028Y-89992786D01*
X148887715Y-90158386D01*
X148794781Y-90340776D01*
X148731522Y-90535465D01*
X148699500Y-90737648D01*
X148699500Y-90942351D01*
X148731522Y-91144534D01*
X148794781Y-91339223D01*
X148887715Y-91521613D01*
X149008028Y-91687213D01*
X149152786Y-91831971D01*
X149307749Y-91944556D01*
X149318390Y-91952287D01*
X149409840Y-91998883D01*
X149411080Y-91999515D01*
X149461876Y-92047490D01*
X149478671Y-92115311D01*
X149456134Y-92181446D01*
X149411080Y-92220485D01*
X149318386Y-92267715D01*
X149152786Y-92388028D01*
X149008028Y-92532786D01*
X148887715Y-92698385D01*
X148880883Y-92711795D01*
X148832909Y-92762591D01*
X148770398Y-92779500D01*
X146606727Y-92779500D01*
X146606711Y-92779499D01*
X146599115Y-92779499D01*
X146441000Y-92779499D01*
X146364636Y-92799961D01*
X146288271Y-92820423D01*
X146288266Y-92820426D01*
X146151347Y-92899475D01*
X146151339Y-92899481D01*
X125019481Y-114031339D01*
X125019479Y-114031342D01*
X124969361Y-114118151D01*
X124969359Y-114118153D01*
X124940425Y-114168266D01*
X124940424Y-114168267D01*
X124924544Y-114227529D01*
X124899499Y-114321000D01*
X124899499Y-114321002D01*
X124899499Y-114489103D01*
X124899500Y-114489116D01*
X124899500Y-119325500D01*
X124879815Y-119392539D01*
X124827011Y-119438294D01*
X124775500Y-119449500D01*
X124671155Y-119449500D01*
X124516510Y-119480261D01*
X124516498Y-119480264D01*
X124370827Y-119540602D01*
X124370814Y-119540609D01*
X124239711Y-119628210D01*
X124239707Y-119628213D01*
X124128213Y-119739707D01*
X124128210Y-119739711D01*
X124040609Y-119870814D01*
X124040602Y-119870827D01*
X123980264Y-120016498D01*
X123980261Y-120016508D01*
X123949362Y-120171848D01*
X123916977Y-120233759D01*
X123915426Y-120235337D01*
X99631286Y-144519478D01*
X99519481Y-144631282D01*
X99519475Y-144631290D01*
X99469361Y-144718091D01*
X99469359Y-144718097D01*
X99449776Y-144752013D01*
X99430072Y-144777690D01*
X98860623Y-145347139D01*
X98799300Y-145380624D01*
X98753544Y-145381931D01*
X98655099Y-145366339D01*
X98630861Y-145362500D01*
X98449139Y-145362500D01*
X98424901Y-145366339D01*
X98269652Y-145390928D01*
X98269649Y-145390928D01*
X98096828Y-145447081D01*
X98096825Y-145447083D01*
X97934909Y-145529583D01*
X97851030Y-145590525D01*
X97787894Y-145636397D01*
X97787892Y-145636399D01*
X97787891Y-145636399D01*
X97659399Y-145764891D01*
X97659399Y-145764892D01*
X97659397Y-145764894D01*
X97622908Y-145815116D01*
X97552583Y-145911909D01*
X97470083Y-146073825D01*
X97470081Y-146073828D01*
X97413928Y-146246649D01*
X97413928Y-146246652D01*
X97392473Y-146382114D01*
X97362544Y-146445249D01*
X97303232Y-146482180D01*
X97233370Y-146481182D01*
X97175137Y-146442572D01*
X97147527Y-146382114D01*
X97126072Y-146246654D01*
X97126071Y-146246650D01*
X97126071Y-146246649D01*
X97069918Y-146073828D01*
X97069916Y-146073825D01*
X96987416Y-145911909D01*
X96880603Y-145764894D01*
X96752106Y-145636397D01*
X96605090Y-145529583D01*
X96443174Y-145447083D01*
X96443171Y-145447081D01*
X96270348Y-145390928D01*
X96115099Y-145366339D01*
X96090861Y-145362500D01*
X95909139Y-145362500D01*
X95884901Y-145366339D01*
X95729652Y-145390928D01*
X95729649Y-145390928D01*
X95556828Y-145447081D01*
X95556825Y-145447083D01*
X95394909Y-145529583D01*
X95311030Y-145590525D01*
X95247894Y-145636397D01*
X95247892Y-145636399D01*
X95247891Y-145636399D01*
X95119399Y-145764891D01*
X95119399Y-145764892D01*
X95119397Y-145764894D01*
X95082908Y-145815116D01*
X95012583Y-145911909D01*
X94930083Y-146073825D01*
X94930081Y-146073828D01*
X94873928Y-146246649D01*
X94873928Y-146246650D01*
X94860972Y-146328452D01*
X94831042Y-146391586D01*
X94771731Y-146428517D01*
X94701868Y-146427519D01*
X94643636Y-146388909D01*
X94615522Y-146324945D01*
X94614499Y-146309053D01*
X94614499Y-145815129D01*
X94614498Y-145815123D01*
X94614497Y-145815116D01*
X94608091Y-145755517D01*
X94557796Y-145620669D01*
X94557795Y-145620668D01*
X94557793Y-145620664D01*
X94471547Y-145505455D01*
X94471544Y-145505452D01*
X94356335Y-145419206D01*
X94356328Y-145419202D01*
X94221482Y-145368908D01*
X94221483Y-145368908D01*
X94161883Y-145362501D01*
X94161881Y-145362500D01*
X94161873Y-145362500D01*
X94161864Y-145362500D01*
X92758129Y-145362500D01*
X92758123Y-145362501D01*
X92698516Y-145368908D01*
X92563671Y-145419202D01*
X92563664Y-145419206D01*
X92448455Y-145505452D01*
X92448452Y-145505455D01*
X92362206Y-145620664D01*
X92362202Y-145620671D01*
X92311908Y-145755517D01*
X92305501Y-145815116D01*
X92305501Y-145815123D01*
X92305500Y-145815135D01*
X82600000Y-145815135D01*
X82600000Y-128392139D01*
X92305500Y-128392139D01*
X92305500Y-128573860D01*
X92333928Y-128753347D01*
X92333928Y-128753350D01*
X92390081Y-128926171D01*
X92390083Y-128926174D01*
X92472583Y-129088090D01*
X92579397Y-129235106D01*
X92707894Y-129363603D01*
X92854910Y-129470417D01*
X93016826Y-129552917D01*
X93016828Y-129552918D01*
X93178029Y-129605294D01*
X93189654Y-129609072D01*
X93369139Y-129637500D01*
X93369140Y-129637500D01*
X93550860Y-129637500D01*
X93550861Y-129637500D01*
X93730346Y-129609072D01*
X93730349Y-129609071D01*
X93730350Y-129609071D01*
X93903171Y-129552918D01*
X93903171Y-129552917D01*
X93903174Y-129552917D01*
X94065090Y-129470417D01*
X94212106Y-129363603D01*
X94340603Y-129235106D01*
X94447417Y-129088090D01*
X94529917Y-128926174D01*
X94586072Y-128753346D01*
X94607527Y-128617884D01*
X94637456Y-128554750D01*
X94696768Y-128517819D01*
X94766630Y-128518817D01*
X94824863Y-128557427D01*
X94852473Y-128617885D01*
X94873928Y-128753347D01*
X94873928Y-128753350D01*
X94930081Y-128926171D01*
X94930083Y-128926174D01*
X95012583Y-129088090D01*
X95119397Y-129235106D01*
X95247894Y-129363603D01*
X95394910Y-129470417D01*
X95556826Y-129552917D01*
X95556828Y-129552918D01*
X95718029Y-129605294D01*
X95729654Y-129609072D01*
X95909139Y-129637500D01*
X95909140Y-129637500D01*
X96090860Y-129637500D01*
X96090861Y-129637500D01*
X96270346Y-129609072D01*
X96270349Y-129609071D01*
X96270350Y-129609071D01*
X96443171Y-129552918D01*
X96443171Y-129552917D01*
X96443174Y-129552917D01*
X96605090Y-129470417D01*
X96752106Y-129363603D01*
X96880603Y-129235106D01*
X96987417Y-129088090D01*
X97069917Y-128926174D01*
X97126072Y-128753346D01*
X97147527Y-128617884D01*
X97177456Y-128554750D01*
X97236768Y-128517819D01*
X97306630Y-128518817D01*
X97364863Y-128557427D01*
X97392473Y-128617885D01*
X97413928Y-128753347D01*
X97413928Y-128753350D01*
X97470081Y-128926171D01*
X97470083Y-128926174D01*
X97552583Y-129088090D01*
X97659397Y-129235106D01*
X97787894Y-129363603D01*
X97934910Y-129470417D01*
X98096826Y-129552917D01*
X98096828Y-129552918D01*
X98258029Y-129605294D01*
X98269654Y-129609072D01*
X98449139Y-129637500D01*
X98449140Y-129637500D01*
X98630860Y-129637500D01*
X98630861Y-129637500D01*
X98810346Y-129609072D01*
X98810349Y-129609071D01*
X98810350Y-129609071D01*
X98983171Y-129552918D01*
X98983171Y-129552917D01*
X98983174Y-129552917D01*
X99145090Y-129470417D01*
X99292106Y-129363603D01*
X99420603Y-129235106D01*
X99527417Y-129088090D01*
X99609917Y-128926174D01*
X99666072Y-128753346D01*
X99687527Y-128617884D01*
X99717456Y-128554750D01*
X99776768Y-128517819D01*
X99846630Y-128518817D01*
X99904863Y-128557427D01*
X99932473Y-128617885D01*
X99953928Y-128753347D01*
X99953928Y-128753350D01*
X100010081Y-128926171D01*
X100010083Y-128926174D01*
X100092583Y-129088090D01*
X100199397Y-129235106D01*
X100327894Y-129363603D01*
X100474910Y-129470417D01*
X100636826Y-129552917D01*
X100636828Y-129552918D01*
X100798029Y-129605294D01*
X100809654Y-129609072D01*
X100989139Y-129637500D01*
X100989140Y-129637500D01*
X101170860Y-129637500D01*
X101170861Y-129637500D01*
X101350346Y-129609072D01*
X101350349Y-129609071D01*
X101350350Y-129609071D01*
X101523171Y-129552918D01*
X101523171Y-129552917D01*
X101523174Y-129552917D01*
X101685090Y-129470417D01*
X101832106Y-129363603D01*
X101960603Y-129235106D01*
X102067417Y-129088090D01*
X102149917Y-128926174D01*
X102206072Y-128753346D01*
X102227527Y-128617884D01*
X102257456Y-128554750D01*
X102316768Y-128517819D01*
X102386630Y-128518817D01*
X102444863Y-128557427D01*
X102472473Y-128617885D01*
X102493928Y-128753347D01*
X102493928Y-128753350D01*
X102550081Y-128926171D01*
X102550083Y-128926174D01*
X102632583Y-129088090D01*
X102739397Y-129235106D01*
X102867894Y-129363603D01*
X103014910Y-129470417D01*
X103176826Y-129552917D01*
X103176828Y-129552918D01*
X103338029Y-129605294D01*
X103349654Y-129609072D01*
X103529139Y-129637500D01*
X103529140Y-129637500D01*
X103710860Y-129637500D01*
X103710861Y-129637500D01*
X103890346Y-129609072D01*
X103890349Y-129609071D01*
X103890350Y-129609071D01*
X104063171Y-129552918D01*
X104063171Y-129552917D01*
X104063174Y-129552917D01*
X104225090Y-129470417D01*
X104372106Y-129363603D01*
X104500603Y-129235106D01*
X104607417Y-129088090D01*
X104689917Y-128926174D01*
X104746072Y-128753346D01*
X104767527Y-128617884D01*
X104797456Y-128554750D01*
X104856768Y-128517819D01*
X104926630Y-128518817D01*
X104984863Y-128557427D01*
X105012473Y-128617885D01*
X105033928Y-128753347D01*
X105033928Y-128753350D01*
X105090081Y-128926171D01*
X105090083Y-128926174D01*
X105172583Y-129088090D01*
X105279397Y-129235106D01*
X105407894Y-129363603D01*
X105554910Y-129470417D01*
X105716826Y-129552917D01*
X105716828Y-129552918D01*
X105878029Y-129605294D01*
X105889654Y-129609072D01*
X106069139Y-129637500D01*
X106069140Y-129637500D01*
X106250860Y-129637500D01*
X106250861Y-129637500D01*
X106430346Y-129609072D01*
X106430349Y-129609071D01*
X106430350Y-129609071D01*
X106603171Y-129552918D01*
X106603171Y-129552917D01*
X106603174Y-129552917D01*
X106765090Y-129470417D01*
X106912106Y-129363603D01*
X107040603Y-129235106D01*
X107147417Y-129088090D01*
X107229917Y-128926174D01*
X107286072Y-128753346D01*
X107307780Y-128616286D01*
X107337709Y-128553152D01*
X107397021Y-128516221D01*
X107466883Y-128517219D01*
X107525116Y-128555829D01*
X107552726Y-128616287D01*
X107574415Y-128753225D01*
X107630548Y-128925984D01*
X107713011Y-129087828D01*
X107819780Y-129234781D01*
X107819780Y-129234782D01*
X107948217Y-129363219D01*
X108095171Y-129469988D01*
X108257015Y-129552451D01*
X108429774Y-129608584D01*
X108450000Y-129611788D01*
X108450000Y-128798686D01*
X108454394Y-128803080D01*
X108545606Y-128855741D01*
X108647339Y-128883000D01*
X108752661Y-128883000D01*
X108854394Y-128855741D01*
X108945606Y-128803080D01*
X108950000Y-128798686D01*
X108950000Y-129611787D01*
X108970225Y-129608584D01*
X109142984Y-129552451D01*
X109304828Y-129469988D01*
X109451781Y-129363219D01*
X109451782Y-129363219D01*
X109580219Y-129234782D01*
X109580219Y-129234781D01*
X109686988Y-129087828D01*
X109769451Y-128925984D01*
X109825584Y-128753225D01*
X109825585Y-128753224D01*
X109847273Y-128616288D01*
X109877202Y-128553153D01*
X109936513Y-128516221D01*
X110006376Y-128517219D01*
X110064609Y-128555828D01*
X110092219Y-128616286D01*
X110113928Y-128753349D01*
X110113928Y-128753350D01*
X110170081Y-128926171D01*
X110170083Y-128926174D01*
X110252583Y-129088090D01*
X110359397Y-129235106D01*
X110487894Y-129363603D01*
X110634910Y-129470417D01*
X110796826Y-129552917D01*
X110796828Y-129552918D01*
X110958029Y-129605294D01*
X110969654Y-129609072D01*
X111149139Y-129637500D01*
X111149140Y-129637500D01*
X111330860Y-129637500D01*
X111330861Y-129637500D01*
X111510346Y-129609072D01*
X111510349Y-129609071D01*
X111510350Y-129609071D01*
X111683171Y-129552918D01*
X111683171Y-129552917D01*
X111683174Y-129552917D01*
X111845090Y-129470417D01*
X111992106Y-129363603D01*
X112120603Y-129235106D01*
X112227417Y-129088090D01*
X112309917Y-128926174D01*
X112366072Y-128753346D01*
X112394500Y-128573861D01*
X112394500Y-128392139D01*
X112366072Y-128212654D01*
X112366071Y-128212650D01*
X112366071Y-128212649D01*
X112309918Y-128039828D01*
X112309916Y-128039825D01*
X112227550Y-127878171D01*
X112227417Y-127877910D01*
X112120603Y-127730894D01*
X111992106Y-127602397D01*
X111845090Y-127495583D01*
X111683174Y-127413083D01*
X111683171Y-127413081D01*
X111510348Y-127356928D01*
X111390689Y-127337976D01*
X111330861Y-127328500D01*
X111149139Y-127328500D01*
X111089310Y-127337976D01*
X110969652Y-127356928D01*
X110969649Y-127356928D01*
X110796828Y-127413081D01*
X110796825Y-127413083D01*
X110634909Y-127495583D01*
X110551030Y-127556525D01*
X110487894Y-127602397D01*
X110487892Y-127602399D01*
X110487891Y-127602399D01*
X110359399Y-127730891D01*
X110359399Y-127730892D01*
X110359397Y-127730894D01*
X110359162Y-127731218D01*
X110252583Y-127877909D01*
X110170083Y-128039825D01*
X110170081Y-128039828D01*
X110113928Y-128212649D01*
X110113928Y-128212650D01*
X110092219Y-128349713D01*
X110062289Y-128412847D01*
X110002978Y-128449778D01*
X109933115Y-128448780D01*
X109874883Y-128410170D01*
X109847273Y-128349711D01*
X109825585Y-128212775D01*
X109825584Y-128212774D01*
X109769451Y-128040015D01*
X109686988Y-127878171D01*
X109580219Y-127731218D01*
X109580219Y-127731217D01*
X109451782Y-127602780D01*
X109304828Y-127496011D01*
X109142984Y-127413548D01*
X108970231Y-127357416D01*
X108970224Y-127357415D01*
X108950000Y-127354210D01*
X108950000Y-128167314D01*
X108945606Y-128162920D01*
X108854394Y-128110259D01*
X108752661Y-128083000D01*
X108647339Y-128083000D01*
X108545606Y-128110259D01*
X108454394Y-128162920D01*
X108450000Y-128167314D01*
X108450000Y-127354211D01*
X108449999Y-127354210D01*
X108429775Y-127357415D01*
X108429768Y-127357416D01*
X108257015Y-127413548D01*
X108095171Y-127496011D01*
X107948218Y-127602780D01*
X107948217Y-127602780D01*
X107819780Y-127731217D01*
X107819780Y-127731218D01*
X107713011Y-127878171D01*
X107630548Y-128040015D01*
X107574415Y-128212774D01*
X107552726Y-128349712D01*
X107522797Y-128412847D01*
X107463485Y-128449778D01*
X107393622Y-128448780D01*
X107335390Y-128410170D01*
X107307780Y-128349712D01*
X107289990Y-128237394D01*
X107286072Y-128212654D01*
X107286071Y-128212650D01*
X107286071Y-128212649D01*
X107229918Y-128039828D01*
X107229916Y-128039825D01*
X107147550Y-127878171D01*
X107147417Y-127877910D01*
X107040603Y-127730894D01*
X106912106Y-127602397D01*
X106765090Y-127495583D01*
X106603174Y-127413083D01*
X106603171Y-127413081D01*
X106430348Y-127356928D01*
X106310689Y-127337976D01*
X106250861Y-127328500D01*
X106069139Y-127328500D01*
X106009310Y-127337976D01*
X105889652Y-127356928D01*
X105889649Y-127356928D01*
X105716828Y-127413081D01*
X105716825Y-127413083D01*
X105554909Y-127495583D01*
X105471030Y-127556525D01*
X105407894Y-127602397D01*
X105407892Y-127602399D01*
X105407891Y-127602399D01*
X105279399Y-127730891D01*
X105279399Y-127730892D01*
X105279397Y-127730894D01*
X105279162Y-127731218D01*
X105172583Y-127877909D01*
X105090083Y-128039825D01*
X105090081Y-128039828D01*
X105033928Y-128212649D01*
X105033928Y-128212652D01*
X105012473Y-128348114D01*
X104982544Y-128411249D01*
X104923232Y-128448180D01*
X104853370Y-128447182D01*
X104795137Y-128408572D01*
X104767527Y-128348114D01*
X104749990Y-128237394D01*
X104746072Y-128212654D01*
X104746071Y-128212650D01*
X104746071Y-128212649D01*
X104689918Y-128039828D01*
X104689916Y-128039825D01*
X104607550Y-127878171D01*
X104607417Y-127877910D01*
X104500603Y-127730894D01*
X104372106Y-127602397D01*
X104225090Y-127495583D01*
X104063174Y-127413083D01*
X104063171Y-127413081D01*
X103890348Y-127356928D01*
X103770689Y-127337976D01*
X103710861Y-127328500D01*
X103529139Y-127328500D01*
X103469310Y-127337976D01*
X103349652Y-127356928D01*
X103349649Y-127356928D01*
X103176828Y-127413081D01*
X103176825Y-127413083D01*
X103014909Y-127495583D01*
X102931030Y-127556525D01*
X102867894Y-127602397D01*
X102867892Y-127602399D01*
X102867891Y-127602399D01*
X102739399Y-127730891D01*
X102739399Y-127730892D01*
X102739397Y-127730894D01*
X102739162Y-127731218D01*
X102632583Y-127877909D01*
X102550083Y-128039825D01*
X102550081Y-128039828D01*
X102493928Y-128212649D01*
X102493928Y-128212652D01*
X102472473Y-128348114D01*
X102442544Y-128411249D01*
X102383232Y-128448180D01*
X102313370Y-128447182D01*
X102255137Y-128408572D01*
X102227527Y-128348114D01*
X102209990Y-128237394D01*
X102206072Y-128212654D01*
X102206071Y-128212650D01*
X102206071Y-128212649D01*
X102149918Y-128039828D01*
X102149916Y-128039825D01*
X102067550Y-127878171D01*
X102067417Y-127877910D01*
X101960603Y-127730894D01*
X101832106Y-127602397D01*
X101685090Y-127495583D01*
X101523174Y-127413083D01*
X101523171Y-127413081D01*
X101350348Y-127356928D01*
X101230689Y-127337976D01*
X101170861Y-127328500D01*
X100989139Y-127328500D01*
X100929310Y-127337976D01*
X100809652Y-127356928D01*
X100809649Y-127356928D01*
X100636828Y-127413081D01*
X100636825Y-127413083D01*
X100474909Y-127495583D01*
X100391030Y-127556525D01*
X100327894Y-127602397D01*
X100327892Y-127602399D01*
X100327891Y-127602399D01*
X100199399Y-127730891D01*
X100199399Y-127730892D01*
X100199397Y-127730894D01*
X100199162Y-127731218D01*
X100092583Y-127877909D01*
X100010083Y-128039825D01*
X100010081Y-128039828D01*
X99953928Y-128212649D01*
X99953928Y-128212652D01*
X99932473Y-128348114D01*
X99902544Y-128411249D01*
X99843232Y-128448180D01*
X99773370Y-128447182D01*
X99715137Y-128408572D01*
X99687527Y-128348114D01*
X99669990Y-128237394D01*
X99666072Y-128212654D01*
X99666071Y-128212650D01*
X99666071Y-128212649D01*
X99609918Y-128039828D01*
X99609916Y-128039825D01*
X99527550Y-127878171D01*
X99527417Y-127877910D01*
X99420603Y-127730894D01*
X99292106Y-127602397D01*
X99145090Y-127495583D01*
X98983174Y-127413083D01*
X98983171Y-127413081D01*
X98810348Y-127356928D01*
X98690689Y-127337976D01*
X98630861Y-127328500D01*
X98449139Y-127328500D01*
X98389310Y-127337976D01*
X98269652Y-127356928D01*
X98269649Y-127356928D01*
X98096828Y-127413081D01*
X98096825Y-127413083D01*
X97934909Y-127495583D01*
X97851030Y-127556525D01*
X97787894Y-127602397D01*
X97787892Y-127602399D01*
X97787891Y-127602399D01*
X97659399Y-127730891D01*
X97659399Y-127730892D01*
X97659397Y-127730894D01*
X97659162Y-127731218D01*
X97552583Y-127877909D01*
X97470083Y-128039825D01*
X97470081Y-128039828D01*
X97413928Y-128212649D01*
X97413928Y-128212652D01*
X97392473Y-128348114D01*
X97362544Y-128411249D01*
X97303232Y-128448180D01*
X97233370Y-128447182D01*
X97175137Y-128408572D01*
X97147527Y-128348114D01*
X97129990Y-128237394D01*
X97126072Y-128212654D01*
X97126071Y-128212650D01*
X97126071Y-128212649D01*
X97069918Y-128039828D01*
X97069916Y-128039825D01*
X96987550Y-127878171D01*
X96987417Y-127877910D01*
X96880603Y-127730894D01*
X96752106Y-127602397D01*
X96605090Y-127495583D01*
X96443174Y-127413083D01*
X96443171Y-127413081D01*
X96270348Y-127356928D01*
X96150689Y-127337976D01*
X96090861Y-127328500D01*
X95909139Y-127328500D01*
X95849310Y-127337976D01*
X95729652Y-127356928D01*
X95729649Y-127356928D01*
X95556828Y-127413081D01*
X95556825Y-127413083D01*
X95394909Y-127495583D01*
X95311030Y-127556525D01*
X95247894Y-127602397D01*
X95247892Y-127602399D01*
X95247891Y-127602399D01*
X95119399Y-127730891D01*
X95119399Y-127730892D01*
X95119397Y-127730894D01*
X95119162Y-127731218D01*
X95012583Y-127877909D01*
X94930083Y-128039825D01*
X94930081Y-128039828D01*
X94873928Y-128212649D01*
X94873928Y-128212652D01*
X94852473Y-128348114D01*
X94822544Y-128411249D01*
X94763232Y-128448180D01*
X94693370Y-128447182D01*
X94635137Y-128408572D01*
X94607527Y-128348114D01*
X94589990Y-128237394D01*
X94586072Y-128212654D01*
X94586071Y-128212650D01*
X94586071Y-128212649D01*
X94529918Y-128039828D01*
X94529916Y-128039825D01*
X94447550Y-127878171D01*
X94447417Y-127877910D01*
X94340603Y-127730894D01*
X94212106Y-127602397D01*
X94065090Y-127495583D01*
X93903174Y-127413083D01*
X93903171Y-127413081D01*
X93730348Y-127356928D01*
X93610689Y-127337976D01*
X93550861Y-127328500D01*
X93369139Y-127328500D01*
X93309310Y-127337976D01*
X93189652Y-127356928D01*
X93189649Y-127356928D01*
X93016828Y-127413081D01*
X93016825Y-127413083D01*
X92854909Y-127495583D01*
X92771030Y-127556525D01*
X92707894Y-127602397D01*
X92707892Y-127602399D01*
X92707891Y-127602399D01*
X92579399Y-127730891D01*
X92579399Y-127730892D01*
X92579397Y-127730894D01*
X92579162Y-127731218D01*
X92472583Y-127877909D01*
X92390083Y-128039825D01*
X92390081Y-128039828D01*
X92333928Y-128212649D01*
X92333928Y-128212652D01*
X92305500Y-128392139D01*
X82600000Y-128392139D01*
X82600000Y-119355513D01*
X102199500Y-119355513D01*
X102199500Y-120644486D01*
X102229059Y-120831118D01*
X102287454Y-121010836D01*
X102349657Y-121132915D01*
X102373240Y-121179199D01*
X102484310Y-121332073D01*
X102617927Y-121465690D01*
X102770801Y-121576760D01*
X102850347Y-121617290D01*
X102939163Y-121662545D01*
X102939165Y-121662545D01*
X102939168Y-121662547D01*
X103035497Y-121693846D01*
X103118881Y-121720940D01*
X103305514Y-121750500D01*
X103305519Y-121750500D01*
X103494486Y-121750500D01*
X103681118Y-121720940D01*
X103683836Y-121720057D01*
X103860832Y-121662547D01*
X104029199Y-121576760D01*
X104182073Y-121465690D01*
X104315690Y-121332073D01*
X104426760Y-121179199D01*
X104489795Y-121055484D01*
X104537769Y-121004688D01*
X104605590Y-120987893D01*
X104671725Y-121010430D01*
X104710765Y-121055484D01*
X104773670Y-121178940D01*
X104884685Y-121331741D01*
X104884689Y-121331746D01*
X105018253Y-121465310D01*
X105018258Y-121465314D01*
X105171059Y-121576329D01*
X105339362Y-121662085D01*
X105518997Y-121720451D01*
X105550000Y-121725362D01*
X105550000Y-120833012D01*
X105607007Y-120865925D01*
X105734174Y-120900000D01*
X105865826Y-120900000D01*
X105992993Y-120865925D01*
X106050000Y-120833012D01*
X106050000Y-121725361D01*
X106081002Y-121720451D01*
X106260637Y-121662085D01*
X106428940Y-121576329D01*
X106581741Y-121465314D01*
X106581746Y-121465310D01*
X106715310Y-121331746D01*
X106715314Y-121331741D01*
X106826329Y-121178941D01*
X106889234Y-121055484D01*
X106937208Y-121004688D01*
X107005029Y-120987893D01*
X107071164Y-121010430D01*
X107110204Y-121055484D01*
X107173240Y-121179199D01*
X107284310Y-121332073D01*
X107417927Y-121465690D01*
X107570801Y-121576760D01*
X107650347Y-121617290D01*
X107739163Y-121662545D01*
X107739165Y-121662545D01*
X107739168Y-121662547D01*
X107835497Y-121693846D01*
X107918881Y-121720940D01*
X108105514Y-121750500D01*
X108105519Y-121750500D01*
X108294486Y-121750500D01*
X108481118Y-121720940D01*
X108483836Y-121720057D01*
X108660832Y-121662547D01*
X108829199Y-121576760D01*
X108982073Y-121465690D01*
X109115690Y-121332073D01*
X109226760Y-121179199D01*
X109312547Y-121010832D01*
X109370940Y-120831118D01*
X109375853Y-120800099D01*
X109400500Y-120644486D01*
X109400500Y-119885305D01*
X119450000Y-119885305D01*
X119450000Y-120114694D01*
X119450001Y-120114710D01*
X119479942Y-120342137D01*
X119539318Y-120563730D01*
X119627102Y-120775659D01*
X119627106Y-120775669D01*
X119741799Y-120974324D01*
X119741805Y-120974331D01*
X119798381Y-121048064D01*
X120409521Y-120436923D01*
X120500924Y-120573717D01*
X120626283Y-120699076D01*
X120763074Y-120790477D01*
X120151934Y-121401617D01*
X120151934Y-121401618D01*
X120225666Y-121458194D01*
X120424330Y-121572893D01*
X120424340Y-121572897D01*
X120636269Y-121660681D01*
X120857862Y-121720057D01*
X121085289Y-121749998D01*
X121085306Y-121750000D01*
X121314694Y-121750000D01*
X121314710Y-121749998D01*
X121542137Y-121720057D01*
X121763730Y-121660681D01*
X121975659Y-121572897D01*
X121975668Y-121572893D01*
X122174327Y-121458197D01*
X122174334Y-121458192D01*
X122248064Y-121401617D01*
X121636924Y-120790477D01*
X121773717Y-120699076D01*
X121899076Y-120573717D01*
X121990477Y-120436924D01*
X122601617Y-121048064D01*
X122658192Y-120974334D01*
X122658197Y-120974327D01*
X122772893Y-120775668D01*
X122772897Y-120775659D01*
X122860681Y-120563730D01*
X122920057Y-120342137D01*
X122949998Y-120114710D01*
X122950000Y-120114694D01*
X122950000Y-119885305D01*
X122949998Y-119885289D01*
X122920057Y-119657862D01*
X122860681Y-119436269D01*
X122772897Y-119224340D01*
X122772893Y-119224330D01*
X122658194Y-119025666D01*
X122601618Y-118951934D01*
X122601617Y-118951934D01*
X121990477Y-119563074D01*
X121899076Y-119426283D01*
X121773717Y-119300924D01*
X121636923Y-119209521D01*
X122248064Y-118598381D01*
X122248064Y-118598380D01*
X122174331Y-118541805D01*
X122174324Y-118541799D01*
X121975669Y-118427106D01*
X121975659Y-118427102D01*
X121763730Y-118339318D01*
X121542137Y-118279942D01*
X121314710Y-118250001D01*
X121314694Y-118250000D01*
X121085306Y-118250000D01*
X121085289Y-118250001D01*
X120857862Y-118279942D01*
X120636269Y-118339318D01*
X120424340Y-118427102D01*
X120424330Y-118427106D01*
X120225673Y-118541801D01*
X120225659Y-118541810D01*
X120151934Y-118598380D01*
X120763075Y-119209522D01*
X120626283Y-119300924D01*
X120500924Y-119426283D01*
X120409522Y-119563075D01*
X119798380Y-118951934D01*
X119741810Y-119025659D01*
X119741801Y-119025673D01*
X119627106Y-119224330D01*
X119627102Y-119224340D01*
X119539318Y-119436269D01*
X119479942Y-119657862D01*
X119450001Y-119885289D01*
X119450000Y-119885305D01*
X109400500Y-119885305D01*
X109400500Y-119355513D01*
X109370940Y-119168881D01*
X109324406Y-119025666D01*
X109312547Y-118989168D01*
X109312545Y-118989165D01*
X109312545Y-118989163D01*
X109258121Y-118882351D01*
X109226760Y-118820801D01*
X109115690Y-118667927D01*
X108982073Y-118534310D01*
X108829199Y-118423240D01*
X108660836Y-118337454D01*
X108481118Y-118279059D01*
X108294486Y-118249500D01*
X108294481Y-118249500D01*
X108105519Y-118249500D01*
X108105514Y-118249500D01*
X107918881Y-118279059D01*
X107739163Y-118337454D01*
X107570800Y-118423240D01*
X107516880Y-118462416D01*
X107417927Y-118534310D01*
X107417925Y-118534312D01*
X107417924Y-118534312D01*
X107284312Y-118667924D01*
X107284312Y-118667925D01*
X107284310Y-118667927D01*
X107247043Y-118719220D01*
X107173240Y-118820800D01*
X107110204Y-118944515D01*
X107062229Y-118995311D01*
X106994408Y-119012106D01*
X106928273Y-118989568D01*
X106889234Y-118944515D01*
X106826329Y-118821059D01*
X106715314Y-118668258D01*
X106715310Y-118668253D01*
X106581746Y-118534689D01*
X106581741Y-118534685D01*
X106428940Y-118423670D01*
X106260635Y-118337913D01*
X106081004Y-118279549D01*
X106080995Y-118279547D01*
X106050000Y-118274637D01*
X106050000Y-119166988D01*
X105992993Y-119134075D01*
X105865826Y-119100000D01*
X105734174Y-119100000D01*
X105607007Y-119134075D01*
X105550000Y-119166988D01*
X105550000Y-118274637D01*
X105549999Y-118274637D01*
X105519004Y-118279547D01*
X105518995Y-118279549D01*
X105339364Y-118337913D01*
X105171059Y-118423670D01*
X105018258Y-118534685D01*
X105018253Y-118534689D01*
X104884689Y-118668253D01*
X104884685Y-118668258D01*
X104773668Y-118821061D01*
X104710764Y-118944516D01*
X104662790Y-118995311D01*
X104594969Y-119012106D01*
X104528834Y-118989568D01*
X104489795Y-118944515D01*
X104426760Y-118820801D01*
X104315690Y-118667927D01*
X104182073Y-118534310D01*
X104029199Y-118423240D01*
X103860836Y-118337454D01*
X103681118Y-118279059D01*
X103494486Y-118249500D01*
X103494481Y-118249500D01*
X103305519Y-118249500D01*
X103305514Y-118249500D01*
X103118881Y-118279059D01*
X102939163Y-118337454D01*
X102770800Y-118423240D01*
X102716880Y-118462416D01*
X102617927Y-118534310D01*
X102617925Y-118534312D01*
X102617924Y-118534312D01*
X102484312Y-118667924D01*
X102484312Y-118667925D01*
X102484310Y-118667927D01*
X102447043Y-118719220D01*
X102373240Y-118820800D01*
X102287454Y-118989163D01*
X102229059Y-119168881D01*
X102199500Y-119355513D01*
X82600000Y-119355513D01*
X82600000Y-80085258D01*
X99549500Y-80085258D01*
X99549500Y-80314741D01*
X99574446Y-80504215D01*
X99579452Y-80542238D01*
X99579453Y-80542240D01*
X99638842Y-80763887D01*
X99726650Y-80975876D01*
X99726657Y-80975890D01*
X99841392Y-81174617D01*
X99981081Y-81356661D01*
X99981089Y-81356670D01*
X100143330Y-81518911D01*
X100143338Y-81518918D01*
X100325382Y-81658607D01*
X100325385Y-81658608D01*
X100325388Y-81658611D01*
X100524112Y-81773344D01*
X100524117Y-81773346D01*
X100524123Y-81773349D01*
X100615480Y-81811190D01*
X100736113Y-81861158D01*
X100957762Y-81920548D01*
X101185266Y-81950500D01*
X101185273Y-81950500D01*
X101414727Y-81950500D01*
X101414734Y-81950500D01*
X101642238Y-81920548D01*
X101863887Y-81861158D01*
X102075888Y-81773344D01*
X102274612Y-81658611D01*
X102456661Y-81518919D01*
X102456665Y-81518914D01*
X102456670Y-81518911D01*
X102618911Y-81356670D01*
X102618914Y-81356665D01*
X102618919Y-81356661D01*
X102758611Y-81174612D01*
X102873344Y-80975888D01*
X102961158Y-80763887D01*
X103020548Y-80542238D01*
X103050500Y-80314734D01*
X103050500Y-80085266D01*
X103050499Y-80085258D01*
X106849500Y-80085258D01*
X106849500Y-80314741D01*
X106874446Y-80504215D01*
X106879452Y-80542238D01*
X106879453Y-80542240D01*
X106938842Y-80763887D01*
X107026650Y-80975876D01*
X107026657Y-80975890D01*
X107141392Y-81174617D01*
X107281081Y-81356661D01*
X107281089Y-81356670D01*
X107443330Y-81518911D01*
X107443338Y-81518918D01*
X107625382Y-81658607D01*
X107625385Y-81658608D01*
X107625388Y-81658611D01*
X107824112Y-81773344D01*
X107824117Y-81773346D01*
X107824123Y-81773349D01*
X107915480Y-81811190D01*
X108036113Y-81861158D01*
X108257762Y-81920548D01*
X108485266Y-81950500D01*
X108485273Y-81950500D01*
X108714727Y-81950500D01*
X108714734Y-81950500D01*
X108942238Y-81920548D01*
X109163887Y-81861158D01*
X109375888Y-81773344D01*
X109574612Y-81658611D01*
X109756661Y-81518919D01*
X109756665Y-81518914D01*
X109756670Y-81518911D01*
X109918911Y-81356670D01*
X109918914Y-81356665D01*
X109918919Y-81356661D01*
X110058611Y-81174612D01*
X110173344Y-80975888D01*
X110261158Y-80763887D01*
X110320548Y-80542238D01*
X110350500Y-80314734D01*
X110350500Y-80085266D01*
X110350499Y-80085258D01*
X119449500Y-80085258D01*
X119449500Y-80314741D01*
X119474446Y-80504215D01*
X119479452Y-80542238D01*
X119479453Y-80542240D01*
X119538842Y-80763887D01*
X119626650Y-80975876D01*
X119626657Y-80975890D01*
X119741392Y-81174617D01*
X119881081Y-81356661D01*
X119881089Y-81356670D01*
X120043330Y-81518911D01*
X120043338Y-81518918D01*
X120225382Y-81658607D01*
X120225385Y-81658608D01*
X120225388Y-81658611D01*
X120424112Y-81773344D01*
X120424117Y-81773346D01*
X120424123Y-81773349D01*
X120515480Y-81811190D01*
X120636113Y-81861158D01*
X120857762Y-81920548D01*
X121085266Y-81950500D01*
X121085273Y-81950500D01*
X121314727Y-81950500D01*
X121314734Y-81950500D01*
X121542238Y-81920548D01*
X121763887Y-81861158D01*
X121975888Y-81773344D01*
X122174612Y-81658611D01*
X122356661Y-81518919D01*
X122356665Y-81518914D01*
X122356670Y-81518911D01*
X122518911Y-81356670D01*
X122518914Y-81356665D01*
X122518919Y-81356661D01*
X122658611Y-81174612D01*
X122773344Y-80975888D01*
X122861158Y-80763887D01*
X122920548Y-80542238D01*
X122950500Y-80314734D01*
X122950500Y-80085266D01*
X122950499Y-80085258D01*
X126749500Y-80085258D01*
X126749500Y-80314741D01*
X126774446Y-80504215D01*
X126779452Y-80542238D01*
X126779453Y-80542240D01*
X126838842Y-80763887D01*
X126926650Y-80975876D01*
X126926657Y-80975890D01*
X127041392Y-81174617D01*
X127181081Y-81356661D01*
X127181089Y-81356670D01*
X127343330Y-81518911D01*
X127343338Y-81518918D01*
X127525382Y-81658607D01*
X127525385Y-81658608D01*
X127525388Y-81658611D01*
X127724112Y-81773344D01*
X127724117Y-81773346D01*
X127724123Y-81773349D01*
X127815480Y-81811190D01*
X127936113Y-81861158D01*
X128157762Y-81920548D01*
X128385266Y-81950500D01*
X128385273Y-81950500D01*
X128614727Y-81950500D01*
X128614734Y-81950500D01*
X128842238Y-81920548D01*
X129063887Y-81861158D01*
X129275888Y-81773344D01*
X129474612Y-81658611D01*
X129656661Y-81518919D01*
X129656665Y-81518914D01*
X129656670Y-81518911D01*
X129818911Y-81356670D01*
X129818914Y-81356665D01*
X129818919Y-81356661D01*
X129958611Y-81174612D01*
X130073344Y-80975888D01*
X130161158Y-80763887D01*
X130220548Y-80542238D01*
X130250500Y-80314734D01*
X130250500Y-80085266D01*
X130220548Y-79857762D01*
X130161158Y-79636113D01*
X130073344Y-79424112D01*
X129958611Y-79225388D01*
X129958608Y-79225385D01*
X129958607Y-79225382D01*
X129818918Y-79043338D01*
X129818911Y-79043330D01*
X129656670Y-78881089D01*
X129656661Y-78881081D01*
X129474617Y-78741392D01*
X129275890Y-78626657D01*
X129275876Y-78626650D01*
X129063887Y-78538842D01*
X128842238Y-78479452D01*
X128804215Y-78474446D01*
X128614741Y-78449500D01*
X128614734Y-78449500D01*
X128385266Y-78449500D01*
X128385258Y-78449500D01*
X128168715Y-78478009D01*
X128157762Y-78479452D01*
X128064076Y-78504554D01*
X127936112Y-78538842D01*
X127724123Y-78626650D01*
X127724109Y-78626657D01*
X127525382Y-78741392D01*
X127343338Y-78881081D01*
X127181081Y-79043338D01*
X127041392Y-79225382D01*
X126926657Y-79424109D01*
X126926650Y-79424123D01*
X126838842Y-79636112D01*
X126779453Y-79857759D01*
X126779451Y-79857770D01*
X126749500Y-80085258D01*
X122950499Y-80085258D01*
X122920548Y-79857762D01*
X122861158Y-79636113D01*
X122773344Y-79424112D01*
X122658611Y-79225388D01*
X122658608Y-79225385D01*
X122658607Y-79225382D01*
X122518918Y-79043338D01*
X122518911Y-79043330D01*
X122356670Y-78881089D01*
X122356661Y-78881081D01*
X122174617Y-78741392D01*
X121975890Y-78626657D01*
X121975876Y-78626650D01*
X121763887Y-78538842D01*
X121542238Y-78479452D01*
X121504215Y-78474446D01*
X121314741Y-78449500D01*
X121314734Y-78449500D01*
X121085266Y-78449500D01*
X121085258Y-78449500D01*
X120868715Y-78478009D01*
X120857762Y-78479452D01*
X120764076Y-78504554D01*
X120636112Y-78538842D01*
X120424123Y-78626650D01*
X120424109Y-78626657D01*
X120225382Y-78741392D01*
X120043338Y-78881081D01*
X119881081Y-79043338D01*
X119741392Y-79225382D01*
X119626657Y-79424109D01*
X119626650Y-79424123D01*
X119538842Y-79636112D01*
X119479453Y-79857759D01*
X119479451Y-79857770D01*
X119449500Y-80085258D01*
X110350499Y-80085258D01*
X110320548Y-79857762D01*
X110261158Y-79636113D01*
X110173344Y-79424112D01*
X110058611Y-79225388D01*
X110058608Y-79225385D01*
X110058607Y-79225382D01*
X109918918Y-79043338D01*
X109918911Y-79043330D01*
X109756670Y-78881089D01*
X109756661Y-78881081D01*
X109574617Y-78741392D01*
X109375890Y-78626657D01*
X109375876Y-78626650D01*
X109163887Y-78538842D01*
X108942238Y-78479452D01*
X108904215Y-78474446D01*
X108714741Y-78449500D01*
X108714734Y-78449500D01*
X108485266Y-78449500D01*
X108485258Y-78449500D01*
X108268715Y-78478009D01*
X108257762Y-78479452D01*
X108164076Y-78504554D01*
X108036112Y-78538842D01*
X107824123Y-78626650D01*
X107824109Y-78626657D01*
X107625382Y-78741392D01*
X107443338Y-78881081D01*
X107281081Y-79043338D01*
X107141392Y-79225382D01*
X107026657Y-79424109D01*
X107026650Y-79424123D01*
X106938842Y-79636112D01*
X106879453Y-79857759D01*
X106879451Y-79857770D01*
X106849500Y-80085258D01*
X103050499Y-80085258D01*
X103020548Y-79857762D01*
X102961158Y-79636113D01*
X102873344Y-79424112D01*
X102758611Y-79225388D01*
X102758608Y-79225385D01*
X102758607Y-79225382D01*
X102618918Y-79043338D01*
X102618911Y-79043330D01*
X102456670Y-78881089D01*
X102456661Y-78881081D01*
X102274617Y-78741392D01*
X102075890Y-78626657D01*
X102075876Y-78626650D01*
X101863887Y-78538842D01*
X101642238Y-78479452D01*
X101604215Y-78474446D01*
X101414741Y-78449500D01*
X101414734Y-78449500D01*
X101185266Y-78449500D01*
X101185258Y-78449500D01*
X100968715Y-78478009D01*
X100957762Y-78479452D01*
X100864076Y-78504554D01*
X100736112Y-78538842D01*
X100524123Y-78626650D01*
X100524109Y-78626657D01*
X100325382Y-78741392D01*
X100143338Y-78881081D01*
X99981081Y-79043338D01*
X99841392Y-79225382D01*
X99726657Y-79424109D01*
X99726650Y-79424123D01*
X99638842Y-79636112D01*
X99579453Y-79857759D01*
X99579451Y-79857770D01*
X99549500Y-80085258D01*
X82600000Y-80085258D01*
X82600000Y-78399670D01*
X82619685Y-78332631D01*
X82672489Y-78286876D01*
X82741647Y-78276932D01*
X82805203Y-78305957D01*
X82831383Y-78337665D01*
X82849751Y-78369479D01*
X82849753Y-78369481D01*
X82849755Y-78369485D01*
X83017370Y-78587926D01*
X83017376Y-78587933D01*
X83212066Y-78782623D01*
X83212072Y-78782628D01*
X83430521Y-78950249D01*
X83583778Y-79038732D01*
X83668971Y-79087919D01*
X83668976Y-79087921D01*
X83668979Y-79087923D01*
X83923368Y-79193295D01*
X84189334Y-79264560D01*
X84462326Y-79300500D01*
X84462333Y-79300500D01*
X84737667Y-79300500D01*
X84737674Y-79300500D01*
X85010666Y-79264560D01*
X85276632Y-79193295D01*
X85531021Y-79087923D01*
X85769479Y-78950249D01*
X85987928Y-78782628D01*
X86182628Y-78587928D01*
X86350249Y-78369479D01*
X86487923Y-78131021D01*
X86593295Y-77876632D01*
X86664560Y-77610666D01*
X86700500Y-77337674D01*
X86700500Y-77062326D01*
X86664560Y-76789334D01*
X86593295Y-76523368D01*
X86487923Y-76268979D01*
X86487921Y-76268976D01*
X86487919Y-76268971D01*
X86438732Y-76183778D01*
X86350249Y-76030521D01*
X86182628Y-75812072D01*
X86182623Y-75812066D01*
X85987933Y-75617376D01*
X85987926Y-75617370D01*
X85769483Y-75449754D01*
X85769482Y-75449753D01*
X85769479Y-75449751D01*
X85648525Y-75379918D01*
X85531028Y-75312080D01*
X85531016Y-75312075D01*
X85368749Y-75244861D01*
X85314346Y-75201020D01*
X85292281Y-75134726D01*
X85309560Y-75067026D01*
X85360698Y-75019416D01*
X85416475Y-75006300D01*
X169211413Y-75193761D01*
G37*
%TD.AperFunction*%
%TD*%
M02*
